<?xml version="1.0" encoding="UTF-8" standalone="no"?><!DOCTYPE svg PUBLIC "-//W3C//DTD SVG 1.1//EN" "http://www.w3.org/Graphics/SVG/1.1/DTD/svg11.dtd"><svg width="100%" height="100%" viewBox="0 0 200 200" version="1.1" xmlns="http://www.w3.org/2000/svg" xmlns:xlink="http://www.w3.org/1999/xlink" xml:space="preserve" xmlns:serif="http://www.serif.com/" style="fill-rule:evenodd;clip-rule:evenodd;stroke-linejoin:round;stroke-miterlimit:2;"><rect id="Artboard1" x="0" y="0" width="200" height="200" style="fill:none;"/><g id="Artboard11" serif:id="Artboard1"><path d="M158.333,133.333c-4.944,0 -9.778,1.467 -13.889,4.214c-4.111,2.747 -7.316,6.651 -9.208,11.219c-1.892,4.569 -2.387,9.595 -1.422,14.444c0.964,4.85 3.345,9.305 6.842,12.801c3.496,3.497 7.951,5.877 12.8,6.842c4.849,0.965 9.876,0.47 14.444,-1.423c4.569,-1.892 8.473,-5.096 11.22,-9.207c2.747,-4.112 4.213,-8.945 4.213,-13.89c0,-6.63 -2.633,-12.989 -7.322,-17.677c-4.689,-4.689 -11.047,-7.323 -17.678,-7.323Zm0,33.334c-1.648,-0 -3.259,-0.489 -4.629,-1.405c-1.371,-0.915 -2.439,-2.217 -3.07,-3.739c-0.63,-1.523 -0.795,-3.199 -0.474,-4.815c0.322,-1.617 1.115,-3.102 2.281,-4.267c1.165,-1.166 2.65,-1.959 4.266,-2.281c1.617,-0.321 3.293,-0.156 4.815,0.474c1.523,0.631 2.825,1.699 3.74,3.07c0.916,1.37 1.405,2.981 1.405,4.629c-0,2.21 -0.878,4.33 -2.441,5.893c-1.563,1.563 -3.683,2.441 -5.893,2.441Zm-83.333,-33.334c-4.945,0 -9.778,1.467 -13.889,4.214c-4.111,2.747 -7.316,6.651 -9.208,11.219c-1.892,4.569 -2.387,9.595 -1.423,14.444c0.965,4.85 3.346,9.305 6.842,12.801c3.497,3.497 7.951,5.877 12.801,6.842c4.849,0.965 9.876,0.47 14.444,-1.423c4.568,-1.892 8.473,-5.096 11.22,-9.207c2.747,-4.112 4.213,-8.945 4.213,-13.89c-0,-6.63 -2.634,-12.989 -7.323,-17.677c-4.688,-4.689 -11.047,-7.323 -17.677,-7.323Zm-0,33.334c-1.648,-0 -3.259,-0.489 -4.63,-1.405c-1.37,-0.915 -2.438,-2.217 -3.069,-3.739c-0.631,-1.523 -0.796,-3.199 -0.474,-4.815c0.321,-1.617 1.115,-3.102 2.28,-4.267c1.166,-1.166 2.651,-1.959 4.267,-2.281c1.617,-0.321 3.292,-0.156 4.815,0.474c1.523,0.631 2.824,1.699 3.74,3.07c0.916,1.37 1.404,2.981 1.404,4.629c0,2.21 -0.878,4.33 -2.441,5.893c-1.562,1.563 -3.682,2.441 -5.892,2.441Zm108.333,-95.834c-0.022,-14.359 -5.736,-28.123 -15.889,-38.277c-10.154,-10.153 -23.918,-15.867 -38.277,-15.889l-4.167,-0c-2.21,-0 -4.33,0.878 -5.893,2.44c-1.562,1.563 -2.44,3.683 -2.44,5.893l-0,41.667l-54,-0l-10.417,-27.917c-0.596,-1.595 -1.666,-2.969 -3.067,-3.938c-1.4,-0.968 -3.064,-1.484 -4.766,-1.479l-19.417,0c-2.21,0 -4.33,0.878 -5.893,2.441c-1.562,1.563 -2.44,3.683 -2.44,5.893c-0,2.21 0.878,4.329 2.44,5.892c1.563,1.563 3.683,2.441 5.893,2.441l13.667,0l10.416,28.083l4.25,11.417l0,0.75c3.882,10.309 10.843,19.174 19.937,25.391c9.095,6.217 19.881,9.484 30.897,9.359l25,0c7.116,0.011 14.165,-1.382 20.741,-4.101c6.577,-2.718 12.553,-6.708 17.585,-11.739c5.032,-5.032 9.021,-11.008 11.739,-17.585c2.719,-6.577 4.112,-13.625 4.101,-20.742Zm-27.666,26.5c-3.471,3.495 -7.6,6.266 -12.149,8.154c-4.548,1.888 -9.426,2.856 -14.351,2.846l-25,0c-7.45,0.023 -14.734,-2.188 -20.914,-6.347c-6.179,-4.16 -10.97,-10.076 -13.753,-16.986c-0.036,-0.165 -0.036,-0.335 -0,-0.5l-0.667,-1.167l95.667,0c-1.817,5.29 -4.841,10.083 -8.833,14Zm-22.334,-30.666l0,-33.334c8.537,0.891 16.507,4.689 22.577,10.757c6.068,6.07 9.866,14.04 10.757,22.577l-33.334,-0Z" style="fill:#101117;fill-rule:nonzero;"/></g></svg>