<svg width="48" height="48" viewBox="0 0 48 48" fill="none" xmlns="http://www.w3.org/2000/svg">
<path d="M38 32C36.8133 32 35.6533 32.3519 34.6666 33.0112C33.6799 33.6705 32.9108 34.6075 32.4567 35.7039C32.0026 36.8003 31.8838 38.0067 32.1153 39.1705C32.3468 40.3344 32.9182 41.4035 33.7574 42.2426C34.5965 43.0818 35.6656 43.6532 36.8295 43.8847C37.9933 44.1162 39.1997 43.9974 40.2961 43.5433C41.3925 43.0892 42.3295 42.3201 42.9888 41.3334C43.6481 40.3467 44 39.1867 44 38C44 36.4087 43.3679 34.8826 42.2426 33.7574C41.1174 32.6321 39.5913 32 38 32ZM38 40C37.6044 40 37.2178 39.8827 36.8889 39.6629C36.56 39.4432 36.3036 39.1308 36.1522 38.7654C36.0009 38.3999 35.9613 37.9978 36.0384 37.6098C36.1156 37.2219 36.3061 36.8655 36.5858 36.5858C36.8655 36.3061 37.2219 36.1156 37.6098 36.0384C37.9978 35.9613 38.3999 36.0009 38.7654 36.1522C39.1308 36.3036 39.4432 36.56 39.6629 36.8889C39.8827 37.2178 40 37.6044 40 38C40 38.5304 39.7893 39.0391 39.4142 39.4142C39.0391 39.7893 38.5304 40 38 40ZM18 32C16.8133 32 15.6533 32.3519 14.6666 33.0112C13.6799 33.6705 12.9108 34.6075 12.4567 35.7039C12.0026 36.8003 11.8838 38.0067 12.1153 39.1705C12.3468 40.3344 12.9182 41.4035 13.7574 42.2426C14.5965 43.0818 15.6656 43.6532 16.8295 43.8847C17.9933 44.1162 19.1997 43.9974 20.2961 43.5433C21.3925 43.0892 22.3295 42.3201 22.9888 41.3334C23.6481 40.3467 24 39.1867 24 38C24 36.4087 23.3679 34.8826 22.2426 33.7574C21.1174 32.6321 19.5913 32 18 32ZM18 40C17.6044 40 17.2178 39.8827 16.8889 39.6629C16.56 39.4432 16.3036 39.1308 16.1522 38.7654C16.0009 38.3999 15.9613 37.9978 16.0384 37.6098C16.1156 37.2219 16.3061 36.8655 16.5858 36.5858C16.8655 36.3061 17.2219 36.1156 17.6098 36.0384C17.9978 35.9613 18.3999 36.0009 18.7654 36.1522C19.1308 36.3036 19.4432 36.56 19.6629 36.8889C19.8827 37.2178 20 37.6044 20 38C20 38.5304 19.7893 39.0391 19.4142 39.4142C19.0391 39.7893 18.5304 40 18 40ZM44 17C43.9947 13.5538 42.6234 10.2503 40.1865 7.81345C37.7497 5.37663 34.4462 4.00529 31 4H30C29.4696 4 28.9609 4.21071 28.5858 4.58579C28.2107 4.96086 28 5.46957 28 6V16H15.04L12.54 9.3C12.397 8.9172 12.1401 8.5874 11.804 8.35498C11.4679 8.12256 11.0686 7.99867 10.66 8H6C5.46957 8 4.96086 8.21071 4.58579 8.58579C4.21071 8.96086 4 9.46957 4 10C4 10.5304 4.21071 11.0391 4.58579 11.4142C4.96086 11.7893 5.46957 12 6 12H9.28L11.78 18.74L12.8 21.48V21.66C13.7317 24.1342 15.4023 26.2617 17.5849 27.7538C19.7675 29.2458 22.3563 30.03 25 30H31C32.7079 30.0026 34.3996 29.6682 35.978 29.0158C37.5564 28.3634 38.9906 27.4059 40.1983 26.1983C41.4059 24.9906 42.3634 23.5564 43.0158 21.978C43.6682 20.3996 44.0026 18.7079 44 17ZM37.36 23.36C36.5271 24.1986 35.5361 24.8638 34.4444 25.3169C33.3527 25.7701 32.182 26.0022 31 26H25C23.2122 26.0055 21.4639 25.4748 19.9808 24.4766C18.4977 23.4783 17.3479 22.0583 16.68 20.4C16.6713 20.3605 16.6713 20.3195 16.68 20.28L16.52 20H39.48C39.0439 21.2695 38.3181 22.4199 37.36 23.36ZM32 16V8C34.0487 8.21368 35.9617 9.1252 37.4183 10.5817C38.8748 12.0383 39.7863 13.9513 40 16H32Z" fill="#101117"/>
</svg>
