<svg width="48" height="48" viewBox="0 0 48 48" fill="none" xmlns="http://www.w3.org/2000/svg">
<path d="M26 20H22C21.4696 20 20.9609 20.2107 20.5858 20.5858C20.2107 20.9609 20 21.4696 20 22C20 22.5304 20.2107 23.0391 20.5858 23.4142C20.9609 23.7893 21.4696 24 22 24H26C26.5304 24 27.0391 23.7893 27.4142 23.4142C27.7893 23.0391 28 22.5304 28 22C28 21.4696 27.7893 20.9609 27.4142 20.5858C27.0391 20.2107 26.5304 20 26 20ZM36 20C35.9943 18.2309 35.4023 16.5136 34.3166 15.1167C33.231 13.7199 31.7129 12.7223 30 12.28V10C30 8.4087 29.3679 6.88258 28.2426 5.75736C27.1174 4.63214 25.5913 4 24 4C22.4087 4 20.8826 4.63214 19.7574 5.75736C18.6321 6.88258 18 8.4087 18 10V12.28C16.2871 12.7223 14.769 13.7199 13.6834 15.1167C12.5977 16.5136 12.0057 18.2309 12 20C9.87827 20 7.84344 20.8429 6.34315 22.3431C4.84285 23.8434 4 25.8783 4 28V34C4 35.5913 4.63214 37.1174 5.75736 38.2426C6.88258 39.3679 8.4087 40 10 40H12.36C12.7726 41.1671 13.5361 42.178 14.5459 42.8941C15.5556 43.6102 16.7621 43.9965 18 44H30C31.2379 43.9965 32.4444 43.6102 33.4541 42.8941C34.4639 42.178 35.2274 41.1671 35.64 40H38C39.5913 40 41.1174 39.3679 42.2426 38.2426C43.3679 37.1174 44 35.5913 44 34V28C44 25.8783 43.1571 23.8434 41.6569 22.3431C40.1566 20.8429 38.1217 20 36 20ZM12 36H10C9.46957 36 8.96086 35.7893 8.58579 35.4142C8.21071 35.0391 8 34.5304 8 34V28C8 26.9391 8.42143 25.9217 9.17157 25.1716C9.92172 24.4214 10.9391 24 12 24V36ZM22 10C22 9.46957 22.2107 8.96086 22.5858 8.58579C22.9609 8.21071 23.4696 8 24 8C24.5304 8 25.0391 8.21071 25.4142 8.58579C25.7893 8.96086 26 9.46957 26 10V12H22V10ZM32 38C32 38.5304 31.7893 39.0391 31.4142 39.4142C31.0391 39.7893 30.5304 40 30 40H18C17.4696 40 16.9609 39.7893 16.5858 39.4142C16.2107 39.0391 16 38.5304 16 38V36C16 34.9391 16.4214 33.9217 17.1716 33.1716C17.9217 32.4214 18.9391 32 20 32H28C29.0609 32 30.0783 32.4214 30.8284 33.1716C31.5786 33.9217 32 34.9391 32 36V38ZM32 29.12C30.792 28.3929 29.4099 28.0059 28 28H20C18.5901 28.0059 17.208 28.3929 16 29.12V20C16 18.9391 16.4214 17.9217 17.1716 17.1716C17.9217 16.4214 18.9391 16 20 16H28C29.0609 16 30.0783 16.4214 30.8284 17.1716C31.5786 17.9217 32 18.9391 32 20V29.12ZM40 34C40 34.5304 39.7893 35.0391 39.4142 35.4142C39.0391 35.7893 38.5304 36 38 36H36V24C37.0609 24 38.0783 24.4214 38.8284 25.1716C39.5786 25.9217 40 26.9391 40 28V34Z" fill="#101117"/>
</svg>
