<svg width="48" height="48" viewBox="0 0 48 48" fill="none" xmlns="http://www.w3.org/2000/svg">
<path d="M45.9285 27.6453C45.9205 27.5276 45.9017 27.411 45.8721 27.2969L41.2627 15.0227C42.1016 14.4801 42.7914 13.7364 43.2695 12.8591C43.7476 11.9819 43.9987 10.999 44 10C44 9.46957 43.7893 8.96086 43.4142 8.58579C43.0391 8.21071 42.5304 8 42 8C41.4696 8 40.9609 8.21071 40.5858 8.58579C40.2107 8.96086 40 9.46957 40 10C39.9998 10.4457 39.8509 10.8786 39.5767 11.23C39.3026 11.5814 38.9189 11.8312 38.4866 11.9397C38.0544 12.0483 37.5982 12.0094 37.1906 11.8293C36.7829 11.6491 36.4471 11.338 36.2363 10.9453C35.7231 10.0343 34.9727 9.27944 34.0648 8.76083C33.1568 8.24223 32.1254 7.9793 31.08 8H26V6C26 5.46957 25.7893 4.96086 25.4142 4.58579C25.0391 4.21071 24.5304 4 24 4C23.4696 4 22.9609 4.21071 22.5858 4.58579C22.2107 4.96086 22 5.46957 22 6V8H16.92C15.8746 7.9793 14.8432 8.24223 13.9352 8.76083C13.0273 9.27944 12.2769 10.0343 11.7637 10.9453C11.5529 11.338 11.2171 11.6491 10.8094 11.8293C10.4018 12.0094 9.94562 12.0483 9.51335 11.9397C9.08109 11.8312 8.69745 11.5814 8.42329 11.23C8.14914 10.8786 8.00016 10.4457 8 10C8 9.46957 7.78929 8.96086 7.41421 8.58579C7.03914 8.21071 6.53043 8 6 8C5.46957 8 4.96086 8.21071 4.58579 8.58579C4.21071 8.96086 4 9.46957 4 10C4.00131 10.999 4.25243 11.9819 4.73051 12.8591C5.20858 13.7364 5.89844 14.4801 6.7373 15.0227L2.128 27.2969C2.09841 27.411 2.07954 27.5276 2.07162 27.6453C2.0365 27.761 2.01251 27.8797 2 28C2 28.0186 2.00538 28.0356 2.0055 28.0542C2.0061 28.0806 2.0115 28.1049 2.0133 28.1311C2.04444 30.2288 2.89959 32.23 4.394 33.7024C5.88841 35.1748 7.9021 36.0001 10 36.0001C12.0979 36.0001 14.1116 35.1748 15.606 33.7024C17.1004 32.23 17.9556 30.2288 17.9867 28.1311C17.9884 28.1049 17.9939 28.0806 17.9945 28.0542C17.9946 28.0356 18 28.0186 18 28C17.9875 27.8797 17.9636 27.761 17.9285 27.6453C17.9205 27.5276 17.9017 27.411 17.8721 27.2969L13.2573 15.0084C14.1048 14.4675 14.8023 13.7217 15.2852 12.8398C15.4597 12.5684 15.7027 12.3478 15.9898 12.2003C16.2768 12.0529 16.5977 11.9838 16.92 12H22V40H16C15.4696 40 14.9609 40.2107 14.5858 40.5858C14.2107 40.9609 14 41.4696 14 42C14 42.5304 14.2107 43.0391 14.5858 43.4142C14.9609 43.7893 15.4696 44 16 44H32C32.5304 44 33.0391 43.7893 33.4142 43.4142C33.7893 43.0391 34 42.5304 34 42C34 41.4696 33.7893 40.9609 33.4142 40.5858C33.0391 40.2107 32.5304 40 32 40H26V12H31.08C31.4023 11.9838 31.7231 12.0529 32.0102 12.2004C32.2972 12.3478 32.5402 12.5684 32.7148 12.8398C33.1976 13.7217 33.8951 14.4675 34.7426 15.0084L30.128 27.2969C30.0984 27.411 30.0795 27.5276 30.0716 27.6453C30.0365 27.761 30.0125 27.8797 30 28C30 28.0186 30.0054 28.0356 30.0055 28.0542C30.0061 28.0806 30.0115 28.1049 30.0133 28.1311C30.0444 30.2288 30.8996 32.23 32.394 33.7024C33.8884 35.1748 35.9021 36.0001 38 36.0001C40.0979 36.0001 42.1116 35.1748 43.606 33.7024C45.1004 32.23 45.9556 30.2288 45.9867 28.1311C45.9884 28.1049 45.9939 28.0806 45.9945 28.0542C45.9946 28.0356 46 28.0186 46 28C45.9875 27.8797 45.9636 27.761 45.9285 27.6453ZM10 17.7111L13.1128 26H6.8872L10 17.7111ZM13.4453 30C13.0924 30.6023 12.5896 31.1029 11.9859 31.4534C11.3821 31.8039 10.698 31.9922 10 32C9.29807 31.9997 8.60856 31.8148 8.00072 31.4637C7.39288 31.1127 6.88811 30.6079 6.5371 30H13.4453ZM38 17.7111L41.1128 26H34.8872L38 17.7111ZM38 32C37.2981 31.9997 36.6086 31.8148 36.0007 31.4637C35.3929 31.1127 34.8881 30.6079 34.5371 30H41.4453C41.0924 30.6023 40.5896 31.1029 39.9859 31.4534C39.3821 31.8039 38.698 31.9922 38 32Z" fill="#101117"/>
</svg>
