<?xml version="1.0" encoding="UTF-8" standalone="no"?><!DOCTYPE svg PUBLIC "-//W3C//DTD SVG 1.1//EN" "http://www.w3.org/Graphics/SVG/1.1/DTD/svg11.dtd"><svg width="100%" height="100%" viewBox="0 0 200 200" version="1.1" xmlns="http://www.w3.org/2000/svg" xmlns:xlink="http://www.w3.org/1999/xlink" xml:space="preserve" xmlns:serif="http://www.serif.com/" style="fill-rule:evenodd;clip-rule:evenodd;stroke-linejoin:round;stroke-miterlimit:2;"><rect id="Artboard1" x="0" y="0" width="200" height="200" style="fill:none;"/><g id="Artboard11" serif:id="Artboard1"><path d="M183.063,113.808c-0.031,-0.446 -0.102,-0.888 -0.214,-1.32l-17.46,-46.493c3.178,-2.055 5.791,-4.872 7.602,-8.195c1.811,-3.323 2.762,-7.046 2.767,-10.83c-0,-2.01 -0.799,-3.936 -2.219,-5.357c-1.421,-1.421 -3.348,-2.219 -5.357,-2.219c-2.009,-0 -3.936,0.798 -5.357,2.219c-1.421,1.421 -2.219,3.347 -2.219,5.357c-0.001,1.688 -0.565,3.328 -1.603,4.659c-1.039,1.331 -2.492,2.277 -4.13,2.688c-1.637,0.411 -3.365,0.264 -4.909,-0.418c-1.544,-0.683 -2.816,-1.861 -3.614,-3.349c-1.944,-3.45 -4.787,-6.31 -8.226,-8.274c-3.439,-1.965 -7.346,-2.96 -11.306,-2.882l-19.242,-0l-0,-7.576c-0,-2.009 -0.798,-3.936 -2.219,-5.357c-1.421,-1.42 -3.348,-2.219 -5.357,-2.219c-2.009,0 -3.936,0.799 -5.357,2.219c-1.421,1.421 -2.219,3.348 -2.219,5.357l0,7.576l-19.242,-0c-3.96,-0.078 -7.867,0.917 -11.306,2.882c-3.439,1.964 -6.282,4.824 -8.226,8.274c-0.798,1.488 -2.07,2.666 -3.614,3.349c-1.544,0.682 -3.272,0.829 -4.91,0.418c-1.637,-0.411 -3.09,-1.357 -4.129,-2.688c-1.038,-1.331 -1.602,-2.971 -1.603,-4.659c-0,-2.01 -0.798,-3.936 -2.219,-5.357c-1.421,-1.421 -3.348,-2.219 -5.357,-2.219c-2.009,-0 -3.936,0.798 -5.357,2.219c-1.42,1.421 -2.219,3.347 -2.219,5.357c0.005,3.784 0.957,7.507 2.768,10.83c1.81,3.323 4.423,6.14 7.601,8.195l-17.459,46.493c-0.113,0.432 -0.184,0.874 -0.214,1.32c-0.133,0.438 -0.224,0.888 -0.271,1.344c-0,0.07 0.02,0.134 0.02,0.205c0.003,0.1 0.023,0.192 0.03,0.291c0.118,7.946 3.357,15.526 9.018,21.104c5.66,5.577 13.288,8.703 21.235,8.703c7.946,-0 15.574,-3.126 21.235,-8.703c5.66,-5.578 8.9,-13.158 9.017,-21.104c0.007,-0.099 0.028,-0.191 0.03,-0.291c0,-0.071 0.021,-0.135 0.021,-0.205c-0.048,-0.456 -0.138,-0.906 -0.271,-1.344c-0.03,-0.446 -0.102,-0.888 -0.214,-1.32l-17.48,-46.547c3.21,-2.049 5.852,-4.874 7.681,-8.214c0.661,-1.029 1.582,-1.864 2.669,-2.423c1.087,-0.558 2.303,-0.82 3.524,-0.759l19.242,0l0,106.061l-22.727,0c-2.009,0 -3.936,0.798 -5.357,2.219c-1.421,1.421 -2.219,3.348 -2.219,5.357c0,2.009 0.798,3.936 2.219,5.357c1.421,1.42 3.348,2.219 5.357,2.219l60.606,-0c2.009,-0 3.936,-0.799 5.357,-2.219c1.421,-1.421 2.219,-3.348 2.219,-5.357c-0,-2.009 -0.798,-3.936 -2.219,-5.357c-1.421,-1.421 -3.348,-2.219 -5.357,-2.219l-22.727,0l-0,-106.061l19.242,0c1.221,-0.061 2.436,0.201 3.524,0.76c1.087,0.558 2.007,1.393 2.669,2.422c1.828,3.34 4.47,6.165 7.681,8.214l-17.48,46.547c-0.112,0.432 -0.184,0.874 -0.214,1.32c-0.132,0.438 -0.223,0.888 -0.271,1.344c0,0.07 0.021,0.134 0.021,0.205c0.002,0.1 0.023,0.192 0.03,0.291c0.117,7.946 3.357,15.526 9.017,21.104c5.661,5.577 13.289,8.703 21.235,8.703c7.947,-0 15.575,-3.126 21.235,-8.703c5.661,-5.578 8.9,-13.158 9.018,-21.104c0.006,-0.099 0.027,-0.191 0.029,-0.291c0.001,-0.071 0.021,-0.135 0.021,-0.205c-0.047,-0.456 -0.138,-0.906 -0.27,-1.344Zm-136.093,-37.63l11.791,31.398l-23.582,-0l11.791,-31.398Zm13.05,46.549c-1.337,2.282 -3.241,4.178 -5.528,5.506c-2.287,1.327 -4.878,2.04 -7.522,2.07c-2.659,-0.001 -5.271,-0.701 -7.573,-2.031c-2.303,-1.33 -4.215,-3.242 -5.544,-5.545l26.167,0Zm93.01,-46.549l11.791,31.398l-23.582,-0l11.791,-31.398Zm0,54.125c-2.658,-0.001 -5.27,-0.701 -7.573,-2.031c-2.302,-1.33 -4.214,-3.242 -5.544,-5.545l26.168,0c-1.337,2.282 -3.242,4.178 -5.528,5.506c-2.287,1.327 -4.879,2.04 -7.523,2.07Z" style="fill:#101117;fill-rule:nonzero;"/></g></svg>