<svg width="48" height="48" viewBox="0 0 48 48" fill="none" xmlns="http://www.w3.org/2000/svg">
<path d="M36 26.36V20C35.9971 17.1662 34.9915 14.4249 33.1612 12.2615C31.3309 10.0982 28.7941 8.65229 26 8.18V6C26 5.46957 25.7893 4.96086 25.4142 4.58579C25.0391 4.21071 24.5304 4 24 4C23.4696 4 22.9609 4.21071 22.5858 4.58579C22.2107 4.96086 22 5.46957 22 6V8.18C19.2059 8.65229 16.669 10.0982 14.8388 12.2615C13.0085 14.4249 12.0029 17.1662 12 20V26.36C10.8329 26.7726 9.822 27.5361 9.10588 28.5459C8.38976 29.5556 8.00348 30.7621 8 32V36C8 36.5304 8.21071 37.0391 8.58579 37.4142C8.96086 37.7893 9.46957 38 10 38H16.28C16.7406 39.6947 17.746 41.1908 19.1412 42.2575C20.5364 43.3241 22.2438 43.902 24 43.902C25.7562 43.902 27.4636 43.3241 28.8588 42.2575C30.254 41.1908 31.2594 39.6947 31.72 38H38C38.5304 38 39.0391 37.7893 39.4142 37.4142C39.7893 37.0391 40 36.5304 40 36V32C39.9965 30.7621 39.6102 29.5556 38.8941 28.5459C38.178 27.5361 37.1671 26.7726 36 26.36ZM16 20C16 17.8783 16.8429 15.8434 18.3431 14.3431C19.8434 12.8429 21.8783 12 24 12C26.1217 12 28.1566 12.8429 29.6569 14.3431C31.1571 15.8434 32 17.8783 32 20V26H16V20ZM24 40C23.3019 39.9958 22.6171 39.809 22.0137 39.4581C21.4102 39.1072 20.909 38.6046 20.56 38H27.44C27.091 38.6046 26.5898 39.1072 25.9863 39.4581C25.3829 39.809 24.6981 39.9958 24 40ZM36 34H12V32C12 31.4696 12.2107 30.9609 12.5858 30.5858C12.9609 30.2107 13.4696 30 14 30H34C34.5304 30 35.0391 30.2107 35.4142 30.5858C35.7893 30.9609 36 31.4696 36 32V34Z" fill="#101117"/>
</svg>
