<?xml version="1.0" encoding="UTF-8" standalone="no"?><!DOCTYPE svg PUBLIC "-//W3C//DTD SVG 1.1//EN" "http://www.w3.org/Graphics/SVG/1.1/DTD/svg11.dtd"><svg width="100%" height="100%" viewBox="0 0 200 200" version="1.1" xmlns="http://www.w3.org/2000/svg" xmlns:xlink="http://www.w3.org/1999/xlink" xml:space="preserve" xmlns:serif="http://www.serif.com/" style="fill-rule:evenodd;clip-rule:evenodd;stroke-linejoin:round;stroke-miterlimit:2;"><rect id="Artboard1" x="0" y="0" width="200" height="200" style="fill:none;"/><g id="Artboard11" serif:id="Artboard1"><path d="M150.123,110.062l-0,-26.565c-0.012,-11.836 -4.213,-23.287 -11.858,-32.323c-7.645,-9.036 -18.241,-15.075 -29.911,-17.048l-0,-9.106c-0,-2.215 -0.88,-4.34 -2.447,-5.907c-1.567,-1.566 -3.692,-2.446 -5.907,-2.446c-2.215,-0 -4.34,0.88 -5.907,2.446c-1.567,1.567 -2.447,3.692 -2.447,5.907l0,9.106c-11.67,1.973 -22.267,8.012 -29.911,17.048c-7.645,9.036 -11.846,20.487 -11.858,32.323l0,26.565c-4.875,1.724 -9.097,4.913 -12.088,9.13c-2.991,4.218 -4.605,9.257 -4.619,14.428l-0,16.707c-0,2.216 0.88,4.341 2.446,5.907c1.567,1.567 3.692,2.447 5.907,2.447l26.231,0c1.924,7.079 6.124,13.328 11.951,17.783c5.828,4.456 12.96,6.869 20.295,6.869c7.335,0 14.467,-2.413 20.295,-6.869c5.827,-4.455 10.027,-10.704 11.951,-17.783l26.231,0c2.215,0 4.34,-0.88 5.907,-2.447c1.566,-1.566 2.446,-3.691 2.446,-5.907l0,-16.707c-0.014,-5.171 -1.628,-10.21 -4.619,-14.428c-2.991,-4.217 -7.213,-7.406 -12.088,-9.13Zm-83.538,-26.565c-0,-8.862 3.521,-17.362 9.787,-23.628c6.266,-6.266 14.766,-9.787 23.628,-9.787c8.862,-0 17.362,3.521 23.628,9.787c6.266,6.266 9.787,14.766 9.787,23.628l0,25.061l-66.83,0l-0,-25.061Zm33.415,83.538c-2.916,-0.017 -5.776,-0.798 -8.297,-2.263c-2.52,-1.466 -4.614,-3.565 -6.072,-6.091l28.738,0c-1.458,2.526 -3.552,4.625 -6.072,6.091c-2.521,1.465 -5.381,2.246 -8.297,2.263Zm50.123,-25.061l-100.246,-0l0,-8.354c0,-2.216 0.88,-4.34 2.447,-5.907c1.567,-1.567 3.692,-2.447 5.907,-2.447l83.538,0c2.215,0 4.34,0.88 5.907,2.447c1.567,1.567 2.447,3.691 2.447,5.907l-0,8.354Z" style="fill:#101117;fill-rule:nonzero;"/></g></svg>