<?xml version="1.0" encoding="UTF-8"?>
<!DOCTYPE svg PUBLIC "-//W3C//DTD SVG 1.1//EN" "http://www.w3.org/Graphics/SVG/1.1/DTD/svg11.dtd">
<!-- Creator: CorelDRAW -->
<svg xmlns="http://www.w3.org/2000/svg" xml:space="preserve" width="7.11111in" height="7.11111in" version="1.1" style="shape-rendering:geometricPrecision; text-rendering:geometricPrecision; image-rendering:optimizeQuality; fill-rule:evenodd; clip-rule:evenodd"
viewBox="0 0 7111 7111"
 xmlns:xlink="http://www.w3.org/1999/xlink">
 <defs>
  <style type="text/css">
   <![CDATA[
    .fil0 {fill:black}
   ]]>
  </style>
 </defs>
 <g id="Layer_x0020_1">
  <metadata id="CorelCorpID_0Corel-Layer"/>
  <path class="fil0" d="M2598 3598c0,-436 150,-847 421,-1174 -458,64 -885,26 -1249,-98 -262,-89 -436,-202 -520,-265 -584,198 -1044,465 -1064,477 -80,47 -184,-9 -183,-106 1,-997 813,-1807 1809,-1807l1606 0c166,-109 365,-173 578,-173 581,0 1054,474 1054,1055 0,158 -34,309 -101,450 -11,68 -57,390 24,817 122,638 457,1196 994,1658 43,30 297,208 556,452 388,366 585,690 585,964 0,43 -54,222 -202,310 -39,22 -94,44 -165,47 -57,221 -282,352 -505,315 -220,242 -682,155 -798,-166l-5314 0c-67,0 -121,-54 -121,-121l0 -488c0,-66 54,-120 121,-120l3579 0 0 -337c-655,-287 -1105,-944 -1105,-1690zm3325 1099c-110,149 -240,278 -385,386 26,216 102,849 116,1129 11,217 343,273 426,114 29,-55 94,-80 152,-57 127,51 292,-30 281,-189 -6,-84 73,-148 154,-125 71,21 105,1 116,-6 49,-28 74,-91 83,-117 -17,-378 -615,-894 -943,-1135zm-611 528c-167,89 -347,153 -536,187l0 213 582 0c-17,-149 -33,-292 -46,-400zm-777 215c-203,10 -402,-13 -590,-66l0 251 590 0 0 -185zm1094 -764c-802,19 -1537,-471 -1782,-1249 -131,309 -333,581 -910,723 226,613 815,1051 1505,1051 453,0 884,-191 1187,-525zm-224 1436c-5,-72 -13,-157 -22,-246l-5138 0 0 246 5160 0zm-4457 -4200c-29,-206 -145,-390 -319,-505 -195,225 -328,506 -370,816 158,-83 401,-200 689,-311zm-144 -678c195,145 329,357 375,595 552,-183 1208,-323 1778,-138 -52,-297 24,-594 201,-825l-1346 0c-383,0 -735,139 -1008,368zm2360 922c-40,-51 -75,-106 -105,-163 -430,-217 -993,-163 -1506,-25 392,217 947,317 1611,188zm312 -24c60,49 59,142 -4,191 -494,376 -723,992 -601,1595 703,-170 721,-528 905,-987 135,-345 351,-740 964,-1097 46,-103 69,-213 69,-327 0,-448 -365,-813 -813,-813 -449,0 -814,365 -814,813 0,242 107,470 294,625zm520 -173c-249,0 -452,-203 -452,-452 0,-249 203,-451 452,-451 248,0 451,202 451,451 0,249 -203,452 -451,452zm0 -662c-116,0 -211,94 -211,210 0,116 95,210 211,210 115,0 210,-94 210,-210 0,-116 -95,-210 -210,-210zm691 856c-403,278 -567,570 -677,844 62,834 755,1450 1603,1437 -708,-706 -960,-1559 -926,-2281z"/>
 </g>
</svg>
