<?xml version="1.0" encoding="UTF-8" standalone="no"?><!DOCTYPE svg PUBLIC "-//W3C//DTD SVG 1.1//EN" "http://www.w3.org/Graphics/SVG/1.1/DTD/svg11.dtd"><svg width="100%" height="100%" viewBox="0 0 200 200" version="1.1" xmlns="http://www.w3.org/2000/svg" xmlns:xlink="http://www.w3.org/1999/xlink" xml:space="preserve" xmlns:serif="http://www.serif.com/" style="fill-rule:evenodd;clip-rule:evenodd;stroke-linejoin:round;stroke-miterlimit:2;"><rect id="Artboard1" x="0" y="0" width="200" height="200" style="fill:none;"/><g id="Artboard11" serif:id="Artboard1"><path d="M76.436,100.983c-0,-9.159 2.776,-17.856 7.854,-25.13c-9.455,0.871 -18.265,-0.135 -25.901,-2.736c-5.635,-1.915 -9.56,-4.299 -11.746,-5.85c-12.936,4.477 -23.026,10.33 -23.473,10.598l-0.012,0.007c-2.838,1.667 -6.526,-0.319 -6.491,-3.746c0.024,-23.796 19.404,-43.129 43.176,-43.129c0,0 36.546,0 36.543,0.002c3.983,-2.517 8.711,-3.986 13.76,-3.986c14.214,-0 25.787,11.596 25.787,25.81c-0,3.792 -0.801,7.419 -2.38,10.822c-0.291,1.902 -1.159,8.908 0.58,18.077c2.743,14.344 10.28,26.883 22.325,37.267c1.138,0.795 6.976,4.908 12.927,10.515c9.345,8.814 13.948,16.703 13.948,23.302c0,1.164 -1.385,6.057 -5.391,8.439c-0.01,0.006 -0.02,0.011 -0.03,0.017c-0.852,0.481 -1.985,0.962 -3.398,1.172c-1.812,4.974 -6.952,7.965 -12.224,7.444c-2.89,2.731 -7.057,3.617 -10.937,2.838c-3.794,-0.762 -7.28,-3.106 -9,-6.745l-121.388,0c-2.38,0 -4.298,-1.918 -4.298,-4.297l-0,-11.24c-0,-2.348 1.914,-4.275 4.298,-4.275c-0,0 80.922,0 80.922,0c-0,0 -0,-5.276 0.001,-5.275c-15.132,-7.046 -25.452,-22.453 -25.452,-39.901Zm-37.396,-54.438c3.548,3.112 6.1,7.197 7.324,11.747c11.931,-3.81 25.723,-6.523 38.059,-3.327c-0.453,-5.461 0.832,-10.823 3.572,-15.395l-28.152,-0c-7.792,-0 -15.003,2.608 -20.803,6.975Zm85.442,24.189c-7.067,5.522 -10.273,11.233 -12.479,16.646c1.435,17.027 14.821,29.846 31.73,31.226c-13.749,-15.032 -19.229,-32.511 -19.251,-47.872Zm-25.357,-4.686l0.008,0.007c2.116,1.736 2.099,5.022 -0.129,6.755l-0.012,0.009c-10.484,7.98 -15.565,20.852 -13.559,33.662c13.938,-3.892 14.335,-11.669 18.241,-21.417c3.17,-8.098 8.214,-17.365 22.417,-25.764c0.847,-2.051 1.269,-4.227 1.269,-6.477c0,-9.486 -7.728,-17.215 -17.214,-17.215c-9.508,0 -17.238,7.728 -17.238,17.215c0,5.12 2.263,9.943 6.217,13.225Zm11.021,-1.304c-6.567,0 -11.922,-5.354 -11.922,-11.921c0,-6.569 5.354,-11.899 11.922,-11.899c6.543,0 11.898,5.33 11.898,11.899c0,6.568 -5.356,11.921 -11.898,11.921Zm-0,-15.247c-1.839,-0 -3.349,1.486 -3.349,3.326c-0,1.839 1.51,3.326 3.349,3.326c1.821,-0 3.326,-1.489 3.326,-3.326c-0,-1.838 -1.505,-3.326 -3.326,-3.326Zm-21.769,17.203c-0.323,-0.506 -0.629,-1.022 -0.916,-1.543c-8.419,-4.056 -19.038,-3.518 -29.17,-1.251c7.928,3.351 18.176,4.72 30.086,2.794Zm-50.14,-5.505c-0.753,-3.404 -2.654,-6.45 -5.384,-8.624c-3.226,4.033 -5.581,8.801 -6.753,14.013c3.244,-1.609 7.405,-3.521 12.137,-5.389Zm82.813,83.773c-3.61,0.05 -7.156,-0.337 -10.568,-1.131c0,-0 0,2.322 -0,2.322c-0,0 10.568,0 10.568,0l-0,-1.191Zm18.158,-4.194c-3.045,1.437 -6.254,2.532 -9.586,3.234l-0,2.151l10.201,0c-0.217,-1.917 -0.426,-3.753 -0.615,-5.385Zm4.96,-13.511c-16.493,-0.935 -31.274,-10.879 -37.642,-26.305c-3.11,5.787 -8.053,10.785 -18.74,13.768c5.387,12.723 17.978,21.667 32.632,21.667c8.833,0 17.285,-3.286 23.75,-9.13Zm10.653,1.137c-2.231,2.813 -4.772,5.306 -7.556,7.465c0.678,5.643 2.271,19.113 2.577,25.248c0.11,2.161 2.23,3.246 4.131,3.289c1.165,0.027 2.327,-0.316 2.833,-1.286l0.003,-0.005c1.028,-1.951 3.337,-2.828 5.394,-2.013l0.006,0.003c1.966,0.789 4.572,-0.386 4.402,-2.844c-0.213,-2.982 2.591,-5.256 5.467,-4.44l0.016,0.005c0.875,0.259 1.296,0.122 1.432,0.036c0.02,-0.013 0.041,-0.025 0.061,-0.037c0.624,-0.357 0.955,-1.104 1.134,-1.6c-0.257,-3.152 -2.42,-6.696 -5.28,-10.191c-4.293,-5.245 -10.229,-10.301 -14.62,-13.63Zm-13.855,28.976c-0.071,-0.838 -0.153,-1.727 -0.242,-2.644l-115.462,-0c0,-0 0,2.644 0,2.644l115.704,-0Z"/></g></svg>