<svg width="48" height="48" viewBox="0 0 48 48" fill="none" xmlns="http://www.w3.org/2000/svg">
<path d="M44.94 37.6401L42.94 29.9201L36.64 6.74006C36.5039 6.22874 36.1706 5.79221 35.7133 5.52606C35.256 5.25991 34.7118 5.18584 34.2 5.32006L26.46 7.32006C26.2753 7.11535 26.0502 6.95105 25.799 6.83747C25.5477 6.72389 25.2757 6.66349 25 6.66006H5C4.46957 6.66006 3.96086 6.87077 3.58579 7.24585C3.21071 7.62092 3 8.12963 3 8.66006V40.6601C3 41.1905 3.21071 41.6992 3.58579 42.0743C3.96086 42.4493 4.46957 42.6601 5 42.6601H25C25.5304 42.6601 26.0391 42.4493 26.4142 42.0743C26.7893 41.6992 27 41.1905 27 40.6601V24.6601L31.4 41.1001C31.5172 41.5364 31.7787 41.9202 32.1418 42.1889C32.505 42.4577 32.9485 42.5955 33.4 42.5801C33.5728 42.5997 33.7472 42.5997 33.92 42.5801L43.58 40.0001C43.8354 39.9318 44.0747 39.8135 44.2841 39.6522C44.4935 39.4909 44.6689 39.2896 44.8 39.0601C45.011 38.6176 45.0605 38.1152 44.94 37.6401ZM12.94 38.7401H6.94V34.7401H12.94V38.7401ZM12.94 30.7401H6.94V18.7401H12.94V30.7401ZM12.94 14.7401H6.94V10.7401H12.94V14.7401ZM22.94 38.7401H16.94V34.7401H22.94V38.7401ZM22.94 30.7401H16.94V18.7401H22.94V30.7401ZM22.94 14.7401H16.94V10.7401H22.94V14.7401ZM27.44 11.2601L33.24 9.70006L34.28 13.5601L28.48 15.1201L27.44 11.2601ZM32.62 30.5801L29.52 18.9801L35.32 17.4201L38.42 29.0201L32.62 30.5801ZM34.62 38.3001L33.58 34.4401L39.38 32.8801L40.42 36.7401L34.62 38.3001Z" fill="#101117"/>
</svg>
