<?xml version="1.0" encoding="UTF-8" standalone="no"?><!DOCTYPE svg PUBLIC "-//W3C//DTD SVG 1.1//EN" "http://www.w3.org/Graphics/SVG/1.1/DTD/svg11.dtd"><svg width="100%" height="100%" viewBox="0 0 200 200" version="1.1" xmlns="http://www.w3.org/2000/svg" xmlns:xlink="http://www.w3.org/1999/xlink" xml:space="preserve" xmlns:serif="http://www.serif.com/" style="fill-rule:evenodd;clip-rule:evenodd;stroke-linejoin:round;stroke-miterlimit:2;"><rect id="Artboard1" x="0" y="0" width="200" height="200" style="fill:none;"/><g id="Artboard11" serif:id="Artboard1"><path d="M183.078,154.291l-7.936,-30.632l-24.997,-91.974c-0.54,-2.029 -1.863,-3.761 -3.677,-4.817c-1.815,-1.056 -3.974,-1.35 -6.005,-0.818l-30.711,7.936c-0.733,-0.812 -1.626,-1.464 -2.623,-1.915c-0.997,-0.451 -2.076,-0.69 -3.17,-0.704l-79.357,0c-2.104,0 -4.123,0.836 -5.611,2.324c-1.488,1.489 -2.324,3.507 -2.324,5.612l-0,126.971c-0,2.104 0.836,4.123 2.324,5.611c1.488,1.488 3.507,2.324 5.611,2.324l79.357,0c2.105,0 4.123,-0.836 5.611,-2.324c1.489,-1.488 2.325,-3.507 2.325,-5.611l-0,-63.486l17.458,65.232c0.465,1.731 1.503,3.254 2.943,4.32c1.442,1.066 3.201,1.613 4.993,1.552c0.685,0.078 1.377,0.078 2.063,-0l38.329,-10.237c1.014,-0.271 1.963,-0.741 2.794,-1.381c0.831,-0.64 1.527,-1.438 2.047,-2.349c0.837,-1.756 1.034,-3.749 0.556,-5.634Zm-126.971,4.364l-23.807,0l-0,-15.871l23.807,0l-0,15.871Zm-0,-31.742l-23.807,-0l-0,-47.614l23.807,-0l-0,47.614Zm-0,-63.486l-23.807,0l-0,-15.871l23.807,0l-0,15.871Zm39.678,95.228l-23.807,0l0,-15.871l23.807,0l0,15.871Zm0,-31.742l-23.807,-0l0,-47.614l23.807,-0l0,47.614Zm0,-63.486l-23.807,0l0,-15.871l23.807,0l0,15.871Zm17.856,-13.808l23.013,-6.19l4.127,15.316l-23.014,6.19l-4.126,-15.316Zm20.553,76.659l-12.3,-46.027l23.013,-6.19l12.3,46.027l-23.013,6.19Zm7.936,30.632l-4.127,-15.316l23.013,-6.19l4.127,15.316l-23.013,6.19Z" style="fill:#101117;fill-rule:nonzero;"/></g></svg>