<?xml version="1.0" encoding="UTF-8" standalone="no"?><!DOCTYPE svg PUBLIC "-//W3C//DTD SVG 1.1//EN" "http://www.w3.org/Graphics/SVG/1.1/DTD/svg11.dtd"><svg width="100%" height="100%" viewBox="0 0 200 200" version="1.1" xmlns="http://www.w3.org/2000/svg" xmlns:xlink="http://www.w3.org/1999/xlink" xml:space="preserve" xmlns:serif="http://www.serif.com/" style="fill-rule:evenodd;clip-rule:evenodd;stroke-linejoin:round;stroke-miterlimit:2;"><rect id="Artboard1" x="0" y="0" width="200" height="200" style="fill:none;"/><g id="Artboard11" serif:id="Artboard1"><path d="M170.748,63.011c-0.048,-0.22 -0.048,-0.449 -0,-0.67c-0.041,-0.193 -0.041,-0.393 -0,-0.586l-0,-0.754l-0.503,-1.257c-0.204,-0.343 -0.458,-0.654 -0.754,-0.922l-0.754,-0.67l-0.419,-0l-33.013,-20.863l-31.169,-19.272c-0.721,-0.572 -1.546,-0.999 -2.43,-1.257l-0.67,0c-0.749,-0.125 -1.513,-0.125 -2.262,0l-0.838,0c-0.973,0.216 -1.906,0.583 -2.765,1.09l-62.59,38.961l-0.754,0.587l-0.754,0.67l-0.838,0.586l-0.419,0.503l-0.503,1.257l0,1.257c-0.081,0.555 -0.081,1.12 0,1.676l0,73.147c-0.003,1.424 0.358,2.825 1.047,4.071c0.689,1.246 1.684,2.296 2.891,3.051l62.841,38.877l1.257,0.503l0.671,0c1.417,0.45 2.939,0.45 4.357,0l0.67,0l1.257,-0.503l62.338,-38.291c1.208,-0.754 2.203,-1.804 2.892,-3.05c0.689,-1.246 1.049,-2.648 1.046,-4.072l0,-73.147c0,0 0.168,-0.586 0.168,-0.922Zm-71.136,-28.069l14.914,9.217l-46.838,28.991l-14.998,-9.217l46.922,-28.991Zm-8.379,125.683l-46.084,-28.153l0,-53.541l46.084,28.488l-0,53.206Zm8.379,-67.953l-16.004,-9.635l46.838,-29.075l16.087,9.971l-46.921,28.739Zm54.462,39.549l-46.084,28.655l0,-53.457l46.084,-28.488l-0,53.29Z" style="fill:#101117;fill-rule:nonzero;"/></g></svg>