<svg width="48" height="48" viewBox="0 0 48 48" fill="none" xmlns="http://www.w3.org/2000/svg">
<path d="M40.9801 15.0399C40.9688 14.9872 40.9688 14.9326 40.9801 14.8799C40.9704 14.8338 40.9704 14.7861 40.9801 14.7399V14.5599L40.8601 14.2599C40.8114 14.1781 40.7507 14.1039 40.6801 14.0399L40.5001 13.8799H40.4001L32.5201 8.89992L25.0801 4.29992C24.908 4.16338 24.711 4.0615 24.5001 3.99992H24.3401C24.1614 3.97008 23.9789 3.97008 23.8001 3.99992H23.6001C23.3678 4.0513 23.1451 4.13905 22.9401 4.25992L8.00014 13.5599L7.82014 13.6999L7.64014 13.8599L7.44014 13.9999L7.34014 14.1199L7.22014 14.4199V14.5999V14.7199C7.20071 14.8525 7.20071 14.9873 7.22014 15.1199V32.5799C7.21946 32.9198 7.30541 33.2543 7.46988 33.5517C7.63435 33.8492 7.87191 34.0998 8.16014 34.2799L23.1601 43.5599L23.4601 43.6799H23.6201C23.9585 43.7872 24.3218 43.7872 24.6601 43.6799H24.8201L25.1201 43.5599L40.0001 34.4199C40.2884 34.2398 40.5259 33.9892 40.6904 33.6917C40.8549 33.3943 40.9408 33.0598 40.9401 32.7199V15.2599C40.9401 15.2599 40.9801 15.1199 40.9801 15.0399ZM24.0001 8.33992L27.5601 10.5399L16.3801 17.4599L12.8001 15.2599L24.0001 8.33992ZM22.0001 38.3399L11.0001 31.6199V18.8399L22.0001 25.6399V38.3399ZM24.0001 22.1199L20.1801 19.8199L31.3601 12.8799L35.2001 15.2599L24.0001 22.1199ZM37.0001 31.5599L26.0001 38.3999V25.6399L37.0001 18.8399V31.5599Z" fill="#101117"/>
</svg>
