<?xml version="1.0" encoding="UTF-8" standalone="no"?><!DOCTYPE svg PUBLIC "-//W3C//DTD SVG 1.1//EN" "http://www.w3.org/Graphics/SVG/1.1/DTD/svg11.dtd"><svg width="100%" height="100%" viewBox="0 0 200 200" version="1.1" xmlns="http://www.w3.org/2000/svg" xmlns:xlink="http://www.w3.org/1999/xlink" xml:space="preserve" xmlns:serif="http://www.serif.com/" style="fill-rule:evenodd;clip-rule:evenodd;stroke-linejoin:round;stroke-miterlimit:2;"><rect id="Artboard1" x="0" y="0" width="200" height="200" style="fill:none;"/><g id="Artboard11" serif:id="Artboard1"><rect id="Artboard12" serif:id="Artboard1" x="0" y="0" width="199.937" height="199.937" style="fill:none;"/><path d="M143.501,143.2c-4.539,5.086 -10.557,8.952 -17.625,10.854c-19.35,5.205 -39.286,-6.278 -44.492,-25.629c-5.206,-19.35 6.278,-39.286 25.628,-44.492c19.35,-5.205 39.287,6.278 44.492,25.629c1.902,7.067 1.576,14.213 -0.545,20.691l28.632,16.493c3.573,2.058 4.803,6.629 2.745,10.202c-2.058,3.573 -6.63,4.803 -10.203,2.745l-28.632,-16.493Zm-8.484,-13.656c2.681,-4.718 3.578,-10.452 2.058,-16.101c-3.063,-11.386 -14.794,-18.144 -26.181,-15.081c-11.387,3.064 -18.144,14.795 -15.081,26.182c3.063,11.386 14.795,18.144 26.181,15.081c5.649,-1.52 10.159,-5.173 12.895,-9.859c0.021,-0.037 0.042,-0.074 0.063,-0.112c0.022,-0.037 0.043,-0.074 0.065,-0.11Zm8.577,23.798l0,18.967c0,4.126 -3.345,7.471 -7.471,7.471l-111.985,0c-4.126,0 -7.471,-3.345 -7.471,-7.471l-0,-144.618c-0,-4.126 3.345,-7.471 7.471,-7.471l111.985,-0c4.126,-0 7.471,3.345 7.471,7.471l0,56.968c-4.429,-3.496 -9.507,-6.12 -14.942,-7.706l0,-41.791l-97.043,-0l-0,129.676l97.043,-0l0,-3.804c5.595,-1.622 10.626,-4.274 14.942,-7.692Zm-51.136,2.263l-0,1.688c-0,2.063 -1.673,3.736 -3.736,3.736l-17.183,-0c-2.063,-0 -3.736,-1.673 -3.736,-3.736l0,-17.183c0,-2.063 1.673,-3.735 3.736,-3.735l4.72,-0c1.146,2.655 2.536,5.152 4.136,7.471l-5.121,-0l0,9.712l9.713,-0l-0,-4.117c2.262,2.332 4.771,4.397 7.471,6.164Zm-17.753,-23.406l-3.166,-0c-2.063,-0 -3.736,-1.673 -3.736,-3.736l0,-17.183c0,-2.063 1.673,-3.735 3.736,-3.735l2.651,-0c-1.97,7.233 -2.107,15.066 -0.02,22.821c0.166,0.618 0.344,1.229 0.535,1.833Zm0.85,-28.83l-4.016,-0c-2.063,-0 -3.736,-1.673 -3.736,-3.736l0,-17.183c0,-2.063 1.673,-3.735 3.736,-3.735l17.183,-0c2.034,-0 3.688,1.625 3.735,3.648c-2.736,1.792 -5.237,3.872 -7.47,6.186l-0,-2.363l-9.713,-0l0,9.712l3.99,-0c-1.468,2.364 -2.711,4.867 -3.709,7.471Zm-13.748,36.741l0,17.183c0,2.063 -1.672,3.736 -3.735,3.736l-17.184,-0c-2.063,-0 -3.735,-1.673 -3.735,-3.736l-0,-17.183c-0,-2.063 1.672,-3.735 3.735,-3.735l17.184,-0c2.063,-0 3.735,1.672 3.735,3.735Zm-7.471,3.736l-9.712,-0l-0,9.712l9.712,-0l-0,-9.712Zm6.76,-61.396l0,17.183c0,2.063 -1.672,3.736 -3.735,3.736l-17.184,-0c-2.063,-0 -3.735,-1.673 -3.735,-3.736l-0,-17.183c-0,-2.063 1.672,-3.735 3.735,-3.735l17.184,-0c2.063,-0 3.735,1.672 3.735,3.735Zm-7.471,3.736l-9.712,-0l-0,9.712l9.712,-0l0,-9.712Zm8.182,25.094l0,17.183c0,2.063 -1.672,3.736 -3.735,3.736l-17.184,-0c-2.063,-0 -3.735,-1.673 -3.735,-3.736l-0,-17.183c-0,-2.063 1.672,-3.735 3.735,-3.735l17.184,-0c2.063,-0 3.735,1.672 3.735,3.735Zm-7.471,3.736l-9.712,-0l-0,9.712l9.712,-0l-0,-9.712Zm69.483,-69.823l0,23.531c0,2.063 -1.672,3.735 -3.735,3.735l-79.907,0c-2.063,0 -3.735,-1.672 -3.735,-3.735l-0,-23.531c-0,-2.063 1.672,-3.735 3.735,-3.735l79.907,-0c2.063,-0 3.735,1.672 3.735,3.735Zm-7.471,3.736l-72.435,-0l-0,16.059l72.435,0l0,-16.059Z"/></g></svg>