<?xml version="1.0" encoding="UTF-8" standalone="no"?><!DOCTYPE svg PUBLIC "-//W3C//DTD SVG 1.1//EN" "http://www.w3.org/Graphics/SVG/1.1/DTD/svg11.dtd"><svg width="100%" height="100%" viewBox="0 0 2134 2134" version="1.1" xmlns="http://www.w3.org/2000/svg" xmlns:xlink="http://www.w3.org/1999/xlink" xml:space="preserve" xmlns:serif="http://www.serif.com/" style="fill-rule:evenodd;clip-rule:evenodd;stroke-linejoin:round;stroke-miterlimit:2;"><rect id="Artboard1" x="0" y="0" width="2133.33" height="2133.33" style="fill:none;"/><path d="M1551.88,1548.53c-50.627,56.723 -117.755,99.851 -196.588,121.059c-215.836,58.064 -438.209,-70.026 -496.273,-285.862c-58.064,-215.836 70.026,-438.208 285.862,-496.272c215.836,-58.065 438.208,70.026 496.273,285.862c21.207,78.834 17.581,158.539 -6.085,230.793l319.372,183.964c39.854,22.956 53.573,73.951 30.616,113.805c-22.956,39.854 -73.951,53.572 -113.805,30.615l-319.372,-183.964Zm-94.627,-152.328c29.898,-52.627 39.906,-116.581 22.956,-179.588c-34.168,-127.008 -165.022,-202.383 -292.03,-168.215c-127.009,34.168 -202.383,165.022 -168.215,292.031c34.167,127.008 165.022,202.382 292.03,168.215c63.008,-16.951 113.308,-57.696 143.83,-109.962c0.231,-0.417 0.466,-0.832 0.704,-1.247c0.239,-0.414 0.481,-0.825 0.725,-1.234Zm95.672,265.457l-0,211.555c-0,46.024 -37.31,83.334 -83.333,83.334l-1249.11,-0c-46.024,-0 -83.333,-37.31 -83.333,-83.334l-0,-1613.1c-0,-46.024 37.309,-83.333 83.333,-83.333l1249.11,-0c46.023,-0 83.333,37.309 83.333,83.333l-0,635.43c-49.402,-38.986 -106.046,-68.263 -166.667,-85.948l0,-466.149l-1082.44,0l0,1446.43c227.146,0 855.296,0 1082.44,0l0,-42.424c62.406,-18.099 118.521,-47.677 166.667,-85.798Zm-570.388,25.239l0,18.828c0,23.012 -18.654,41.667 -41.666,41.667l-191.667,0c-23.012,0 -41.667,-18.655 -41.667,-41.667l0,-191.666c0,-23.012 18.655,-41.667 41.667,-41.667l52.654,0c12.776,29.618 28.279,57.47 46.124,83.333l-57.111,0c-0,0 -0,108.334 -0,108.334c-0,-0 108.333,-0 108.333,-0l0,-45.921c25.239,26.012 53.222,49.05 83.333,68.759Zm-198.018,-261.08l-35.315,-0c-23.012,-0 -41.667,-18.655 -41.667,-41.667l0,-191.667c0,-23.012 18.655,-41.666 41.667,-41.666l29.568,-0c-21.969,80.68 -23.496,168.054 -0.225,254.558c1.853,6.889 3.845,13.703 5.972,20.442Zm9.479,-321.576l-44.794,0c-23.012,0 -41.667,-18.655 -41.667,-41.667l0,-191.666c0,-23.012 18.655,-41.667 41.667,-41.667l191.667,0c22.685,0 41.136,18.13 41.655,40.691c-30.519,19.993 -58.408,43.193 -83.322,69l0,-26.358c0,0 -108.333,0 -108.333,0c-0,0 -0,108.334 -0,108.334l44.504,-0c-16.374,26.374 -30.242,54.283 -41.377,83.333Zm-153.344,409.818l-0,191.666c-0,23.012 -18.655,41.667 -41.667,41.667l-191.667,0c-23.012,0 -41.666,-18.655 -41.666,-41.667l-0,-191.666c-0,-23.012 18.654,-41.667 41.666,-41.667l191.667,0c23.012,0 41.667,18.655 41.667,41.667Zm-83.334,41.666c0,0 -108.333,0 -108.333,0c-0,0 -0,108.334 -0,108.334c-0,-0 108.333,-0 108.333,-0l0,-108.334Zm75.405,-684.817l0,191.666c0,23.012 -18.654,41.667 -41.666,41.667l-191.667,0c-23.012,0 -41.667,-18.655 -41.667,-41.667l0,-191.666c0,-23.012 18.655,-41.667 41.667,-41.667l191.667,0c23.012,0 41.666,18.655 41.666,41.667Zm-83.333,41.666c0,0 -108.333,0 -108.333,0c-0,0 -0,108.334 -0,108.334c-0,-0 108.333,-0 108.333,-0l0,-108.334Zm91.262,279.909l-0,191.667c-0,23.012 -18.655,41.667 -41.667,41.667l-191.667,-0c-23.012,-0 -41.666,-18.655 -41.666,-41.667l-0,-191.667c-0,-23.012 18.654,-41.666 41.666,-41.666l191.667,-0c23.012,-0 41.667,18.654 41.667,41.666Zm-83.334,41.667c0,-0 -108.333,-0 -108.333,-0c-0,-0 -0,108.333 -0,108.333c-0,0 108.333,0 108.333,0l0,-108.333Zm775.029,-778.813l0,262.466c0,23.011 -18.655,41.666 -41.666,41.666l-891.291,0c-23.012,0 -41.667,-18.655 -41.667,-41.666l0,-262.466c0,-23.012 18.655,-41.667 41.667,-41.667l891.291,0c23.011,0 41.666,18.655 41.666,41.667Zm-83.333,41.666l-807.957,0l-0,179.133l807.957,-0l-0,-179.133Z"/></svg>