<svg width="48" height="48" viewBox="0 0 48 48" fill="none" xmlns="http://www.w3.org/2000/svg">
<path d="M38 19H37.36L34.86 12.76C34.4135 11.6505 33.6456 10.6998 32.6549 10.0298C31.6643 9.35987 30.496 9.00126 29.3 9.00002H17.3C15.9106 8.99605 14.5628 9.47441 13.4868 10.3535C12.4108 11.2325 11.6732 12.4577 11.4 13.82L10.36 19H10C8.4087 19 6.88258 19.6322 5.75736 20.7574C4.63214 21.8826 4 23.4087 4 25V31C4 31.5305 4.21071 32.0392 4.58579 32.4142C4.96086 32.7893 5.46957 33 6 33H8C8 34.5913 8.63214 36.1174 9.75736 37.2427C10.8826 38.3679 12.4087 39 14 39C15.5913 39 17.1174 38.3679 18.2426 37.2427C19.3679 36.1174 20 34.5913 20 33H28C28 34.5913 28.6321 36.1174 29.7574 37.2427C30.8826 38.3679 32.4087 39 34 39C35.5913 39 37.1174 38.3679 38.2426 37.2427C39.3679 36.1174 40 34.5913 40 33H42C42.5304 33 43.0391 32.7893 43.4142 32.4142C43.7893 32.0392 44 31.5305 44 31V25C44 23.4087 43.3679 21.8826 42.2426 20.7574C41.1174 19.6322 39.5913 19 38 19ZM26 13H29.3C29.6971 13.0036 30.0842 13.1254 30.4119 13.3498C30.7396 13.5742 30.9931 13.891 31.14 14.26L33.04 19H26V13ZM15.32 14.6C15.4135 14.1415 15.6648 13.7302 16.0303 13.4379C16.3957 13.1455 16.8521 12.9906 17.32 13H22V19H14.44L15.32 14.6ZM14 35C13.6044 35 13.2178 34.8827 12.8889 34.663C12.56 34.4432 12.3036 34.1308 12.1522 33.7654C12.0009 33.3999 11.9613 32.9978 12.0384 32.6098C12.1156 32.2219 12.3061 31.8655 12.5858 31.5858C12.8655 31.3061 13.2219 31.1156 13.6098 31.0385C13.9978 30.9613 14.3999 31.0009 14.7654 31.1523C15.1308 31.3036 15.4432 31.56 15.6629 31.8889C15.8827 32.2178 16 32.6045 16 33C16 33.5305 15.7893 34.0392 15.4142 34.4142C15.0391 34.7893 14.5304 35 14 35ZM34 35C33.6044 35 33.2178 34.8827 32.8889 34.663C32.56 34.4432 32.3036 34.1308 32.1522 33.7654C32.0009 33.3999 31.9613 32.9978 32.0384 32.6098C32.1156 32.2219 32.3061 31.8655 32.5858 31.5858C32.8655 31.3061 33.2219 31.1156 33.6098 31.0385C33.9978 30.9613 34.3999 31.0009 34.7654 31.1523C35.1308 31.3036 35.4432 31.56 35.6629 31.8889C35.8827 32.2178 36 32.6045 36 33C36 33.5305 35.7893 34.0392 35.4142 34.4142C35.0391 34.7893 34.5304 35 34 35ZM40 29H38.44C37.8776 28.3813 37.1922 27.887 36.4276 27.5487C35.663 27.2104 34.8361 27.0357 34 27.0357C33.1639 27.0357 32.337 27.2104 31.5724 27.5487C30.8078 27.887 30.1224 28.3813 29.56 29H18.44C17.8776 28.3813 17.1922 27.887 16.4276 27.5487C15.663 27.2104 14.8361 27.0357 14 27.0357C13.1639 27.0357 12.337 27.2104 11.5724 27.5487C10.8078 27.887 10.1224 28.3813 9.56 29H8V25C8 24.4696 8.21071 23.9609 8.58579 23.5858C8.96086 23.2107 9.46957 23 10 23H38C38.5304 23 39.0391 23.2107 39.4142 23.5858C39.7893 23.9609 40 24.4696 40 25V29Z" fill="#101117"/>
</svg>
