<?xml version="1.0" encoding="UTF-8" standalone="no"?><!DOCTYPE svg PUBLIC "-//W3C//DTD SVG 1.1//EN" "http://www.w3.org/Graphics/SVG/1.1/DTD/svg11.dtd"><svg width="100%" height="100%" viewBox="0 0 200 200" version="1.1" xmlns="http://www.w3.org/2000/svg" xmlns:xlink="http://www.w3.org/1999/xlink" xml:space="preserve" xmlns:serif="http://www.serif.com/" style="fill-rule:evenodd;clip-rule:evenodd;stroke-linejoin:round;stroke-miterlimit:2;"><rect id="Artboard1" x="0" y="0" width="200" height="200" style="fill:none;"/><g id="Artboard11" serif:id="Artboard1"><path d="M158.333,79.167l-2.666,-0l-10.417,-26c-1.86,-4.623 -5.06,-8.584 -9.188,-11.376c-4.127,-2.792 -8.995,-4.286 -13.979,-4.291l-50,0c-5.789,-0.016 -11.405,1.977 -15.888,5.64c-4.483,3.662 -7.557,8.767 -8.695,14.443l-4.333,21.584l-1.5,-0c-6.631,-0 -12.99,2.634 -17.678,7.322c-4.688,4.689 -7.322,11.047 -7.322,17.678l-0,25c-0,2.21 0.878,4.33 2.44,5.892c1.563,1.563 3.683,2.441 5.893,2.441l8.333,0c0,6.63 2.634,12.989 7.323,17.678c4.688,4.688 11.047,7.322 17.677,7.322c6.631,0 12.989,-2.634 17.678,-7.322c4.689,-4.689 7.322,-11.048 7.322,-17.678l33.334,0c-0,6.63 2.633,12.989 7.322,17.678c4.688,4.688 11.047,7.322 17.678,7.322c6.63,0 12.989,-2.634 17.677,-7.322c4.689,-4.689 7.323,-11.048 7.323,-17.678l8.333,0c2.21,0 4.33,-0.878 5.892,-2.441c1.563,-1.562 2.441,-3.682 2.441,-5.892l0,-25c0,-6.631 -2.633,-12.989 -7.322,-17.678c-4.689,-4.688 -11.047,-7.322 -17.678,-7.322Zm-50,-25l13.75,-0c1.655,0.015 3.268,0.522 4.633,1.457c1.366,0.935 2.422,2.255 3.034,3.793l7.917,19.75l-29.334,-0l0,-25Zm-44.5,6.666c0.39,-1.91 1.437,-3.624 2.96,-4.842c1.522,-1.218 3.424,-1.863 5.374,-1.824l19.5,-0l-0,25l-31.5,-0l3.666,-18.334Zm-5.5,85c-1.648,0 -3.259,-0.488 -4.629,-1.404c-1.371,-0.916 -2.439,-2.217 -3.07,-3.74c-0.63,-1.523 -0.795,-3.198 -0.474,-4.815c0.322,-1.616 1.115,-3.101 2.281,-4.266c1.165,-1.166 2.65,-1.96 4.266,-2.281c1.617,-0.322 3.293,-0.157 4.815,0.474c1.523,0.631 2.825,1.699 3.74,3.069c0.916,1.371 1.405,2.982 1.405,4.63c-0,2.21 -0.878,4.33 -2.441,5.893c-1.563,1.562 -3.683,2.44 -5.893,2.44Zm83.334,0c-1.649,0 -3.26,-0.488 -4.63,-1.404c-1.37,-0.916 -2.439,-2.217 -3.07,-3.74c-0.63,-1.523 -0.795,-3.198 -0.474,-4.815c0.322,-1.616 1.116,-3.101 2.281,-4.266c1.166,-1.166 2.651,-1.96 4.267,-2.281c1.616,-0.322 3.292,-0.157 4.815,0.474c1.522,0.631 2.824,1.699 3.739,3.069c0.916,1.371 1.405,2.982 1.405,4.63c-0,2.21 -0.878,4.33 -2.441,5.893c-1.563,1.562 -3.682,2.44 -5.892,2.44Zm25,-25l-6.5,0c-2.344,-2.578 -5.2,-4.637 -8.385,-6.047c-3.186,-1.409 -6.632,-2.137 -10.115,-2.137c-3.484,-0 -6.93,0.728 -10.115,2.137c-3.186,1.41 -6.042,3.469 -8.385,6.047l-46.334,0c-2.343,-2.578 -5.199,-4.637 -8.385,-6.047c-3.186,-1.409 -6.631,-2.137 -10.115,-2.137c-3.483,-0 -6.929,0.728 -10.115,2.137c-3.186,1.41 -6.041,3.469 -8.385,6.047l-6.5,0l0,-16.666c0,-2.21 0.878,-4.33 2.441,-5.893c1.563,-1.563 3.683,-2.441 5.893,-2.441l116.666,0c2.21,0 4.33,0.878 5.893,2.441c1.563,1.563 2.441,3.683 2.441,5.893l-0,16.666Z" style="fill:#101117;fill-rule:nonzero;"/></g></svg>