<?xml version="1.0" encoding="UTF-8" standalone="no"?>
<!-- Created with Inkscape (http://www.inkscape.org/) -->

<svg
   width="512"
   height="512"
   viewBox="0 0 512 512"
   version="1.1"
   id="svg5"
   inkscape:version="1.2.2 (732a01da63, 2022-12-09)"
   sodipodi:docname="icons.svg"
   xml:space="preserve"
   inkscape:export-filename="..\..\..\Users\Raphael\Desktop\export\cat3.svg"
   inkscape:export-xdpi="18.75"
   inkscape:export-ydpi="18.75"
   xmlns:inkscape="http://www.inkscape.org/namespaces/inkscape"
   xmlns:sodipodi="http://sodipodi.sourceforge.net/DTD/sodipodi-0.dtd"
   xmlns="http://www.w3.org/2000/svg"
   xmlns:svg="http://www.w3.org/2000/svg"><sodipodi:namedview
     id="namedview7"
     pagecolor="#ffffff"
     bordercolor="#666666"
     borderopacity="1.0"
     inkscape:showpageshadow="2"
     inkscape:pageopacity="0.0"
     inkscape:pagecheckerboard="0"
     inkscape:deskcolor="#d1d1d1"
     inkscape:document-units="px"
     showgrid="false"
     inkscape:zoom="0.4609375"
     inkscape:cx="257.08475"
     inkscape:cy="257.08475"
     inkscape:window-width="1920"
     inkscape:window-height="1001"
     inkscape:window-x="-9"
     inkscape:window-y="-9"
     inkscape:window-maximized="1"
     inkscape:current-layer="layer1" /><defs
     id="defs2" /><g
     inkscape:label="Camada 1"
     inkscape:groupmode="layer"
     id="layer1"><path
       style="fill:#000000;stroke-width:1"
       d="m 233.51346,463.00738 c -52.71042,-2.6788 -96.38212,-15.6447 -132.3236,-39.2864 -16.249321,-10.68845 -40.086331,-34.7879 -48.384561,-48.91722 -10.13974,-17.2648 -15.16628,-37.02654 -13.39987,-52.68118 1.35827,-12.03753 11.27729,-43.41563 22.70073,-71.81216 4.98391,-12.38906 4.98391,-12.38906 1.37648,-19.60349 -11.851,-23.70053 -15.63402,-54.24877 -14.75091,-119.11503 0.48585,-35.686474 0.79722,-40.761374 2.677,-43.630274 3.88169,-5.9242 7.02766,-6.43205 19.57385,-3.15984 17.816,4.64667 60.018561,18.67504 73.702541,24.49915 14.87793,6.33226 19.68245,8.59358 41.65743,19.606584 23.27915,11.66661 23.27915,11.66661 67.99963,12.34188 51.41896,0.77641 40.51327,3.02144 83.10076,-17.10696 26.76588,-12.650504 32.7545,-15.197694 53.61495,-22.804624 34.28688,-12.50301 60.55887,-19.69128 67.32759,-18.42145 6.73135,1.2628 8.09416,4.02598 9.2259,18.70585 1.42248,18.452454 1.34958,77.007604 -0.11272,91.023704 -2.39053,22.90416 -9.19747,48.08539 -15.98518,59.13519 -1.97248,3.21102 -3.58622,6.12829 -3.58622,6.48284 0,0.35457 2.80734,7.92733 6.23869,16.82835 10.65524,27.64021 11.68638,30.54145 15.33226,43.13851 3.13926,10.84669 3.54358,14.1496 3.52447,28.79264 -0.0184,13.69756 -0.4956,18.05096 -2.78051,25.32892 -10.83216,34.504 -41.12422,65.98411 -81.83137,85.04061 -43.13345,20.1924 -94.48699,28.6844 -154.89685,25.6144 z m 67.38702,-31.2257 c 29.98852,-3.6512 56.62183,-11.1534 78.497,-22.11134 40.84891,-20.4624 65.1679,-51.52243 65.18971,-83.2595 0,-8.73931 -0.79394,-12.19222 -7.3801,-31.85568 -8.74732,-26.11559 -23.54821,-67.4122 -27.14177,-75.72973 -14.75176,-34.14262 -48.86564,-56.90308 -97.13816,-64.80956 -14.37454,-2.35439 -21.19658,-2.68047 -57.35977,-2.74174 -34.05012,-0.0577 -43.23718,0.30397 -53.90961,2.1222 -40.0277,6.81937 -70.39831,23.73171 -88.4728,49.26744 -6.49269,9.17292 -12.04669,21.19006 -17.554151,37.98177 -0.88408,2.69549 -3.59716,10.41436 -6.02905,17.15306 -8.91356,24.69926 -20.12707,60.20254 -20.93009,66.26715 -1.02581,7.74718 1.88892,22.68054 6.01357,30.80987 17.32977,34.15561 63.011901,63.01326 115.799801,73.15146 16.011,3.075 34.14195,5.38 47.92928,6.0934 13.83875,0.7159 47.85285,-0.5572 62.48614,-2.3388 z M 211.7279,378.38193 c -8.14477,-3.20902 -20.41939,-14.34953 -22.39037,-20.32163 -3.28688,-9.95937 1.3474,-19.37743 10.24545,-20.82138 4.26761,-0.69253 4.91835,-0.33358 11.14659,6.14849 10.18307,10.59809 17.93694,12.39804 23.19194,5.38367 5.28465,-7.05393 5.18727,-8.63175 -0.95991,-15.55313 -12.32858,-13.88134 -13.94339,-25.05097 -4.05212,-28.02846 2.19526,-0.66082 15.59402,-1.11849 29.77503,-1.01704 22.58051,0.16155 26.20233,0.45878 29.15363,2.39267 7.98803,5.23425 6.12714,13.58945 -5.72852,25.7203 -3.8163,3.90488 -6.93873,7.42357 -6.93873,7.8193 0,1.85041 5.26035,8.92637 7.94239,10.68372 6.0988,3.99608 10.13912,2.68189 18.4442,-5.99932 8.14989,-8.51898 10.60761,-9.40958 16.44724,-5.96003 8.26839,4.88426 9.7846,15.16545 3.51332,23.82278 -5.28768,7.29936 -7.59906,9.15411 -17.51995,14.05848 -6.73837,3.33111 -10.02707,4.22271 -15.57558,4.22271 -9.21402,0 -19.64992,-3.97195 -26.13022,-9.94528 -5.11364,-4.71359 -5.11364,-4.71359 -8.02025,-1.61964 -1.59862,1.70167 -6.48837,4.85724 -10.86609,7.01238 -10.35998,5.1002 -21.95386,5.8327 -31.67805,2.00141 z M 101.88508,351.59356 c -4.978511,-3.28185 -6.727241,-6.97811 -6.777901,-14.32633 -0.0305,-4.42046 0.65389,-7.15851 2.29682,-9.18914 2.31688,-2.86361 2.618241,-2.89638 30.204281,-3.28481 15.32523,-0.21578 29.1485,-0.07 30.71839,0.32406 3.58088,0.89875 6.57456,6.53686 6.57456,12.38214 0,3.45176 -0.95011,5.42174 -4.16575,8.63738 -2.33876,2.33876 -5.4285,4.17677 -7.045,4.19088 -1.5836,0.0139 -11.14949,0.83409 -21.25755,1.82281 -23.76019,2.32412 -26.24604,2.27878 -30.54785,-0.55699 z m 278.65455,1.04142 c -19.696,-1.70281 -26.02633,-3.14088 -29.04429,-6.59801 -6.20463,-7.10757 -3.84082,-19.99189 3.95047,-21.53248 2.03435,-0.40226 15.098,-0.38907 29.03045,0.0293 22.347,0.67101 25.629,1.02978 27.85571,3.04495 4.76389,4.3112 5.90862,15.32611 2.11289,20.32967 -4.75679,6.27031 -9.07936,6.8729 -33.90523,4.72659 z m -17.76567,-63.65256 c -2.69548,-1.31851 -7.93329,-4.32335 -11.63957,-6.67744 -8.82991,-5.60842 -12.59255,-5.51168 -23.74768,0.6106 -12.26762,6.73292 -18.25009,6.40915 -22.18529,-1.20069 -3.99906,-7.73333 -1.03964,-15.30393 8.96554,-22.93514 11.47835,-8.7548 32.12953,-10.32681 45.54396,-3.46691 9.6051,4.91183 14.38847,8.86462 17.82644,14.73101 4.00254,6.8299 3.88933,11.8914 -0.36708,16.40994 -4.49925,4.77646 -8.40022,5.46164 -14.39632,2.52863 z m -227.18905,-1.94381 c -4.26594,-5.42327 -3.46199,-12.45044 2.24058,-19.58451 14.91338,-18.65703 43.14934,-21.95118 62.99553,-7.34938 4.21709,3.10272 9.41329,11.54856 9.41329,15.30025 0,5.27427 -3.35516,11.05735 -6.96426,12.00386 -4.99676,1.31043 -7.26067,0.70652 -17.30892,-4.61723 -12.31354,-6.52395 -15.5816,-6.36534 -27.79861,1.3492 -11.78458,7.44149 -18.34157,8.28307 -22.57761,2.89781 z m 303.757,-117.30608 c 1.66409,-19.57959 1.49477,-73.050164 -0.23132,-73.050164 -2.19522,0 -14.76217,3.743224 -31.61615,9.417314 -17.094,5.75494 -36.21587,13.92875 -51.8314,22.15586 -8.98526,4.73394 -8.98526,4.73394 -0.93717,7.49749 13.00141,4.46443 32.41499,14.73508 43.31491,22.9156 11.75388,8.82147 25.76365,23.15206 32.38938,33.13103 4.6241,6.96455 4.6241,6.96455 6.09742,0.33781 0.81036,-3.64472 2.07687,-13.72694 2.81433,-22.40494 z M 85.074329,194.00989 c 2.06386,-4.52969 13.87271,-20.08145 18.718631,-24.65166 7.32444,-6.90772 22.23405,-17.27677 32.92824,-22.90033 9.43775,-4.96283 15.52196,-7.64958 28.18003,-12.44406 4.28826,-1.62428 4.28826,-1.62428 -9.80175,-8.28515 -21.92981,-10.36704 -68.911341,-27.821104 -74.886751,-27.821104 -2.6409,0 -2.6409,0 -1.96935,42.576344 0.62312,39.50573 1.99821,56.66636 4.54067,56.66636 0.47268,0 1.50331,-1.41318 2.29028,-3.1404 z"
       id="path1880" /></g></svg>
