<?xml version="1.0" encoding="UTF-8" standalone="no"?><!DOCTYPE svg PUBLIC "-//W3C//DTD SVG 1.1//EN" "http://www.w3.org/Graphics/SVG/1.1/DTD/svg11.dtd"><svg width="100%" height="100%" viewBox="0 0 200 200" version="1.1" xmlns="http://www.w3.org/2000/svg" xmlns:xlink="http://www.w3.org/1999/xlink" xml:space="preserve" xmlns:serif="http://www.serif.com/" style="fill-rule:evenodd;clip-rule:evenodd;stroke-linejoin:round;stroke-miterlimit:2;"><rect id="Artboard1" x="0" y="0" width="200" height="200" style="fill:none;"/><g id="Artboard11" serif:id="Artboard1"><g id="Camada-1" serif:id="Camada 1"><path id="path1880" d="M91.348,178.052c-20.243,-1.047 -37.015,-6.112 -50.819,-15.347c-6.241,-4.175 -15.395,-13.589 -18.582,-19.108c-3.895,-6.744 -5.825,-14.463 -5.147,-20.579c0.522,-4.702 4.332,-16.959 8.719,-28.051c1.914,-4.84 1.914,-4.84 0.528,-7.658c-4.551,-9.258 -6.004,-21.191 -5.665,-46.529c0.187,-13.94 0.306,-15.922 1.028,-17.043c1.491,-2.314 2.699,-2.513 7.518,-1.234c6.842,1.815 23.05,7.294 28.306,9.57c5.714,2.473 7.559,3.356 15.998,7.658c8.941,4.558 8.941,4.558 26.116,4.821c19.748,0.304 15.559,1.181 31.915,-6.682c10.28,-4.942 12.58,-5.937 20.591,-8.908c13.168,-4.884 23.258,-7.692 25.858,-7.196c2.585,0.493 3.108,1.573 3.543,7.307c0.546,7.208 0.518,30.081 -0.043,35.556c-0.919,8.947 -3.533,18.784 -6.14,23.1c-0.757,1.254 -1.377,2.394 -1.377,2.532c0,0.139 1.078,3.097 2.396,6.574c4.092,10.797 4.488,11.93 5.889,16.851c1.205,4.237 1.36,5.527 1.353,11.247c-0.007,5.351 -0.19,7.051 -1.068,9.894c-4.16,13.478 -15.794,25.775 -31.427,33.219c-16.566,7.888 -36.289,11.205 -59.489,10.006l-0.001,-0Zm25.881,-12.198c11.517,-1.426 21.746,-4.357 30.147,-8.637c15.688,-7.993 25.028,-20.126 25.036,-32.523c0,-3.414 -0.305,-4.763 -2.834,-12.444c-3.359,-10.201 -9.044,-26.333 -10.424,-29.582c-5.665,-13.337 -18.767,-22.228 -37.306,-25.316c-5.521,-0.92 -8.141,-1.047 -22.03,-1.071c-13.077,-0.023 -16.605,0.119 -20.704,0.829c-15.373,2.664 -27.037,9.27 -33.978,19.245c-2.494,3.583 -4.627,8.277 -6.742,14.837c-0.339,1.052 -1.381,4.068 -2.315,6.7c-3.424,9.648 -7.73,23.517 -8.039,25.886c-0.394,3.026 0.726,8.859 2.31,12.035c6.655,13.342 24.2,24.614 44.473,28.574c6.149,1.202 13.113,2.102 18.408,2.381c5.315,0.279 18.378,-0.218 23.998,-0.914Zm-34.247,-20.859c-3.128,-1.254 -7.843,-5.605 -8.599,-7.938c-1.263,-3.891 0.517,-7.57 3.934,-8.134c1.639,-0.27 1.889,-0.13 4.281,2.402c3.911,4.14 6.889,4.843 8.907,2.103c2.03,-2.755 1.992,-3.372 -0.368,-6.075c-4.735,-5.423 -5.355,-9.786 -1.557,-10.949c0.843,-0.258 5.989,-0.437 11.436,-0.397c8.672,0.063 10.063,0.179 11.196,0.934c3.068,2.045 2.353,5.309 -2.2,10.047c-1.466,1.526 -2.665,2.9 -2.665,3.055c0,0.723 2.02,3.487 3.051,4.173c2.342,1.561 3.894,1.048 7.083,-2.343c3.13,-3.328 4.074,-3.676 6.317,-2.329c3.175,1.908 3.758,5.924 1.349,9.306c-2.031,2.852 -2.918,3.576 -6.729,5.492c-2.587,1.301 -3.851,1.649 -5.981,1.649c-3.539,0 -7.547,-1.551 -10.036,-3.885c-1.964,-1.841 -1.964,-1.841 -3.08,-0.632c-0.614,0.665 -2.492,1.897 -4.173,2.739c-3.979,1.992 -8.432,2.278 -12.166,0.782Zm-42.186,-10.464c-1.912,-1.282 -2.584,-2.726 -2.603,-5.597c-0.012,-1.726 0.251,-2.796 0.882,-3.589c0.89,-1.119 1.006,-1.132 11.6,-1.283c5.886,-0.085 11.195,-0.028 11.798,0.126c1.375,0.351 2.525,2.554 2.525,4.837c-0,1.348 -0.365,2.118 -1.6,3.374c-0.898,0.914 -2.085,1.632 -2.706,1.637c-0.608,0.006 -4.282,0.326 -8.164,0.712c-9.125,0.908 -10.08,0.89 -11.732,-0.217Zm107.019,0.406c-7.565,-0.665 -9.996,-1.227 -11.155,-2.577c-2.383,-2.776 -1.475,-7.809 1.517,-8.411c0.781,-0.157 5.799,-0.152 11.149,0.011c8.583,0.262 9.843,0.403 10.699,1.19c1.829,1.684 2.269,5.987 0.811,7.941c-1.827,2.449 -3.487,2.685 -13.021,1.846l-0,0Zm-6.823,-24.864c-1.036,-0.515 -3.047,-1.689 -4.471,-2.608c-3.391,-2.191 -4.836,-2.153 -9.12,0.238c-4.711,2.63 -7.009,2.504 -8.52,-0.469c-1.536,-3.021 -0.4,-5.978 3.443,-8.959c4.408,-3.42 12.339,-4.034 17.491,-1.354c3.689,1.919 5.526,3.463 6.847,5.754c1.537,2.668 1.493,4.645 -0.141,6.41c-1.728,1.866 -3.227,2.134 -5.529,0.988Zm-87.253,-0.759c-1.639,-2.119 -1.33,-4.864 0.86,-7.65c5.728,-7.288 16.572,-8.575 24.194,-2.871c1.619,1.212 3.615,4.511 3.615,5.976c0,2.061 -1.289,4.32 -2.675,4.689c-1.919,0.512 -2.788,0.276 -6.647,-1.803c-4.729,-2.549 -5.984,-2.487 -10.676,0.527c-4.526,2.907 -7.045,3.235 -8.671,1.132Zm116.659,-45.823c0.639,-7.648 0.574,-28.535 -0.089,-28.535c-0.843,-0 -5.669,1.462 -12.142,3.679c-6.565,2.248 -13.909,5.44 -19.906,8.654c-3.451,1.849 -3.451,1.849 -0.36,2.929c4.993,1.744 12.449,5.756 16.635,8.951c4.514,3.446 9.895,9.044 12.439,12.942c1.776,2.721 1.776,2.721 2.342,0.132c0.311,-1.424 0.798,-5.362 1.081,-8.752Zm-136.058,9.483c0.792,-1.769 5.328,-7.844 7.189,-9.629c2.813,-2.698 8.539,-6.749 12.646,-8.946c3.625,-1.938 5.961,-2.988 10.823,-4.86c1.647,-0.635 1.647,-0.635 -3.765,-3.237c-8.422,-4.049 -26.465,-10.867 -28.76,-10.867c-1.015,-0 -1.015,-0 -0.757,16.631c0.24,15.432 0.768,22.135 1.744,22.135c0.182,0 0.578,-0.552 0.88,-1.227Z" style="fill-rule:nonzero;"/></g></g></svg>