<?xml version="1.0" encoding="UTF-8" standalone="no"?><!DOCTYPE svg PUBLIC "-//W3C//DTD SVG 1.1//EN" "http://www.w3.org/Graphics/SVG/1.1/DTD/svg11.dtd"><svg width="100%" height="100%" viewBox="0 0 200 200" version="1.1" xmlns="http://www.w3.org/2000/svg" xmlns:xlink="http://www.w3.org/1999/xlink" xml:space="preserve" xmlns:serif="http://www.serif.com/" style="fill-rule:evenodd;clip-rule:evenodd;stroke-linejoin:round;stroke-miterlimit:2;"><rect id="Artboard1" x="0" y="0" width="200" height="200" style="fill:none;"/><g id="Artboard11" serif:id="Artboard1"><path d="M97.12,16.667c45.993,-0 83.333,37.34 83.333,83.333c0,45.993 -37.34,83.333 -83.333,83.333c-46.628,0 -86.737,-41.451 -75.738,-86.763c1.802,-7.423 4.91,-12.187 8.548,-15.427c5.287,-4.707 12.003,-6.239 19.081,-6.909c3.36,-0.318 6.797,-0.453 10.024,-1.103c3.141,-0.632 6.081,-1.826 8.007,-5.289c1.641,-2.952 0.943,-6.33 0.123,-9.714c-1.318,-5.434 -3.495,-10.909 -4.401,-15.785c-1.126,-6.06 -0.467,-11.453 2.722,-15.836c3.772,-5.184 12.509,-9.84 31.634,-9.84Zm0,15.174c-6.698,-0 -11.654,0.498 -15.259,1.522c-1.977,0.562 -3.381,1.076 -4.105,2.071c-0.665,0.915 -0.386,2.079 -0.209,3.318c0.27,1.88 0.839,3.877 1.467,5.944c1.651,5.439 3.631,11.242 4.042,16.764c0.359,4.82 -0.368,9.467 -2.752,13.756c-5.703,10.257 -14.702,12.718 -24.396,13.648c-7.88,0.757 -16.868,-0.71 -19.78,11.286c-8.725,35.941 24.007,68.009 60.992,68.009c37.618,0 68.159,-30.541 68.159,-68.159c0,-37.618 -30.541,-68.159 -68.159,-68.159Zm-42.908,95.003c-3.804,-1.025 -6.982,-3.464 -8.955,-6.867c-1.969,-3.412 -2.493,-7.383 -1.474,-11.186c2.107,-7.855 10.209,-12.529 18.055,-10.428c7.853,2.107 12.529,10.204 10.427,18.054c-1.019,3.802 -3.46,6.982 -6.868,8.951c-2.273,1.309 -4.789,1.977 -7.344,1.977c-1.283,0 -2.569,-0.167 -3.841,-0.501Zm-4.75,-16.531c-0.613,2.284 -0.297,4.672 0.886,6.721c1.187,2.051 3.097,3.514 5.385,4.128c2.287,0.613 4.673,0.298 6.721,-0.887c2.051,-1.179 3.517,-3.093 4.131,-5.38c1.263,-4.716 -1.55,-9.585 -6.266,-10.853c-4.721,-1.26 -9.59,1.547 -10.857,6.271Zm58.73,-32.537c-3.803,-1.025 -6.981,-3.465 -8.955,-6.868c-1.968,-3.412 -2.492,-7.382 -1.473,-11.186c2.107,-7.854 10.209,-12.529 18.054,-10.428c7.854,2.107 12.53,10.204 10.428,18.054c-1.02,3.802 -3.461,6.982 -6.868,8.951c-2.273,1.31 -4.789,1.978 -7.345,1.978c-1.282,-0 -2.569,-0.167 -3.841,-0.501Zm-4.749,-16.532c-0.614,2.284 -0.297,4.673 0.886,6.721c1.187,2.051 3.097,3.515 5.384,4.128c2.288,0.613 4.674,0.298 6.721,-0.886c2.052,-1.18 3.518,-3.094 4.132,-5.38c1.263,-4.717 -1.551,-9.585 -6.266,-10.853c-4.721,-1.26 -9.59,1.546 -10.857,6.27Zm34.036,47.07c-3.803,-1.025 -6.982,-3.465 -8.955,-6.868c-1.968,-3.412 -2.492,-7.382 -1.473,-11.186c2.107,-7.854 10.208,-12.529 18.054,-10.428c7.854,2.107 12.529,10.204 10.427,18.054c-1.019,3.802 -3.46,6.982 -6.867,8.951c-2.273,1.31 -4.79,1.977 -7.345,1.977c-1.282,0 -2.569,-0.167 -3.841,-0.5Zm-4.75,-16.532c-0.613,2.284 -0.297,4.673 0.887,6.721c1.187,2.051 3.097,3.515 5.384,4.128c2.287,0.613 4.673,0.298 6.721,-0.886c2.051,-1.18 3.518,-3.094 4.131,-5.38c1.264,-4.717 -1.55,-9.586 -6.266,-10.853c-4.72,-1.26 -9.59,1.546 -10.857,6.27Zm-8.413,55.456c-3.804,-1.025 -6.982,-3.465 -8.955,-6.868c-1.969,-3.412 -2.493,-7.382 -1.474,-11.185c2.107,-7.855 10.209,-12.53 18.055,-10.429c7.853,2.107 12.529,10.204 10.427,18.055c-1.019,3.802 -3.46,6.981 -6.868,8.95c-2.273,1.31 -4.789,1.978 -7.344,1.978c-1.283,-0 -2.569,-0.167 -3.841,-0.501Zm-4.75,-16.532c-0.613,2.284 -0.297,4.673 0.886,6.721c1.187,2.052 3.097,3.515 5.385,4.128c2.287,0.614 4.673,0.298 6.721,-0.886c2.051,-1.18 3.517,-3.093 4.131,-5.38c1.263,-4.717 -1.55,-9.585 -6.266,-10.853c-4.721,-1.26 -9.59,1.547 -10.857,6.27Zm-35.861,25.624c-3.803,-1.025 -6.982,-3.465 -8.955,-6.868c-1.969,-3.412 -2.493,-7.382 -1.473,-11.186c2.106,-7.854 10.208,-12.529 18.054,-10.428c7.853,2.107 12.529,10.204 10.427,18.054c-1.019,3.802 -3.46,6.982 -6.868,8.951c-2.272,1.31 -4.789,1.978 -7.344,1.978c-1.282,-0 -2.569,-0.167 -3.841,-0.501Zm-4.75,-16.532c-0.613,2.284 -0.297,4.673 0.886,6.721c1.187,2.051 3.097,3.515 5.385,4.128c2.287,0.613 4.673,0.298 6.721,-0.886c2.051,-1.18 3.518,-3.094 4.131,-5.38c1.264,-4.717 -1.55,-9.585 -6.266,-10.853c-4.72,-1.26 -9.59,1.546 -10.857,6.27Z"/></g></svg>