<?xml version="1.0" encoding="UTF-8" standalone="no"?><!DOCTYPE svg PUBLIC "-//W3C//DTD SVG 1.1//EN" "http://www.w3.org/Graphics/SVG/1.1/DTD/svg11.dtd"><svg width="100%" height="100%" viewBox="0 0 123 123" version="1.1" xmlns="http://www.w3.org/2000/svg" xmlns:xlink="http://www.w3.org/1999/xlink" xml:space="preserve" xmlns:serif="http://www.serif.com/" style="fill-rule:evenodd;clip-rule:evenodd;stroke-linejoin:round;stroke-miterlimit:2;"><path d="M6.375,51.225c0.283,-0.584 1.096,-2.004 2.404,-2.488c0.942,-0.346 2.125,-0.166 3.521,0.533l0.583,0.301c0.404,0.212 0.813,0.416 1.221,0.612l3.358,1.692l-0.091,-0.4c9.529,3.066 20.216,0.662 27.5,-6.621c8.021,-8.025 10.183,-19.987 5.604,-30.229l0.225,-0.338l-1.075,-1.4c-0.096,-0.166 -0.196,-0.333 -0.296,-0.5l-0.117,-0.191c-0.879,-1.667 -1.183,-3.217 -0.812,-4.142c0.262,-0.642 0.958,-1.163 2.071,-1.554c2.921,-0.579 5.966,-0.929 9.062,-1.033c15.713,-0.563 30.467,5.254 41.529,16.328c10.588,10.584 16.417,24.655 16.417,39.621c0,14.971 -5.829,29.042 -16.417,39.63c-11.083,11.083 -25.837,16.908 -41.529,16.362c-14.254,-0.479 -27.65,-6.292 -37.725,-16.362c-13.033,-13.03 -18.787,-31.634 -15.433,-49.821Zm-5.117,-1.88l-0.166,0.546c-3.813,20.059 2.491,40.613 16.875,54.996c11.05,11.05 25.75,17.425 41.383,17.954c0.683,0.021 1.367,0.038 2.05,0.038c16.246,-0 32.004,-6.496 43.508,-17.992c11.609,-11.617 18,-27.054 18,-43.471c0,-16.416 -6.391,-31.854 -18,-43.466c-12.141,-12.146 -28.316,-18.501 -45.562,-17.913c-3.45,0.113 -6.854,0.513 -10.117,1.163l-0.317,0.087c-3.47,1.146 -4.933,3.209 -5.55,4.733c-1.337,3.317 0.08,6.884 1.096,8.805l0.221,0.371c0.075,0.125 0.15,0.245 0.221,0.374l0.162,0.321c4.238,8.388 2.63,18.45 -4.033,25.117c-6.917,6.913 -17.675,8.329 -26.154,3.446l-4.075,-2.342l-0,1.067c-1.354,-0.155 -2.654,0 -3.896,0.458c-3.55,1.304 -5.221,4.7 -5.646,5.708Z" style="fill:#221f1f;fill-rule:nonzero;"/><path d="M18.933,80.808c-2.354,-1.358 -4.037,-3.55 -4.737,-6.171c-0.704,-2.629 -0.346,-5.366 1.012,-7.725c1.359,-2.35 3.55,-4.033 6.175,-4.733c5.417,-1.45 11.004,1.771 12.454,7.192c0.705,2.625 0.346,5.362 -1.016,7.716c-1.354,2.35 -3.55,4.029 -6.175,4.733c-2.621,0.705 -5.363,0.342 -7.713,-1.012Zm8.417,3.637c3.325,-0.891 6.104,-3.02 7.825,-6c1.721,-2.983 2.179,-6.449 1.287,-9.783c-1.837,-6.858 -8.916,-10.946 -15.783,-9.108c-3.321,0.887 -6.1,3.021 -7.825,6.004c-1.721,2.983 -2.175,6.454 -1.283,9.779c0.891,3.325 3.021,6.104 6.004,7.825c1.983,1.146 4.187,1.729 6.421,1.729c1.116,0 2.241,-0.145 3.354,-0.446Z" style="fill:#221f1f;fill-rule:nonzero;"/><path d="M39.825,95.654c1.454,-5.413 7.046,-8.642 12.458,-7.192c1.625,0.438 3.071,1.242 4.3,2.384c2.754,2.583 3.863,6.437 2.892,10.07c-0.492,1.83 -1.492,3.488 -2.892,4.792c-2.587,2.417 -6.162,3.313 -9.566,2.4c-2.625,-0.704 -4.817,-2.383 -6.175,-4.738c-1.359,-2.349 -1.717,-5.091 -1.017,-7.716Zm-1.338,9.075c1.721,2.979 4.5,5.117 7.83,6.004c1.108,0.296 2.233,0.442 3.35,0.442c3.212,-0 6.337,-1.213 8.766,-3.484c1.775,-1.65 3.042,-3.75 3.667,-6.07c1.229,-4.605 -0.171,-9.492 -3.663,-12.759c-1.537,-1.437 -3.425,-2.483 -5.454,-3.025c-6.858,-1.833 -13.937,2.25 -15.783,9.113c-0.892,3.329 -0.433,6.8 1.287,9.779Z" style="fill:#221f1f;fill-rule:nonzero;"/><path d="M92.325,97.525c-1.917,1.921 -4.475,2.979 -7.188,2.979c-2.716,-0 -5.27,-1.058 -7.191,-2.979c-3.963,-3.967 -3.963,-10.413 -0,-14.38c1.921,-1.924 4.475,-2.979 7.191,-2.979c2.713,0 5.271,1.055 7.188,2.979c1.925,1.926 2.983,4.476 2.983,7.188c0,2.717 -1.058,5.271 -2.983,7.192Zm-7.188,-20.075c-3.445,-0 -6.679,1.337 -9.112,3.771c-5.021,5.029 -5.021,13.199 -0,18.225c2.433,2.437 5.667,3.774 9.112,3.774c3.442,0 6.68,-1.337 9.113,-3.774c2.433,-2.434 3.771,-5.671 3.771,-9.113c-0,-3.442 -1.338,-6.675 -3.771,-9.112c-2.433,-2.434 -5.671,-3.771 -9.113,-3.771Z" style="fill:#221f1f;fill-rule:nonzero;"/><path d="M94.029,46.479c5.421,-1.446 11.004,1.779 12.458,7.192c1.45,5.42 -1.775,11.008 -7.191,12.462c-5.413,1.446 -11.004,-1.775 -12.454,-7.196c-1.455,-5.412 1.77,-11 7.187,-12.458Zm-9.812,13.162c1.541,5.755 6.758,9.555 12.45,9.555c1.1,-0 2.22,-0.142 3.333,-0.442c6.862,-1.838 10.95,-8.917 9.112,-15.779c-1.841,-6.867 -8.925,-10.955 -15.787,-9.113c-6.863,1.838 -10.946,8.925 -9.108,15.779Z" style="fill:#221f1f;fill-rule:nonzero;"/><path d="M61.233,26.983c1.454,-5.421 7.042,-8.642 12.459,-7.196c5.412,1.455 8.641,7.042 7.191,12.455c-0.704,2.624 -2.387,4.82 -4.741,6.174c-2.35,1.359 -5.088,1.721 -7.713,1.017c-2.625,-0.704 -4.817,-2.383 -6.179,-4.737c-1.358,-2.351 -1.721,-5.092 -1.017,-7.713Zm6.492,15.079c1.112,0.292 2.237,0.438 3.358,0.438c2.234,-0 4.434,-0.584 6.421,-1.729c2.979,-1.721 5.113,-4.501 6.004,-7.825c1.838,-6.863 -2.25,-13.942 -9.116,-15.784c-6.859,-1.837 -13.942,2.25 -15.784,9.117c-0.891,3.325 -0.433,6.796 1.288,9.779c1.725,2.975 4.504,5.108 7.829,6.004Z" style="fill:#221f1f;fill-rule:nonzero;"/></svg>