<?xml version="1.0" encoding="UTF-8" standalone="no"?><!DOCTYPE svg PUBLIC "-//W3C//DTD SVG 1.1//EN" "http://www.w3.org/Graphics/SVG/1.1/DTD/svg11.dtd"><svg width="100%" height="100%" viewBox="0 0 200 200" version="1.1" xmlns="http://www.w3.org/2000/svg" xmlns:xlink="http://www.w3.org/1999/xlink" xml:space="preserve" xmlns:serif="http://www.serif.com/" style="fill-rule:evenodd;clip-rule:evenodd;stroke-linejoin:round;stroke-miterlimit:2;"><rect id="Artboard1" x="0" y="0" width="200" height="200" style="fill:none;"/><g id="Artboard11" serif:id="Artboard1"><path d="M75,141.667l33.333,-0c11.051,-0 21.649,-4.39 29.463,-12.204c7.814,-7.814 12.204,-18.412 12.204,-29.463l0,-8.333l8.333,-0c6.631,-0 12.99,-2.634 17.678,-7.323c4.689,-4.688 7.322,-11.047 7.322,-17.677c0,-6.631 -2.633,-12.989 -7.322,-17.678c-4.688,-4.689 -11.047,-7.322 -17.678,-7.322l-8.333,-0l0,-8.334c0,-2.21 -0.878,-4.329 -2.441,-5.892c-1.563,-1.563 -3.682,-2.441 -5.892,-2.441l-100,0c-2.21,0 -4.33,0.878 -5.893,2.441c-1.563,1.563 -2.441,3.682 -2.441,5.892l0,66.667c0,11.051 4.39,21.649 12.204,29.463c7.814,7.814 18.412,12.204 29.463,12.204Zm75,-83.334l8.333,0c2.21,0 4.33,0.878 5.893,2.441c1.563,1.563 2.441,3.683 2.441,5.893c-0,2.21 -0.878,4.329 -2.441,5.892c-1.563,1.563 -3.683,2.441 -5.893,2.441l-8.333,0l0,-16.667Zm-100,-16.666l83.333,-0l0,58.333c0,6.63 -2.633,12.989 -7.322,17.677c-4.689,4.689 -11.047,7.323 -17.678,7.323l-33.333,0c-6.63,0 -12.989,-2.634 -17.677,-7.323c-4.689,-4.688 -7.323,-11.047 -7.323,-17.677l0,-58.333Zm125,116.666l-150,0c-2.21,0 -4.33,0.878 -5.893,2.441c-1.562,1.563 -2.44,3.683 -2.44,5.893c-0,2.21 0.878,4.329 2.44,5.892c1.563,1.563 3.683,2.441 5.893,2.441l150,0c2.21,0 4.33,-0.878 5.893,-2.441c1.562,-1.563 2.44,-3.682 2.44,-5.892c0,-2.21 -0.878,-4.33 -2.44,-5.893c-1.563,-1.563 -3.683,-2.441 -5.893,-2.441Z" style="fill:#101117;fill-rule:nonzero;"/></g></svg>