<svg width="48" height="48" viewBox="0 0 48 48" fill="none" xmlns="http://www.w3.org/2000/svg">
<path d="M18 34H26C28.6522 34 31.1957 32.9464 33.0711 31.0711C34.9464 29.1957 36 26.6522 36 24V22H38C39.5913 22 41.1174 21.3679 42.2426 20.2426C43.3679 19.1174 44 17.5913 44 16C44 14.4087 43.3679 12.8826 42.2426 11.7574C41.1174 10.6321 39.5913 10 38 10H36V8C36 7.46957 35.7893 6.96086 35.4142 6.58579C35.0391 6.21071 34.5304 6 34 6H10C9.46957 6 8.96086 6.21071 8.58579 6.58579C8.21071 6.96086 8 7.46957 8 8V24C8 26.6522 9.05357 29.1957 10.9289 31.0711C12.8043 32.9464 15.3478 34 18 34ZM36 14H38C38.5304 14 39.0391 14.2107 39.4142 14.5858C39.7893 14.9609 40 15.4696 40 16C40 16.5304 39.7893 17.0391 39.4142 17.4142C39.0391 17.7893 38.5304 18 38 18H36V14ZM12 10H32V24C32 25.5913 31.3679 27.1174 30.2426 28.2426C29.1174 29.3679 27.5913 30 26 30H18C16.4087 30 14.8826 29.3679 13.7574 28.2426C12.6321 27.1174 12 25.5913 12 24V10ZM42 38H6C5.46957 38 4.96086 38.2107 4.58579 38.5858C4.21071 38.9609 4 39.4696 4 40C4 40.5304 4.21071 41.0391 4.58579 41.4142C4.96086 41.7893 5.46957 42 6 42H42C42.5304 42 43.0391 41.7893 43.4142 41.4142C43.7893 41.0391 44 40.5304 44 40C44 39.4696 43.7893 38.9609 43.4142 38.5858C43.0391 38.2107 42.5304 38 42 38Z" fill="#101117"/>
</svg>
