<svg width="48" height="48" viewBox="0 0 48 48" fill="none" xmlns="http://www.w3.org/2000/svg">
<path d="M40.0001 19.3401V19.0001C40.0123 15.598 38.9328 12.2817 36.9205 9.53852C34.9081 6.79536 32.0689 4.77001 28.8201 3.76009H28.7001C27.0222 3.24856 25.274 3.00556 23.5201 3.04009C19.3438 3.26927 15.4123 5.08359 12.5281 8.11274C9.64392 11.1419 8.02441 15.1575 8.00013 19.3401C6.82815 19.7524 5.81305 20.5183 5.09496 21.5321C4.37687 22.546 3.99121 23.7577 3.99121 25.0001C3.99121 26.2425 4.37687 27.4542 5.09496 28.4681C5.81305 29.4819 6.82815 30.2478 8.00013 30.6601C8.41206 34.6096 10.278 38.2649 13.2351 40.9152C16.1922 43.5655 20.0292 45.0215 24.0001 45.0001H24.4601C28.3001 44.8142 31.9499 43.2738 34.7619 40.6522C37.5738 38.0307 39.3659 34.4976 39.8201 30.6801C41.0059 30.2911 42.0409 29.5421 42.781 28.5373C43.5211 27.5325 43.9295 26.322 43.9493 25.0742C43.9691 23.8264 43.5993 22.6035 42.8915 21.5757C42.1836 20.548 41.173 19.7665 40.0001 19.3401ZM24.3601 41.0001C21.4649 41.0838 18.6371 40.1176 16.3985 38.2797C14.16 36.4418 12.6617 33.8562 12.1801 31.0001H35.7201C35.232 33.7039 33.8441 36.1632 31.7818 37.9786C29.7195 39.794 27.104 40.8588 24.3601 41.0001ZM38.0001 27.0001H10.0001C9.4697 27.0001 8.96099 26.7894 8.58592 26.4143C8.21084 26.0392 8.00013 25.5305 8.00013 25.0001C8.00013 24.4697 8.21084 23.9609 8.58592 23.5859C8.96099 23.2108 9.4697 23.0001 10.0001 23.0001H14.0001C14.5306 23.0001 15.0393 22.7894 15.4143 22.4143C15.7894 22.0392 16.0001 21.5305 16.0001 21.0001C16.0001 20.4697 15.7894 19.9609 15.4143 19.5859C15.0393 19.2108 14.5306 19.0001 14.0001 19.0001H12.0001C12.0897 16.9253 12.6827 14.9035 13.728 13.109C14.7733 11.3146 16.2395 9.80141 18.0001 8.70009V15.0001C18.0001 15.5305 18.2108 16.0392 18.5859 16.4143C18.961 16.7894 19.4697 17.0001 20.0001 17.0001C20.5306 17.0001 21.0393 16.7894 21.4143 16.4143C21.7894 16.0392 22.0001 15.5305 22.0001 15.0001V7.18009C22.543 7.08939 23.0905 7.0293 23.6401 7.00009H24.0001C24.6704 7.00953 25.339 7.0697 26.0001 7.18009V15.0001C26.0001 15.5305 26.2108 16.0392 26.5859 16.4143C26.961 16.7894 27.4697 17.0001 28.0001 17.0001C28.5306 17.0001 29.0393 16.7894 29.4143 16.4143C29.7894 16.0392 30.0001 15.5305 30.0001 15.0001V8.64009C30.8485 9.13134 31.64 9.71488 32.3601 10.3801C33.5132 11.4999 34.4296 12.8399 35.0549 14.3207C35.6802 15.8014 36.0016 17.3927 36.0001 19.0001H34.0001C33.4697 19.0001 32.961 19.2108 32.5859 19.5859C32.2108 19.9609 32.0001 20.4697 32.0001 21.0001C32.0001 21.5305 32.2108 22.0392 32.5859 22.4143C32.961 22.7894 33.4697 23.0001 34.0001 23.0001H38.0001C38.5306 23.0001 39.0393 23.2108 39.4143 23.5859C39.7894 23.9609 40.0001 24.4697 40.0001 25.0001C40.0001 25.5305 39.7894 26.0392 39.4143 26.4143C39.0393 26.7894 38.5306 27.0001 38.0001 27.0001Z" fill="#101117"/>
</svg>
