<?xml version="1.0" encoding="UTF-8" standalone="no"?><!DOCTYPE svg PUBLIC "-//W3C//DTD SVG 1.1//EN" "http://www.w3.org/Graphics/SVG/1.1/DTD/svg11.dtd"><svg width="100%" height="100%" viewBox="0 0 200 200" version="1.1" xmlns="http://www.w3.org/2000/svg" xmlns:xlink="http://www.w3.org/1999/xlink" xml:space="preserve" xmlns:serif="http://www.serif.com/" style="fill-rule:evenodd;clip-rule:evenodd;stroke-linejoin:round;stroke-miterlimit:2;"><rect id="Artboard1" x="0" y="0" width="200" height="200" style="fill:none;"/><g id="Artboard11" serif:id="Artboard1"><path d="M163.664,81.418l0,-1.35c0.049,-13.512 -4.239,-26.684 -12.231,-37.579c-7.993,-10.895 -19.269,-18.939 -32.172,-22.95l-0.477,0c-6.664,-2.032 -13.607,-2.997 -20.573,-2.86c-16.587,0.911 -32.202,8.117 -43.657,20.148c-11.456,12.031 -17.888,27.979 -17.984,44.591c-4.655,1.638 -8.687,4.68 -11.539,8.706c-2.852,4.027 -4.383,8.84 -4.383,13.774c-0,4.935 1.531,9.747 4.383,13.774c2.852,4.027 6.884,7.069 11.539,8.706c1.636,15.686 9.047,30.204 20.792,40.73c11.744,10.527 26.984,16.309 42.755,16.224l1.827,0c15.251,-0.738 29.747,-6.856 40.916,-17.268c11.168,-10.412 18.286,-24.444 20.089,-39.606c4.71,-1.545 8.821,-4.52 11.76,-8.511c2.94,-3.991 4.562,-8.799 4.64,-13.754c0.079,-4.956 -1.39,-9.813 -4.201,-13.895c-2.811,-4.082 -6.825,-7.186 -11.484,-8.88Zm-62.117,86.028c-11.499,0.332 -22.73,-3.505 -31.621,-10.805c-8.891,-7.3 -14.842,-17.569 -16.755,-28.913l93.494,0c-1.938,10.739 -7.45,20.507 -15.641,27.717c-8.191,7.21 -18.579,11.439 -29.477,12.001Zm54.174,-55.604l-111.208,-0c-2.106,-0 -4.127,-0.837 -5.617,-2.327c-1.489,-1.49 -2.326,-3.51 -2.326,-5.617c-0,-2.106 0.837,-4.127 2.326,-5.617c1.49,-1.489 3.511,-2.326 5.617,-2.326l15.887,-0c2.107,-0 4.127,-0.837 5.617,-2.327c1.49,-1.49 2.326,-3.51 2.326,-5.617c0,-2.106 -0.836,-4.127 -2.326,-5.616c-1.49,-1.49 -3.51,-2.327 -5.617,-2.327l-7.943,-0c0.355,-8.241 2.711,-16.271 6.862,-23.398c4.152,-7.127 9.975,-13.137 16.968,-17.511l-0,25.022c-0,2.107 0.837,4.127 2.326,5.617c1.49,1.49 3.511,2.327 5.617,2.327c2.107,-0 4.128,-0.837 5.617,-2.327c1.49,-1.49 2.327,-3.51 2.327,-5.617l-0,-31.059c2.156,-0.36 4.33,-0.599 6.513,-0.715l1.43,0c2.662,0.038 5.318,0.277 7.943,0.715l0,31.059c0,2.107 0.837,4.127 2.327,5.617c1.49,1.49 3.51,2.327 5.617,2.327c2.107,-0 4.127,-0.837 5.617,-2.327c1.489,-1.49 2.326,-3.51 2.326,-5.617l0,-25.26c3.37,1.951 6.513,4.269 9.374,6.911c4.579,4.447 8.219,9.769 10.702,15.651c2.484,5.881 3.76,12.201 3.755,18.585l-7.944,-0c-2.106,-0 -4.127,0.837 -5.617,2.327c-1.489,1.489 -2.326,3.51 -2.326,5.616c-0,2.107 0.837,4.127 2.326,5.617c1.49,1.49 3.511,2.327 5.617,2.327l15.887,-0c2.107,-0 4.127,0.837 5.617,2.326c1.49,1.49 2.326,3.511 2.326,5.617c0,2.107 -0.836,4.127 -2.326,5.617c-1.49,1.49 -3.51,2.327 -5.617,2.327Z" style="fill:#101117;fill-rule:nonzero;"/></g></svg>