<svg width="48" height="48" viewBox="0 0 48 48" fill="none" xmlns="http://www.w3.org/2000/svg">
<path d="M38 4H10C8.4087 4 6.88258 4.63214 5.75736 5.75736C4.63214 6.88258 4 8.4087 4 10V30C4 31.5913 4.63214 33.1174 5.75736 34.2426C6.88258 35.3679 8.4087 36 10 36H16V40H10C9.46957 40 8.96086 40.2107 8.58579 40.5858C8.21071 40.9609 8 41.4696 8 42C8 42.5304 8.21071 43.0391 8.58579 43.4142C8.96086 43.7893 9.46957 44 10 44H38C38.5304 44 39.0391 43.7893 39.4142 43.4142C39.7893 43.0391 40 42.5304 40 42C40 41.4696 39.7893 40.9609 39.4142 40.5858C39.0391 40.2107 38.5304 40 38 40H32V36H38C39.5913 36 41.1174 35.3679 42.2426 34.2426C43.3679 33.1174 44 31.5913 44 30V10C44 8.4087 43.3679 6.88258 42.2426 5.75736C41.1174 4.63214 39.5913 4 38 4ZM28 40H20V36H28V40ZM40 30C40 30.5304 39.7893 31.0391 39.4142 31.4142C39.0391 31.7893 38.5304 32 38 32H10C9.46957 32 8.96086 31.7893 8.58579 31.4142C8.21071 31.0391 8 30.5304 8 30V28H40V30ZM40 24H8V10C8 9.46957 8.21071 8.96086 8.58579 8.58579C8.96086 8.21071 9.46957 8 10 8H38C38.5304 8 39.0391 8.21071 39.4142 8.58579C39.7893 8.96086 40 9.46957 40 10V24Z" fill="#101117"/>
</svg>
