<?xml version="1.0" encoding="UTF-8" standalone="no"?><!DOCTYPE svg PUBLIC "-//W3C//DTD SVG 1.1//EN" "http://www.w3.org/Graphics/SVG/1.1/DTD/svg11.dtd"><svg width="100%" height="100%" viewBox="0 0 200 200" version="1.1" xmlns="http://www.w3.org/2000/svg" xmlns:xlink="http://www.w3.org/1999/xlink" xml:space="preserve" xmlns:serif="http://www.serif.com/" style="fill-rule:evenodd;clip-rule:evenodd;stroke-linejoin:round;stroke-miterlimit:2;"><rect id="Artboard1" x="0" y="0" width="200" height="200" style="fill:none;"/><g id="Artboard11" serif:id="Artboard1"><path d="M158.333,16.667l-116.666,-0c-6.631,-0 -12.99,2.634 -17.678,7.322c-4.688,4.688 -7.322,11.047 -7.322,17.678l-0,83.333c-0,6.63 2.634,12.989 7.322,17.678c4.688,4.688 11.047,7.322 17.678,7.322l25,0l-0,16.667l-25,-0c-2.21,-0 -4.33,0.878 -5.893,2.44c-1.563,1.563 -2.441,3.683 -2.441,5.893c0,2.21 0.878,4.33 2.441,5.893c1.563,1.562 3.683,2.44 5.893,2.44l116.666,0c2.21,0 4.33,-0.878 5.893,-2.44c1.563,-1.563 2.441,-3.683 2.441,-5.893c-0,-2.21 -0.878,-4.33 -2.441,-5.893c-1.563,-1.562 -3.683,-2.44 -5.893,-2.44l-25,-0l0,-16.667l25,0c6.631,0 12.99,-2.634 17.678,-7.322c4.689,-4.689 7.322,-11.048 7.322,-17.678l0,-83.333c0,-6.631 -2.633,-12.99 -7.322,-17.678c-4.688,-4.688 -11.047,-7.322 -17.678,-7.322Zm-41.666,150l-33.334,-0l0,-16.667l33.334,0l-0,16.667Zm50,-41.667c-0,2.21 -0.878,4.33 -2.441,5.893c-1.563,1.562 -3.683,2.44 -5.893,2.44l-116.666,0c-2.21,0 -4.33,-0.878 -5.893,-2.44c-1.563,-1.563 -2.441,-3.683 -2.441,-5.893l0,-8.333l133.334,-0l-0,8.333Zm-0,-25l-133.334,0l0,-58.333c0,-2.21 0.878,-4.33 2.441,-5.893c1.563,-1.563 3.683,-2.441 5.893,-2.441l116.666,0c2.21,0 4.33,0.878 5.893,2.441c1.563,1.563 2.441,3.683 2.441,5.893l-0,58.333Z" style="fill:#101117;fill-rule:nonzero;"/></g></svg>