<svg width="48" height="48" viewBox="0 0 48 48" fill="none" xmlns="http://www.w3.org/2000/svg">
<path d="M18 22C17.6044 22 17.2178 22.1173 16.8889 22.3371C16.56 22.5568 16.3036 22.8692 16.1522 23.2346C16.0009 23.6001 15.9613 24.0022 16.0384 24.3902C16.1156 24.7781 16.3061 25.1345 16.5858 25.4142C16.8655 25.6939 17.2219 25.8844 17.6098 25.9616C17.9978 26.0387 18.3999 25.9991 18.7654 25.8478C19.1308 25.6964 19.4432 25.44 19.6629 25.1111C19.8827 24.7822 20 24.3956 20 24C20 23.4696 19.7893 22.9609 19.4142 22.5858C19.0391 22.2107 18.5304 22 18 22ZM18 30C17.6044 30 17.2178 30.1173 16.8889 30.3371C16.56 30.5568 16.3036 30.8692 16.1522 31.2346C16.0009 31.6001 15.9613 32.0022 16.0384 32.3902C16.1156 32.7781 16.3061 33.1345 16.5858 33.4142C16.8655 33.6939 17.2219 33.8844 17.6098 33.9616C17.9978 34.0387 18.3999 33.9991 18.7654 33.8478C19.1308 33.6964 19.4432 33.44 19.6629 33.1111C19.8827 32.7822 20 32.3956 20 32C20 31.4696 19.7893 30.9609 19.4142 30.5858C19.0391 30.2107 18.5304 30 18 30ZM18 14C17.6044 14 17.2178 14.1173 16.8889 14.3371C16.56 14.5568 16.3036 14.8692 16.1522 15.2346C16.0009 15.6001 15.9613 16.0022 16.0384 16.3902C16.1156 16.7781 16.3061 17.1345 16.5858 17.4142C16.8655 17.6939 17.2219 17.8844 17.6098 17.9616C17.9978 18.0387 18.3999 17.9991 18.7654 17.8478C19.1308 17.6964 19.4432 17.44 19.6629 17.1111C19.8827 16.7822 20 16.3956 20 16C20 15.4696 19.7893 14.9609 19.4142 14.5858C19.0391 14.2107 18.5304 14 18 14ZM30 14C29.6044 14 29.2178 14.1173 28.8889 14.3371C28.56 14.5568 28.3036 14.8692 28.1522 15.2346C28.0009 15.6001 27.9613 16.0022 28.0384 16.3902C28.1156 16.7781 28.3061 17.1345 28.5858 17.4142C28.8655 17.6939 29.2219 17.8844 29.6098 17.9616C29.9978 18.0387 30.3999 17.9991 30.7654 17.8478C31.1308 17.6964 31.4432 17.44 31.6629 17.1111C31.8827 16.7822 32 16.3956 32 16C32 15.4696 31.7893 14.9609 31.4142 14.5858C31.0391 14.2107 30.5304 14 30 14ZM34 4H14C11.3478 4 8.8043 5.05357 6.92893 6.92893C5.05357 8.8043 4 11.3478 4 14V34C4 36.6522 5.05357 39.1957 6.92893 41.0711C8.8043 42.9464 11.3478 44 14 44H34C36.6522 44 39.1957 42.9464 41.0711 41.0711C42.9464 39.1957 44 36.6522 44 34V14C44 11.3478 42.9464 8.8043 41.0711 6.92893C39.1957 5.05357 36.6522 4 34 4ZM40 34C40 35.5913 39.3679 37.1174 38.2426 38.2426C37.1174 39.3679 35.5913 40 34 40H14C12.4087 40 10.8826 39.3679 9.75736 38.2426C8.63214 37.1174 8 35.5913 8 34V14C8 12.4087 8.63214 10.8826 9.75736 9.75736C10.8826 8.63214 12.4087 8 14 8H34C35.5913 8 37.1174 8.63214 38.2426 9.75736C39.3679 10.8826 40 12.4087 40 14V34ZM30 22C29.6044 22 29.2178 22.1173 28.8889 22.3371C28.56 22.5568 28.3036 22.8692 28.1522 23.2346C28.0009 23.6001 27.9613 24.0022 28.0384 24.3902C28.1156 24.7781 28.3061 25.1345 28.5858 25.4142C28.8655 25.6939 29.2219 25.8844 29.6098 25.9616C29.9978 26.0387 30.3999 25.9991 30.7654 25.8478C31.1308 25.6964 31.4432 25.44 31.6629 25.1111C31.8827 24.7822 32 24.3956 32 24C32 23.4696 31.7893 22.9609 31.4142 22.5858C31.0391 22.2107 30.5304 22 30 22ZM30 30C29.6044 30 29.2178 30.1173 28.8889 30.3371C28.56 30.5568 28.3036 30.8692 28.1522 31.2346C28.0009 31.6001 27.9613 32.0022 28.0384 32.3902C28.1156 32.7781 28.3061 33.1345 28.5858 33.4142C28.8655 33.6939 29.2219 33.8844 29.6098 33.9616C29.9978 34.0387 30.3999 33.9991 30.7654 33.8478C31.1308 33.6964 31.4432 33.44 31.6629 33.1111C31.8827 32.7822 32 32.3956 32 32C32 31.4696 31.7893 30.9609 31.4142 30.5858C31.0391 30.2107 30.5304 30 30 30Z" fill="#101117"/>
</svg>
