<?xml version="1.0" encoding="UTF-8" standalone="no"?><!DOCTYPE svg PUBLIC "-//W3C//DTD SVG 1.1//EN" "http://www.w3.org/Graphics/SVG/1.1/DTD/svg11.dtd"><svg width="100%" height="100%" viewBox="0 0 200 200" version="1.1" xmlns="http://www.w3.org/2000/svg" xmlns:xlink="http://www.w3.org/1999/xlink" xml:space="preserve" xmlns:serif="http://www.serif.com/" style="fill-rule:evenodd;clip-rule:evenodd;stroke-linejoin:round;stroke-miterlimit:2;"><rect id="Artboard1" x="0" y="0" width="200" height="200" style="fill:none;"/><g id="Artboard11" serif:id="Artboard1"><path d="M71.409,90.47c-1.885,-0 -3.728,0.559 -5.295,1.606c-1.567,1.047 -2.789,2.535 -3.511,4.277c-0.72,1.741 -0.909,3.657 -0.542,5.506c0.368,1.849 1.276,3.547 2.609,4.88c1.333,1.333 3.031,2.241 4.879,2.608c1.849,0.368 3.765,0.179 5.507,-0.542c1.741,-0.721 3.23,-1.943 4.277,-3.51c1.047,-1.568 1.606,-3.41 1.606,-5.295c0,-2.527 -1.004,-4.952 -2.791,-6.739c-1.788,-1.787 -4.212,-2.791 -6.739,-2.791Zm-0,38.121c-1.885,0 -3.728,0.559 -5.295,1.607c-1.567,1.047 -2.789,2.535 -3.511,4.276c-0.72,1.742 -0.909,3.658 -0.542,5.507c0.368,1.849 1.276,3.547 2.609,4.88c1.333,1.333 3.031,2.24 4.879,2.608c1.849,0.368 3.765,0.179 5.507,-0.542c1.741,-0.722 3.23,-1.943 4.277,-3.511c1.047,-1.567 1.606,-3.409 1.606,-5.294c0,-2.528 -1.004,-4.952 -2.791,-6.739c-1.788,-1.788 -4.212,-2.792 -6.739,-2.792Zm-0,-76.243c-1.885,-0 -3.728,0.559 -5.295,1.606c-1.567,1.047 -2.789,2.536 -3.511,4.277c-0.72,1.742 -0.909,3.658 -0.542,5.507c0.368,1.848 1.276,3.546 2.609,4.879c1.333,1.333 3.031,2.241 4.879,2.609c1.849,0.367 3.765,0.178 5.507,-0.543c1.741,-0.721 3.23,-1.943 4.277,-3.51c1.047,-1.567 1.606,-3.41 1.606,-5.295c0,-2.527 -1.004,-4.951 -2.791,-6.739c-1.788,-1.787 -4.212,-2.791 -6.739,-2.791Zm57.182,-0c-1.885,-0 -3.727,0.559 -5.294,1.606c-1.568,1.047 -2.789,2.536 -3.511,4.277c-0.721,1.742 -0.91,3.658 -0.542,5.507c0.368,1.848 1.276,3.546 2.608,4.879c1.333,1.333 3.032,2.241 4.88,2.609c1.849,0.367 3.765,0.178 5.507,-0.543c1.741,-0.721 3.229,-1.943 4.276,-3.51c1.048,-1.567 1.607,-3.41 1.607,-5.295c-0,-2.527 -1.004,-4.951 -2.792,-6.739c-1.787,-1.787 -4.211,-2.791 -6.739,-2.791Zm13.076,-35.681l-83.334,-0c-11.05,-0 -21.648,4.39 -29.462,12.204c-7.814,7.814 -12.204,18.412 -12.204,29.462l-0,83.334c-0,11.051 4.39,21.648 12.204,29.463c7.814,7.813 18.412,12.203 29.462,12.203l83.334,0c11.051,0 21.648,-4.39 29.463,-12.203c7.813,-7.815 12.203,-18.412 12.203,-29.463l0,-83.334c0,-11.05 -4.39,-21.648 -12.203,-29.462c-7.815,-7.814 -18.412,-12.204 -29.463,-12.204Zm20.538,122.211c-0,6.187 -2.458,12.12 -6.833,16.494c-4.374,4.375 -10.307,6.833 -16.494,6.833l-77.756,-0c-6.187,-0 -12.12,-2.458 -16.494,-6.833c-4.375,-4.374 -6.833,-10.307 -6.833,-16.494l0,-77.756c0,-6.187 2.458,-12.12 6.833,-16.494c4.374,-4.375 10.307,-6.833 16.494,-6.833l77.756,0c6.187,0 12.12,2.458 16.494,6.833c4.375,4.374 6.833,10.307 6.833,16.494l-0,77.756Zm-33.614,-48.408c-1.885,-0 -3.727,0.559 -5.294,1.606c-1.568,1.047 -2.789,2.535 -3.511,4.277c-0.721,1.741 -0.91,3.657 -0.542,5.506c0.368,1.849 1.276,3.547 2.608,4.88c1.333,1.333 3.032,2.241 4.88,2.608c1.849,0.368 3.765,0.179 5.507,-0.542c1.741,-0.721 3.229,-1.943 4.276,-3.51c1.048,-1.568 1.607,-3.41 1.607,-5.295c-0,-2.527 -1.004,-4.952 -2.792,-6.739c-1.787,-1.787 -4.211,-2.791 -6.739,-2.791Zm0,38.121c-1.885,0 -3.727,0.559 -5.294,1.607c-1.568,1.047 -2.789,2.535 -3.511,4.276c-0.721,1.742 -0.91,3.658 -0.542,5.507c0.368,1.849 1.276,3.547 2.608,4.88c1.333,1.333 3.032,2.24 4.88,2.608c1.849,0.368 3.765,0.179 5.507,-0.542c1.741,-0.722 3.229,-1.943 4.276,-3.511c1.048,-1.567 1.607,-3.409 1.607,-5.294c-0,-2.528 -1.004,-4.952 -2.792,-6.739c-1.787,-1.788 -4.211,-2.792 -6.739,-2.792Z" style="fill:#101117;fill-rule:nonzero;"/></g></svg>