<?xml version="1.0" encoding="UTF-8" standalone="no"?> <svg xmlns="http://www.w3.org/2000/svg" viewBox="0 0 64 64"><g id="Layer_4" data-name="Layer 4"><path d="M61,15.76A8.9,8.9,0,0,0,55,7.15l-13.17-4a2.58,2.58,0,0,0-3.28,2.61,22.3,22.3,0,0,0-13.14,0,2.58,2.58,0,0,0-3.28-2.61L9,7.15A8.9,8.9,0,0,0,3,15.76L3,31a2.62,2.62,0,0,0,5,1.29C8.23,41,12.18,47.4,20.39,52.83a12.36,12.36,0,0,0,23.22,0C51.82,47.39,55.77,41,56,32.32A2.62,2.62,0,0,0,61,31ZM6.2,31.37C5.75,32.06,5,31.88,5,31L5,15.76A6.86,6.86,0,0,1,9.56,9.07L22.74,5a.42.42,0,0,1,.52.16,1.2,1.2,0,0,1-.07,1.35ZM32,59a10.42,10.42,0,0,1-8.42-4.43c.52.23,1.05.44,1.58.62a1.39,1.39,0,0,0,.33.1A9.08,9.08,0,0,0,32,54.45a9.11,9.11,0,0,0,6.5.85,1.34,1.34,0,0,0,.26-.08l.45-.17,0,0h0c.39-.14.77-.29,1.15-.46A10.4,10.4,0,0,1,32,59Zm0-13h0l-4.75-5.52,9.52,0Zm22-14.88c.38,9.75-5.92,18.07-15.58,22.07l-.36.14h0a7.32,7.32,0,0,1-5.12-.6v-5c.09.25,5.12-5.92,5.27-6a2,2,0,0,0-1.5-3.25H27.23a2,2,0,0,0-1.5,3.25c.15.13,5.17,6.25,5.27,6v5a7.29,7.29,0,0,1-5.11.6h0a19.09,19.09,0,0,1-4.79-2.42C12.62,45.19,9.43,38.57,10,29.35,13.52,24.21,20.92,13.4,24.47,8.2a20.21,20.21,0,0,1,15.06,0L54,29.35C54,29.91,54.06,30.49,54.06,31.12Zm4.54.66a.77.77,0,0,1-.8-.41l-17-24.83a1.2,1.2,0,0,1-.07-1.35A.42.42,0,0,1,41.26,5l13.17,4A6.86,6.86,0,0,1,59,15.76L59,31C59,31.42,58.85,31.7,58.6,31.78Z"/><path d="M36.63,30.42a1,1,0,0,0,2,0c.12-5.17,6.68-5.17,6.8,0a1,1,0,0,0,2,0C47.2,22.6,36.86,22.6,36.63,30.42Z"/><path d="M22,24.5a5.69,5.69,0,0,0-5.4,5.92,1,1,0,0,0,2,0c.12-5.17,6.68-5.17,6.8,0a1,1,0,0,0,2,0A5.69,5.69,0,0,0,22,24.5Z"/></g></svg>