<?xml version="1.0" encoding="UTF-8" standalone="no"?><!DOCTYPE svg PUBLIC "-//W3C//DTD SVG 1.1//EN" "http://www.w3.org/Graphics/SVG/1.1/DTD/svg11.dtd"><svg width="100%" height="100%" viewBox="0 0 200 200" version="1.1" xmlns="http://www.w3.org/2000/svg" xmlns:xlink="http://www.w3.org/1999/xlink" xml:space="preserve" xmlns:serif="http://www.serif.com/" style="fill-rule:evenodd;clip-rule:evenodd;stroke-linejoin:round;stroke-miterlimit:2;"><rect id="Artboard1" x="0" y="0" width="200" height="200" style="fill:none;"/><g id="Artboard11" serif:id="Artboard1"><path d="M84.794,23.338c9.955,-2.389 20.338,-2.389 30.294,-0c1.691,-3.814 5.523,-6.503 9.935,-6.503c1,0 1.996,0.139 2.959,0.411c0.022,0.007 0.045,0.014 0.068,0.021l36.114,10.968c0.044,0.014 0.089,0.028 0.132,0.043c11.544,3.975 19.251,15.019 19.004,27.222c0,0 0,41.595 -0,41.584c0.022,0.286 0.033,0.572 0.033,0.859c0,6.017 -4.95,10.967 -10.967,10.967c-1.141,0 -2.255,-0.178 -3.309,-0.512c-2.509,21.027 -13.474,37.232 -34.124,51.19c-5.721,14.176 -19.571,23.577 -34.938,23.577c-15.365,-0 -29.214,-9.4 -34.933,-23.569c-20.665,-13.949 -31.632,-30.184 -34.133,-51.297c-1.05,0.332 -2.159,0.509 -3.295,0.509c-6.017,-0 -10.967,-4.951 -10.967,-10.967c-0,-0.244 0.008,-0.487 0.024,-0.722c-0,-0 -0,-41.619 0,-41.584c-0.262,-12.217 7.449,-23.278 19.003,-27.257c0.043,-0.015 0.086,-0.029 0.13,-0.042l36.004,-10.969c0.024,-0.007 0.048,-0.014 0.072,-0.021c0.962,-0.272 1.958,-0.411 2.959,-0.411c4.411,0 8.243,2.689 9.935,6.503Zm15.207,109.256l4.806,-5.561l-9.591,-0l4.785,5.561Zm-70.261,-41.746l40.777,-59.668c-9.986,3.083 -30.866,9.532 -30.901,9.544c-6.086,2.216 -10.091,8.134 -9.878,14.616c0.002,0.041 0.002,0.083 0.002,0.124l0,35.384Zm140.511,0.247l-0,-35.631c-0,-0.053 0.001,-0.107 0.003,-0.16c0.279,-6.557 -3.768,-12.57 -9.94,-14.784l-31.172,-9.467l41.109,60.042Zm-60.914,77.162c-3.214,-0.29 -6.374,-1.121 -9.34,-2.475c-2.998,1.367 -6.195,2.2 -9.441,2.479c2.946,1.259 6.146,1.951 9.433,1.991l0.027,-0.001c3.249,-0.054 6.41,-0.747 9.321,-1.994Zm47.367,-70.673c0,-1.28 -0.09,-2.484 -0.136,-3.643c-0,-0 -38.386,-56.106 -38.389,-56.107c-11.717,-4.409 -24.65,-4.409 -36.369,0.001c-9.761,14.294 -28.776,42.073 -38.424,56.167c-1.172,23.314 7.215,40.129 28.835,54.713c0.016,0.011 0.032,0.022 0.048,0.033c3.708,2.585 7.758,4.639 12.067,6.112c3.041,0.719 6.213,0.54 9.135,-0.493l-0,-9.499c-3.424,-3.602 -12.808,-15.039 -13.146,-15.332c-0.173,-0.149 -0.331,-0.314 -0.474,-0.492c-1.318,-1.644 -2.037,-3.689 -2.037,-5.796c0,-4.978 4.011,-9.112 8.987,-9.263c0.038,-0.001 0.076,-0.002 0.114,-0.002l25.996,0c0.038,0 0.076,0.001 0.114,0.002c4.976,0.151 8.987,4.285 8.987,9.263c-0,2.107 -0.719,4.152 -2.036,5.796c-0.118,0.146 -0.246,0.284 -0.383,0.41c-0.04,0.045 -0.099,0.11 -0.15,0.167c-1.954,2.214 -9.994,11.957 -13.087,15.232c-0,3.148 -0,9.512 0,9.512c2.918,1.03 6.084,1.213 9.124,0.504l0.673,-0.262l0.048,-0.019c24.492,-10.16 40.916,-31.112 40.538,-55.718c0.004,0.56 -0.035,0.132 -0.035,-1.286Zm0,-0c0.017,0.429 0.029,0.858 0.035,1.286c-0.001,-0.243 -0.011,-0.672 -0.035,-1.286Zm-66.906,-1.92l-0.136,1.316l-0.385,1.23l-0.603,1.106l-0.792,0.958l-0.959,0.792l-1.105,0.603l-1.23,0.385l-1.316,0.135l-1.316,-0.135l-1.23,-0.385l-1.105,-0.603l-0.959,-0.792l-0.792,-0.958l-0.603,-1.106l-0.385,-1.23c-0,0 -0.119,-1.152 -0.133,-1.228c-0.103,-4.451 -2.667,-6.938 -5.542,-6.938c-2.876,0 -5.439,2.487 -5.541,6.85l-0.135,1.316l-0.385,1.23l-0.603,1.106l-0.792,0.958l-0.959,0.792l-1.105,0.603l-1.23,0.385l-1.316,0.135l-1.316,-0.135l-1.229,-0.385l-1.106,-0.603l-0.959,-0.792l-0.792,-0.958l-0.603,-1.106l-0.385,-1.23l-0.136,-1.316c-0.352,-10.496 7.895,-19.484 18.402,-20.011c0.126,-0.007 0.253,-0.007 0.379,-0c10.507,0.527 18.754,9.515 18.402,20.011Zm57.578,0l-0.136,1.316l-0.385,1.23l-0.603,1.106l-0.792,0.958l-0.959,0.792l-1.106,0.603l-1.229,0.385l-1.316,0.135l-1.316,-0.135l-1.23,-0.385l-1.106,-0.603l-0.958,-0.792l-0.792,-0.958l-0.604,-1.106l-0.384,-1.23c-0,0 -0.119,-1.152 -0.133,-1.228c-0.104,-4.451 -2.667,-6.938 -5.543,-6.938c-2.875,0 -5.438,2.487 -5.54,6.85l-0.135,1.316l-0.385,1.23l-0.603,1.106l-0.792,0.958l-0.959,0.792l-1.106,0.603l-1.229,0.385l-1.316,0.135l-1.316,-0.135l-1.23,-0.385l-1.105,-0.603l-0.959,-0.792l-0.792,-0.958l-0.603,-1.106l-0.385,-1.23l-0.136,-1.316c-0.353,-10.496 7.895,-19.484 18.402,-20.011c0.126,-0.007 0.253,-0.007 0.379,-0c10.507,0.527 18.754,9.515 18.402,20.011Z"/></g></svg>