<svg width="48" height="48" viewBox="0 0 48 48" fill="none" xmlns="http://www.w3.org/2000/svg">
<path d="M38 8H18C17.4696 8 16.9609 8.21071 16.5858 8.58579C16.2107 8.96086 16 9.46957 16 10V14H6C5.46957 14 4.96086 14.2107 4.58579 14.5858C4.21071 14.9609 4 15.4696 4 16C4 16.5304 4.21071 17.0391 4.58579 17.4142C4.96086 17.7893 5.46957 18 6 18H16V26C16 26.5304 16.2107 27.0391 16.5858 27.4142C16.9609 27.7893 17.4696 28 18 28C18.5304 28 19.0391 27.7893 19.4142 27.4142C19.7893 27.0391 20 26.5304 20 26V24H28V38C28 38.5304 28.2107 39.0391 28.5858 39.4142C28.9609 39.7893 29.4696 40 30 40H34C35.5913 40 37.1174 39.3679 38.2426 38.2426C39.3679 37.1174 40 35.5913 40 34V23.64C41.1671 23.2274 42.178 22.4639 42.8941 21.4541C43.6102 20.4444 43.9965 19.2379 44 18V14C44 12.4087 43.3679 10.8826 42.2426 9.75736C41.1174 8.63214 39.5913 8 38 8ZM36 34C36 34.5304 35.7893 35.0391 35.4142 35.4142C35.0391 35.7893 34.5304 36 34 36H32V24H36V34ZM40 18C40 18.5304 39.7893 19.0391 39.4142 19.4142C39.0391 19.7893 38.5304 20 38 20H20V12H32V14C32 14.5304 32.2107 15.0391 32.5858 15.4142C32.9609 15.7893 33.4696 16 34 16C34.5304 16 35.0391 15.7893 35.4142 15.4142C35.7893 15.0391 36 14.5304 36 14V12H38C38.5304 12 39.0391 12.2107 39.4142 12.5858C39.7893 12.9609 40 13.4696 40 14V18Z" fill="#101117"/>
</svg>
