<?xml version="1.0" encoding="UTF-8" standalone="no"?><!DOCTYPE svg PUBLIC "-//W3C//DTD SVG 1.1//EN" "http://www.w3.org/Graphics/SVG/1.1/DTD/svg11.dtd"><svg width="100%" height="100%" viewBox="0 0 200 200" version="1.1" xmlns="http://www.w3.org/2000/svg" xmlns:xlink="http://www.w3.org/1999/xlink" xml:space="preserve" xmlns:serif="http://www.serif.com/" style="fill-rule:evenodd;clip-rule:evenodd;stroke-linejoin:round;stroke-miterlimit:2;"><rect id="Artboard1" x="0" y="0" width="200" height="200" style="fill:none;"/><g id="Artboard11" serif:id="Artboard1"><path d="M158.333,33.333l-83.333,0c-2.21,0 -4.33,0.878 -5.892,2.441c-1.563,1.563 -2.441,3.683 -2.441,5.893l-0,16.666l-41.667,0c-2.21,0 -4.33,0.878 -5.893,2.441c-1.562,1.563 -2.44,3.683 -2.44,5.893c-0,2.21 0.878,4.329 2.44,5.892c1.563,1.563 3.683,2.441 5.893,2.441l41.667,0l-0,33.333c-0,2.21 0.878,4.33 2.441,5.893c1.562,1.563 3.682,2.441 5.892,2.441c2.21,-0 4.33,-0.878 5.893,-2.441c1.562,-1.563 2.44,-3.683 2.44,-5.893l0,-8.333l33.334,0l-0,58.333c-0,2.21 0.878,4.33 2.44,5.893c1.563,1.563 3.683,2.441 5.893,2.441l16.667,-0c6.63,-0 12.989,-2.634 17.677,-7.323c4.689,-4.688 7.323,-11.047 7.323,-17.677l-0,-43.167c4.863,-1.719 9.075,-4.9 12.058,-9.108c2.984,-4.207 4.594,-9.234 4.608,-14.392l0,-16.667c0,-6.63 -2.633,-12.989 -7.322,-17.677c-4.688,-4.689 -11.047,-7.323 -17.678,-7.323Zm-8.333,108.334c0,2.21 -0.878,4.329 -2.441,5.892c-1.563,1.563 -3.682,2.441 -5.892,2.441l-8.334,0l0,-50l16.667,0l0,41.667Zm16.667,-66.667c-0,2.21 -0.878,4.33 -2.441,5.893c-1.563,1.562 -3.683,2.44 -5.893,2.44l-75,0l0,-33.333l50,0l0,8.333c0,2.21 0.878,4.33 2.441,5.893c1.563,1.563 3.683,2.441 5.893,2.441c2.21,-0 4.329,-0.878 5.892,-2.441c1.563,-1.563 2.441,-3.683 2.441,-5.893l0,-8.333l8.333,0c2.21,0 4.33,0.878 5.893,2.441c1.563,1.563 2.441,3.682 2.441,5.892l-0,16.667Z" style="fill:#101117;fill-rule:nonzero;"/></g></svg>