<svg width="48" height="48" viewBox="0 0 48 48" fill="none" xmlns="http://www.w3.org/2000/svg">
<path d="M44 19.34C43.8736 18.9742 43.6439 18.6529 43.3386 18.4151C43.0333 18.1772 42.6656 18.033 42.28 18L30.9 16.34L25.8 6.00005C25.6362 5.6619 25.3805 5.37673 25.0621 5.17719C24.7438 4.97766 24.3757 4.87183 24 4.87183C23.6242 4.87183 23.2561 4.97766 22.9378 5.17719C22.6194 5.37673 22.3637 5.6619 22.2 6.00005L17.1 16.32L5.71995 18C5.3498 18.0527 5.0018 18.208 4.71546 18.4484C4.42911 18.6888 4.21587 19.0046 4.09995 19.36C3.99384 19.7074 3.98432 20.0771 4.07241 20.4294C4.1605 20.7818 4.34287 21.1035 4.59995 21.36L12.86 29.36L10.86 40.72C10.7792 41.0969 10.8091 41.489 10.9459 41.8493C11.0828 42.2096 11.3208 42.5227 11.6314 42.7508C11.942 42.979 12.3119 43.1126 12.6966 43.1355C13.0813 43.1585 13.4645 43.0697 13.8 42.88L24 37.54L34.2 42.88C34.4806 43.0384 34.7977 43.1211 35.12 43.12C35.5436 43.1216 35.9568 42.9885 36.3 42.74C36.6102 42.5178 36.8505 42.2113 36.9922 41.8569C37.134 41.5026 37.1714 41.115 37.1 40.74L35.1 29.38L43.36 21.38C43.6487 21.1354 43.8621 20.8139 43.9754 20.4527C44.0887 20.0916 44.0972 19.7058 44 19.34ZM31.7 27.34C31.4685 27.5649 31.2948 27.8423 31.1938 28.1488C31.0928 28.4553 31.0675 28.7817 31.12 29.1L32.56 37.5L25.04 33.5C24.7477 33.3555 24.426 33.2803 24.1 33.2803C23.7739 33.2803 23.4522 33.3555 23.16 33.5L15.64 37.5L17.08 29.1C17.1324 28.7817 17.1071 28.4553 17.0061 28.1488C16.9051 27.8423 16.7314 27.5649 16.5 27.34L10.5 21.34L18.92 20.12C19.244 20.075 19.552 19.9511 19.817 19.7593C20.082 19.5676 20.2959 19.3137 20.44 19.02L24 11.4L27.76 19.04C27.904 19.3337 28.118 19.5876 28.383 19.7794C28.648 19.9711 28.956 20.095 29.28 20.14L37.7 21.36L31.7 27.34Z" fill="#101117"/>
</svg>
