<?xml version="1.0" encoding="UTF-8" standalone="no"?><!DOCTYPE svg PUBLIC "-//W3C//DTD SVG 1.1//EN" "http://www.w3.org/Graphics/SVG/1.1/DTD/svg11.dtd"><svg width="100%" height="100%" viewBox="0 0 200 200" version="1.1" xmlns="http://www.w3.org/2000/svg" xmlns:xlink="http://www.w3.org/1999/xlink" xml:space="preserve" xmlns:serif="http://www.serif.com/" style="fill-rule:evenodd;clip-rule:evenodd;stroke-linejoin:round;stroke-miterlimit:2;"><rect id="Artboard1" x="0" y="0" width="200" height="200" style="fill:none;"/><g id="Artboard11" serif:id="Artboard1"><path d="M183.054,80.587c-0.526,-1.522 -1.482,-2.859 -2.752,-3.848c-1.27,-0.99 -2.8,-1.59 -4.405,-1.728l-47.352,-6.907l-21.221,-43.025c-0.682,-1.407 -1.746,-2.593 -3.071,-3.423c-1.324,-0.831 -2.856,-1.271 -4.419,-1.271c-1.564,-0 -3.095,0.44 -4.42,1.271c-1.325,0.83 -2.389,2.016 -3.07,3.423l-21.221,42.942l-47.352,6.99c-1.541,0.22 -2.989,0.866 -4.18,1.866c-1.192,1 -2.079,2.314 -2.561,3.793c-0.442,1.446 -0.481,2.984 -0.115,4.45c0.367,1.466 1.126,2.805 2.195,3.872l34.37,33.288l-8.322,47.269c-0.336,1.569 -0.211,3.2 0.358,4.699c0.569,1.5 1.56,2.802 2.852,3.752c1.293,0.949 2.832,1.505 4.432,1.6c1.601,0.096 3.196,-0.274 4.592,-1.063l42.442,-22.22l42.442,22.22c1.168,0.659 2.487,1.003 3.828,0.999c1.763,0.006 3.482,-0.547 4.91,-1.581c1.291,-0.925 2.291,-2.2 2.881,-3.675c0.59,-1.474 0.745,-3.087 0.448,-4.647l-8.322,-47.269l34.37,-33.288c1.201,-1.018 2.089,-2.356 2.561,-3.859c0.471,-1.503 0.506,-3.108 0.102,-4.63Zm-51.18,33.288c-0.964,0.936 -1.686,2.09 -2.107,3.366c-0.42,1.275 -0.525,2.633 -0.307,3.957l5.992,34.953l-31.291,-16.644c-1.216,-0.601 -2.554,-0.914 -3.911,-0.914c-1.357,-0 -2.695,0.313 -3.911,0.914l-31.291,16.644l5.992,-34.953c0.218,-1.324 0.113,-2.682 -0.308,-3.957c-0.42,-1.276 -1.143,-2.43 -2.106,-3.366l-24.966,-24.966l35.036,-5.076c1.348,-0.188 2.63,-0.703 3.732,-1.501c1.103,-0.798 1.993,-1.854 2.593,-3.076l14.813,-31.707l15.645,31.79c0.6,1.222 1.49,2.278 2.593,3.076c1.102,0.798 2.384,1.314 3.732,1.501l35.036,5.076l-24.966,24.883Z" style="fill:#101117;fill-rule:nonzero;"/></g></svg>