<?xml version="1.0" encoding="UTF-8" standalone="no"?> <svg xmlns="http://www.w3.org/2000/svg" viewBox="0 0 64 64"><g id="Layer_17" data-name="Layer 17"><path d="M59.08,27.81a45.28,45.28,0,0,0-6.39-4.61C51.34,15.93,43,8.14,37.31,11.55c-2.29,1.33-3.46,4.14-3.25,7.61l-1.2.14-.13,0h0c-6.9-5.62-16-3.51-14.41,5.3A12.89,12.89,0,0,0,17,25.75l-6.61-3.82A4.94,4.94,0,0,0,3,26.2V37.8a5,5,0,0,0,7.4,4.27L17,38.25c.06.06.12.13.19.19-2.36,4.05-1.42,8.16,3,9.06,3.65.58,7.22-.68,10.92-3.06.53.09,1,.17,1.59.24a.92.92,0,0,0,.29,0l.21,0c.11,4.27,4.22,6.59,8.28,5.8,5.25-.69,11.13-5.69,12.81-10.75a44.77,44.77,0,0,0,4.8-3.61A5.56,5.56,0,0,0,59.08,27.81ZM31,42.4h0c-.63-.11-1.25-.24-1.85-.38a20,20,0,0,1,0-20c.62-.15,1.26-.27,1.9-.39a22.12,22.12,0,0,0,0,20.82ZM18,36.33a1.22,1.22,0,0,0-1.68,0,19.83,19.83,0,0,1,0-8.74,1.22,1.22,0,0,0,1.68,0,19,19,0,0,1,8.53-5,22.07,22.07,0,0,0,0,18.6A19,19,0,0,1,18,36.33Zm-5.09,2a20.07,20.07,0,0,1,0-12.68l1.61.93a22,22,0,0,0,0,10.82Zm20.69,4.44a20,20,0,0,1,0-21.56,26.74,26.74,0,0,1,12.51,1.07,22,22,0,0,0,0,19.42A26.74,26.74,0,0,1,33.55,42.78ZM47.94,41a19.93,19.93,0,0,1,0-18c.49.21,1,.43,1.46.67a21.75,21.75,0,0,0,0,16.62C48.92,40.55,48.43,40.77,47.94,41ZM38.31,13.29c3.74-2.29,10.24,3.18,11.92,8.58A26.8,26.8,0,0,0,36.05,19C35.89,16.32,36.7,14.22,38.31,13.29Zm-17,6.09c1.77-1.78,5.21-1.54,8.54.41-.51.1-1,.21-1.52.33l-.19.05a29,29,0,0,0-8,3.19A4.84,4.84,0,0,1,21.3,19.38Zm-11.9,21A3,3,0,0,1,5,37.8V26.2a3,3,0,0,1,4.41-2.53l1.69,1a21.7,21.7,0,0,0,0,14.7Zm11.17,5.2c-2.93-.6-3.23-3-1.8-5.81a27,27,0,0,0,9.29,4.08l.11,0C25.44,45.3,22.65,45.94,20.57,45.54Zm27.6-.44c-3.52,3.37-11.86,6.08-13-.16a27.61,27.61,0,0,0,15.95-3.29A16.32,16.32,0,0,1,48.17,45.1Zm9.61-10.42A44.51,44.51,0,0,1,53,38.25l0,0c-.58.38-1.18.74-1.79,1.08a19.72,19.72,0,0,1,0-14.72,42.42,42.42,0,0,1,6.6,4.68A3.56,3.56,0,0,1,57.78,34.68Z"/><path d="M55.05,29a1.67,1.67,0,0,0-2.7.55,1.62,1.62,0,0,0,.35,1.79,1.46,1.46,0,0,0,.55.38,1.67,1.67,0,0,0,2.17-2.18A1.79,1.79,0,0,0,55.05,29Z"/></g></svg>