<?xml version="1.0" encoding="UTF-8" standalone="no"?><!DOCTYPE svg PUBLIC "-//W3C//DTD SVG 1.1//EN" "http://www.w3.org/Graphics/SVG/1.1/DTD/svg11.dtd"><svg width="100%" height="100%" viewBox="0 0 200 200" version="1.1" xmlns="http://www.w3.org/2000/svg" xmlns:xlink="http://www.w3.org/1999/xlink" xml:space="preserve" xmlns:serif="http://www.serif.com/" style="fill-rule:evenodd;clip-rule:evenodd;stroke-linejoin:round;stroke-miterlimit:2;"><rect id="Artboard1" x="0" y="0" width="200" height="200" style="fill:none;"/><g id="Artboard11" serif:id="Artboard1"><path d="M102.715,66.133c0.506,-0.059 1.271,-0.149 1.271,-0.149c-0.156,-9.752 3.52,-17.537 10.099,-21.364c6.961,-4.167 15.228,-2.996 22.894,1.499c10.764,6.311 20.305,19.195 22.922,31.696c6.193,3.747 12.061,8.008 17.54,12.738c0.007,0.006 0.013,0.011 0.019,0.016c3.733,3.312 5.873,8.071 5.873,13.061c0,4.976 -2.127,9.722 -5.842,13.033c-0.007,0.007 -0.014,0.013 -0.022,0.019c-4.172,3.601 -8.573,6.928 -13.173,9.957c-5.174,14.593 -22.111,28.84 -37.219,30.853c-11.965,2.323 -23.973,-4.238 -25.328,-16.308c-1.399,-0.168 -2.566,-0.355 -3.794,-0.563c-10.621,6.718 -20.906,10.163 -31.396,8.496c-0.026,-0.004 -0.051,-0.009 -0.077,-0.014c-5.583,-1.137 -9.371,-3.951 -11.474,-7.671c-2.492,-4.407 -2.613,-10.207 -0.257,-16.229l-14.539,8.416c-0.013,0.007 -0.025,0.014 -0.038,0.021c-2.338,1.28 -4.962,1.951 -7.628,1.951c-8.575,0 -15.681,-6.943 -15.879,-15.515c-0,-0.014 -0,-0.028 -0,-0.042l-0,-32.635l-0,-0.007c0.034,-8.597 7.117,-15.652 15.714,-15.652c2.733,-0 5.42,0.713 7.794,2.069l0.008,0.004c-0,0 17.413,10.063 17.412,10.064c0.653,-0.606 1.328,-1.189 2.021,-1.746c-1.537,-10.239 1.887,-17.352 7.703,-21.252c8.658,-5.805 23.135,-4.425 35.396,5.254Zm-39.673,70.727c2.873,5.288 16.928,6.355 20.856,0.732c-7.165,-2.118 -13.992,-5.259 -20.269,-9.33c-1.407,3.353 -1.801,6.364 -0.587,8.598Zm25.597,-68.157c-3.75,-1.553 -7.403,-2.259 -10.596,-2.017c-2.707,0.205 -5.062,1.099 -6.76,2.807c-0.037,0.037 -0.076,0.073 -0.116,0.107c-1.639,1.924 -2.604,4.309 -2.784,6.787c6.385,-3.429 13.195,-6.013 20.256,-7.684Zm-26.679,45.903c5.528,5.459 12.205,9.59 19.52,12.098c-5.852,-14.951 -5.859,-31.589 -0.016,-46.547c-7.335,2.611 -14.002,6.854 -19.486,12.427c-0.015,0.014 -0.029,0.029 -0.044,0.043c-1.279,1.214 -3.035,1.657 -4.663,1.329c-1.159,6.379 -1.159,12.916 0,19.295c1.628,-0.327 3.384,0.116 4.663,1.33c0.009,0.008 0.017,0.016 0.026,0.025Zm62.616,34.187c7.641,-0.136 10.897,-2.341 19.757,-9.422c1.221,-0.976 2.275,-2.228 3.3,-3.332c-11.398,4.859 -23.801,6.997 -36.216,6.208c0.653,1.838 1.624,3.256 2.856,4.297c2.627,2.221 6.316,2.32 10.303,2.249Zm-30.5,-18.294c-7.766,-16.958 -7.747,-36.521 0.059,-53.468c-0.299,0.063 -0.596,0.128 -0.897,0.198c-9.198,16.474 -9.199,36.608 0.001,53.085c0.277,0.063 0.556,0.125 0.837,0.185Zm-58.448,-4.792c0,-0 3.443,-2.058 3.443,-2.057c-4.298,-12.898 -4.299,-26.851 -0.002,-39.748c0,0 -3.438,-2.034 -3.477,-2.055c-0.941,-0.488 -1.987,-0.743 -3.049,-0.743c-3.526,0 -6.463,2.816 -6.617,6.335c0,0 0,32.57 0.001,32.59c0.1,3.56 3.056,6.438 6.621,6.438c1.073,-0 2.13,-0.261 3.08,-0.76Zm11.796,-6.893c-0,0 1.383,-0.799 1.384,-0.798c-2.176,-9.427 -2.176,-19.228 -0.001,-28.655c0,0 -1.383,-0.799 -1.383,-0.799c-2.846,9.881 -2.847,20.371 -0,30.252Zm58.272,13.579c10.574,1.475 21.339,0.624 31.543,-2.487c-7.52,-16.654 -7.52,-35.779 -0,-52.434c-10.217,-3.098 -20.993,-3.931 -31.577,-2.434c-10.854,17.542 -10.843,39.823 0.034,57.355Zm40.07,-5.759c0.32,-0.151 0.639,-0.303 0.957,-0.458c-5.541,-14.483 -5.545,-30.519 -0.011,-45.003c-0.306,-0.142 -0.615,-0.281 -0.925,-0.418c-6.785,14.525 -6.792,31.348 -0.021,45.879Zm12.406,-6.866c2.795,-1.784 9.263,-5.858 13.018,-9.772c2.478,-2.584 3.105,-5.405 3.105,-6.358c-0,-2.366 -1.024,-4.619 -2.806,-6.175c-5.128,-4.429 -10.629,-8.404 -16.44,-11.883c-4.171,11.676 -4.168,24.45 0.007,36.124c1.05,-0.619 2.085,-1.26 3.098,-1.924c0.006,-0.004 0.012,-0.008 0.018,-0.012Zm6.745,-24.492c0.437,0.438 0.79,0.953 1.041,1.519c0.23,0.564 0.348,1.167 0.348,1.775c-0,2.578 -2.121,4.699 -4.698,4.699c-0.602,-0 -1.197,-0.116 -1.755,-0.34c-0.592,-0.232 -1.121,-0.598 -1.548,-1.07c-1.328,-1.314 -1.72,-3.318 -0.984,-5.035c0.733,-1.737 2.443,-2.871 4.328,-2.871c1.219,0 2.392,0.475 3.268,1.323Zm-46.187,-42.624c-3.661,2.115 -5.499,6.711 -5.507,12.563c11.938,-0.586 23.84,1.609 34.769,6.399c-3.43,-7.234 -9.66,-14.004 -16.073,-17.614c-4.681,-2.635 -9.451,-3.636 -13.149,-1.372c-0.013,0.008 -0.026,0.016 -0.04,0.024Z"/></g></svg>