<?xml version="1.0" encoding="UTF-8" standalone="no"?><!DOCTYPE svg PUBLIC "-//W3C//DTD SVG 1.1//EN" "http://www.w3.org/Graphics/SVG/1.1/DTD/svg11.dtd"><svg width="100%" height="100%" viewBox="0 0 200 200" version="1.1" xmlns="http://www.w3.org/2000/svg" xmlns:xlink="http://www.w3.org/1999/xlink" xml:space="preserve" xmlns:serif="http://www.serif.com/" style="fill-rule:evenodd;clip-rule:evenodd;stroke-linejoin:round;stroke-miterlimit:2;"><rect id="Artboard1" x="0" y="0" width="200" height="200" style="fill:none;"/><g id="Artboard11" serif:id="Artboard1"><path d="M163.799,56.826c-8.477,-4.455 -18.362,-5.411 -27.535,-2.662c-0.447,-9.33 -4.467,-18.13 -11.228,-24.574c-6.761,-6.445 -15.743,-10.041 -25.083,-10.041c-9.341,0 -18.323,3.596 -25.083,10.041c-6.761,6.444 -10.782,15.244 -11.229,24.574c-9.148,-2.755 -19.005,-1.892 -27.535,2.412c-6.281,3.302 -11.459,8.37 -14.895,14.579c-3.435,6.209 -4.979,13.288 -4.439,20.364c0.539,7.076 3.138,13.839 7.476,19.455c4.337,5.617 10.223,9.841 16.933,12.152c-4.283,6.094 -6.605,13.349 -6.655,20.797c0.037,2.092 0.231,4.177 0.582,6.239c1.401,8.448 5.759,16.123 12.296,21.655c6.538,5.531 14.828,8.559 23.391,8.542c1.773,0.122 3.552,0.122 5.324,0c9.509,-1.498 18.051,-6.665 23.792,-14.391c5.801,7.602 14.335,12.644 23.792,14.059c1.772,0.121 3.551,0.121 5.324,-0c6.639,-0.008 13.15,-1.838 18.82,-5.291c5.672,-3.453 10.286,-8.397 13.341,-14.292c3.054,-5.895 4.432,-12.515 3.984,-19.14c-0.449,-6.624 -2.708,-12.998 -6.531,-18.427c6.743,-2.271 12.668,-6.475 17.039,-12.089c4.371,-5.613 6.995,-12.388 7.545,-19.481c0.549,-7.093 -0.999,-14.191 -4.453,-20.411c-3.454,-6.22 -8.661,-11.287 -14.973,-14.569l0,0.499Zm-77.697,-16.138c3.716,-3.56 8.663,-5.546 13.809,-5.546c5.146,-0 10.093,1.986 13.809,5.546c2.838,2.841 4.764,6.463 5.535,10.404c0.77,3.941 0.349,8.022 -1.209,11.723l-2.163,4.909l-5.49,4.824c-3.376,-1.158 -6.913,-1.776 -10.482,-1.83c-4.612,0.004 -9.173,0.968 -13.393,2.829l-4.659,-10.732c-1.614,-3.684 -2.073,-7.772 -1.315,-11.723c0.757,-3.95 2.695,-7.578 5.558,-10.404Zm-50.744,56.9c-1.857,-4.087 -2.265,-8.684 -1.154,-13.034c1.11,-4.349 3.671,-8.189 7.26,-10.885c3.588,-2.697 7.99,-4.087 12.476,-3.944c4.486,0.145 8.789,1.816 12.197,4.737l4.076,3.577l2.912,6.655c-4.168,5.575 -6.441,12.339 -6.489,19.299c-0.099,1.246 -0.099,2.498 0,3.744l-4.575,-0l-6.988,0.665c-3.997,0.422 -8.027,-0.388 -11.551,-2.321c-3.523,-1.933 -6.372,-4.896 -8.164,-8.493Zm54.903,50.578c-1.001,4.441 -3.502,8.401 -7.082,11.213c-3.58,2.812 -8.02,4.305 -12.571,4.227c-4.552,-0.078 -8.937,-1.723 -12.418,-4.656c-3.482,-2.933 -5.846,-6.977 -6.694,-11.45c-0.08,-1.163 -0.08,-2.33 -0,-3.494c0.03,-3.381 0.944,-6.695 2.652,-9.614c1.707,-2.919 4.148,-5.34 7.081,-7.023l4.242,-2.995l7.57,-0.832c4.772,6.638 11.819,11.287 19.799,13.061l-2.579,11.563Zm9.65,-27.535c-3.29,-0 -6.507,-0.976 -9.243,-2.804c-2.736,-1.828 -4.868,-4.427 -6.128,-7.467c-1.259,-3.04 -1.589,-6.385 -0.947,-9.613c0.642,-3.227 2.227,-6.191 4.554,-8.518c2.326,-2.327 5.291,-3.912 8.518,-4.554c3.228,-0.642 6.573,-0.312 9.613,0.947c3.04,1.259 5.639,3.392 7.467,6.128c1.828,2.736 2.804,5.953 2.804,9.243c-0,4.413 -1.753,8.645 -4.873,11.765c-3.121,3.12 -7.352,4.873 -11.765,4.873Zm48.415,26.786c-0.858,5.076 -3.675,9.612 -7.845,12.63c-4.17,3.019 -9.359,4.278 -14.449,3.509c-4.011,-0.566 -7.753,-2.342 -10.726,-5.093c-2.973,-2.75 -5.036,-6.343 -5.912,-10.297l-1.164,-4.991l1.747,-7.654c7.674,-2.499 14.178,-7.702 18.301,-14.641l4.159,2.496l0.749,-0l5.49,3.244c3.568,2.037 6.413,5.133 8.142,8.86c1.729,3.726 2.256,7.898 1.508,11.937Zm16.139,-49.912c-1.636,3.306 -4.16,6.092 -7.29,8.046c-3.129,1.954 -6.74,2.999 -10.429,3.018l-1.997,-0l-5.324,-0.832l-6.239,-3.411c-0.012,-8.088 -2.969,-15.895 -8.319,-21.961l3.577,-3.078l5.241,-4.825c3.418,-3.039 7.786,-4.795 12.356,-4.967c4.569,-0.173 9.057,1.249 12.694,4.021c3.638,2.772 6.198,6.722 7.243,11.174c1.045,4.453 0.51,9.129 -1.513,13.231l-0,-0.416Z" style="fill:#101117;fill-rule:nonzero;"/></g></svg>