<svg width="48" height="48" viewBox="0 0 48 48" fill="none" xmlns="http://www.w3.org/2000/svg">
<path d="M39.36 13.7599C37.322 12.6888 34.9455 12.459 32.74 13.1199C32.6326 10.8768 31.666 8.76116 30.0406 7.21169C28.4151 5.66222 26.2557 4.79785 24.01 4.79785C21.7644 4.79785 19.6049 5.66222 17.9795 7.21169C16.3541 8.76116 15.3874 10.8768 15.28 13.1199C13.0806 12.4575 10.7108 12.6651 8.66003 13.6999C7.14982 14.4937 5.90495 15.7121 5.07894 17.2049C4.25294 18.6977 3.88192 20.3997 4.01163 22.1008C4.14134 23.802 4.76612 25.428 5.80892 26.7783C6.85172 28.1287 8.26693 29.1443 9.88003 29.6999C8.8504 31.1649 8.29222 32.9092 8.28003 34.6999C8.28891 35.2027 8.33571 35.7041 8.42003 36.1999C8.75684 38.231 9.80463 40.0762 11.3763 41.4061C12.948 42.736 14.9412 43.4639 17 43.4599C17.4262 43.4891 17.8539 43.4891 18.28 43.4599C20.5661 43.0997 22.6198 41.8575 24 39.9999C25.3947 41.8275 27.4464 43.0398 29.72 43.3799C30.1462 43.4091 30.5739 43.4091 31 43.3799C32.5963 43.378 34.1615 42.938 35.5249 42.1079C36.8884 41.2777 37.9978 40.0892 38.7322 38.6719C39.4666 37.2546 39.7979 35.6629 39.69 34.0702C39.5821 32.4776 39.039 30.9451 38.12 29.6399C39.741 29.0939 41.1656 28.0832 42.2165 26.7336C43.2674 25.3841 43.8982 23.7552 44.0304 22.0499C44.1625 20.3445 43.7902 18.638 42.9598 17.1426C42.1294 15.6472 40.8775 14.4291 39.36 13.6399V13.7599ZM20.68 9.87988C21.5735 9.02419 22.7629 8.54652 24 8.54652C25.2372 8.54652 26.4265 9.02419 27.32 9.87988C28.0022 10.5631 28.4654 11.4339 28.6506 12.3814C28.8359 13.3289 28.7347 14.3101 28.36 15.1999L27.84 16.3799L26.52 17.5399C25.7085 17.2613 24.858 17.1128 24 17.0999C22.8912 17.1009 21.7946 17.3325 20.78 17.7799L19.66 15.1999C19.2719 14.314 19.1616 13.3313 19.3437 12.3814C19.5258 11.4316 19.9918 10.5593 20.68 9.87988ZM8.48003 23.5599C8.03354 22.5774 7.93568 21.472 8.2026 20.4264C8.46953 19.3807 9.08527 18.4575 9.94804 17.8093C10.8108 17.161 11.869 16.8266 12.9476 16.8612C14.0262 16.8959 15.0607 17.2976 15.88 17.9999L16.86 18.8599L17.56 20.4599C16.5581 21.8004 16.0115 23.4264 16 25.0999C15.9763 25.3994 15.9763 25.7003 16 25.9999H14.9L13.22 26.1599C12.2591 26.2613 11.2902 26.0666 10.443 25.6019C9.59584 25.1372 8.91093 24.4247 8.48003 23.5599ZM21.68 35.7199C21.4393 36.7876 20.8379 37.7396 19.9773 38.4158C19.1166 39.0919 18.0492 39.4508 16.9549 39.4321C15.8606 39.4133 14.8062 39.0179 13.9693 38.3126C13.1323 37.6074 12.564 36.6352 12.36 35.5599C12.3409 35.2802 12.3409 34.9996 12.36 34.7199C12.3673 33.907 12.5871 33.1101 12.9976 32.4084C13.408 31.7067 13.995 31.1246 14.7 30.7199L15.72 29.9999L17.54 29.7999C18.6871 31.3957 20.3815 32.5134 22.3 32.9399L21.68 35.7199ZM24 29.0999C23.2089 29.0999 22.4355 28.8653 21.7777 28.4258C21.1199 27.9862 20.6073 27.3615 20.3045 26.6306C20.0018 25.8997 19.9225 25.0954 20.0769 24.3195C20.2312 23.5436 20.6122 22.8309 21.1716 22.2715C21.731 21.712 22.4437 21.3311 23.2197 21.1767C23.9956 21.0224 24.7999 21.1016 25.5308 21.4044C26.2617 21.7071 26.8864 22.2198 27.3259 22.8776C27.7654 23.5354 28 24.3088 28 25.0999C28 26.1607 27.5786 27.1782 26.8285 27.9283C26.0783 28.6785 25.0609 29.0999 24 29.0999ZM35.64 35.5399C35.4337 36.7602 34.7563 37.8507 33.7538 38.5764C32.7512 39.3021 31.5037 39.605 30.28 39.4199C29.3158 39.284 28.416 38.8569 27.7012 38.1956C26.9864 37.5344 26.4905 36.6706 26.28 35.7199L26 34.5199L26.42 32.6799C28.265 32.079 29.8288 30.828 30.82 29.1599L31.82 29.7599H32L33.32 30.5399C34.1777 31.0296 34.8617 31.774 35.2774 32.6699C35.6931 33.5658 35.8198 34.5688 35.64 35.5399ZM39.52 23.5399C39.1267 24.3348 38.5199 25.0047 37.7675 25.4744C37.0152 25.9442 36.147 26.1954 35.26 26.1999H34.78L33.5 25.9999L32 25.1799C31.9972 23.2353 31.2862 21.3583 30 19.8999L30.86 19.1599L32.12 17.9999C32.9417 17.2694 33.9918 16.8472 35.0905 16.8057C36.1892 16.7643 37.2682 17.106 38.1426 17.7725C39.0171 18.439 39.6327 19.3887 39.8839 20.4591C40.1352 21.5295 40.0066 22.6539 39.52 23.6399V23.5399Z" fill="#101117"/>
</svg>
