<?xml version="1.0" encoding="UTF-8" standalone="no"?><!DOCTYPE svg PUBLIC "-//W3C//DTD SVG 1.1//EN" "http://www.w3.org/Graphics/SVG/1.1/DTD/svg11.dtd"><svg width="100%" height="100%" viewBox="0 0 200 200" version="1.1" xmlns="http://www.w3.org/2000/svg" xmlns:xlink="http://www.w3.org/1999/xlink" xml:space="preserve" xmlns:serif="http://www.serif.com/" style="fill-rule:evenodd;clip-rule:evenodd;stroke-linejoin:round;stroke-miterlimit:2;"><rect id="Artboard1" x="0" y="0" width="200" height="200" style="fill:none;"/><g id="Artboard11" serif:id="Artboard1"><path d="M181.984,46.263c-1.106,-7.097 -4.432,-13.661 -9.5,-18.751c-5.089,-5.067 -11.653,-8.393 -18.75,-9.5c-14.684,-2.217 -29.66,-1.537 -44.083,2c-0.569,0.117 -1.127,0.284 -1.667,0.5c-21.105,5.32 -40.372,16.264 -55.75,31.667c-15.465,15.488 -26.463,34.864 -31.833,56.084c0,0.5 0,1 -0.417,1.583c-3.538,14.451 -4.217,29.455 -2,44.167c1.19,6.948 4.51,13.354 9.5,18.333c5.09,5.067 11.654,8.393 18.75,9.5c5.732,0.932 11.527,1.405 17.334,1.417c9.159,-0.053 18.279,-1.2 27.166,-3.417l1.167,-0c21.132,-5.35 40.43,-16.302 55.859,-31.702c15.429,-15.399 26.418,-34.676 31.808,-55.798c-0,-0.5 -0,-1 0.416,-1.583c3.582,-14.559 4.262,-29.68 2,-44.5Zm-45.583,-13.001c4.913,-0.025 9.82,0.365 14.667,1.167c0.68,0.145 1.348,0.34 2,0.583l-11.417,11.501l-12.833,-12.834c2.5,-0.417 5.083,-0.417 7.583,-0.417Zm-72.5,30.584c12.546,-12.478 28.016,-21.617 45,-26.584l21,21.001l-17.917,17.916l-6.083,-6.083c-0.775,-0.781 -1.696,-1.401 -2.712,-1.824c-1.015,-0.424 -2.104,-0.641 -3.205,-0.641c-1.1,-0 -2.189,0.217 -3.204,0.641c-1.016,0.423 -1.937,1.043 -2.712,1.824c-1.552,1.561 -2.424,3.673 -2.424,5.875c0,2.201 0.872,4.313 2.424,5.875l6.083,6.083l-12.167,12l-6.083,-6.083c-1.561,-1.552 -3.673,-2.423 -5.875,-2.423c-2.201,-0 -4.313,0.871 -5.875,2.423c-0.781,0.775 -1.401,1.696 -1.824,2.712c-0.423,1.015 -0.641,2.104 -0.641,3.205c-0,1.1 0.218,2.189 0.641,3.204c0.423,1.016 1.043,1.937 1.824,2.712l6.083,6.084l-17.916,18.083l-20.917,-20.917c4.913,-17.012 14.026,-32.516 26.5,-45.083Zm-28.833,89.167c-0.244,-0.652 -0.439,-1.32 -0.584,-2c-1.261,-7.345 -1.653,-14.814 -1.166,-22.25l13.25,12.833l-11.5,11.417Zm13.833,12.416c-0.68,-0.144 -1.349,-0.339 -2,-0.583l11.417,-11.5l12.833,13.25c-7.437,0.487 -14.905,0.095 -22.25,-1.167Zm87.167,-29.416c-12.568,12.473 -28.071,21.586 -45.084,26.5l-20.916,-20.917l17.916,-17.917l6.084,6.084c0.771,0.776 1.688,1.394 2.698,1.816c1.01,0.423 2.094,0.642 3.189,0.647c1.095,0.003 2.18,-0.208 3.193,-0.624c1.013,-0.416 1.935,-1.026 2.711,-1.798c0.777,-0.771 1.395,-1.688 1.817,-2.698c0.423,-1.01 0.642,-2.094 0.646,-3.189c0.004,-1.095 -0.208,-2.18 -0.623,-3.193c-0.416,-1.013 -1.026,-1.935 -1.798,-2.711l-5.917,-6.084l12,-12l6.084,6.084c0.778,0.772 1.702,1.383 2.717,1.798c1.016,0.414 2.103,0.625 3.199,0.618c1.649,-0.007 3.257,-0.502 4.624,-1.423c1.367,-0.922 2.429,-2.228 3.054,-3.753c0.624,-1.525 0.782,-3.202 0.454,-4.817c-0.328,-1.615 -1.128,-3.096 -2.298,-4.257l-6.084,-6.083l17.917,-18.083l20.917,20.916c-4.913,17.012 -14.026,32.516 -26.5,45.084Zm30.583,-64.917l-13.25,-12.833l11.5,-11.417c0.244,0.651 0.439,1.32 0.583,2c1.262,7.345 1.654,14.813 1.167,22.25Z" style="fill:#101117;fill-rule:nonzero;"/></g></svg>