<svg width="48" height="48" viewBox="0 0 48 48" fill="none" xmlns="http://www.w3.org/2000/svg">
<path d="M43.6802 11.12C43.4146 9.4168 42.6165 7.84149 41.4002 6.61996C40.1787 5.40374 38.6034 4.60559 36.9002 4.33996C33.376 3.8078 29.7817 3.97086 26.3202 4.81996C26.1836 4.84796 26.0497 4.88812 25.9202 4.93996C20.855 6.21663 16.2308 8.8432 12.5402 12.54C8.82843 16.2571 6.18891 20.9074 4.90023 26C4.90023 26.12 4.90023 26.24 4.80023 26.38C3.95107 29.8483 3.78801 33.4491 4.32023 36.98C4.60572 38.6475 5.40248 40.1851 6.60023 41.38C7.82176 42.5962 9.39706 43.3943 11.1002 43.66C12.4757 43.8836 13.8667 43.9973 15.2602 44C17.4585 43.9873 19.6473 43.712 21.7802 43.18H22.0602C27.132 41.896 31.7634 39.2675 35.4664 35.5716C39.1693 31.8757 41.8066 27.2493 43.1002 22.18C43.1002 22.06 43.1002 21.94 43.2002 21.8C44.0599 18.306 44.223 14.6769 43.6802 11.12ZM32.7402 7.99996C33.9194 7.99374 35.0969 8.08741 36.2602 8.27996C36.4235 8.31464 36.5839 8.36144 36.7402 8.41996L34.0002 11.18L30.9202 8.09996C31.5202 7.99996 32.1402 7.99996 32.7402 7.99996ZM15.3402 15.34C18.3513 12.3452 22.0641 10.1519 26.1402 8.95996L31.1802 14L26.8802 18.3L25.4202 16.84C25.2343 16.6525 25.0131 16.5037 24.7694 16.4022C24.5257 16.3006 24.2643 16.2484 24.0002 16.2484C23.7362 16.2484 23.4748 16.3006 23.2311 16.4022C22.9874 16.5037 22.7662 16.6525 22.5802 16.84C22.2077 17.2147 21.9986 17.7216 21.9986 18.25C21.9986 18.7783 22.2077 19.2852 22.5802 19.66L24.0402 21.12L21.1202 24L19.6602 22.54C19.2855 22.1675 18.7786 21.9584 18.2502 21.9584C17.7219 21.9584 17.215 22.1675 16.8402 22.54C16.6528 22.7259 16.504 22.9471 16.4024 23.1908C16.3009 23.4345 16.2486 23.6959 16.2486 23.96C16.2486 24.224 16.3009 24.4854 16.4024 24.7291C16.504 24.9728 16.6528 25.194 16.8402 25.38L18.3002 26.84L14.0002 31.18L8.98023 26.16C10.1594 22.077 12.3465 18.3562 15.3402 15.34ZM8.42023 36.74C8.36171 36.5837 8.31491 36.4232 8.28023 36.26C7.97739 34.4972 7.88341 32.7048 8.00023 30.92L11.1802 34L8.42023 36.74ZM11.7402 39.72C11.577 39.6853 11.4165 39.6385 11.2602 39.58L14.0002 36.82L17.0802 40C15.2954 40.1168 13.503 40.0228 11.7402 39.72ZM32.6602 32.66C29.6439 35.6537 25.9232 37.8408 21.8402 39.02L16.8202 34L21.1202 29.7L22.5802 31.16C22.7654 31.3464 22.9855 31.4946 23.2279 31.596C23.4703 31.6975 23.7304 31.7501 23.9932 31.7511C24.2559 31.752 24.5163 31.7012 24.7595 31.6015C25.0026 31.5017 25.2238 31.3551 25.4102 31.17C25.5967 30.9848 25.7449 30.7647 25.8463 30.5223C25.9477 30.2799 26.0004 30.0198 26.0013 29.757C26.0023 29.4942 25.9514 29.2338 25.8517 28.9907C25.752 28.7476 25.6054 28.5264 25.4202 28.34L24.0002 26.88L26.8802 24L28.3402 25.46C28.5271 25.6453 28.7487 25.792 28.9924 25.8915C29.2361 25.991 29.497 26.0415 29.7602 26.04C30.1558 26.0383 30.5419 25.9194 30.8699 25.6983C31.1979 25.4771 31.4529 25.1637 31.6028 24.7977C31.7526 24.4316 31.7906 24.0293 31.7118 23.6417C31.633 23.2541 31.4411 22.8985 31.1602 22.62L29.7002 21.16L34.0002 16.82L39.0202 21.84C37.8411 25.9229 35.654 29.6437 32.6602 32.66ZM40.0002 17.08L36.8202 14L39.5802 11.26C39.6388 11.4163 39.6856 11.5767 39.7202 11.74C40.0231 13.5028 40.117 15.2951 40.0002 17.08Z" fill="#101117"/>
</svg>
