<svg width="48" height="48" viewBox="0 0 48 48" fill="none" xmlns="http://www.w3.org/2000/svg">
<path d="M34 14.0001H33.3C33.7564 13.0656 33.9957 12.04 34 11.0001C34.0061 9.60673 33.595 8.24345 32.8196 7.08574C32.0443 5.92802 30.9402 5.02884 29.6495 4.50395C28.3588 3.97906 26.9405 3.85248 25.5772 4.1405C24.214 4.42852 22.9681 5.11796 22 6.12007C21.0319 5.11796 19.786 4.42852 18.4228 4.1405C17.0595 3.85248 15.6412 3.97906 14.3505 4.50395C13.0598 5.02884 11.9557 5.92802 11.1804 7.08574C10.405 8.24345 9.99395 9.60673 10 11.0001C10.0043 12.04 10.2436 13.0656 10.7 14.0001H10C8.4087 14.0001 6.88258 14.6322 5.75736 15.7574C4.63214 16.8827 4 18.4088 4 20.0001V24.0001C4 24.5305 4.21071 25.0392 4.58579 25.4143C4.96086 25.7894 5.46957 26.0001 6 26.0001H8V38.0001C8 39.5914 8.63214 41.1175 9.75736 42.2427C10.8826 43.3679 12.4087 44.0001 14 44.0001H30C31.5913 44.0001 33.1174 43.3679 34.2426 42.2427C35.3679 41.1175 36 39.5914 36 38.0001V26.0001H38C38.5304 26.0001 39.0391 25.7894 39.4142 25.4143C39.7893 25.0392 40 24.5305 40 24.0001V20.0001C40 18.4088 39.3679 16.8827 38.2426 15.7574C37.1174 14.6322 35.5913 14.0001 34 14.0001ZM20 40.0001H14C13.4696 40.0001 12.9609 39.7894 12.5858 39.4143C12.2107 39.0392 12 38.5305 12 38.0001V26.0001H20V40.0001ZM20 22.0001H8V20.0001C8 19.4696 8.21071 18.9609 8.58579 18.5859C8.96086 18.2108 9.46957 18.0001 10 18.0001H20V22.0001ZM20 14.0001H17C16.4067 14.0001 15.8266 13.8241 15.3333 13.4945C14.8399 13.1648 14.4554 12.6963 14.2284 12.1481C14.0013 11.5999 13.9419 10.9967 14.0576 10.4148C14.1734 9.83286 14.4591 9.29831 14.8787 8.87875C15.2982 8.4592 15.8328 8.17347 16.4147 8.05772C16.9967 7.94196 17.5999 8.00137 18.1481 8.22844C18.6962 8.4555 19.1648 8.84002 19.4944 9.33336C19.8241 9.82671 20 10.4067 20 11.0001V14.0001ZM24 11.0001C24 10.4067 24.1759 9.82671 24.5056 9.33336C24.8352 8.84002 25.3038 8.4555 25.8519 8.22844C26.4001 8.00137 27.0033 7.94196 27.5853 8.05772C28.1672 8.17347 28.7018 8.4592 29.1213 8.87875C29.5409 9.29831 29.8266 9.83286 29.9424 10.4148C30.0581 10.9967 29.9987 11.5999 29.7716 12.1481C29.5446 12.6963 29.1601 13.1648 28.6667 13.4945C28.1734 13.8241 27.5933 14.0001 27 14.0001H24V11.0001ZM32 38.0001C32 38.5305 31.7893 39.0392 31.4142 39.4143C31.0391 39.7894 30.5304 40.0001 30 40.0001H24V26.0001H32V38.0001ZM36 22.0001H24V18.0001H34C34.5304 18.0001 35.0391 18.2108 35.4142 18.5859C35.7893 18.9609 36 19.4696 36 20.0001V22.0001Z" fill="#101117"/>
</svg>
