<?xml version="1.0" encoding="UTF-8" standalone="no"?><!DOCTYPE svg PUBLIC "-//W3C//DTD SVG 1.1//EN" "http://www.w3.org/Graphics/SVG/1.1/DTD/svg11.dtd"><svg width="100%" height="100%" viewBox="0 0 200 200" version="1.1" xmlns="http://www.w3.org/2000/svg" xmlns:xlink="http://www.w3.org/1999/xlink" xml:space="preserve" xmlns:serif="http://www.serif.com/" style="fill-rule:evenodd;clip-rule:evenodd;stroke-linejoin:round;stroke-miterlimit:2;"><rect id="Artboard1" x="0" y="0" width="200" height="200" style="fill:none;"/><g id="Artboard11" serif:id="Artboard1"><path d="M150,58.355l-2.917,-0c1.902,-3.894 2.899,-8.167 2.917,-12.5c0.025,-5.806 -1.688,-11.486 -4.918,-16.31c-3.231,-4.824 -7.831,-8.57 -13.209,-10.757c-5.378,-2.187 -11.288,-2.715 -16.968,-1.515c-5.68,1.2 -10.871,4.073 -14.905,8.248c-4.034,-4.175 -9.225,-7.048 -14.905,-8.248c-5.68,-1.2 -11.59,-0.672 -16.968,1.515c-5.378,2.187 -9.978,5.933 -13.209,10.757c-3.23,4.824 -4.943,10.504 -4.918,16.31c0.018,4.333 1.015,8.606 2.917,12.5l-2.917,-0c-6.63,-0 -12.989,2.634 -17.678,7.322c-4.688,4.689 -7.322,11.047 -7.322,17.678l0,16.667c0,2.21 0.878,4.329 2.441,5.892c1.563,1.563 3.682,2.441 5.892,2.441l8.334,-0l-0,50c-0,6.63 2.634,12.989 7.322,17.677c4.689,4.689 11.047,7.323 17.678,7.323l66.666,-0c6.631,-0 12.99,-2.634 17.678,-7.323c4.689,-4.688 7.322,-11.047 7.322,-17.677l0,-50l8.334,-0c2.21,-0 4.329,-0.878 5.892,-2.441c1.563,-1.563 2.441,-3.682 2.441,-5.892l0,-16.667c0,-6.631 -2.634,-12.989 -7.322,-17.678c-4.689,-4.688 -11.048,-7.322 -17.678,-7.322Zm-58.333,108.333l-25,0c-2.21,0 -4.33,-0.878 -5.893,-2.441c-1.563,-1.563 -2.441,-3.682 -2.441,-5.892l0,-50l33.334,-0l-0,58.333Zm-0,-75l-50,0l-0,-8.333c-0,-2.211 0.878,-4.33 2.44,-5.893c1.563,-1.563 3.683,-2.44 5.893,-2.44l41.667,-0l-0,16.666Zm-0,-33.333l-12.5,-0c-2.472,-0 -4.889,-0.733 -6.945,-2.107c-2.056,-1.374 -3.658,-3.326 -4.604,-5.61c-0.946,-2.284 -1.193,-4.797 -0.711,-7.222c0.482,-2.425 1.673,-4.652 3.421,-6.4c1.748,-1.748 3.975,-2.939 6.4,-3.421c2.425,-0.482 4.938,-0.235 7.222,0.711c2.284,0.946 4.237,2.549 5.61,4.604c1.374,2.056 2.107,4.472 2.107,6.945l-0,12.5Zm16.666,-12.5c0,-2.473 0.733,-4.889 2.107,-6.945c1.373,-2.055 3.326,-3.658 5.61,-4.604c2.284,-0.946 4.797,-1.193 7.222,-0.711c2.425,0.482 4.652,1.673 6.4,3.421c1.748,1.748 2.939,3.975 3.421,6.4c0.482,2.425 0.235,4.938 -0.711,7.222c-0.946,2.284 -2.548,4.236 -4.604,5.61c-2.055,1.374 -4.473,2.107 -6.945,2.107l-12.5,-0l0,-12.5Zm33.334,112.5c-0,2.21 -0.878,4.329 -2.441,5.892c-1.563,1.563 -3.683,2.441 -5.893,2.441l-25,0l0,-58.333l33.334,-0l-0,50Zm16.666,-66.667l-50,0l0,-16.666l41.667,-0c2.21,-0 4.33,0.877 5.893,2.44c1.562,1.563 2.44,3.682 2.44,5.893l0,8.333Z" style="fill:#101117;fill-rule:nonzero;"/></g></svg>