<?xml version="1.0" encoding="UTF-8" standalone="no"?><!DOCTYPE svg PUBLIC "-//W3C//DTD SVG 1.1//EN" "http://www.w3.org/Graphics/SVG/1.1/DTD/svg11.dtd"><svg width="100%" height="100%" viewBox="0 0 200 200" version="1.1" xmlns="http://www.w3.org/2000/svg" xmlns:xlink="http://www.w3.org/1999/xlink" xml:space="preserve" xmlns:serif="http://www.serif.com/" style="fill-rule:evenodd;clip-rule:evenodd;stroke-linejoin:round;stroke-miterlimit:2;"><rect id="Artboard1" x="0" y="0" width="200" height="200" style="fill:none;"/><g id="Artboard11" serif:id="Artboard1"><path d="M181.5,30.167c0.967,-1.22 1.574,-2.686 1.75,-4.232c0.177,-1.547 -0.083,-3.112 -0.75,-4.518c-0.676,-1.418 -1.738,-2.617 -3.065,-3.457c-1.327,-0.841 -2.864,-1.289 -4.435,-1.293l-150,-0c-1.571,0.004 -3.108,0.452 -4.435,1.293c-1.327,0.84 -2.39,2.039 -3.065,3.457c-0.667,1.406 -0.927,2.971 -0.75,4.518c0.176,1.546 0.783,3.012 1.75,4.232l73.167,91.5l-0,45l-47.917,-0c-2.21,-0 -4.33,0.878 -5.892,2.44c-1.563,1.563 -2.441,3.683 -2.441,5.893c-0,2.21 0.878,4.33 2.441,5.893c1.562,1.562 3.682,2.44 5.892,2.44l112.5,0c2.21,0 4.33,-0.878 5.893,-2.44c1.562,-1.563 2.44,-3.683 2.44,-5.893c0,-2.21 -0.878,-4.33 -2.44,-5.893c-1.563,-1.562 -3.683,-2.44 -5.893,-2.44l-47.917,-0l0,-45l73.167,-91.5Zm-139.167,3.166l115.334,0l-20,25l-75,0l-20.334,-25Zm57.667,72.084l-24.333,-30.417l48.666,0l-24.333,30.417Z" style="fill:#101117;fill-rule:nonzero;"/></g></svg>