<svg width="48" height="48" viewBox="0 0 48 48" fill="none" xmlns="http://www.w3.org/2000/svg">
<path d="M43.5598 7.24C43.792 6.94731 43.9375 6.59545 43.9799 6.22429C44.0223 5.85314 43.96 5.47752 43.7998 5.14C43.6377 4.79966 43.3828 4.51205 43.0643 4.31035C42.7458 4.10865 42.3768 4.00107 41.9998 4H5.99985C5.62288 4.00107 5.25388 4.10865 4.93541 4.31035C4.61693 4.51205 4.36195 4.79966 4.19985 5.14C4.03974 5.47752 3.97735 5.85314 4.01977 6.22429C4.06219 6.59545 4.20771 6.94731 4.43985 7.24L21.9998 29.2V40H10.4998C9.96942 40 9.46071 40.2107 9.08564 40.5858C8.71056 40.9609 8.49985 41.4696 8.49985 42C8.49985 42.5304 8.71056 43.0391 9.08564 43.4142C9.46071 43.7893 9.96942 44 10.4998 44H37.4998C38.0303 44 38.539 43.7893 38.9141 43.4142C39.2891 43.0391 39.4998 42.5304 39.4998 42C39.4998 41.4696 39.2891 40.9609 38.9141 40.5858C38.539 40.2107 38.0303 40 37.4998 40H25.9998V29.2L43.5598 7.24ZM10.1598 8H37.8398L33.0399 14H15.0398L10.1598 8ZM23.9998 25.3L18.1598 18H29.8398L23.9998 25.3Z" fill="#101117"/>
</svg>
