<svg width="48" height="48" viewBox="0 0 48 48" fill="none" xmlns="http://www.w3.org/2000/svg">
<path d="M42.9798 20.3799L40.9798 19.2799L22.9798 9.27991H22.7598C22.6371 9.22807 22.5099 9.18789 22.3798 9.15991H21.9998H21.6398C21.5031 9.18791 21.3692 9.22807 21.2398 9.27991H21.0198L3.01976 19.2799C2.71196 19.4543 2.45594 19.7073 2.27782 20.013C2.09971 20.3187 2.00586 20.6661 2.00586 21.0199C2.00586 21.3737 2.09971 21.7212 2.27782 22.0268C2.45594 22.3325 2.71196 22.5855 3.01976 22.7599L7.99976 25.5199V34.9999C7.99976 36.5912 8.6319 38.1173 9.75712 39.2426C10.8823 40.3678 12.4085 40.9999 13.9998 40.9999H29.9998C31.5911 40.9999 33.1172 40.3678 34.2424 39.2426C35.3676 38.1173 35.9998 36.5912 35.9998 34.9999V25.5199L39.9998 23.2799V28.9999C39.9998 29.5303 40.2105 30.0391 40.5855 30.4141C40.9606 30.7892 41.4693 30.9999 41.9998 30.9999C42.5302 30.9999 43.0389 30.7892 43.414 30.4141C43.789 30.0391 43.9998 29.5303 43.9998 28.9999V22.1199C43.9991 21.7655 43.9044 21.4177 43.7252 21.1119C43.5459 20.8062 43.2887 20.5536 42.9798 20.3799ZM31.9998 34.9999C31.9998 35.5303 31.789 36.0391 31.414 36.4141C31.0389 36.7892 30.5302 36.9999 29.9998 36.9999H13.9998C13.4693 36.9999 12.9606 36.7892 12.5855 36.4141C12.2105 36.0391 11.9998 35.5303 11.9998 34.9999V27.7399L21.0198 32.7399L21.3198 32.8599H21.4998C21.6658 32.8808 21.8337 32.8808 21.9998 32.8599C22.1658 32.8808 22.3337 32.8808 22.4998 32.8599H22.6798C22.7859 32.8375 22.8874 32.7969 22.9798 32.7399L31.9998 27.7399V34.9999ZM21.9998 28.7199L8.11976 20.9999L21.9998 13.2799L35.8798 20.9999L21.9998 28.7199Z" fill="#101117"/>
</svg>
