<?xml version="1.0" encoding="UTF-8" standalone="no"?><!DOCTYPE svg PUBLIC "-//W3C//DTD SVG 1.1//EN" "http://www.w3.org/Graphics/SVG/1.1/DTD/svg11.dtd"><svg width="100%" height="100%" viewBox="0 0 200 200" version="1.1" xmlns="http://www.w3.org/2000/svg" xmlns:xlink="http://www.w3.org/1999/xlink" xml:space="preserve" xmlns:serif="http://www.serif.com/" style="fill-rule:evenodd;clip-rule:evenodd;stroke-linejoin:round;stroke-miterlimit:2;"><rect id="Artboard1" x="0" y="0" width="200" height="200" style="fill:none;"/><g id="Artboard11" serif:id="Artboard1"><path d="M179.285,81.346l-7.938,-4.365l-71.438,-39.688l-0.874,-0c-0.487,-0.206 -0.991,-0.366 -1.508,-0.477l-2.937,0c-0.542,0.111 -1.074,0.271 -1.587,0.477l-0.873,-0l-71.439,39.688c-1.222,0.692 -2.238,1.696 -2.945,2.909c-0.707,1.214 -1.079,2.592 -1.079,3.997c-0,1.404 0.372,2.783 1.079,3.996c0.707,1.213 1.723,2.217 2.945,2.909l19.764,10.954l0,37.625c0,6.315 2.509,12.372 6.975,16.838c4.466,4.466 10.523,6.975 16.839,6.975l63.501,-0c6.315,-0 12.372,-2.509 16.838,-6.975c4.466,-4.466 6.975,-10.523 6.975,-16.838l-0,-37.625l15.875,-8.89l0,22.702c0,2.105 0.836,4.124 2.325,5.612c1.488,1.489 3.507,2.325 5.613,2.325c2.105,0 4.124,-0.836 5.612,-2.325c1.489,-1.488 2.325,-3.507 2.325,-5.612l0,-27.306c-0.002,-1.406 -0.378,-2.787 -1.09,-4c-0.711,-1.214 -1.732,-2.216 -2.958,-2.906Zm-43.578,58.025c0,2.105 -0.836,4.124 -2.325,5.612c-1.488,1.489 -3.507,2.325 -5.612,2.325l-63.501,0c-2.106,0 -4.125,-0.836 -5.614,-2.325c-1.488,-1.488 -2.324,-3.507 -2.324,-5.612l-0,-28.814l35.799,19.844l1.19,0.476l0.715,0c0.659,0.083 1.325,0.083 1.984,0c0.659,0.083 1.325,0.083 1.985,0l0.714,0c0.421,-0.088 0.824,-0.25 1.191,-0.476l35.798,-19.844l0,28.814Zm-39.688,-24.924l-55.087,-30.64l55.087,-30.639l55.087,30.639l-55.087,30.64Z" style="fill:#101117;fill-rule:nonzero;"/></g></svg>