<?xml version="1.0" encoding="UTF-8" standalone="no"?><!DOCTYPE svg PUBLIC "-//W3C//DTD SVG 1.1//EN" "http://www.w3.org/Graphics/SVG/1.1/DTD/svg11.dtd"><svg width="100%" height="100%" viewBox="0 0 200 200" version="1.1" xmlns="http://www.w3.org/2000/svg" xmlns:xlink="http://www.w3.org/1999/xlink" xml:space="preserve" xmlns:serif="http://www.serif.com/" style="fill-rule:evenodd;clip-rule:evenodd;stroke-linejoin:round;stroke-miterlimit:2;"><rect id="Artboard1" x="0" y="0" width="200" height="200" style="fill:none;"/><g id="Artboard11" serif:id="Artboard1"><path d="M93.966,95.373l0,-12.362c0,-3.968 2.962,-7.108 6.93,-7.108c6.696,-0 11.747,-4.431 11.747,-10.509c-0,-6.01 -3.869,-10.509 -9.401,-10.509c-6.094,0 -11.507,5.092 -11.507,10.968c0,2.762 -1.599,5.111 -3.899,6.293l-0.008,0.004c-0.967,0.493 -2.06,0.811 -3.227,0.811c-3.914,0 -7.14,-3.194 -7.14,-7.108c-0,-13.632 11.684,-25.184 25.652,-25.184c13.417,0 23.482,10.574 23.482,24.725c-0,6.368 -1.917,12.005 -5.647,16.299c-3.183,3.665 -7.713,6.39 -13.657,7.651c0,0 0,4.613 0,4.613l65.875,29.118c-0.042,-0.019 -0.09,-0.039 -0.145,-0.057l1.493,0.648c7.222,4.812 10.499,13.782 7.976,22.099c-2.544,8.406 -10.044,13.566 -19.731,13.566l-129.368,-0c-8.594,-0 -15.121,-5.177 -16.487,-13.002c-1.265,-7.236 2.407,-16.886 13.901,-21.103l63.161,-29.853Zm74.919,46.72c0.67,-2.214 -0.086,-4.703 -1.868,-6.139l-64.706,-28.813l-65.987,31.28c-0.097,0.046 -0.196,0.087 -0.297,0.124c-3.802,1.383 -5.51,3.815 -5.168,5.786c0.193,1.099 1.192,1.676 2.532,1.676l129.371,-0c3.079,-0 5.376,-1.443 6.123,-3.914Z"/></g></svg>