<svg width="48" height="48" viewBox="0 0 48 48" fill="none" xmlns="http://www.w3.org/2000/svg">
<path d="M40.0002 26.3401V26.0001C40.0021 23.8602 39.5748 21.7415 38.7434 19.7697C37.9121 17.7978 36.6936 16.0127 35.1602 14.5201C33.3699 12.7781 31.1894 11.489 28.8002 10.7601H28.7002C27.025 10.2324 25.2763 9.97581 23.5202 10.0001C19.337 10.2297 15.3997 12.0496 12.5145 15.0873C9.62926 18.125 8.01428 22.1506 8.00016 26.3401C6.6635 26.8103 5.53638 27.7384 4.81843 28.96C4.10048 30.1816 3.83804 31.6179 4.07759 33.0145C4.31713 34.411 5.04321 35.6777 6.12722 36.5903C7.21123 37.5028 8.58321 38.0022 10.0002 38.0001H38.0002C39.4171 38.0022 40.7891 37.5028 41.8731 36.5903C42.9571 35.6777 43.6832 34.411 43.9227 33.0145C44.1623 31.6179 43.8998 30.1816 43.1819 28.96C42.4639 27.7384 41.3368 26.8103 40.0002 26.3401ZM38.0002 34.0001H10.0002C9.46973 34.0001 8.96102 33.7894 8.58595 33.4143C8.21088 33.0393 8.00016 32.5305 8.00016 32.0001C8.00016 31.4697 8.21088 30.961 8.58595 30.5859C8.96102 30.2108 9.46973 30.0001 10.0002 30.0001H14.0002C14.5306 30.0001 15.0393 29.7894 15.4144 29.4143C15.7894 29.0393 16.0002 28.5305 16.0002 28.0001C16.0002 27.4697 15.7894 26.961 15.4144 26.5859C15.0393 26.2108 14.5306 26.0001 14.0002 26.0001H12.0002C12.0914 23.9257 12.6851 21.9045 13.7302 20.1104C14.7754 18.3162 16.2407 16.8027 18.0002 15.7001V22.0001C18.0002 22.5305 18.2109 23.0393 18.5859 23.4143C18.961 23.7894 19.4697 24.0001 20.0002 24.0001C20.5306 24.0001 21.0393 23.7894 21.4144 23.4143C21.7894 23.0393 22.0002 22.5305 22.0002 22.0001V14.1801C22.543 14.0894 23.0906 14.0293 23.6402 14.0001H24.0002C24.6715 14.0063 25.3409 14.0732 26.0002 14.2001V22.0001C26.0002 22.5305 26.2109 23.0393 26.5859 23.4143C26.961 23.7894 27.4697 24.0001 28.0002 24.0001C28.5306 24.0001 29.0393 23.7894 29.4144 23.4143C29.7894 23.0393 30.0002 22.5305 30.0002 22.0001V15.6401C30.8486 16.1314 31.64 16.7149 32.3602 17.3801C33.5133 18.4999 34.4297 19.84 35.055 21.3207C35.6802 22.8015 36.0017 24.3927 36.0002 26.0001H34.0002C33.4697 26.0001 32.961 26.2108 32.5859 26.5859C32.2109 26.961 32.0002 27.4697 32.0002 28.0001C32.0002 28.5305 32.2109 29.0393 32.5859 29.4143C32.961 29.7894 33.4697 30.0001 34.0002 30.0001H38.0002C38.5306 30.0001 39.0393 30.2108 39.4144 30.5859C39.7895 30.961 40.0002 31.4697 40.0002 32.0001C40.0002 32.5305 39.7895 33.0393 39.4144 33.4143C39.0393 33.7894 38.5306 34.0001 38.0002 34.0001Z" fill="#101117"/>
</svg>
