<?xml version="1.0" encoding="UTF-8" standalone="no"?><!DOCTYPE svg PUBLIC "-//W3C//DTD SVG 1.1//EN" "http://www.w3.org/Graphics/SVG/1.1/DTD/svg11.dtd"><svg width="100%" height="100%" viewBox="0 0 200 200" version="1.1" xmlns="http://www.w3.org/2000/svg" xmlns:xlink="http://www.w3.org/1999/xlink" xml:space="preserve" xmlns:serif="http://www.serif.com/" style="fill-rule:evenodd;clip-rule:evenodd;stroke-linejoin:round;stroke-miterlimit:2;"><rect id="Artboard1" x="0" y="0" width="200" height="200" style="fill:none;"/><g id="Artboard11" serif:id="Artboard1"><path d="M166.667,109.753l-0,-1.416c0.008,-8.917 -1.773,-17.745 -5.237,-25.96c-3.464,-8.217 -8.541,-15.655 -14.93,-21.874c-7.459,-7.258 -16.545,-12.629 -26.5,-15.666l-0.416,-0c-6.98,-2.199 -14.267,-3.268 -21.584,-3.167c-17.43,0.957 -33.835,8.54 -45.857,21.197c-12.022,12.657 -18.751,29.43 -18.81,46.886c-5.569,1.959 -10.265,5.827 -13.257,10.917c-2.991,5.09 -4.085,11.074 -3.087,16.893c0.998,5.819 4.024,11.097 8.54,14.899c4.517,3.803 10.234,5.883 16.138,5.875l116.667,-0c5.903,0.008 11.62,-2.072 16.137,-5.875c4.516,-3.802 7.542,-9.08 8.54,-14.899c0.998,-5.819 -0.096,-11.803 -3.087,-16.893c-2.992,-5.09 -7.688,-8.958 -13.257,-10.917Zm-8.333,31.917l-116.667,-0c-2.21,-0 -4.33,-0.878 -5.893,-2.441c-1.563,-1.562 -2.441,-3.682 -2.441,-5.892c0,-2.21 0.878,-4.33 2.441,-5.893c1.563,-1.563 3.683,-2.441 5.893,-2.441l16.667,0c2.21,0 4.329,-0.878 5.892,-2.441c1.563,-1.562 2.441,-3.682 2.441,-5.892c-0,-2.21 -0.878,-4.33 -2.441,-5.893c-1.563,-1.562 -3.682,-2.44 -5.892,-2.44l-8.334,-0c0.38,-8.644 2.854,-17.065 7.209,-24.541c4.355,-7.476 10.46,-13.782 17.791,-18.376l0,26.25c0,2.21 0.878,4.33 2.441,5.892c1.563,1.563 3.682,2.441 5.893,2.441c2.21,0 4.329,-0.878 5.892,-2.441c1.563,-1.562 2.441,-3.682 2.441,-5.892l-0,-32.583c2.262,-0.378 4.543,-0.629 6.833,-0.75l1.5,-0c2.797,0.025 5.586,0.304 8.334,0.833l-0,32.5c-0,2.21 0.877,4.33 2.44,5.892c1.563,1.563 3.682,2.441 5.893,2.441c2.21,0 4.329,-0.878 5.892,-2.441c1.563,-1.562 2.441,-3.682 2.441,-5.892l0,-26.5c3.535,2.047 6.833,4.478 9.834,7.25c4.804,4.666 8.622,10.25 11.228,16.419c2.605,6.17 3.944,12.8 3.938,19.498l-8.333,-0c-2.211,-0 -4.33,0.878 -5.893,2.44c-1.563,1.563 -2.44,3.683 -2.44,5.893c-0,2.21 0.877,4.33 2.44,5.892c1.563,1.563 3.682,2.441 5.893,2.441l16.667,0c2.21,0 4.329,0.878 5.892,2.441c1.563,1.563 2.441,3.683 2.441,5.893c-0,2.21 -0.878,4.33 -2.441,5.892c-1.563,1.563 -3.682,2.441 -5.892,2.441Z" style="fill:#101117;fill-rule:nonzero;"/></g></svg>