<svg width="48" height="48" viewBox="0 0 48 48" fill="none" xmlns="http://www.w3.org/2000/svg">
<path d="M28.0001 21.9999H26.0001V19.9999C26.0001 19.4695 25.7893 18.9608 25.4143 18.5857C25.0392 18.2107 24.5305 17.9999 24.0001 17.9999C23.4696 17.9999 22.9609 18.2107 22.5858 18.5857C22.2108 18.9608 22.0001 19.4695 22.0001 19.9999V21.9999H20.0001C19.4696 21.9999 18.9609 22.2107 18.5858 22.5857C18.2108 22.9608 18.0001 23.4695 18.0001 23.9999C18.0001 24.5304 18.2108 25.0391 18.5858 25.4142C18.9609 25.7892 19.4696 25.9999 20.0001 25.9999H22.0001V27.9999C22.0001 28.5304 22.2108 29.0391 22.5858 29.4142C22.9609 29.7892 23.4696 29.9999 24.0001 29.9999C24.5305 29.9999 25.0392 29.7892 25.4143 29.4142C25.7893 29.0391 26.0001 28.5304 26.0001 27.9999V25.9999H28.0001C28.5305 25.9999 29.0392 25.7892 29.4143 25.4142C29.7893 25.0391 30.0001 24.5304 30.0001 23.9999C30.0001 23.4695 29.7893 22.9608 29.4143 22.5857C29.0392 22.2107 28.5305 21.9999 28.0001 21.9999ZM40.3201 9.99994C38.1875 7.88935 35.3707 6.61048 32.3781 6.3941C29.3855 6.17773 26.4141 7.03809 24.0001 8.81994C21.4554 6.92721 18.288 6.06896 15.1359 6.41801C11.9838 6.76707 9.08094 8.2975 7.01201 10.7011C4.94308 13.1047 3.86171 16.203 3.98567 19.372C4.10962 22.541 5.4297 25.5453 7.68006 27.7799L19.6801 39.8799C20.8051 41.0035 22.3301 41.6347 23.9201 41.6347C25.5101 41.6347 27.0351 41.0035 28.1601 39.8799L40.1601 27.7799C41.3419 26.6252 42.2839 25.2483 42.932 23.7284C43.58 22.2085 43.9212 20.5754 43.9361 18.9232C43.951 17.271 43.6392 15.6321 43.0186 14.1007C42.398 12.5693 41.481 11.1757 40.3201 9.99994ZM37.5001 24.9199L25.5001 36.9199C25.3141 37.1074 25.0929 37.2562 24.8492 37.3577C24.6055 37.4593 24.3441 37.5115 24.0801 37.5115C23.816 37.5115 23.5546 37.4593 23.3109 37.3577C23.0672 37.2562 22.846 37.1074 22.6601 36.9199L10.6601 24.9199C9.09158 23.3166 8.21328 21.1629 8.21328 18.9199C8.21328 16.677 9.09158 14.5232 10.6601 12.9199C12.2584 11.3419 14.414 10.4571 16.6601 10.4571C18.9061 10.4571 21.0618 11.3419 22.6601 12.9199C22.846 13.1074 23.0672 13.2562 23.3109 13.3577C23.5546 13.4593 23.816 13.5115 24.0801 13.5115C24.3441 13.5115 24.6055 13.4593 24.8492 13.3577C25.0929 13.2562 25.3141 13.1074 25.5001 12.9199C27.0984 11.3419 29.254 10.4571 31.5001 10.4571C33.7461 10.4571 35.9018 11.3419 37.5001 12.9199C39.0806 14.525 39.9665 16.6873 39.9665 18.9399C39.9665 21.1926 39.0806 23.3548 37.5001 24.9599V24.9199Z" fill="#101117"/>
</svg>
