<?xml version="1.0" encoding="UTF-8" standalone="no"?><!DOCTYPE svg PUBLIC "-//W3C//DTD SVG 1.1//EN" "http://www.w3.org/Graphics/SVG/1.1/DTD/svg11.dtd"><svg width="100%" height="100%" viewBox="0 0 200 200" version="1.1" xmlns="http://www.w3.org/2000/svg" xmlns:xlink="http://www.w3.org/1999/xlink" xml:space="preserve" xmlns:serif="http://www.serif.com/" style="fill-rule:evenodd;clip-rule:evenodd;stroke-linejoin:round;stroke-miterlimit:2;"><rect id="Artboard1" x="0" y="0" width="200" height="200" style="fill:none;"/><g id="Artboard11" serif:id="Artboard1"><path d="M116.849,91.715l-8.333,0l-0,-8.333c-0,-2.21 -0.879,-4.33 -2.441,-5.893c-1.563,-1.562 -3.683,-2.44 -5.893,-2.44c-2.21,-0 -4.33,0.878 -5.893,2.44c-1.562,1.563 -2.44,3.683 -2.44,5.893l-0,8.333l-8.333,0c-2.211,0 -4.33,0.879 -5.893,2.441c-1.563,1.563 -2.441,3.683 -2.441,5.893c0,2.21 0.878,4.33 2.441,5.892c1.563,1.563 3.682,2.441 5.893,2.441l8.333,-0l-0,8.333c-0,2.211 0.878,4.33 2.44,5.893c1.563,1.563 3.683,2.441 5.893,2.441c2.21,-0 4.33,-0.878 5.893,-2.441c1.562,-1.563 2.441,-3.682 2.441,-5.893l-0,-8.333l8.333,-0c2.21,-0 4.33,-0.878 5.892,-2.441c1.563,-1.562 2.441,-3.682 2.441,-5.892c0,-2.21 -0.878,-4.33 -2.441,-5.893c-1.562,-1.562 -3.682,-2.441 -5.892,-2.441Zm51.333,-50c-8.886,-8.794 -20.622,-14.122 -33.091,-15.024c-12.47,-0.901 -24.85,2.683 -34.909,10.108c-10.603,-7.887 -23.8,-11.463 -36.934,-10.008c-13.134,1.454 -25.229,7.831 -33.849,17.846c-8.621,10.015 -13.127,22.924 -12.61,36.129c0.516,13.204 6.017,25.722 15.393,35.033l50,50.416c4.688,4.682 11.042,7.312 17.667,7.312c6.625,-0 12.979,-2.63 17.667,-7.312l50,-50.416c4.924,-4.812 8.849,-10.549 11.549,-16.882c2.7,-6.333 4.122,-13.137 4.184,-20.021c0.062,-6.885 -1.237,-13.713 -3.823,-20.094c-2.586,-6.381 -6.407,-12.188 -11.244,-17.087Zm-11.75,62.167l-50,50c-0.775,0.781 -1.696,1.401 -2.712,1.824c-1.015,0.423 -2.104,0.641 -3.204,0.641c-1.101,-0 -2.19,-0.218 -3.205,-0.641c-1.016,-0.423 -1.937,-1.043 -2.712,-1.824l-50,-50c-6.536,-6.681 -10.195,-15.654 -10.195,-25c-0,-9.346 3.659,-18.32 10.195,-25c6.66,-6.575 15.641,-10.262 25,-10.262c9.358,0 18.34,3.687 25,10.262c0.775,0.781 1.696,1.401 2.712,1.824c1.015,0.423 2.104,0.641 3.205,0.641c1.1,-0 2.189,-0.218 3.204,-0.641c1.016,-0.423 1.937,-1.043 2.712,-1.824c6.66,-6.575 15.642,-10.262 25,-10.262c9.359,0 18.341,3.687 25,10.262c6.586,6.688 10.277,15.697 10.277,25.083c-0,9.386 -3.691,18.396 -10.277,25.084l0,-0.167Z" style="fill:#101117;fill-rule:nonzero;"/></g></svg>