<?xml version="1.0" encoding="UTF-8" standalone="no"?><!DOCTYPE svg PUBLIC "-//W3C//DTD SVG 1.1//EN" "http://www.w3.org/Graphics/SVG/1.1/DTD/svg11.dtd"><svg width="100%" height="100%" viewBox="0 0 2134 2134" version="1.1" xmlns="http://www.w3.org/2000/svg" xmlns:xlink="http://www.w3.org/1999/xlink" xml:space="preserve" xmlns:serif="http://www.serif.com/" style="fill-rule:evenodd;clip-rule:evenodd;stroke-linejoin:round;stroke-miterlimit:2;"><rect id="Artboard1" x="0" y="0" width="2133.33" height="2133.33" style="fill:none;"/><path d="M586.28,1061.38c0.109,1.747 0.165,3.508 0.165,5.283l-0,56.102l63.98,-63.981c32.522,-32.522 85.33,-32.522 117.852,0c32.522,32.522 32.522,85.329 -0,117.851l-206.24,206.24c-10.05,10.049 -22.028,16.996 -34.743,20.839c-7.655,2.32 -15.774,3.568 -24.182,3.568c-8.409,0 -16.528,-1.248 -24.182,-3.568c-12.716,-3.843 -24.694,-10.789 -34.744,-20.839l-206.239,-206.24c-32.522,-32.522 -32.522,-85.329 -0,-117.851c32.521,-32.522 85.329,-32.522 117.851,0l63.98,63.981l0,-56.102c0,-1.775 0.056,-3.536 0.165,-5.283l-0.147,0c2.845,-411.509 337.808,-744.717 749.982,-744.717c413.937,-0 750,336.063 750,750c0,413.936 -336.063,750 -750,750c-140.117,-0 -304.541,-41.739 -437.376,-138.395c-19.565,-14.281 -31.906,-36.403 -33.78,-60.553c-1.873,-24.15 6.908,-47.912 24.036,-65.04c0.113,-0.712 0.525,-1.125 0.938,-1.537c28.799,-28.797 74.193,-32.559 107.34,-8.897c95.553,67.813 228.214,107.755 338.842,107.755c321.951,0 583.334,-261.383 583.334,-583.333c-0,-321.951 -261.383,-583.334 -583.334,-583.334c-320.187,0 -580.469,258.529 -583.31,578.051l-0.188,0Zm487.665,-262.555c-0,-45.993 37.34,-83.333 83.333,-83.333c45.993,-0 83.334,37.34 83.334,83.333c-0,0 -0,229.122 -0,229.122l275.279,232.317c35.149,29.663 39.602,82.282 9.939,117.431c-29.663,35.149 -82.282,39.603 -117.431,9.939l-304.867,-257.286c-18.762,-15.834 -29.587,-39.135 -29.587,-63.685l-0,-267.838Z"/></svg>