<?xml version="1.0" encoding="UTF-8" standalone="no"?><!DOCTYPE svg PUBLIC "-//W3C//DTD SVG 1.1//EN" "http://www.w3.org/Graphics/SVG/1.1/DTD/svg11.dtd"><svg width="100%" height="100%" viewBox="0 0 200 200" version="1.1" xmlns="http://www.w3.org/2000/svg" xmlns:xlink="http://www.w3.org/1999/xlink" xml:space="preserve" xmlns:serif="http://www.serif.com/" style="fill-rule:evenodd;clip-rule:evenodd;stroke-linejoin:round;stroke-miterlimit:2;"><rect id="Artboard1" x="0" y="0" width="200" height="200" style="fill:none;"/><g id="Artboard11" serif:id="Artboard1"><rect id="Artboard12" serif:id="Artboard1" x="0" y="0" width="199.937" height="199.937" style="fill:none;"/><path d="M53.075,99.484c0.011,0.171 0.016,0.343 0.016,0.516l0,5.48l6.25,-6.25c3.177,-3.176 8.335,-3.176 11.512,0c3.177,3.177 3.177,8.335 -0,11.512l-20.146,20.146c-0.982,0.982 -2.152,1.66 -3.394,2.036c-0.748,0.226 -1.541,0.348 -2.362,0.348c-0.821,0 -1.614,-0.122 -2.362,-0.348c-1.242,-0.376 -2.412,-1.054 -3.394,-2.036l-20.146,-20.146c-3.177,-3.177 -3.177,-8.335 0,-11.512c3.177,-3.176 8.335,-3.176 11.512,0l6.25,6.25l-0,-5.48c-0,-0.173 0.005,-0.345 0.016,-0.516l-0.014,-0c0.277,-40.197 32.997,-72.745 73.259,-72.745c40.434,-0 73.261,32.827 73.261,73.261c0,40.434 -32.827,73.261 -73.261,73.261c-13.687,0 -29.748,-4.077 -42.724,-13.518c-1.911,-1.395 -3.116,-3.556 -3.299,-5.915c-0.183,-2.359 0.675,-4.68 2.348,-6.354c0.011,-0.069 0.051,-0.109 0.091,-0.15c2.813,-2.813 7.248,-3.18 10.485,-0.869c9.334,6.624 22.293,10.526 33.099,10.526c31.449,-0 56.981,-25.532 56.981,-56.981c0,-31.449 -25.532,-56.981 -56.981,-56.981c-31.276,-0 -56.701,25.254 -56.979,56.465l-0.018,-0Zm47.636,-25.647c-0,-4.493 3.647,-8.14 8.14,-8.14c4.493,0 8.14,3.647 8.14,8.14l0,22.381l26.89,22.693c3.433,2.898 3.868,8.038 0.971,11.471c-2.898,3.434 -8.038,3.869 -11.471,0.971l-29.78,-25.132c-1.833,-1.547 -2.89,-3.823 -2.89,-6.221l-0,-26.163Z"/></g></svg>