<?xml version="1.0" encoding="UTF-8" standalone="no"?><!DOCTYPE svg PUBLIC "-//W3C//DTD SVG 1.1//EN" "http://www.w3.org/Graphics/SVG/1.1/DTD/svg11.dtd"><svg width="100%" height="100%" viewBox="0 0 2134 2134" version="1.1" xmlns="http://www.w3.org/2000/svg" xmlns:xlink="http://www.w3.org/1999/xlink" xml:space="preserve" xmlns:serif="http://www.serif.com/" style="fill-rule:evenodd;clip-rule:evenodd;stroke-linejoin:round;stroke-miterlimit:2;"><rect id="Artboard1" x="0" y="0" width="2133.33" height="2133.33" style="fill:none;"/><path d="M1110.86,530.795c-24.408,-24.407 -63.981,-24.407 -88.388,0l-730.214,730.214c-32.522,32.522 -85.329,32.522 -117.851,-0c-32.522,-32.522 -32.522,-85.329 -0,-117.851l833.333,-833.334c32.544,-32.543 85.308,-32.543 117.851,0l833.334,833.334c32.521,32.522 32.521,85.329 -0,117.851c-32.522,32.522 -85.33,32.522 -117.852,-0l-730.213,-730.214Zm658.037,775.447c3.907,3.907 6.102,9.206 6.102,14.731l-0,443.61c-0,46.024 -37.31,83.334 -83.333,83.334l-479.167,-0c-11.506,-0 -20.833,-9.328 -20.833,-20.834l-0,-325.442c-0,-69.035 -55.965,-125 -125,-125c-69.036,0 -125,55.965 -125,125l-0,325.442c-0,11.506 -9.328,20.834 -20.834,20.834l-479.166,-0c-46.024,-0 -83.334,-37.31 -83.334,-83.334l0,-443.61c0,-5.525 2.195,-10.824 6.102,-14.731l125,-125c5.959,-5.959 14.919,-7.741 22.704,-4.516c7.785,3.224 12.861,10.821 12.861,19.247l0,464.444c0,5.525 2.195,10.824 6.102,14.731c3.907,3.907 9.206,6.102 14.731,6.102l208.334,-0c11.506,-0 20.833,-9.327 20.833,-20.833l-0,-158.776c-0,-161.083 130.584,-291.666 291.667,-291.666c161.083,-0 291.666,130.583 291.666,291.666l0,158.776c0,5.525 2.195,10.824 6.102,14.731c3.907,3.907 9.206,6.102 14.732,6.102l208.333,-0c5.525,-0 10.824,-2.195 14.731,-6.102c3.907,-3.907 6.102,-9.206 6.102,-14.731l0,-464.444c0,-8.426 5.076,-16.023 12.861,-19.248c7.785,-3.224 16.746,-1.442 22.704,4.517l125,125Z"/></svg>