<?xml version="1.0" encoding="UTF-8" standalone="no"?><!DOCTYPE svg PUBLIC "-//W3C//DTD SVG 1.1//EN" "http://www.w3.org/Graphics/SVG/1.1/DTD/svg11.dtd"><svg width="100%" height="100%" viewBox="0 0 200 200" version="1.1" xmlns="http://www.w3.org/2000/svg" xmlns:xlink="http://www.w3.org/1999/xlink" xml:space="preserve" xmlns:serif="http://www.serif.com/" style="fill-rule:evenodd;clip-rule:evenodd;stroke-linejoin:round;stroke-miterlimit:2;"><rect id="Artboard1" x="0" y="0" width="200" height="200" style="fill:none;"/><g id="Artboard11" serif:id="Artboard1"><rect id="Artboard12" serif:id="Artboard1" x="0" y="0" width="199.937" height="199.937" style="fill:none;"/><path d="M104.018,51.283c-2.219,-2.218 -5.817,-2.218 -8.036,0l-66.384,66.385c-2.957,2.956 -7.757,2.956 -10.714,-0c-2.956,-2.957 -2.956,-7.758 0,-10.714l75.759,-75.759c2.959,-2.959 7.755,-2.959 10.714,-0l75.759,75.759c2.956,2.956 2.956,7.757 -0,10.714c-2.957,2.956 -7.757,2.956 -10.714,-0l-66.384,-66.385Zm59.822,70.497c0.356,0.355 0.555,0.837 0.555,1.339l0,40.329c0,4.184 -3.392,7.576 -7.576,7.576l-43.561,0c-1.046,0 -1.894,-0.848 -1.894,-1.894l-0,-29.586c-0,-6.276 -5.088,-11.364 -11.364,-11.364c-6.276,-0 -11.364,5.088 -11.364,11.364l0,29.586c0,1.046 -0.848,1.894 -1.894,1.894l-43.561,0c-4.184,0 -7.576,-3.392 -7.576,-7.576l-0,-40.329c-0,-0.502 0.199,-0.984 0.555,-1.339l11.363,-11.364c0.542,-0.542 1.357,-0.704 2.064,-0.41c0.708,0.293 1.17,0.983 1.17,1.749l-0,42.223c-0,0.503 0.199,0.984 0.554,1.339c0.356,0.356 0.837,0.555 1.34,0.555l18.939,0c1.046,0 1.894,-0.848 1.894,-1.894l0,-14.434c0,-14.644 11.872,-26.516 26.516,-26.516c14.644,0 26.516,11.872 26.516,26.516l-0,14.434c-0,0.503 0.199,0.984 0.554,1.339c0.356,0.356 0.837,0.555 1.34,0.555l18.939,0c0.503,0 0.984,-0.199 1.34,-0.555c0.355,-0.355 0.554,-0.836 0.554,-1.339l0,-42.223c0,-0.766 0.462,-1.456 1.169,-1.75c0.708,-0.293 1.523,-0.131 2.065,0.411l11.363,11.364Z"/></g></svg>