<?xml version="1.0" encoding="UTF-8" standalone="no"?><!DOCTYPE svg PUBLIC "-//W3C//DTD SVG 1.1//EN" "http://www.w3.org/Graphics/SVG/1.1/DTD/svg11.dtd"><svg width="100%" height="100%" viewBox="0 0 200 200" version="1.1" xmlns="http://www.w3.org/2000/svg" xmlns:xlink="http://www.w3.org/1999/xlink" xml:space="preserve" xmlns:serif="http://www.serif.com/" style="fill-rule:evenodd;clip-rule:evenodd;stroke-linejoin:round;stroke-miterlimit:2;"><rect id="Artboard1" x="0" y="0" width="200" height="200" style="fill:none;"/><g id="Artboard11" serif:id="Artboard1"><path d="M180.5,85.411l-75,-66.666c-1.521,-1.336 -3.476,-2.073 -5.5,-2.073c-2.024,-0 -3.979,0.737 -5.5,2.073l-75,66.666c-1.275,1.128 -2.174,2.619 -2.576,4.272c-0.402,1.654 -0.288,3.391 0.326,4.978c0.604,1.567 1.668,2.914 3.05,3.865c1.383,0.952 3.021,1.464 4.7,1.469l8.333,-0l0,75c0,2.21 0.878,4.33 2.441,5.892c1.563,1.563 3.682,2.441 5.892,2.441l116.667,0c2.211,0 4.33,-0.878 5.893,-2.441c1.563,-1.562 2.44,-3.682 2.44,-5.892l0,-75l8.334,-0c1.679,-0.005 3.316,-0.517 4.699,-1.469c1.383,-0.951 2.447,-2.298 3.051,-3.865c0.614,-1.587 0.728,-3.324 0.326,-4.978c-0.402,-1.653 -1.301,-3.144 -2.576,-4.272Zm-72.167,81.25l-16.667,0l0,-25c0,-2.21 0.879,-4.329 2.441,-5.892c1.563,-1.563 3.683,-2.441 5.893,-2.441c2.21,0 4.33,0.878 5.893,2.441c1.562,1.563 2.44,3.682 2.44,5.892l0,25Zm41.667,0l-25,0l-0,-25c-0,-6.63 -2.634,-12.989 -7.322,-17.677c-4.689,-4.688 -11.048,-7.323 -17.678,-7.323c-6.631,0 -12.989,2.635 -17.678,7.323c-4.688,4.688 -7.322,11.047 -7.322,17.677l-0,25l-25,0l-0,-66.666l100,-0l-0,66.666Zm-103.084,-83.333l53.084,-47.167l53.083,47.167l-106.167,0Z" style="fill:#101117;fill-rule:nonzero;"/></g></svg>