<svg width="48" height="48" viewBox="0 0 48 48" fill="none" xmlns="http://www.w3.org/2000/svg">
<path d="M43.3202 20.4999L25.3202 4.49991C24.9553 4.17927 24.4861 4.00244 24.0002 4.00244C23.5144 4.00244 23.0452 4.17927 22.6802 4.49991L4.68024 20.4999C4.37431 20.7705 4.15857 21.1283 4.06204 21.5252C3.9655 21.9221 3.99279 22.339 4.14024 22.7199C4.28527 23.0958 4.54045 23.4191 4.87234 23.6475C5.20423 23.8759 5.59736 23.9987 6.00024 23.9999H8.00024V41.9999C8.00024 42.5303 8.21095 43.0391 8.58602 43.4141C8.9611 43.7892 9.4698 43.9999 10.0002 43.9999H38.0002C38.5307 43.9999 39.0394 43.7892 39.4145 43.4141C39.7895 43.0391 40.0002 42.5303 40.0002 41.9999V23.9999H42.0002C42.4031 23.9987 42.7962 23.8759 43.1281 23.6475C43.46 23.4191 43.7152 23.0958 43.8602 22.7199C44.0077 22.339 44.035 21.9221 43.9384 21.5252C43.8419 21.1283 43.6262 20.7705 43.3202 20.4999ZM26.0002 39.9999H22.0002V33.9999C22.0002 33.4695 22.211 32.9608 22.586 32.5857C22.9611 32.2106 23.4698 31.9999 24.0002 31.9999C24.5307 31.9999 25.0394 32.2106 25.4145 32.5857C25.7895 32.9608 26.0002 33.4695 26.0002 33.9999V39.9999ZM36.0002 39.9999H30.0002V33.9999C30.0002 32.4086 29.3681 30.8825 28.2429 29.7573C27.1177 28.6321 25.5915 27.9999 24.0002 27.9999C22.4089 27.9999 20.8828 28.6321 19.7576 29.7573C18.6324 30.8825 18.0002 32.4086 18.0002 33.9999V39.9999H12.0002V23.9999H36.0002V39.9999ZM11.2602 19.9999L24.0002 8.67991L36.7402 19.9999H11.2602Z" fill="#101117"/>
</svg>
