<?xml version="1.0" encoding="UTF-8" standalone="no"?><!DOCTYPE svg PUBLIC "-//W3C//DTD SVG 1.1//EN" "http://www.w3.org/Graphics/SVG/1.1/DTD/svg11.dtd"><svg width="100%" height="100%" viewBox="0 0 200 200" version="1.1" xmlns="http://www.w3.org/2000/svg" xmlns:xlink="http://www.w3.org/1999/xlink" xml:space="preserve" xmlns:serif="http://www.serif.com/" style="fill-rule:evenodd;clip-rule:evenodd;stroke-linejoin:round;stroke-miterlimit:2;"><rect id="Artboard1" x="0" y="0" width="200" height="200" style="fill:none;"/><g id="Artboard11" serif:id="Artboard1"><path d="M99.999,83.432c-2.197,0 -4.304,0.873 -5.858,2.427c-1.553,1.553 -2.426,3.66 -2.426,5.857l0,16.568c0,2.197 0.873,4.304 2.426,5.857c1.554,1.554 3.661,2.426 5.858,2.426c2.197,0 4.304,-0.872 5.858,-2.426c1.553,-1.553 2.426,-3.66 2.426,-5.857l-0,-16.568c-0,-2.197 -0.873,-4.304 -2.426,-5.857c-1.554,-1.554 -3.661,-2.427 -5.858,-2.427Zm70.08,-2.65c-1.098,-12.139 -5.329,-23.785 -12.278,-33.799c-6.949,-10.013 -16.378,-18.051 -27.365,-23.328c-10.987,-5.276 -23.156,-7.61 -35.316,-6.774c-12.159,0.837 -23.893,4.816 -34.054,11.548c-8.705,5.82 -16.012,13.496 -21.398,22.477c-5.385,8.98 -8.715,19.041 -9.749,29.462c-1.015,10.351 0.287,20.799 3.812,30.585c3.525,9.786 9.183,18.665 16.566,25.992l43.904,43.987c0.77,0.776 1.686,1.393 2.695,1.813c1.009,0.42 2.092,0.637 3.186,0.637c1.093,-0 2.176,-0.217 3.186,-0.637c1.009,-0.42 1.925,-1.037 2.695,-1.813l43.738,-43.987c7.383,-7.327 13.041,-16.206 16.566,-25.992c3.525,-9.786 4.827,-20.234 3.812,-30.585l0,0.414Zm-31.975,44.483l-38.105,38.105l-38.105,-38.105c-5.616,-5.616 -9.917,-12.406 -12.596,-19.883c-2.678,-7.476 -3.667,-15.453 -2.895,-23.358c0.778,-8.026 3.329,-15.779 7.469,-22.698c4.14,-6.92 9.766,-12.833 16.471,-17.312c8.789,-5.838 19.105,-8.952 29.656,-8.952c10.551,-0 20.867,3.114 29.656,8.952c6.684,4.462 12.298,10.349 16.438,17.238c4.139,6.889 6.701,14.609 7.502,22.607c0.797,7.931 -0.179,15.94 -2.859,23.447c-2.679,7.508 -6.993,14.325 -12.632,19.959Zm-30.484,-61.962c-0.166,-0.509 -0.418,-0.985 -0.745,-1.408l-0.994,-1.243c-0.989,-0.939 -2.195,-1.619 -3.51,-1.98c-1.315,-0.362 -2.699,-0.393 -4.029,-0.091l-1.491,0l-1.491,0.746l-1.242,1.077l-0.994,1.242c-0.328,0.423 -0.581,0.9 -0.746,1.409c-0.252,0.493 -0.42,1.025 -0.497,1.573c-0.137,0.738 -0.193,1.488 -0.166,2.237c-0.029,1.113 0.198,2.219 0.663,3.231c0.422,0.978 1.011,1.874 1.74,2.65c0.788,0.775 1.715,1.393 2.733,1.823c2.028,0.77 4.268,0.77 6.296,-0c1.006,-0.45 1.93,-1.066 2.734,-1.823c0.729,-0.776 1.317,-1.672 1.739,-2.65c0.435,-1.022 0.66,-2.121 0.663,-3.231c0.04,-0.524 0.04,-1.05 -0,-1.574c-0.078,-0.702 -0.303,-1.38 -0.663,-1.988Z" style="fill:#101117;fill-rule:nonzero;"/></g></svg>