<svg width="34" height="42" viewBox="0 0 34 42" fill="none" xmlns="http://www.w3.org/2000/svg">
<path d="M16.9998 16.9999C16.4693 16.9999 15.9606 17.2106 15.5855 17.5857C15.2105 17.9608 14.9998 18.4695 14.9998 18.9999V22.9999C14.9998 23.5304 15.2105 24.0391 15.5855 24.4141C15.9606 24.7892 16.4693 24.9999 16.9998 24.9999C17.5302 24.9999 18.0389 24.7892 18.414 24.4141C18.789 24.0391 18.9998 23.5304 18.9998 22.9999V18.9999C18.9998 18.4695 18.789 17.9608 18.414 17.5857C18.0389 17.2106 17.5302 16.9999 16.9998 16.9999ZM33.9198 16.3599C33.6546 13.4291 32.6332 10.6174 30.9554 8.19973C29.2777 5.78209 27.0011 3.84136 24.3484 2.56741C21.6957 1.29347 18.7577 0.729937 15.8219 0.931956C12.8861 1.13398 10.053 2.09462 7.59976 3.71992C5.49815 5.12521 3.73387 6.97852 2.43365 9.1467C1.13343 11.3149 0.329552 13.7441 0.079762 16.2599C-0.165273 18.7592 0.14911 21.2818 1.0001 23.6445C1.8511 26.0072 3.21736 28.1508 4.99976 29.9199L15.5998 40.5399C15.7857 40.7274 16.0069 40.8762 16.2506 40.9777C16.4943 41.0792 16.7557 41.1315 17.0198 41.1315C17.2838 41.1315 17.5452 41.0792 17.7889 40.9777C18.0326 40.8762 18.2538 40.7274 18.4398 40.5399L28.9998 29.9199C30.7822 28.1508 32.1484 26.0072 32.9994 23.6445C33.8504 21.2818 34.1648 18.7592 33.9198 16.2599V16.3599ZM26.1998 27.0999L16.9998 36.2999L7.79976 27.0999C6.44394 25.744 5.40537 24.1046 4.7587 22.2994C4.11203 20.4943 3.87333 18.5683 4.05976 16.6599C4.2474 14.7221 4.86329 12.8502 5.8629 11.1796C6.86252 9.50897 8.22088 8.08133 9.83976 6.99992C11.9617 5.59039 14.4524 4.83851 16.9998 4.83851C19.5471 4.83851 22.0379 5.59039 24.1598 6.99992C25.7737 8.07715 27.1291 9.49848 28.1285 11.1618C29.1278 12.8251 29.7464 14.6891 29.9398 16.6199C30.1323 18.5348 29.8966 20.4685 29.2497 22.281C28.6029 24.0936 27.5611 25.7396 26.1998 27.0999ZM18.8398 12.1399C18.7998 12.0171 18.7389 11.902 18.6598 11.7999L18.4198 11.4999C18.181 11.2732 17.8899 11.1089 17.5725 11.0217C17.255 10.9345 16.9208 10.927 16.5998 10.9999H16.2398L15.8798 11.1799L15.5798 11.4399L15.3398 11.7399C15.2606 11.842 15.1997 11.9571 15.1598 12.0799C15.0989 12.199 15.0583 12.3275 15.0398 12.4599C15.0066 12.6379 14.9932 12.819 14.9998 12.9999C14.9928 13.2687 15.0475 13.5356 15.1598 13.7799C15.2616 14.016 15.4038 14.2325 15.5798 14.4199C15.7701 14.6068 15.994 14.7561 16.2398 14.8599C16.7294 15.0459 17.2702 15.0459 17.7598 14.8599C18.0028 14.7512 18.2259 14.6025 18.4198 14.4199C18.5958 14.2325 18.7379 14.016 18.8398 13.7799C18.9448 13.5333 18.9992 13.268 18.9998 12.9999C19.0096 12.8734 19.0096 12.7464 18.9998 12.6199C18.9811 12.4504 18.9266 12.2867 18.8398 12.1399Z" fill="#101117"/>
</svg>
