<?xml version="1.0" encoding="UTF-8" standalone="no"?><!DOCTYPE svg PUBLIC "-//W3C//DTD SVG 1.1//EN" "http://www.w3.org/Graphics/SVG/1.1/DTD/svg11.dtd"><svg width="100%" height="100%" viewBox="0 0 200 200" version="1.1" xmlns="http://www.w3.org/2000/svg" xmlns:xlink="http://www.w3.org/1999/xlink" xml:space="preserve" xmlns:serif="http://www.serif.com/" style="fill-rule:evenodd;clip-rule:evenodd;stroke-linejoin:round;stroke-miterlimit:2;"><rect id="Artboard1" x="0" y="0" width="200" height="200" style="fill:none;"/><g id="Artboard11" serif:id="Artboard1"><path d="M175.938,140.314c-3.649,-3.609 -8.325,-6.009 -13.392,-6.871c-5.066,-0.861 -10.275,-0.144 -14.918,2.055l-9.575,-9.466c19.618,-21.112 34.417,-46.211 43.381,-73.57c1.701,-4.727 2.019,-9.839 0.918,-14.739c-1.101,-4.9 -3.576,-9.388 -7.137,-12.939c-3.561,-3.551 -8.06,-6.019 -12.974,-7.117c-4.914,-1.098 -10.04,-0.781 -14.779,0.916c-27.436,8.938 -52.604,23.697 -73.774,43.262l-9.492,-9.549c1.972,-4.127 2.767,-8.714 2.299,-13.261c-0.467,-4.547 -2.181,-8.878 -4.952,-12.519c-2.771,-3.641 -6.493,-6.451 -10.759,-8.123c-4.266,-1.672 -8.911,-2.141 -13.426,-1.356c-4.516,0.784 -8.728,2.793 -12.175,5.805c-3.447,3.013 -5.996,6.913 -7.369,11.274c-1.373,4.361 -1.517,9.014 -0.415,13.451c1.103,4.437 3.407,8.486 6.663,11.704c4.68,4.672 11.029,7.301 17.652,7.307c3.694,-0.035 7.334,-0.885 10.658,-2.491l9.576,9.466c-19.619,21.112 -34.418,46.211 -43.382,73.57c-1.561,4.72 -1.78,9.78 -0.634,14.616c1.146,4.837 3.614,9.263 7.129,12.786c2.38,2.531 5.239,4.567 8.411,5.993c3.173,1.425 6.596,2.21 10.074,2.311c3.051,-0.029 6.081,-0.504 8.993,-1.412c27.435,-8.938 52.603,-23.697 73.773,-43.262l9.492,9.55c-1.972,4.126 -2.767,8.713 -2.299,13.26c0.468,4.547 2.181,8.878 4.952,12.519c2.771,3.641 6.494,6.451 10.759,8.123c4.266,1.672 8.911,2.141 13.427,1.357c4.515,-0.785 8.727,-2.794 12.174,-5.806c3.447,-3.013 5.997,-6.913 7.369,-11.274c1.373,-4.361 1.517,-9.015 0.415,-13.451c-1.102,-4.437 -3.407,-8.486 -6.663,-11.704l0,-0.415Zm-128.312,-92.835c-1.557,1.564 -3.673,2.447 -5.883,2.455c-2.209,0.007 -4.331,-0.861 -5.899,-2.413c-1.568,-1.553 -2.453,-3.663 -2.461,-5.866c-0.008,-2.204 0.862,-4.32 2.419,-5.884c1.557,-1.563 3.673,-2.446 5.883,-2.454c2.209,-0.008 4.332,0.86 5.899,2.413c1.568,1.552 2.453,3.662 2.461,5.866c0.008,2.203 -0.862,4.32 -2.419,5.883Zm104.915,-13.036c1.263,-0.415 2.583,-0.639 3.913,-0.665c1.282,-0.01 2.554,0.234 3.74,0.719c1.187,0.485 2.265,1.2 3.171,2.105c1.357,1.405 2.282,3.168 2.666,5.081c0.384,1.913 0.21,3.896 -0.501,5.713c-4.399,13.484 -10.35,26.413 -17.735,38.529l-33.889,-33.796c12.149,-7.364 25.114,-13.3 38.635,-17.686Zm-105.081,130.699c-1.816,0.725 -3.806,0.902 -5.722,0.51c-1.915,-0.391 -3.674,-1.336 -5.057,-2.715c-1.383,-1.379 -2.33,-3.133 -2.723,-5.043c-0.393,-1.911 -0.215,-3.895 0.512,-5.705c4.399,-13.484 10.35,-26.413 17.736,-38.529l33.889,33.795c-12.15,7.365 -25.115,13.3 -38.635,17.687Zm52.54,-27.236l-38.219,-38.114c3.711,-5.022 7.685,-9.845 11.907,-14.448l40.884,40.771c-4.645,4.184 -9.51,8.12 -14.572,11.791Zm26.229,-23.582l-40.8,-40.771c4.643,-4.213 9.507,-8.176 14.571,-11.874l38.302,38.196c-3.737,5.025 -7.74,9.848 -11.99,14.449l-0.083,-0Zm37.886,49.822c-0.771,0.774 -1.688,1.389 -2.697,1.81c-1.009,0.421 -2.092,0.64 -3.186,0.644c-1.094,0.004 -2.178,-0.207 -3.19,-0.621c-1.012,-0.414 -1.933,-1.023 -2.709,-1.792c-0.777,-0.769 -1.394,-1.682 -1.816,-2.689c-0.422,-1.006 -0.642,-2.086 -0.646,-3.177c-0.003,-1.091 0.208,-2.172 0.624,-3.182c0.415,-1.009 1.025,-1.927 1.796,-2.701c1.56,-1.547 3.67,-2.415 5.87,-2.415c2.2,-0 4.31,0.868 5.87,2.415c1.475,1.518 2.313,3.541 2.344,5.655c0.031,2.114 -0.748,4.16 -2.177,5.721l-0.083,0.332Z" style="fill:#101117;fill-rule:nonzero;"/></g></svg>