<svg width="48" height="48" viewBox="0 0 48 48" fill="none" xmlns="http://www.w3.org/2000/svg">
<path d="M42.2402 33.76C41.3637 32.8906 40.2405 32.3127 39.0235 32.1051C37.8066 31.8975 36.5553 32.0703 35.4402 32.6L33.1402 30.32C37.8524 25.2351 41.4072 19.1898 43.5602 12.6C43.9687 11.4615 44.0452 10.2304 43.7807 9.05007C43.5163 7.86978 42.9217 6.78898 42.0665 5.93369C41.2112 5.0784 40.1304 4.48387 38.9501 4.2194C37.7698 3.95494 36.5386 4.03144 35.4002 4.43999C28.8103 6.59292 22.765 10.1478 17.6802 14.86L15.4002 12.56C15.8738 11.5662 16.0649 10.4612 15.9525 9.36602C15.8402 8.27085 15.4286 7.22771 14.763 6.35081C14.0973 5.47391 13.2033 4.79705 12.1786 4.39434C11.154 3.99163 10.0383 3.87859 8.95377 4.06761C7.86919 4.25662 6.85753 4.7404 6.02954 5.46597C5.20154 6.19154 4.58914 7.13094 4.25937 8.18131C3.92961 9.23169 3.8952 10.3525 4.15991 11.4212C4.42461 12.4898 4.97824 13.465 5.76016 14.24C6.8843 15.3655 8.4094 15.9986 10.0002 16C10.8874 15.9917 11.7617 15.7868 12.5602 15.4L14.8602 17.68C10.1479 22.7649 6.59309 28.8102 4.44016 35.4C4.06518 36.5368 4.01244 37.7554 4.28781 38.9204C4.56317 40.0854 5.15587 41.1513 6.00016 42C6.57189 42.6095 7.2585 43.1 8.02048 43.4433C8.78247 43.7865 9.60479 43.9757 10.4402 44C11.1729 43.9931 11.9007 43.8785 12.6002 43.66C19.19 41.5071 25.2353 37.9522 30.3202 33.24L32.6002 35.54C32.1265 36.5338 31.9354 37.6388 32.0478 38.734C32.1602 39.8291 32.5717 40.8723 33.2373 41.7492C33.903 42.6261 34.7971 43.3029 35.8217 43.7056C36.8463 44.1083 37.962 44.2214 39.0466 44.0324C40.1311 43.8434 41.1428 43.3596 41.9708 42.634C42.7988 41.9084 43.4112 40.969 43.7409 39.9187C44.0707 38.8683 44.1051 37.7474 43.8404 36.6788C43.5757 35.6102 43.0221 34.635 42.2402 33.86V33.76ZM11.4202 11.4C11.0462 11.7766 10.538 11.9892 10.0072 11.9911C9.4765 11.993 8.96677 11.7839 8.59016 11.41C8.21355 11.036 8.00092 10.5278 7.99905 9.99706C7.99717 9.46633 8.2062 8.95659 8.58016 8.57999C8.95411 8.20338 9.46236 7.99075 9.99309 7.98888C10.5238 7.987 11.0336 8.19603 11.4102 8.56999C11.7868 8.94394 11.9994 9.45219 12.0013 9.98292C12.0031 10.5136 11.7941 11.0234 11.4202 11.4ZM36.6202 8.25999C36.9237 8.16001 37.2406 8.10608 37.5602 8.09999C37.8681 8.09747 38.1735 8.1563 38.4585 8.27305C38.7435 8.3898 39.0025 8.56213 39.2202 8.77999C39.5461 9.11845 39.7683 9.54317 39.8604 10.0039C39.9526 10.4647 39.9109 10.9422 39.7402 11.38C38.6836 14.6276 37.2541 17.7417 35.4802 20.66L27.3402 12.52C30.2584 10.7461 33.3726 9.31654 36.6202 8.25999ZM11.3802 39.74C10.944 39.9146 10.4662 39.9573 10.006 39.8629C9.54581 39.7685 9.12343 39.5411 8.79124 39.2089C8.45904 38.8767 8.23165 38.4543 8.13725 37.9941C8.04284 37.5339 8.08558 37.0561 8.26016 36.62C9.31671 33.3724 10.7463 30.2583 12.5202 27.34L20.6602 35.48C17.7419 37.2539 14.6277 38.6834 11.3802 39.74ZM24.0002 33.18L14.8202 24C15.7114 22.7903 16.6661 21.6287 17.6802 20.52L27.5002 30.34C26.3845 31.3478 25.2161 32.2958 24.0002 33.18ZM30.3002 27.5L20.5002 17.68C21.6154 16.6654 22.7837 15.7107 24.0002 14.82L33.2002 24.02C32.3024 25.2301 31.3411 26.3918 30.3202 27.5H30.3002ZM39.4002 39.5C39.215 39.6865 38.9949 39.8346 38.7525 39.9361C38.5101 40.0375 38.25 40.0902 37.9872 40.0911C37.7244 40.092 37.464 40.0412 37.2209 39.9415C36.9778 39.8418 36.7566 39.6952 36.5702 39.51C36.3837 39.3248 36.2355 39.1047 36.1341 38.8623C36.0327 38.6199 35.98 38.3599 35.979 38.0971C35.9781 37.8343 36.029 37.5739 36.1287 37.3307C36.2284 37.0876 36.375 36.8665 36.5602 36.68C36.9349 36.3075 37.4418 36.0984 37.9702 36.0984C38.4985 36.0984 39.0054 36.3075 39.3802 36.68C39.7344 37.0458 39.9357 37.5329 39.9432 38.0421C39.9506 38.5512 39.7635 39.044 39.4202 39.42L39.4002 39.5Z" fill="#101117"/>
</svg>
