<?xml version="1.0" encoding="UTF-8" standalone="no"?><!DOCTYPE svg PUBLIC "-//W3C//DTD SVG 1.1//EN" "http://www.w3.org/Graphics/SVG/1.1/DTD/svg11.dtd"><svg width="100%" height="100%" viewBox="0 0 200 200" version="1.1" xmlns="http://www.w3.org/2000/svg" xmlns:xlink="http://www.w3.org/1999/xlink" xml:space="preserve" xmlns:serif="http://www.serif.com/" style="fill-rule:evenodd;clip-rule:evenodd;stroke-linejoin:round;stroke-miterlimit:2;"><rect id="Artboard1" x="0" y="0" width="200" height="200" style="fill:none;"/><g id="Artboard11" serif:id="Artboard1"><clipPath id="_clip1"><rect id="key.svg" x="16.667" y="16.667" width="166.667" height="166.667"/></clipPath><g clip-path="url(#_clip1)"><path d="M58.263,99.898c-22.973,0 -41.596,18.624 -41.596,41.597c-0,22.974 18.623,41.596 41.596,41.596c22.973,0 41.597,-18.622 41.597,-41.596c-0,-22.973 -18.624,-41.597 -41.597,-41.597Zm-11.769,61.667c-4.595,0 -8.32,-3.725 -8.32,-8.319c0,-4.596 3.725,-8.32 8.32,-8.32c4.594,0 8.319,3.724 8.319,8.32c-0.005,4.592 -3.727,8.313 -8.319,8.319Z" style="fill-rule:nonzero;"/><path d="M180.632,54.427l-11.769,-11.768l11.752,-11.752c3.271,-3.227 3.306,-8.494 0.079,-11.764c-3.225,-3.271 -8.492,-3.306 -11.763,-0.08c-0.026,0.027 -0.054,0.053 -0.08,0.08l-87.673,87.673c4.671,3.092 8.672,7.093 11.764,11.764l40.625,-40.625l11.764,11.764c3.254,3.243 8.521,3.234 11.764,-0.02c3.236,-3.246 3.236,-8.498 0,-11.744l-11.764,-11.764l11.768,-11.768l11.769,11.768c3.269,3.228 8.536,3.194 11.764,-0.075c3.199,-3.24 3.199,-8.449 -0,-11.689Z" style="fill-rule:nonzero;"/></g></g></svg>