<svg width="133" height="133" viewBox="0 0 133 133" fill="none" xmlns="http://www.w3.org/2000/svg">
<path d="M33.1941 66.4189C14.8615 66.4189 0 81.2805 0 99.613C0 117.946 14.8615 132.807 33.1941 132.807C51.5266 132.807 66.3881 117.946 66.3881 99.613C66.3881 81.2805 51.5266 66.4189 33.1941 66.4189ZM23.8019 115.629C20.1354 115.629 17.1631 112.656 17.1631 108.99C17.1631 105.323 20.1354 102.351 23.8019 102.351C27.4684 102.351 30.4407 105.323 30.4407 108.99C30.4365 112.655 27.4666 115.624 23.8019 115.629Z" fill="black"/>
<path d="M130.844 30.1327L121.453 20.7418L130.831 11.3636C133.441 8.78886 133.469 4.58595 130.894 1.9761C128.32 -0.633747 124.117 -0.662094 121.507 1.91264C121.486 1.93375 121.464 1.95493 121.443 1.9763L51.48 71.9393C55.2075 74.4068 58.4002 77.5993 60.8681 81.3266L93.2866 48.9081L102.674 58.2958C105.271 60.8838 109.474 60.8768 112.062 58.2801C114.644 55.6896 114.644 51.4986 112.062 48.9081L102.674 39.5204L112.065 30.1295L121.457 39.5204C124.065 42.0962 128.268 42.0694 130.844 39.4606C133.397 36.8752 133.397 32.718 130.844 30.1327Z" fill="black"/>
</svg>
