<?xml version="1.0" encoding="UTF-8" standalone="no"?><!DOCTYPE svg PUBLIC "-//W3C//DTD SVG 1.1//EN" "http://www.w3.org/Graphics/SVG/1.1/DTD/svg11.dtd"><svg width="100%" height="100%" viewBox="0 0 200 200" version="1.1" xmlns="http://www.w3.org/2000/svg" xmlns:xlink="http://www.w3.org/1999/xlink" xml:space="preserve" xmlns:serif="http://www.serif.com/" style="fill-rule:evenodd;clip-rule:evenodd;stroke-linejoin:round;stroke-miterlimit:2;"><rect id="Artboard1" x="0" y="0" width="200" height="200" style="fill:none;"/><g id="Artboard11" serif:id="Artboard1"><path d="M100,16.667c45.993,-0 83.333,37.34 83.333,83.333c0,45.993 -37.34,83.333 -83.333,83.333c-45.993,0 -83.333,-37.34 -83.333,-83.333c-0,-45.993 37.34,-83.333 83.333,-83.333Zm-62.012,69.551c-0.983,4.438 -1.502,9.05 -1.502,13.782c0,4.515 0.472,8.921 1.37,13.171l21.441,-7.497c-0.658,-3.975 -0.658,-8.031 0,-12.006l-21.309,-7.45Zm32.766,70.167l7.785,-21.109c-5.464,-3.409 -10.076,-8.022 -13.486,-13.485l-21.42,7.489c6.034,11.583 15.534,21.078 27.121,27.105Zm42.417,5.759l-7.496,-21.44c-3.975,0.657 -8.031,0.657 -12.006,-0l-7.45,21.308c4.437,0.983 9.049,1.502 13.781,1.502c4.515,-0 8.921,-0.472 13.171,-1.37Zm43.355,-33.17l-21.249,-7.43c-3.409,5.464 -8.021,10.076 -13.485,13.486l7.465,21.349c11.684,-6.08 21.245,-15.687 27.269,-27.405Zm5.669,-41.903l-20.751,7.255c0.659,3.975 0.659,8.031 0,12.006l20.621,7.21c0.949,-4.364 1.449,-8.895 1.449,-13.542c-0,-4.43 -0.455,-8.754 -1.319,-12.929Zm-32.603,-43.275l-7.718,20.928c5.464,3.409 10.077,8.022 13.485,13.485l21.071,-7.367c-5.971,-11.523 -15.368,-20.989 -26.838,-27.046Zm-43.095,-5.869l7.501,21.452c1.984,-0.331 3.992,-0.496 6.003,-0.494c2.255,-0.069 4.513,0.069 6.743,0.411l7.42,-21.222c-4.555,-1.039 -9.296,-1.588 -14.164,-1.588c-4.633,0 -9.151,0.497 -13.503,1.441Zm-43.008,33.071l21.564,7.54c3.433,-5.473 8.074,-10.086 13.568,-13.485l-7.552,-21.6c-11.823,6.066 -21.5,15.731 -27.58,27.545Zm65.064,52.108l-0.329,-0.082c3.385,-1.213 6.463,-3.152 9.02,-5.681c2.557,-2.528 4.53,-5.585 5.781,-8.956c0.498,-1.364 0.883,-2.766 1.151,-4.193c0.526,-2.716 0.526,-5.508 0,-8.223c-0.268,-1.427 -0.653,-2.83 -1.151,-4.194c-1.231,-3.401 -3.195,-6.49 -5.753,-9.048c-2.557,-2.558 -5.647,-4.522 -9.048,-5.753c-1.398,-0.494 -2.796,-1.151 -4.112,-1.151c-2.717,-0.507 -5.505,-0.507 -8.223,-0c-1.315,0.329 -2.713,0.657 -4.111,1.151c-3.417,1.22 -6.522,3.18 -9.095,5.739c-2.572,2.558 -4.549,5.652 -5.789,9.062c-0.461,1.313 -0.818,2.66 -1.069,4.029c-0.525,2.716 -0.525,5.508 0,8.223c0.269,1.427 0.654,2.83 1.152,4.194c1.255,3.45 3.265,6.577 5.882,9.152c2.618,2.575 5.777,4.533 9.248,5.731c1.398,0.494 2.796,1.152 4.111,1.152c2.718,0.506 5.506,0.506 8.223,-0c1.316,-0.329 2.714,-0.658 4.112,-1.152Z"/></g></svg>