<svg width="48" height="48" viewBox="0 0 48 48" fill="none" xmlns="http://www.w3.org/2000/svg">
<path d="M44.0002 22.1C44.0002 21.88 44.0002 21.66 44.0002 21.44L43.8202 20.24L43.6402 19.46C43.6402 19.12 43.4802 18.78 43.3802 18.44C43.2802 18.1 43.2202 17.9 43.1202 17.64C43.0644 17.4828 43.0176 17.3226 42.9802 17.16C42.9802 17.16 42.9802 17.16 42.9802 17.06C41.9675 14.366 40.3908 11.9196 38.3557 9.88452C36.3206 7.84944 33.8742 6.27273 31.1802 5.26C31.1802 5.26 31.1802 5.26 31.0802 5.26L30.6202 5.12L29.7802 4.86C29.4802 4.86 29.1602 4.7 28.8602 4.62L27.9402 4.42L27.0202 4.28C26.7002 4.28 26.4002 4.28 26.0602 4.16C25.7202 4.04 25.3602 4.16 25.0202 4.16L24.0002 4H23.2202C22.8802 4 22.5202 4 22.1802 4C21.8402 4 21.5402 4 21.2202 4.12L20.3002 4.26L19.3802 4.46C19.0802 4.46 18.7602 4.6 18.4602 4.7L17.6202 4.96L17.1602 5.1C17.1602 5.1 17.1602 5.1 17.0602 5.1C14.3663 6.11273 11.9198 7.68944 9.88475 9.72452C7.84968 11.7596 6.27297 14.206 5.26023 16.9C5.26023 16.9 5.26023 16.9 5.26023 17C5.22283 17.1626 5.17609 17.3228 5.12023 17.48C5.12023 17.74 4.94023 18 4.86023 18.28C4.78023 18.56 4.68023 18.96 4.60023 19.3L4.42023 20.08L4.24023 21.28C4.24023 21.5 4.24023 21.72 4.24023 21.94C4.24023 22.56 4.24023 23.2 4.24023 23.84C4.24023 24.48 4.24023 25.12 4.24023 25.74C4.24023 25.96 4.24023 26.18 4.24023 26.4L4.42023 27.6L4.60023 28.38C4.60023 28.72 4.76023 29.06 4.86023 29.4C4.96023 29.74 5.02023 29.94 5.12023 30.2C5.17609 30.3572 5.22283 30.5174 5.26023 30.68C5.26404 30.7266 5.26404 30.7734 5.26023 30.82C6.26416 33.5111 7.83595 35.9544 9.86869 37.9837C11.9014 40.013 14.3474 41.5807 17.0402 42.58C17.0402 42.58 17.0402 42.58 17.1402 42.58L17.6202 42.72L18.4202 42.98L19.4402 43.24L20.2202 43.42L21.4202 43.6H22.0802C22.7002 43.6 23.3402 43.7 23.9802 43.7C24.6202 43.7 25.2602 43.7 25.8802 43.6H26.5402L27.7402 43.42L28.5202 43.24L29.5402 42.98L30.3402 42.72L30.8202 42.58C30.8202 42.58 30.8202 42.58 30.9202 42.58C33.6131 41.5807 36.059 40.013 38.0918 37.9837C40.1245 35.9544 41.6963 33.5111 42.7002 30.82C42.6964 30.7734 42.6964 30.7266 42.7002 30.68C42.7002 30.52 42.8002 30.36 42.8402 30.2C42.8802 30.04 43.0202 29.68 43.1002 29.4C43.1802 29.12 43.2802 28.72 43.3602 28.38L43.5402 27.6L43.7202 26.4C43.7202 26.18 43.7202 25.96 43.7202 25.74C43.7202 25.12 43.8202 24.48 43.8202 23.84C43.8202 23.2 44.0002 22.72 44.0002 22.1ZM31.4002 9.78C34.373 11.3073 36.7929 13.7272 38.3202 16.7L32.6002 18.7C31.7711 17.3711 30.6492 16.2492 29.3202 15.42L31.4002 9.78ZM20.6802 8.38C21.1002 8.28 21.5002 8.22 21.9002 8.16H22.3802C23.5238 8.04 24.6767 8.04 25.8202 8.16H26.3002C26.7002 8.16 27.1002 8.28 27.5202 8.38H27.6402L25.6402 14.1C25.0978 14.0166 24.5488 13.9831 24.0002 14C23.5111 13.9994 23.0227 14.0395 22.5402 14.12L20.5402 8.4L20.6802 8.38ZM16.8002 9.78L18.8002 15.5C17.464 16.3268 16.3351 17.4488 15.5002 18.78L9.78023 16.78C11.294 13.7775 13.7153 11.3282 16.7002 9.78H16.8002ZM8.38023 27.42C8.28444 27.0254 8.2176 26.6243 8.18023 26.22C8.18023 26.04 8.18023 25.88 8.18023 25.72C8.04688 24.5772 8.04688 23.4228 8.18023 22.28C8.18023 22.12 8.18023 21.96 8.18023 21.78C8.2176 21.3757 8.28444 20.9746 8.38023 20.58C8.38023 20.58 8.38023 20.58 8.38023 20.46L14.1002 22.46C13.9402 23.4268 13.9402 24.4132 14.1002 25.38L8.38023 27.38C8.38023 27.38 8.38023 27.46 8.38023 27.42ZM16.7002 38.22C13.7274 36.6927 11.3075 34.2728 9.78023 31.3L15.5002 29.3C16.3294 30.6289 17.4513 31.7508 18.7802 32.58L16.7002 38.22ZM27.4202 39.62C27.0002 39.72 26.6002 39.78 26.2002 39.84H25.7202C24.5767 39.96 23.4238 39.96 22.2802 39.84H21.8002C21.4002 39.84 21.0002 39.72 20.5802 39.62H20.4602L22.4602 33.9C23.427 34.06 24.4135 34.06 25.3802 33.9L27.3802 39.62H27.4202ZM26.0802 29.62C25.7402 29.74 25.4002 29.82 25.0802 29.9C24.4193 30.0231 23.7412 30.0231 23.0802 29.9C22.7602 29.9 22.4202 29.74 22.0802 29.62C21.2361 29.3285 20.4677 28.8523 19.831 28.226C19.1944 27.5997 18.7056 26.8392 18.4002 26C18.2792 25.6682 18.1855 25.3271 18.1202 24.98C17.9923 24.3195 17.9923 23.6405 18.1202 22.98C18.1811 22.647 18.268 22.3194 18.3802 22C18.6818 21.1707 19.1625 20.418 19.7882 19.7958C20.414 19.1735 21.1692 18.6969 22.0002 18.4C22.3402 18.28 22.6802 18.2 23.0002 18.12C23.6612 17.9969 24.3393 17.9969 25.0002 18.12C25.3202 18.12 25.6602 18.28 26.0002 18.4C26.8275 18.6994 27.5789 19.1771 28.201 19.7992C28.8231 20.4214 29.3008 21.1727 29.6002 22C29.7213 22.3318 29.8149 22.6729 29.8802 23.02C30.0081 23.6805 30.0081 24.3595 29.8802 25.02C29.8149 25.3671 29.7213 25.7082 29.6002 26.04C29.2959 26.8599 28.816 27.6034 28.1941 28.2183C27.5723 28.8333 26.8235 29.3048 26.0002 29.6L26.0802 29.62ZM31.3002 38.24L29.3002 32.52C30.6292 31.6908 31.7511 30.5689 32.5802 29.24L38.3002 31.24C36.7622 34.2472 34.3118 36.6905 31.3002 38.22V38.24ZM40.0002 25.72C40.0002 25.88 40.0002 26.04 40.0002 26.22C39.9629 26.6243 39.896 27.0254 39.8002 27.42C39.8002 27.42 39.8002 27.42 39.8002 27.54L34.0802 25.54C34.2403 24.5732 34.2403 23.5868 34.0802 22.62L39.8002 20.62C39.8002 20.62 39.8002 20.62 39.8002 20.74C39.896 21.1346 39.9629 21.5357 40.0002 21.94C40.0002 22.12 40.0002 22.28 40.0002 22.44C40.1336 23.5828 40.1336 24.7372 40.0002 25.88V25.72Z" fill="#101117"/>
</svg>
