<?xml version="1.0" encoding="UTF-8" standalone="no"?><!DOCTYPE svg PUBLIC "-//W3C//DTD SVG 1.1//EN" "http://www.w3.org/Graphics/SVG/1.1/DTD/svg11.dtd"><svg width="100%" height="100%" viewBox="0 0 200 200" version="1.1" xmlns="http://www.w3.org/2000/svg" xmlns:xlink="http://www.w3.org/1999/xlink" xml:space="preserve" xmlns:serif="http://www.serif.com/" style="fill-rule:evenodd;clip-rule:evenodd;stroke-linejoin:round;stroke-miterlimit:2;"><rect id="Artboard1" x="0" y="0" width="200" height="200" style="fill:none;"/><g id="Artboard11" serif:id="Artboard1"><path d="M138.459,30.636c-6.953,-5.718 -15.095,-9.813 -23.832,-11.984c-8.737,-2.171 -17.848,-2.364 -26.67,-0.566c-11.746,2.373 -22.522,8.181 -30.961,16.688c-8.44,8.507 -14.162,19.329 -16.441,31.093c-1.665,8.821 -1.362,17.9 0.885,26.59c2.248,8.691 6.386,16.778 12.118,23.685c5.32,6.004 8.37,13.68 8.619,21.698l-0,22.681c-0,6.015 2.389,11.784 6.643,16.037c4.253,4.253 10.022,6.643 16.038,6.643l30.24,0c6.016,0 11.785,-2.39 16.038,-6.643c4.254,-4.253 6.643,-10.022 6.643,-16.037l-0,-21.244c0.254,-8.853 3.506,-17.355 9.224,-24.118c10.018,-12.392 14.74,-28.238 13.14,-44.094c-1.599,-15.855 -9.392,-30.438 -21.684,-40.58l0,0.151Zm-15.8,129.885c-0,2.005 -0.797,3.928 -2.215,5.346c-1.418,1.417 -3.341,2.214 -5.346,2.214l-30.24,0c-2.006,0 -3.928,-0.797 -5.346,-2.214c-1.418,-1.418 -2.215,-3.341 -2.215,-5.346l0,-7.56l45.362,-0l-0,7.56Zm12.625,-54.736c-7.602,9.016 -12.037,20.277 -12.625,32.055l-15.121,-0l0,-22.681c0,-2.004 -0.796,-3.928 -2.214,-5.346c-1.418,-1.417 -3.341,-2.214 -5.346,-2.214c-2.005,0 -3.928,0.797 -5.346,2.214c-1.418,1.418 -2.214,3.342 -2.214,5.346l-0,22.681l-15.121,-0c-0.199,-11.581 -4.483,-22.72 -12.096,-31.45c-5.023,-6.018 -8.4,-13.235 -9.803,-20.947c-1.403,-7.712 -0.784,-15.656 1.797,-23.057c2.582,-7.402 7.037,-14.008 12.932,-19.175c5.894,-5.166 13.027,-8.717 20.703,-10.307c6.597,-1.358 13.413,-1.23 19.954,0.374c6.541,1.605 12.643,4.646 17.863,8.902c5.219,4.257 9.425,9.622 12.312,15.707c2.888,6.085 4.384,12.736 4.38,19.471c0.056,10.357 -3.499,20.409 -10.055,28.427Z" style="fill-rule:nonzero;"/></g></svg>