<svg width="133" height="183" viewBox="0 0 133 183" fill="none" xmlns="http://www.w3.org/2000/svg">
<path d="M108.728 15.3387C101.094 9.05961 92.1538 4.56409 82.5605 2.18014C72.9672 -0.203818 62.9628 -0.416077 53.277 1.55885C40.3802 4.16392 28.5479 10.5413 19.2813 19.8817C10.0148 29.2222 3.73161 41.1048 1.22905 54.0219C-0.598462 63.707 -0.266374 73.676 2.20163 83.218C4.66964 92.76 9.21275 101.64 15.507 109.224C21.3483 115.816 24.6966 124.245 24.9702 133.048V157.952C24.9702 164.557 27.594 170.891 32.2643 175.561C36.9345 180.231 43.2688 182.855 49.8736 182.855H83.078C89.6828 182.855 96.0171 180.231 100.687 175.561C105.358 170.891 107.981 164.557 107.981 157.952V134.626C108.26 124.906 111.831 115.57 118.109 108.145C129.109 94.5378 134.294 77.139 132.537 59.7299C130.781 42.3209 122.225 26.3085 108.728 15.1727V15.3387ZM91.3791 157.952C91.3791 160.153 90.5046 162.265 88.9478 163.822C87.391 165.378 85.2796 166.253 83.078 166.253H49.8736C47.672 166.253 45.5606 165.378 44.0038 163.822C42.447 162.265 41.5725 160.153 41.5725 157.952V149.651H91.3791V157.952ZM105.242 97.8518C96.8953 107.752 92.0255 120.116 91.3791 133.048H74.7769V108.145C74.7769 105.944 73.9023 103.832 72.3456 102.275C70.7888 100.719 68.6774 99.844 66.4758 99.844C64.2742 99.844 62.1628 100.719 60.606 102.275C59.0493 103.832 58.1747 105.944 58.1747 108.145V133.048H41.5725C41.3534 120.332 36.6495 108.102 28.2907 98.5158C22.7758 91.9081 19.0672 83.9841 17.5267 75.5163C15.9862 67.0486 16.6662 58.3261 19.5005 50.1995C22.3348 42.0728 27.2267 34.8193 33.699 29.1461C40.1714 23.473 48.0034 19.5739 56.4315 17.829C63.6746 16.3377 71.159 16.478 78.3411 18.2397C85.5233 20.0014 92.2231 23.3403 97.954 28.0141C103.685 32.6879 108.303 38.5791 111.473 45.2602C114.644 51.9413 116.287 59.2445 116.282 66.6396C116.344 78.011 112.44 89.0481 105.242 97.8518Z" fill="black"/>
</svg>
