<?xml version="1.0" encoding="UTF-8" standalone="no"?><!DOCTYPE svg PUBLIC "-//W3C//DTD SVG 1.1//EN" "http://www.w3.org/Graphics/SVG/1.1/DTD/svg11.dtd"><svg width="100%" height="100%" viewBox="0 0 2134 2134" version="1.1" xmlns="http://www.w3.org/2000/svg" xmlns:xlink="http://www.w3.org/1999/xlink" xml:space="preserve" xmlns:serif="http://www.serif.com/" style="fill-rule:evenodd;clip-rule:evenodd;stroke-linejoin:round;stroke-miterlimit:2;"><rect id="Artboard1" x="0" y="0" width="2133.33" height="2133.33" style="fill:none;"/><path d="M1176.04,1150l-718.949,0c-45.993,-0 -83.333,-37.34 -83.333,-83.333c-0,-45.993 37.34,-83.334 83.333,-83.334l718.949,0l-63.981,-63.98c-32.521,-32.522 -32.521,-85.329 0,-117.851c32.522,-32.522 85.33,-32.522 117.852,-0l206.239,206.239c10.05,10.05 16.996,22.028 20.839,34.743c2.321,7.655 3.569,15.774 3.569,24.183c-0,8.408 -1.248,16.527 -3.569,24.181c-3.843,12.716 -10.789,24.694 -20.839,34.744l-206.239,206.24c-32.522,32.522 -85.33,32.522 -117.852,-0c-32.521,-32.522 -32.521,-85.33 0,-117.851l63.981,-63.981Zm-343.665,83.333l166.667,0l0,325.739c0,66.418 53.923,120.341 120.341,120.341l407.349,-0c66.418,-0 120.342,-53.923 120.342,-120.341l-0,-984.81c-0,-66.418 -53.924,-120.341 -120.342,-120.341l-407.349,-0c-66.418,-0 -120.341,53.923 -120.341,120.341l0,325.738l-166.667,0l0,-325.738c0,-158.404 128.604,-287.008 287.008,-287.008l407.349,-0c158.404,-0 287.008,128.604 287.008,287.008l0,984.81c0,158.403 -128.604,287.007 -287.008,287.007l-407.349,0c-158.404,0 -287.008,-128.604 -287.008,-287.007l0,-325.739Z"/></svg>