<?xml version="1.0" encoding="UTF-8" standalone="no"?><!DOCTYPE svg PUBLIC "-//W3C//DTD SVG 1.1//EN" "http://www.w3.org/Graphics/SVG/1.1/DTD/svg11.dtd"><svg width="100%" height="100%" viewBox="0 0 200 200" version="1.1" xmlns="http://www.w3.org/2000/svg" xmlns:xlink="http://www.w3.org/1999/xlink" xml:space="preserve" xmlns:serif="http://www.serif.com/" style="fill-rule:evenodd;clip-rule:evenodd;stroke-linejoin:round;stroke-miterlimit:2;"><rect id="Artboard1" x="0" y="0" width="200" height="200" style="fill:none;"/><g id="Artboard11" serif:id="Artboard1"><rect id="Artboard12" serif:id="Artboard1" x="0" y="0" width="199.937" height="199.937" style="fill:none;"/><path d="M108.798,108.91l-76.868,-0c-4.918,-0 -8.91,-3.992 -8.91,-8.91c-0,-4.917 3.992,-8.91 8.91,-8.91l76.868,0l-6.84,-6.84c-3.477,-3.478 -3.477,-9.124 -0,-12.601c3.477,-3.477 9.123,-3.477 12.6,0l22.051,22.051c1.074,1.074 1.817,2.355 2.228,3.714c0.248,0.819 0.382,1.687 0.382,2.586c-0,0.899 -0.134,1.767 -0.382,2.585c-0.411,1.36 -1.154,2.641 -2.228,3.715l-22.051,22.051c-3.477,3.477 -9.123,3.477 -12.6,0c-3.477,-3.477 -3.477,-9.123 -0,-12.6l6.84,-6.841Zm-36.744,8.91l17.82,-0l0,34.827c0,7.101 5.765,12.867 12.867,12.867l43.553,-0c7.101,-0 12.866,-5.766 12.866,-12.867l0,-105.294c0,-7.101 -5.765,-12.867 -12.866,-12.867l-43.553,0c-7.102,0 -12.867,5.766 -12.867,12.867l0,34.827l-17.82,0l0,-34.827c0,-16.936 13.75,-30.686 30.687,-30.686l43.553,-0c16.936,-0 30.686,13.75 30.686,30.686l0,105.294c0,16.936 -13.75,30.686 -30.686,30.686l-43.553,0c-16.937,0 -30.687,-13.75 -30.687,-30.686l0,-34.827Z"/></g></svg>