<?xml version="1.0" encoding="UTF-8" standalone="no"?><!DOCTYPE svg PUBLIC "-//W3C//DTD SVG 1.1//EN" "http://www.w3.org/Graphics/SVG/1.1/DTD/svg11.dtd"><svg width="100%" height="100%" viewBox="0 0 200 200" version="1.1" xmlns="http://www.w3.org/2000/svg" xmlns:xlink="http://www.w3.org/1999/xlink" xml:space="preserve" xmlns:serif="http://www.serif.com/" style="fill-rule:evenodd;clip-rule:evenodd;stroke-linejoin:round;stroke-miterlimit:2;"><rect id="Artboard1" x="0" y="0" width="200" height="200" style="fill:none;"/><g id="Artboard11" serif:id="Artboard1"><rect id="Artboard12" serif:id="Artboard1" x="0" y="0" width="199.937" height="199.937" style="fill:none;"/><path d="M149.424,108.879l-76.869,-0c-4.917,-0 -8.909,-3.993 -8.909,-8.91c-0,-4.918 3.992,-8.91 8.909,-8.91l76.869,-0l-6.84,-6.841c-3.478,-3.477 -3.478,-9.123 -0,-12.6c3.477,-3.477 9.123,-3.477 12.6,-0l22.051,22.051c1.074,1.074 1.817,2.355 2.228,3.714c0.248,0.819 0.381,1.687 0.381,2.586c0,0.899 -0.133,1.767 -0.381,2.585c-0.411,1.36 -1.154,2.64 -2.228,3.715l-22.051,22.051c-3.477,3.477 -9.123,3.477 -12.6,-0c-3.478,-3.477 -3.478,-9.124 -0,-12.601l6.84,-6.84Zm-24.406,8.909l0,34.828c0,16.936 -13.75,30.686 -30.686,30.686l-43.553,0c-16.936,0 -30.686,-13.75 -30.686,-30.686l-0,-105.294c-0,-16.936 13.75,-30.687 30.686,-30.687l43.553,0c16.936,0 30.686,13.751 30.686,30.687l0,34.827l-17.819,0l-0,-34.827c-0,-7.102 -5.766,-12.867 -12.867,-12.867l-43.553,0c-7.101,0 -12.867,5.765 -12.867,12.867l0,105.294c0,7.101 5.766,12.866 12.867,12.866l43.553,0c7.101,0 12.867,-5.765 12.867,-12.866l-0,-34.828l17.819,0Z"/></g></svg>