<?xml version="1.0" encoding="UTF-8" standalone="no"?><!DOCTYPE svg PUBLIC "-//W3C//DTD SVG 1.1//EN" "http://www.w3.org/Graphics/SVG/1.1/DTD/svg11.dtd"><svg width="100%" height="100%" viewBox="0 0 200 200" version="1.1" xmlns="http://www.w3.org/2000/svg" xmlns:xlink="http://www.w3.org/1999/xlink" xml:space="preserve" xmlns:serif="http://www.serif.com/" style="fill-rule:evenodd;clip-rule:evenodd;stroke-linejoin:round;stroke-miterlimit:2;"><rect id="Artboard1" x="0" y="0" width="200" height="200" style="fill:none;"/><g id="Artboard11" serif:id="Artboard1"><path d="M100,91.667c-4.945,-0 -9.778,1.466 -13.889,4.213c-4.111,2.747 -7.316,6.651 -9.208,11.22c-1.892,4.568 -2.387,9.595 -1.423,14.444c0.965,4.849 3.346,9.304 6.843,12.8c3.496,3.497 7.95,5.878 12.8,6.842c4.849,0.965 9.876,0.47 14.444,-1.422c4.568,-1.892 8.473,-5.097 11.22,-9.208c2.747,-4.111 4.213,-8.945 4.213,-13.889c0,-6.631 -2.634,-12.99 -7.322,-17.678c-4.689,-4.689 -11.048,-7.322 -17.678,-7.322Zm0,33.333c-1.648,0 -3.259,-0.489 -4.63,-1.405c-1.37,-0.915 -2.438,-2.217 -3.069,-3.739c-0.631,-1.523 -0.796,-3.198 -0.474,-4.815c0.321,-1.616 1.115,-3.101 2.281,-4.267c1.165,-1.165 2.65,-1.959 4.266,-2.281c1.617,-0.321 3.292,-0.156 4.815,0.475c1.523,0.63 2.824,1.699 3.74,3.069c0.916,1.371 1.404,2.981 1.404,4.63c0,2.21 -0.878,4.329 -2.44,5.892c-1.563,1.563 -3.683,2.441 -5.893,2.441Zm58.333,-75l-25,0l0,-8.333c0,-6.631 -2.633,-12.99 -7.322,-17.678c-4.688,-4.688 -11.047,-7.322 -17.678,-7.322l-16.666,-0c-6.631,-0 -12.989,2.634 -17.678,7.322c-4.689,4.688 -7.322,11.047 -7.322,17.678l-0,8.333l-25,0c-6.631,0 -12.99,2.634 -17.678,7.323c-4.688,4.688 -7.322,11.047 -7.322,17.677l-0,83.333c-0,6.631 2.634,12.99 7.322,17.678c4.688,4.689 11.047,7.322 17.678,7.322l116.666,0c6.631,0 12.99,-2.633 17.678,-7.322c4.689,-4.688 7.322,-11.047 7.322,-17.678l0,-83.333c0,-6.63 -2.633,-12.989 -7.322,-17.677c-4.688,-4.689 -11.047,-7.323 -17.678,-7.323Zm-75,-8.333c0,-2.21 0.878,-4.33 2.441,-5.893c1.563,-1.563 3.683,-2.441 5.893,-2.441l16.666,0c2.21,0 4.33,0.878 5.893,2.441c1.563,1.563 2.441,3.683 2.441,5.893l-0,8.333l-33.334,0l0,-8.333Zm-50,33.333c0,-2.21 0.878,-4.33 2.441,-5.892c1.563,-1.563 3.683,-2.441 5.893,-2.441l8.333,-0c0,4.42 -1.756,8.659 -4.882,11.785c-3.125,3.126 -7.364,4.881 -11.785,4.881l0,-8.333Zm8.334,91.667c-2.21,-0 -4.33,-0.878 -5.893,-2.441c-1.563,-1.563 -2.441,-3.683 -2.441,-5.893l0,-8.333c4.421,0 8.66,1.756 11.785,4.882c3.126,3.125 4.882,7.364 4.882,11.785l-8.333,-0Zm125,-8.334c-0,2.21 -0.878,4.33 -2.441,5.893c-1.563,1.563 -3.683,2.441 -5.893,2.441l-8.333,-0c0,-4.421 1.756,-8.66 4.882,-11.785c3.125,-3.126 7.364,-4.882 11.785,-4.882l-0,8.333Zm-0,-25c-8.841,0 -17.319,3.512 -23.571,9.763c-6.251,6.252 -9.763,14.73 -9.763,23.571l-66.666,-0c-0,-8.841 -3.512,-17.319 -9.763,-23.571c-6.252,-6.251 -14.73,-9.763 -23.571,-9.763l0,-33.333c8.841,0 17.32,-3.512 23.571,-9.763c6.251,-6.251 9.763,-14.73 9.763,-23.57l66.666,-0c0,8.84 3.512,17.319 9.763,23.57c6.252,6.251 14.73,9.763 23.571,9.763l-0,33.333Zm-0,-50c-4.421,0 -8.66,-1.755 -11.785,-4.881c-3.126,-3.126 -4.882,-7.365 -4.882,-11.785l8.333,-0c2.21,-0 4.33,0.878 5.893,2.441c1.563,1.562 2.441,3.682 2.441,5.892l-0,8.333Z" style="fill:#101117;fill-rule:nonzero;"/></g></svg>