<?xml version="1.0" encoding="UTF-8" standalone="no"?><!DOCTYPE svg PUBLIC "-//W3C//DTD SVG 1.1//EN" "http://www.w3.org/Graphics/SVG/1.1/DTD/svg11.dtd"><svg width="100%" height="100%" viewBox="0 0 200 200" version="1.1" xmlns="http://www.w3.org/2000/svg" xmlns:xlink="http://www.w3.org/1999/xlink" xml:space="preserve" xmlns:serif="http://www.serif.com/" style="fill-rule:evenodd;clip-rule:evenodd;stroke-linejoin:round;stroke-miterlimit:2;"><rect id="Artboard1" x="0" y="0" width="200" height="200" style="fill:none;"/><g id="Artboard11" serif:id="Artboard1"><path d="M175.758,137.879l-151.516,-0c-2.009,-0 -3.936,0.798 -5.356,2.219c-1.421,1.421 -2.219,3.347 -2.219,5.357c-0,2.009 0.798,3.936 2.219,5.356c1.42,1.421 3.347,2.219 5.356,2.219l151.516,0c2.009,0 3.936,-0.798 5.356,-2.219c1.421,-1.42 2.219,-3.347 2.219,-5.356c0,-2.01 -0.798,-3.936 -2.219,-5.357c-1.42,-1.421 -3.347,-2.219 -5.356,-2.219Zm-0,30.303l-151.516,-0c-2.009,-0 -3.936,0.798 -5.356,2.219c-1.421,1.421 -2.219,3.347 -2.219,5.357c-0,2.009 0.798,3.936 2.219,5.356c1.42,1.421 3.347,2.219 5.356,2.219l151.516,0c2.009,0 3.936,-0.798 5.356,-2.219c1.421,-1.42 2.219,-3.347 2.219,-5.356c0,-2.01 -0.798,-3.936 -2.219,-5.357c-1.42,-1.421 -3.347,-2.219 -5.356,-2.219Zm-121.213,-106.061c-1.498,0 -2.963,0.445 -4.208,1.277c-1.246,0.832 -2.217,2.016 -2.791,3.4c-0.573,1.384 -0.723,2.907 -0.431,4.377c0.293,1.469 1.014,2.819 2.074,3.879c1.059,1.059 2.409,1.781 3.878,2.073c1.47,0.292 2.993,0.142 4.378,-0.431c1.384,-0.573 2.567,-1.544 3.399,-2.79c0.833,-1.246 1.277,-2.711 1.277,-4.209c0,-2.009 -0.798,-3.936 -2.219,-5.357c-1.421,-1.421 -3.347,-2.219 -5.357,-2.219Zm106.061,-45.454l-121.212,-0c-6.028,-0 -11.808,2.394 -16.071,6.656c-4.262,4.263 -6.656,10.043 -6.656,16.071l-0,60.606c-0,6.028 2.394,11.808 6.656,16.07c4.263,4.263 10.043,6.657 16.071,6.657l121.212,0c6.028,0 11.808,-2.394 16.071,-6.657c4.262,-4.262 6.656,-10.042 6.656,-16.07l0,-60.606c0,-6.028 -2.394,-11.808 -6.656,-16.071c-4.263,-4.262 -10.043,-6.656 -16.071,-6.656Zm7.576,83.333c-0,2.009 -0.798,3.936 -2.219,5.357c-1.421,1.421 -3.348,2.219 -5.357,2.219l-121.212,-0c-2.009,-0 -3.936,-0.798 -5.357,-2.219c-1.421,-1.421 -2.219,-3.348 -2.219,-5.357l0,-60.606c0,-2.009 0.798,-3.936 2.219,-5.357c1.421,-1.421 3.348,-2.219 5.357,-2.219l121.212,0c2.009,0 3.936,0.798 5.357,2.219c1.421,1.421 2.219,3.348 2.219,5.357l-0,60.606Zm-68.182,-53.03c-4.495,-0 -8.889,1.333 -12.627,3.83c-3.737,2.497 -6.65,6.047 -8.37,10.2c-1.72,4.153 -2.17,8.722 -1.294,13.131c0.877,4.408 3.042,8.458 6.221,11.636c3.178,3.179 7.228,5.344 11.636,6.221c4.409,0.876 8.978,0.426 13.131,-1.294c4.153,-1.72 7.703,-4.633 10.2,-8.371c2.497,-3.737 3.83,-8.131 3.83,-12.626c0,-6.028 -2.394,-11.808 -6.657,-16.071c-4.262,-4.262 -10.042,-6.656 -16.07,-6.656Zm-0,30.303c-1.498,-0 -2.963,-0.445 -4.209,-1.277c-1.246,-0.832 -2.217,-2.016 -2.79,-3.4c-0.573,-1.384 -0.723,-2.907 -0.431,-4.377c0.292,-1.469 1.014,-2.819 2.073,-3.879c1.06,-1.059 2.41,-1.781 3.879,-2.073c1.47,-0.292 2.993,-0.142 4.377,0.431c1.384,0.573 2.568,1.544 3.4,2.79c0.832,1.246 1.277,2.71 1.277,4.209c-0,2.009 -0.798,3.936 -2.219,5.357c-1.421,1.421 -3.348,2.219 -5.357,2.219Zm45.455,-15.152c-1.499,0 -2.963,0.445 -4.209,1.277c-1.246,0.832 -2.217,2.016 -2.791,3.4c-0.573,1.384 -0.723,2.907 -0.431,4.377c0.293,1.469 1.014,2.819 2.074,3.879c1.059,1.059 2.409,1.781 3.879,2.073c1.469,0.292 2.992,0.142 4.377,-0.431c1.384,-0.573 2.567,-1.544 3.399,-2.79c0.833,-1.246 1.277,-2.711 1.277,-4.209c0,-2.009 -0.798,-3.936 -2.219,-5.357c-1.42,-1.421 -3.347,-2.219 -5.356,-2.219Z" style="fill:#101117;fill-rule:nonzero;"/></g></svg>