<?xml version="1.0" encoding="UTF-8" standalone="no"?><!DOCTYPE svg PUBLIC "-//W3C//DTD SVG 1.1//EN" "http://www.w3.org/Graphics/SVG/1.1/DTD/svg11.dtd"><svg width="100%" height="100%" viewBox="0 0 200 200" version="1.1" xmlns="http://www.w3.org/2000/svg" xmlns:xlink="http://www.w3.org/1999/xlink" xml:space="preserve" xmlns:serif="http://www.serif.com/" style="fill-rule:evenodd;clip-rule:evenodd;stroke-linejoin:round;stroke-miterlimit:2;"><rect id="Artboard1" x="0" y="0" width="200" height="200" style="fill:none;"/><g id="Artboard11" serif:id="Artboard1"><path d="M88.333,54.526l4.091,-4.469l0,27.197c0,2.009 0.798,3.936 2.219,5.357c1.421,1.42 3.348,2.219 5.357,2.219c2.009,-0 3.936,-0.799 5.357,-2.219c1.421,-1.421 2.219,-3.348 2.219,-5.357l-0,-27.197l4.091,4.166c0.687,0.777 1.527,1.405 2.467,1.843c0.94,0.439 1.96,0.68 2.997,0.709c1.037,0.028 2.069,-0.157 3.032,-0.544c0.962,-0.386 1.835,-0.967 2.564,-1.705c0.711,-0.704 1.274,-1.542 1.659,-2.465c0.384,-0.923 0.582,-1.913 0.582,-2.913c0,-1 -0.198,-1.99 -0.582,-2.914c-0.385,-0.923 -0.948,-1.761 -1.659,-2.465l-17.348,-17.348c-0.721,-0.69 -1.57,-1.231 -2.5,-1.591c-1.845,-0.758 -3.913,-0.758 -5.758,-0c-0.93,0.36 -1.779,0.901 -2.5,1.591l-17.348,17.045c-1.467,1.467 -2.291,3.456 -2.291,5.53c-0,2.074 0.824,4.064 2.291,5.53c1.466,1.468 3.456,2.291 5.53,2.291c2.074,0 4.064,-0.823 5.53,-2.291Zm11.667,45.455c-4.495,0 -8.889,1.333 -12.627,3.83c-3.737,2.498 -6.65,6.047 -8.37,10.2c-1.72,4.153 -2.17,8.723 -1.294,13.131c0.877,4.409 3.042,8.459 6.221,11.637c3.178,3.179 7.228,5.343 11.636,6.22c4.409,0.877 8.978,0.427 13.131,-1.293c4.153,-1.72 7.703,-4.633 10.2,-8.371c2.497,-3.737 3.83,-8.132 3.83,-12.627c0,-6.027 -2.394,-11.808 -6.657,-16.07c-4.262,-4.262 -10.042,-6.657 -16.07,-6.657Zm0,30.303c-1.498,0 -2.963,-0.444 -4.209,-1.276c-1.246,-0.833 -2.217,-2.016 -2.79,-3.4c-0.573,-1.385 -0.723,-2.908 -0.431,-4.377c0.292,-1.47 1.014,-2.82 2.073,-3.88c1.06,-1.059 2.41,-1.781 3.879,-2.073c1.47,-0.292 2.993,-0.142 4.377,0.431c1.384,0.574 2.568,1.545 3.4,2.791c0.832,1.245 1.277,2.71 1.277,4.208c-0,2.01 -0.798,3.937 -2.219,5.357c-1.421,1.421 -3.348,2.219 -5.357,2.219Zm-53.03,-7.576c-0,1.499 0.444,2.964 1.277,4.209c0.832,1.246 2.015,2.217 3.399,2.791c1.385,0.573 2.908,0.723 4.377,0.431c1.47,-0.293 2.82,-1.014 3.879,-2.074c1.06,-1.059 1.781,-2.409 2.074,-3.879c0.292,-1.469 0.142,-2.992 -0.431,-4.377c-0.574,-1.384 -1.545,-2.567 -2.791,-3.4c-1.246,-0.832 -2.71,-1.276 -4.209,-1.276c-2.009,-0 -3.936,0.798 -5.356,2.218c-1.421,1.421 -2.219,3.348 -2.219,5.357Zm106.06,0c0,-1.498 -0.444,-2.963 -1.277,-4.208c-0.832,-1.246 -2.015,-2.217 -3.399,-2.791c-1.385,-0.573 -2.908,-0.723 -4.377,-0.431c-1.47,0.292 -2.82,1.014 -3.879,2.073c-1.06,1.06 -1.781,2.41 -2.074,3.88c-0.292,1.469 -0.142,2.992 0.431,4.377c0.574,1.384 1.545,2.567 2.791,3.4c1.246,0.832 2.71,1.276 4.209,1.276c2.009,0 3.936,-0.798 5.356,-2.219c1.421,-1.42 2.219,-3.347 2.219,-5.357Zm7.576,-53.03l-30.303,0c-2.009,0 -3.936,0.798 -5.357,2.219c-1.421,1.421 -2.219,3.348 -2.219,5.357c0,2.009 0.798,3.936 2.219,5.357c1.421,1.42 3.348,2.219 5.357,2.219l30.303,-0c2.009,-0 3.936,0.798 5.357,2.218c1.421,1.421 2.219,3.348 2.219,5.357l-0,60.606c-0,2.01 -0.798,3.937 -2.219,5.358c-1.421,1.42 -3.348,2.218 -5.357,2.218l-121.212,0c-2.009,0 -3.936,-0.798 -5.357,-2.218c-1.421,-1.421 -2.219,-3.348 -2.219,-5.358l0,-60.606c0,-2.009 0.798,-3.936 2.219,-5.357c1.421,-1.42 3.348,-2.218 5.357,-2.218l30.303,-0c2.009,-0 3.936,-0.799 5.357,-2.219c1.421,-1.421 2.219,-3.348 2.219,-5.357c-0,-2.009 -0.798,-3.936 -2.219,-5.357c-1.421,-1.421 -3.348,-2.219 -5.357,-2.219l-30.303,0c-6.028,0 -11.808,2.395 -16.071,6.657c-4.262,4.262 -6.656,10.043 -6.656,16.07l-0,60.606c-0,6.028 2.394,11.809 6.656,16.071c4.263,4.262 10.043,6.657 16.071,6.657l121.212,-0c6.028,-0 11.808,-2.395 16.071,-6.657c4.262,-4.262 6.656,-10.043 6.656,-16.071l0,-60.606c0,-6.027 -2.394,-11.808 -6.656,-16.07c-4.263,-4.262 -10.043,-6.657 -16.071,-6.657Z" style="fill:#101117;fill-rule:nonzero;"/></g></svg>