<svg width="44" height="44" viewBox="0 0 44 44" fill="none" xmlns="http://www.w3.org/2000/svg">
<path d="M42 32H2C1.46957 32 0.960859 32.2107 0.585786 32.5858C0.210714 32.9609 0 33.4696 0 34C0 34.5304 0.210714 35.0391 0.585786 35.4142C0.960859 35.7893 1.46957 36 2 36H42C42.5304 36 43.0391 35.7893 43.4142 35.4142C43.7893 35.0391 44 34.5304 44 34C44 33.4696 43.7893 32.9609 43.4142 32.5858C43.0391 32.2107 42.5304 32 42 32ZM42 40H2C1.46957 40 0.960859 40.2107 0.585786 40.5858C0.210714 40.9609 0 41.4696 0 42C0 42.5304 0.210714 43.0391 0.585786 43.4142C0.960859 43.7893 1.46957 44 2 44H42C42.5304 44 43.0391 43.7893 43.4142 43.4142C43.7893 43.0391 44 42.5304 44 42C44 41.4696 43.7893 40.9609 43.4142 40.5858C43.0391 40.2107 42.5304 40 42 40ZM10 12C9.60444 12 9.21776 12.1173 8.88886 12.3371C8.55996 12.5568 8.30362 12.8692 8.15224 13.2346C8.00087 13.6001 7.96126 14.0022 8.03843 14.3902C8.1156 14.7781 8.30608 15.1345 8.58579 15.4142C8.86549 15.6939 9.22186 15.8844 9.60982 15.9616C9.99778 16.0387 10.3999 15.9991 10.7654 15.8478C11.1308 15.6964 11.4432 15.44 11.6629 15.1111C11.8827 14.7822 12 14.3956 12 14C12 13.4696 11.7893 12.9609 11.4142 12.5858C11.0391 12.2107 10.5304 12 10 12ZM38 0H6C4.4087 0 2.88258 0.632141 1.75736 1.75736C0.632141 2.88258 0 4.4087 0 6V22C0 23.5913 0.632141 25.1174 1.75736 26.2426C2.88258 27.3679 4.4087 28 6 28H38C39.5913 28 41.1174 27.3679 42.2426 26.2426C43.3679 25.1174 44 23.5913 44 22V6C44 4.4087 43.3679 2.88258 42.2426 1.75736C41.1174 0.632141 39.5913 0 38 0ZM40 22C40 22.5304 39.7893 23.0391 39.4142 23.4142C39.0391 23.7893 38.5304 24 38 24H6C5.46957 24 4.96086 23.7893 4.58579 23.4142C4.21071 23.0391 4 22.5304 4 22V6C4 5.46957 4.21071 4.96086 4.58579 4.58579C4.96086 4.21071 5.46957 4 6 4H38C38.5304 4 39.0391 4.21071 39.4142 4.58579C39.7893 4.96086 40 5.46957 40 6V22ZM22 8C20.8133 8 19.6533 8.35189 18.6666 9.01118C17.6799 9.67047 16.9108 10.6075 16.4567 11.7039C16.0026 12.8003 15.8838 14.0067 16.1153 15.1705C16.3468 16.3344 16.9182 17.4035 17.7574 18.2426C18.5965 19.0818 19.6656 19.6532 20.8295 19.8847C21.9933 20.1162 23.1997 19.9974 24.2961 19.5433C25.3925 19.0892 26.3295 18.3201 26.9888 17.3334C27.6481 16.3467 28 15.1867 28 14C28 12.4087 27.3679 10.8826 26.2426 9.75736C25.1174 8.63214 23.5913 8 22 8ZM22 16C21.6044 16 21.2178 15.8827 20.8889 15.6629C20.56 15.4432 20.3036 15.1308 20.1522 14.7654C20.0009 14.3999 19.9613 13.9978 20.0384 13.6098C20.1156 13.2219 20.3061 12.8655 20.5858 12.5858C20.8655 12.3061 21.2219 12.1156 21.6098 12.0384C21.9978 11.9613 22.3999 12.0009 22.7654 12.1522C23.1308 12.3036 23.4432 12.56 23.6629 12.8889C23.8827 13.2178 24 13.6044 24 14C24 14.5304 23.7893 15.0391 23.4142 15.4142C23.0391 15.7893 22.5304 16 22 16ZM34 12C33.6044 12 33.2178 12.1173 32.8889 12.3371C32.56 12.5568 32.3036 12.8692 32.1522 13.2346C32.0009 13.6001 31.9613 14.0022 32.0384 14.3902C32.1156 14.7781 32.3061 15.1345 32.5858 15.4142C32.8655 15.6939 33.2219 15.8844 33.6098 15.9616C33.9978 16.0387 34.3999 15.9991 34.7654 15.8478C35.1308 15.6964 35.4432 15.44 35.6629 15.1111C35.8827 14.7822 36 14.3956 36 14C36 13.4696 35.7893 12.9609 35.4142 12.5858C35.0391 12.2107 34.5304 12 34 12Z" fill="#101117"/>
</svg>
