<svg width="48" height="48" viewBox="0 0 48 48" fill="none" xmlns="http://www.w3.org/2000/svg">
<path d="M24 24C22.8133 24 21.6533 24.3519 20.6666 25.0112C19.6799 25.6705 18.9108 26.6075 18.4567 27.7039C18.0026 28.8003 17.8838 30.0067 18.1153 31.1705C18.3468 32.3344 18.9182 33.4035 19.7574 34.2426C20.5965 35.0818 21.6656 35.6532 22.8295 35.8847C23.9933 36.1162 25.1997 35.9974 26.2961 35.5433C27.3925 35.0892 28.3295 34.3201 28.9888 33.3334C29.6481 32.3467 30 31.1867 30 30C30 28.4087 29.3679 26.8826 28.2426 25.7574C27.1174 24.6321 25.5913 24 24 24ZM24 32C23.6044 32 23.2178 31.8827 22.8889 31.6629C22.56 31.4432 22.3036 31.1308 22.1522 30.7654C22.0009 30.3999 21.9613 29.9978 22.0384 29.6098C22.1156 29.2219 22.3061 28.8655 22.5858 28.5858C22.8655 28.3061 23.2219 28.1156 23.6098 28.0384C23.9978 27.9613 24.3999 28.0009 24.7654 28.1522C25.1308 28.3036 25.4432 28.56 25.6629 28.8889C25.8827 29.2178 26 29.6044 26 30C26 30.5304 25.7893 31.0391 25.4142 31.4142C25.0391 31.7893 24.5304 32 24 32ZM22.58 19.42C22.7702 19.6021 22.9945 19.7448 23.24 19.84C23.4794 19.9458 23.7383 20.0005 24 20.0005C24.2617 20.0005 24.5206 19.9458 24.76 19.84C25.0055 19.7448 25.2298 19.6021 25.42 19.42L30 14.92C30.3872 14.5328 30.6048 14.0076 30.6048 13.46C30.6048 12.9124 30.3872 12.3872 30 12C29.6128 11.6128 29.0876 11.3952 28.54 11.3952C27.9924 11.3952 27.4672 11.6128 27.08 12L26 13.18V6C26 5.46957 25.7893 4.96086 25.4142 4.58579C25.0391 4.21071 24.5304 4 24 4C23.4696 4 22.9609 4.21071 22.5858 4.58579C22.2107 4.96086 22 5.46957 22 6V13.18L20.92 12C20.5328 11.6128 20.0076 11.3952 19.46 11.3952C18.9124 11.3952 18.3872 11.6128 18 12C17.6128 12.3872 17.3952 12.9124 17.3952 13.46C17.3952 14.0076 17.6128 14.5328 18 14.92L22.58 19.42ZM38 30C38 29.6044 37.8827 29.2178 37.6629 28.8889C37.4432 28.56 37.1308 28.3036 36.7654 28.1522C36.3999 28.0009 35.9978 27.9613 35.6098 28.0384C35.2219 28.1156 34.8655 28.3061 34.5858 28.5858C34.3061 28.8655 34.1156 29.2219 34.0384 29.6098C33.9613 29.9978 34.0009 30.3999 34.1522 30.7654C34.3036 31.1308 34.56 31.4432 34.8889 31.6629C35.2178 31.8827 35.6044 32 36 32C36.5304 32 37.0391 31.7893 37.4142 31.4142C37.7893 31.0391 38 30.5304 38 30ZM40 16H34C33.4696 16 32.9609 16.2107 32.5858 16.5858C32.2107 16.9609 32 17.4696 32 18C32 18.5304 32.2107 19.0391 32.5858 19.4142C32.9609 19.7893 33.4696 20 34 20H40C40.5304 20 41.0391 20.2107 41.4142 20.5858C41.7893 20.9609 42 21.4696 42 22V38C42 38.5304 41.7893 39.0391 41.4142 39.4142C41.0391 39.7893 40.5304 40 40 40H8C7.46957 40 6.96086 39.7893 6.58579 39.4142C6.21071 39.0391 6 38.5304 6 38V22C6 21.4696 6.21071 20.9609 6.58579 20.5858C6.96086 20.2107 7.46957 20 8 20H14C14.5304 20 15.0391 19.7893 15.4142 19.4142C15.7893 19.0391 16 18.5304 16 18C16 17.4696 15.7893 16.9609 15.4142 16.5858C15.0391 16.2107 14.5304 16 14 16H8C6.4087 16 4.88258 16.6321 3.75736 17.7574C2.63214 18.8826 2 20.4087 2 22V38C2 39.5913 2.63214 41.1174 3.75736 42.2426C4.88258 43.3679 6.4087 44 8 44H40C41.5913 44 43.1174 43.3679 44.2426 42.2426C45.3679 41.1174 46 39.5913 46 38V22C46 20.4087 45.3679 18.8826 44.2426 17.7574C43.1174 16.6321 41.5913 16 40 16ZM10 30C10 30.3956 10.1173 30.7822 10.3371 31.1111C10.5568 31.44 10.8692 31.6964 11.2346 31.8478C11.6001 31.9991 12.0022 32.0387 12.3902 31.9616C12.7781 31.8844 13.1345 31.6939 13.4142 31.4142C13.6939 31.1345 13.8844 30.7781 13.9616 30.3902C14.0387 30.0022 13.9991 29.6001 13.8478 29.2346C13.6964 28.8692 13.44 28.5568 13.1111 28.3371C12.7822 28.1173 12.3956 28 12 28C11.4696 28 10.9609 28.2107 10.5858 28.5858C10.2107 28.9609 10 29.4696 10 30Z" fill="#101117"/>
</svg>
