<svg width="48" height="48" viewBox="0 0 48 48" fill="none" xmlns="http://www.w3.org/2000/svg">
<path d="M20.92 12L22 10.82V18C22 18.5305 22.2107 19.0392 22.5858 19.4143C22.9609 19.7893 23.4696 20 24 20C24.5304 20 25.0391 19.7893 25.4142 19.4143C25.7893 19.0392 26 18.5305 26 18V10.82L27.08 11.92C27.2615 12.1251 27.4833 12.2907 27.7314 12.4065C27.9796 12.5223 28.2489 12.586 28.5226 12.5935C28.7964 12.601 29.0688 12.5522 29.3229 12.4501C29.577 12.348 29.8075 12.1948 30 12C30.1875 11.8141 30.3362 11.5929 30.4378 11.3492C30.5393 11.1055 30.5916 10.8441 30.5916 10.58C30.5916 10.316 30.5393 10.0546 30.4378 9.81088C30.3362 9.56716 30.1875 9.34596 30 9.16004L25.42 4.58004C25.2298 4.39796 25.0055 4.25523 24.76 4.16004C24.2731 3.96 23.7269 3.96 23.24 4.16004C22.9945 4.25523 22.7702 4.39796 22.58 4.58004L18 9.08004C17.6128 9.46725 17.3952 9.99243 17.3952 10.54C17.3952 11.0876 17.6128 11.6128 18 12C18.3872 12.3873 18.9124 12.6048 19.46 12.6048C20.0076 12.6048 20.5328 12.3873 20.92 12ZM24 24C22.8133 24 21.6533 24.3519 20.6666 25.0112C19.6799 25.6705 18.9108 26.6076 18.4567 27.7039C18.0026 28.8003 17.8838 30.0067 18.1153 31.1706C18.3468 32.3345 18.9182 33.4036 19.7574 34.2427C20.5965 35.0818 21.6656 35.6532 22.8295 35.8847C23.9933 36.1163 25.1997 35.9974 26.2961 35.5433C27.3925 35.0892 28.3295 34.3202 28.9888 33.3335C29.6481 32.3468 30 31.1867 30 30C30 28.4087 29.3679 26.8826 28.2426 25.7574C27.1174 24.6322 25.5913 24 24 24ZM24 32C23.6044 32 23.2178 31.8827 22.8889 31.663C22.56 31.4432 22.3036 31.1309 22.1522 30.7654C22.0009 30.4 21.9613 29.9978 22.0384 29.6099C22.1156 29.2219 22.3061 28.8655 22.5858 28.5858C22.8655 28.3061 23.2219 28.1156 23.6098 28.0385C23.9978 27.9613 24.3999 28.0009 24.7654 28.1523C25.1308 28.3037 25.4432 28.56 25.6629 28.8889C25.8827 29.2178 26 29.6045 26 30C26 30.5305 25.7893 31.0392 25.4142 31.4142C25.0391 31.7893 24.5304 32 24 32ZM10 30C10 30.3956 10.1173 30.7823 10.3371 31.1112C10.5568 31.4401 10.8692 31.6964 11.2346 31.8478C11.6001 31.9992 12.0022 32.0388 12.3902 31.9616C12.7781 31.8844 13.1345 31.694 13.4142 31.4142C13.6939 31.1345 13.8844 30.7782 13.9616 30.3902C14.0387 30.0023 13.9991 29.6001 13.8478 29.2347C13.6964 28.8692 13.44 28.5569 13.1111 28.3371C12.7822 28.1173 12.3956 28 12 28C11.4696 28 10.9609 28.2108 10.5858 28.5858C10.2107 28.9609 10 29.4696 10 30ZM38 30C38 29.6045 37.8827 29.2178 37.6629 28.8889C37.4432 28.56 37.1308 28.3037 36.7654 28.1523C36.3999 28.0009 35.9978 27.9613 35.6098 28.0385C35.2219 28.1156 34.8655 28.3061 34.5858 28.5858C34.3061 28.8655 34.1156 29.2219 34.0384 29.6099C33.9613 29.9978 34.0009 30.4 34.1522 30.7654C34.3036 31.1309 34.56 31.4432 34.8889 31.663C35.2178 31.8827 35.6044 32 36 32C36.5304 32 37.0391 31.7893 37.4142 31.4142C37.7893 31.0392 38 30.5305 38 30ZM40 16H32C31.4696 16 30.9609 16.2108 30.5858 16.5858C30.2107 16.9609 30 17.4696 30 18C30 18.5305 30.2107 19.0392 30.5858 19.4143C30.9609 19.7893 31.4696 20 32 20H40C40.5304 20 41.0391 20.2108 41.4142 20.5858C41.7893 20.9609 42 21.4696 42 22V38C42 38.5305 41.7893 39.0392 41.4142 39.4143C41.0391 39.7893 40.5304 40 40 40H8C7.46957 40 6.96086 39.7893 6.58579 39.4143C6.21071 39.0392 6 38.5305 6 38V22C6 21.4696 6.21071 20.9609 6.58579 20.5858C6.96086 20.2108 7.46957 20 8 20H16C16.5304 20 17.0391 19.7893 17.4142 19.4143C17.7893 19.0392 18 18.5305 18 18C18 17.4696 17.7893 16.9609 17.4142 16.5858C17.0391 16.2108 16.5304 16 16 16H8C6.4087 16 4.88258 16.6322 3.75736 17.7574C2.63214 18.8826 2 20.4087 2 22V38C2 39.5913 2.63214 41.1175 3.75736 42.2427C4.88258 43.3679 6.4087 44 8 44H40C41.5913 44 43.1174 43.3679 44.2426 42.2427C45.3679 41.1175 46 39.5913 46 38V22C46 20.4087 45.3679 18.8826 44.2426 17.7574C43.1174 16.6322 41.5913 16 40 16Z" fill="#101117"/>
</svg>
