<svg width="48" height="48" viewBox="0 0 48 48" fill="none" xmlns="http://www.w3.org/2000/svg">
<path d="M24 22C22.8133 22 21.6533 22.3519 20.6666 23.0112C19.6799 23.6705 18.9108 24.6075 18.4567 25.7039C18.0026 26.8003 17.8838 28.0067 18.1153 29.1705C18.3468 30.3344 18.9182 31.4035 19.7574 32.2426C20.5965 33.0818 21.6656 33.6532 22.8295 33.8847C23.9933 34.1162 25.1997 33.9974 26.2961 33.5433C27.3925 33.0892 28.3295 32.3201 28.9888 31.3334C29.6481 30.3467 30 29.1867 30 28C30 26.4087 29.3679 24.8826 28.2426 23.7574C27.1174 22.6321 25.5913 22 24 22ZM24 30C23.6044 30 23.2178 29.8827 22.8889 29.6629C22.56 29.4432 22.3036 29.1308 22.1522 28.7654C22.0009 28.3999 21.9613 27.9978 22.0384 27.6098C22.1156 27.2219 22.3061 26.8655 22.5858 26.5858C22.8655 26.3061 23.2219 26.1156 23.6098 26.0384C23.9978 25.9613 24.3999 26.0009 24.7654 26.1522C25.1308 26.3036 25.4432 26.56 25.6629 26.8889C25.8827 27.2178 26 27.6044 26 28C26 28.5304 25.7893 29.0391 25.4142 29.4142C25.0391 29.7893 24.5304 30 24 30ZM38 12H32V10C32 8.4087 31.3679 6.88258 30.2426 5.75736C29.1174 4.63214 27.5913 4 26 4H22C20.4087 4 18.8826 4.63214 17.7574 5.75736C16.6321 6.88258 16 8.4087 16 10V12H10C8.4087 12 6.88258 12.6321 5.75736 13.7574C4.63214 14.8826 4 16.4087 4 18V38C4 39.5913 4.63214 41.1174 5.75736 42.2426C6.88258 43.3679 8.4087 44 10 44H38C39.5913 44 41.1174 43.3679 42.2426 42.2426C43.3679 41.1174 44 39.5913 44 38V18C44 16.4087 43.3679 14.8826 42.2426 13.7574C41.1174 12.6321 39.5913 12 38 12ZM20 10C20 9.46957 20.2107 8.96086 20.5858 8.58579C20.9609 8.21071 21.4696 8 22 8H26C26.5304 8 27.0391 8.21071 27.4142 8.58579C27.7893 8.96086 28 9.46957 28 10V12H20V10ZM8 18C8 17.4696 8.21071 16.9609 8.58579 16.5858C8.96086 16.2107 9.46957 16 10 16H12C12 17.0609 11.5786 18.0783 10.8284 18.8284C10.0783 19.5786 9.06087 20 8 20V18ZM10 40C9.46957 40 8.96086 39.7893 8.58579 39.4142C8.21071 39.0391 8 38.5304 8 38V36C9.06087 36 10.0783 36.4214 10.8284 37.1716C11.5786 37.9217 12 38.9391 12 40H10ZM40 38C40 38.5304 39.7893 39.0391 39.4142 39.4142C39.0391 39.7893 38.5304 40 38 40H36C36 38.9391 36.4214 37.9217 37.1716 37.1716C37.9217 36.4214 38.9391 36 40 36V38ZM40 32C37.8783 32 35.8434 32.8429 34.3431 34.3431C32.8429 35.8434 32 37.8783 32 40H16C16 37.8783 15.1571 35.8434 13.6569 34.3431C12.1566 32.8429 10.1217 32 8 32V24C10.1217 24 12.1566 23.1571 13.6569 21.6569C15.1571 20.1566 16 18.1217 16 16H32C32 18.1217 32.8429 20.1566 34.3431 21.6569C35.8434 23.1571 37.8783 24 40 24V32ZM40 20C38.9391 20 37.9217 19.5786 37.1716 18.8284C36.4214 18.0783 36 17.0609 36 16H38C38.5304 16 39.0391 16.2107 39.4142 16.5858C39.7893 16.9609 40 17.4696 40 18V20Z" fill="#101117"/>
</svg>
