<?xml version="1.0" encoding="UTF-8" standalone="no"?><!DOCTYPE svg PUBLIC "-//W3C//DTD SVG 1.1//EN" "http://www.w3.org/Graphics/SVG/1.1/DTD/svg11.dtd"><svg width="100%" height="100%" viewBox="0 0 200 200" version="1.1" xmlns="http://www.w3.org/2000/svg" xmlns:xlink="http://www.w3.org/1999/xlink" xml:space="preserve" xmlns:serif="http://www.serif.com/" style="fill-rule:evenodd;clip-rule:evenodd;stroke-linejoin:round;stroke-miterlimit:2;"><rect id="Artboard1" x="0" y="0" width="200" height="200" style="fill:none;"/><g id="Artboard11" serif:id="Artboard1"><path d="M150.001,83.333c6.592,0 13.037,-1.955 18.519,-5.617c5.481,-3.663 9.754,-8.869 12.277,-14.96c2.523,-6.091 3.183,-12.793 1.897,-19.259c-1.287,-6.466 -4.462,-12.405 -9.123,-17.067c-4.662,-4.662 -10.601,-7.837 -17.067,-9.123c-6.466,-1.286 -13.169,-0.626 -19.259,1.897c-6.091,2.523 -11.297,6.795 -14.96,12.277c-3.662,5.482 -5.618,11.927 -5.618,18.519c0,8.84 3.512,17.319 9.763,23.57c6.252,6.251 14.73,9.763 23.571,9.763Zm-0,-50c3.296,0 6.519,0.978 9.259,2.809c2.741,1.832 4.877,4.435 6.139,7.48c1.261,3.046 1.591,6.396 0.948,9.63c-0.643,3.233 -2.23,6.202 -4.561,8.533c-2.331,2.331 -5.301,3.918 -8.534,4.561c-3.233,0.644 -6.584,0.314 -9.63,-0.948c-3.045,-1.261 -5.648,-3.398 -7.479,-6.138c-1.831,-2.741 -2.809,-5.964 -2.809,-9.26c0,-4.42 1.756,-8.66 4.882,-11.785c3.125,-3.126 7.364,-4.882 11.785,-4.882Zm-9.583,70.584c-0.748,-1.206 -1.791,-2.202 -3.03,-2.892c-1.24,-0.69 -2.635,-1.052 -4.054,-1.052c-1.419,0 -2.814,0.362 -4.054,1.052c-1.239,0.69 -2.282,1.686 -3.029,2.892l-8.334,13.583l-27.416,-46.667c-0.738,-1.243 -1.787,-2.273 -3.044,-2.989c-1.256,-0.715 -2.677,-1.092 -4.123,-1.092c-1.446,0 -2.867,0.377 -4.124,1.092c-1.256,0.716 -2.305,1.746 -3.043,2.989l-58.333,100c-0.729,1.264 -1.114,2.696 -1.116,4.154c-0.003,1.459 0.378,2.893 1.103,4.158c0.726,1.265 1.771,2.318 3.031,3.053c1.26,0.735 2.69,1.127 4.149,1.135l150,0c1.489,0.003 2.951,-0.393 4.235,-1.146c1.284,-0.754 2.343,-1.838 3.066,-3.14c0.723,-1.302 1.084,-2.773 1.046,-4.262c-0.038,-1.488 -0.475,-2.939 -1.264,-4.202l-41.666,-66.666Zm-53.334,62.75l-47.583,-0l43.833,-75l24.5,41.666l-10.417,16.667l-10.333,16.667Zm19.584,-0l12.416,-19.75l5.917,-8.834l8.333,-14l26.667,42.584l-53.334,-0Z" style="fill:#101117;fill-rule:nonzero;"/></g></svg>