<svg width="48" height="48" viewBox="0 0 48 48" fill="none" xmlns="http://www.w3.org/2000/svg">
<path d="M36.0002 20C37.5824 20 39.1291 19.5308 40.4447 18.6518C41.7603 17.7727 42.7857 16.5233 43.3912 15.0615C43.9967 13.5997 44.1551 11.9911 43.8465 10.4393C43.5378 8.88743 42.7758 7.46197 41.657 6.34315C40.5382 5.22433 39.1127 4.4624 37.5609 4.15372C36.0091 3.84504 34.4005 4.00347 32.9387 4.60897C31.4769 5.21447 30.2275 6.23985 29.3484 7.55544C28.4694 8.87103 28.0002 10.4178 28.0002 12C28.0002 14.1217 28.843 16.1566 30.3433 17.6569C31.8436 19.1571 33.8784 20 36.0002 20ZM36.0002 8C36.7913 8 37.5647 8.2346 38.2225 8.67413C38.8803 9.11365 39.3929 9.73836 39.6957 10.4693C39.9984 11.2002 40.0777 12.0044 39.9233 12.7804C39.769 13.5563 39.388 14.269 38.8286 14.8284C38.2692 15.3878 37.5565 15.7688 36.7805 15.9231C36.0046 16.0775 35.2003 15.9983 34.4694 15.6955C33.7385 15.3928 33.1138 14.8801 32.6743 14.2223C32.2348 13.5645 32.0002 12.7911 32.0002 12C32.0002 10.9391 32.4216 9.92172 33.1718 9.17158C33.9219 8.42143 34.9393 8 36.0002 8ZM33.7002 24.94C33.5208 24.6506 33.2705 24.4117 32.973 24.2461C32.6755 24.0805 32.3407 23.9936 32.0002 23.9936C31.6597 23.9936 31.3248 24.0805 31.0273 24.2461C30.7298 24.4117 30.4795 24.6506 30.3002 24.94L28.3002 28.2L21.7202 17C21.5431 16.7016 21.2914 16.4543 20.9898 16.2826C20.6883 16.1109 20.3472 16.0206 20.0002 16.0206C19.6531 16.0206 19.3121 16.1109 19.0105 16.2826C18.709 16.4543 18.4573 16.7016 18.2802 17L4.28018 41C4.10514 41.3032 4.01274 41.6469 4.01221 41.997C4.01168 42.3471 4.10303 42.6911 4.27715 42.9948C4.45126 43.2985 4.70203 43.5512 5.00439 43.7276C5.30676 43.904 5.65013 43.9979 6.00018 44H42.0002C42.3575 44.0007 42.7085 43.9057 43.0167 43.7248C43.3249 43.5439 43.579 43.2837 43.7525 42.9713C43.926 42.6589 44.0127 42.3057 44.0035 41.9485C43.9943 41.5913 43.8896 41.243 43.7002 40.94L33.7002 24.94ZM20.9002 40H9.48018L20.0002 22L25.8802 32L23.3802 36L20.9002 40ZM25.6002 40L28.5802 35.26L30.0002 33.14L32.0002 29.78L38.4002 40H25.6002Z" fill="#101117"/>
</svg>
