<svg width="48" height="48" viewBox="0 0 48 48" fill="none" xmlns="http://www.w3.org/2000/svg">
<path d="M43.3 4.48006C43.082 4.29297 42.8262 4.15504 42.5501 4.07566C42.274 3.99629 41.9841 3.97732 41.7 4.02006L15.7 8.02006C15.2265 8.09189 14.7945 8.33124 14.4826 8.69458C14.1706 9.05793 13.9994 9.52116 14 10.0001V30.7001C13.0655 30.2436 12.04 30.0043 11 30.0001C9.61553 30.0001 8.26216 30.4106 7.11101 31.1798C5.95987 31.9489 5.06266 33.0422 4.53285 34.3213C4.00303 35.6004 3.86441 37.0078 4.13451 38.3657C4.4046 39.7236 5.07129 40.9708 6.05026 41.9498C7.02922 42.9288 8.2765 43.5955 9.63437 43.8656C10.9922 44.1357 12.3997 43.997 13.6788 43.4672C14.9579 42.9374 16.0511 42.0402 16.8203 40.889C17.5895 39.7379 18 38.3845 18 37.0001V21.7201L40 18.3401V26.7001C39.0655 26.2436 38.04 26.0043 37 26.0001C35.6155 26.0001 34.2622 26.4106 33.111 27.1798C31.9599 27.9489 31.0627 29.0422 30.5328 30.3213C30.003 31.6004 29.8644 33.0078 30.1345 34.3657C30.4046 35.7236 31.0713 36.9708 32.0503 37.9498C33.0292 38.9288 34.2765 39.5955 35.6344 39.8656C36.9922 40.1357 38.3997 39.997 39.6788 39.4672C40.9579 38.9374 42.0511 38.0402 42.8203 36.889C43.5895 35.7379 44 34.3845 44 33.0001V6.00006C44 5.71118 43.9375 5.42572 43.8166 5.16332C43.6958 4.90093 43.5195 4.66783 43.3 4.48006ZM11 40.0001C10.4067 40.0001 9.82664 39.8241 9.33329 39.4945C8.83994 39.1648 8.45543 38.6963 8.22836 38.1481C8.0013 37.5999 7.94189 36.9967 8.05765 36.4148C8.1734 35.8328 8.45913 35.2983 8.87868 34.8787C9.29824 34.4592 9.83279 34.1735 10.4147 34.0577C10.9967 33.9419 11.5999 34.0014 12.1481 34.2284C12.6962 34.4555 13.1648 34.84 13.4944 35.3333C13.8241 35.8267 14 36.4067 14 37.0001C14 37.7957 13.6839 38.5588 13.1213 39.1214C12.5587 39.684 11.7957 40.0001 11 40.0001ZM37 36.0001C36.4067 36.0001 35.8266 35.8241 35.3333 35.4945C34.8399 35.1648 34.4554 34.6963 34.2284 34.1481C34.0013 33.5999 33.9419 32.9967 34.0576 32.4148C34.1734 31.8328 34.4591 31.2983 34.8787 30.8787C35.2982 30.4592 35.8328 30.1735 36.4147 30.0577C36.9967 29.9419 37.5999 30.0014 38.1481 30.2284C38.6962 30.4555 39.1648 30.84 39.4944 31.3333C39.8241 31.8267 40 32.4067 40 33.0001C40 33.7957 39.6839 34.5588 39.1213 35.1214C38.5587 35.684 37.7957 36.0001 37 36.0001ZM40 14.2801L18 17.6601V11.6601L40 8.34006V14.2801Z" fill="#101117"/>
</svg>
