<?xml version="1.0" encoding="UTF-8" standalone="no"?><!DOCTYPE svg PUBLIC "-//W3C//DTD SVG 1.1//EN" "http://www.w3.org/Graphics/SVG/1.1/DTD/svg11.dtd"><svg width="100%" height="100%" viewBox="0 0 200 200" version="1.1" xmlns="http://www.w3.org/2000/svg" xmlns:xlink="http://www.w3.org/1999/xlink" xml:space="preserve" xmlns:serif="http://www.serif.com/" style="fill-rule:evenodd;clip-rule:evenodd;stroke-linejoin:round;stroke-miterlimit:2;"><rect id="Artboard1" x="0" y="0" width="200" height="200" style="fill:none;"/><g id="Artboard11" serif:id="Artboard1"><path d="M180.417,18.667c-0.909,-0.78 -1.974,-1.354 -3.125,-1.685c-1.15,-0.331 -2.358,-0.41 -3.542,-0.232l-108.333,16.667c-1.973,0.299 -3.773,1.297 -5.073,2.81c-1.3,1.514 -2.013,3.445 -2.011,5.44l0,86.25c-3.893,-1.902 -8.166,-2.899 -12.5,-2.917c-5.768,0 -11.407,1.711 -16.204,4.916c-4.796,3.204 -8.535,7.76 -10.742,13.089c-2.208,5.33 -2.785,11.194 -1.66,16.852c1.126,5.658 3.903,10.855 7.982,14.934c4.079,4.079 9.276,6.857 14.934,7.982c5.658,1.126 11.522,0.548 16.852,-1.66c5.33,-2.207 9.885,-5.945 13.09,-10.742c3.205,-4.796 4.915,-10.436 4.915,-16.204l0,-63.667l91.667,-14.083l-0,34.833c-3.894,-1.902 -8.167,-2.899 -12.5,-2.916c-5.769,-0 -11.408,1.71 -16.204,4.915c-4.797,3.205 -8.535,7.76 -10.743,13.09c-2.207,5.329 -2.785,11.194 -1.66,16.851c1.126,5.658 3.904,10.855 7.983,14.934c4.079,4.079 9.276,6.857 14.934,7.983c5.657,1.125 11.522,0.547 16.851,-1.66c5.33,-2.208 9.885,-5.946 13.09,-10.743c3.205,-4.796 4.915,-10.435 4.915,-16.204l0,-112.5c0,-1.203 -0.26,-2.393 -0.764,-3.486c-0.503,-1.093 -1.238,-2.065 -2.152,-2.847Zm-134.584,148c-2.472,0 -4.889,-0.733 -6.944,-2.107c-2.056,-1.373 -3.658,-3.325 -4.604,-5.61c-0.946,-2.284 -1.194,-4.797 -0.711,-7.222c0.482,-2.425 1.672,-4.652 3.421,-6.4c1.748,-1.748 3.975,-2.938 6.4,-3.421c2.425,-0.482 4.938,-0.234 7.222,0.711c2.284,0.947 4.236,2.549 5.61,4.604c1.373,2.056 2.106,4.473 2.106,6.945c0,3.315 -1.317,6.495 -3.661,8.839c-2.344,2.344 -5.523,3.661 -8.839,3.661Zm108.334,-16.667c-2.472,0 -4.889,-0.733 -6.945,-2.106c-2.056,-1.374 -3.658,-3.326 -4.604,-5.61c-0.946,-2.284 -1.193,-4.798 -0.711,-7.222c0.482,-2.425 1.673,-4.652 3.421,-6.401c1.748,-1.748 3.975,-2.938 6.4,-3.421c2.425,-0.482 4.938,-0.234 7.222,0.712c2.284,0.946 4.237,2.548 5.61,4.603c1.374,2.056 2.107,4.473 2.107,6.945c-0,3.315 -1.317,6.495 -3.662,8.839c-2.344,2.344 -5.523,3.661 -8.838,3.661Zm12.5,-90.5l-91.667,14.084l0,-25l91.667,-13.834l-0,24.75Z" style="fill:#101117;fill-rule:nonzero;"/></g></svg>