<?xml version="1.0" encoding="UTF-8" standalone="no"?><!DOCTYPE svg PUBLIC "-//W3C//DTD SVG 1.1//EN" "http://www.w3.org/Graphics/SVG/1.1/DTD/svg11.dtd"><svg width="100%" height="100%" viewBox="0 0 200 200" version="1.1" xmlns="http://www.w3.org/2000/svg" xmlns:xlink="http://www.w3.org/1999/xlink" xml:space="preserve" xmlns:serif="http://www.serif.com/" style="fill-rule:evenodd;clip-rule:evenodd;stroke-linejoin:round;stroke-miterlimit:2;"><rect id="Artboard1" x="0" y="0" width="200" height="200" style="fill:none;"/><g id="Artboard11" serif:id="Artboard1"><path d="M175,87.5l-8.334,-0l-0,-8.333c-0,-2.211 -0.877,-4.33 -2.441,-5.893c-1.562,-1.563 -3.682,-2.441 -5.892,-2.441c-2.21,0 -4.33,0.878 -5.893,2.441c-1.562,1.563 -2.441,3.682 -2.441,5.893l0,8.333l-8.332,-0c-2.211,-0 -4.33,0.878 -5.893,2.441c-1.563,1.563 -2.441,3.682 -2.441,5.892c-0,2.21 0.878,4.33 2.441,5.893c1.563,1.563 3.682,2.441 5.893,2.441l8.332,-0l0,8.333c0,2.21 0.879,4.33 2.441,5.892c1.563,1.564 3.683,2.441 5.893,2.441c2.21,-0 4.33,-0.877 5.892,-2.441c1.564,-1.562 2.441,-3.682 2.441,-5.892l-0,-8.333l8.334,-0c2.21,-0 4.329,-0.878 5.892,-2.441c1.563,-1.563 2.441,-3.683 2.441,-5.893c0,-2.21 -0.878,-4.329 -2.441,-5.892c-1.563,-1.563 -3.682,-2.441 -5.892,-2.441Zm-64.166,14.333c4.446,-3.849 8.012,-8.609 10.457,-13.958c2.444,-5.349 3.709,-11.161 3.709,-17.042c0,-11.05 -4.39,-21.648 -12.204,-29.462c-7.814,-7.814 -18.412,-12.204 -29.463,-12.204c-11.051,-0 -21.649,4.39 -29.463,12.204c-7.813,7.814 -12.203,18.412 -12.203,29.462c-0,5.881 1.265,11.693 3.709,17.042c2.444,5.349 6.011,10.109 10.457,13.958c-11.665,5.283 -21.562,13.813 -28.508,24.571c-6.946,10.759 -10.646,23.29 -10.658,36.096c-0,2.21 0.878,4.329 2.44,5.893c1.563,1.562 3.683,2.44 5.893,2.44c2.21,0 4.33,-0.878 5.893,-2.44c1.562,-1.564 2.44,-3.683 2.44,-5.893c0,-13.261 5.268,-25.979 14.645,-35.355c9.377,-9.377 22.094,-14.645 35.355,-14.645c13.261,-0 25.979,5.268 35.355,14.645c9.377,9.376 14.645,22.094 14.645,35.355c-0,2.21 0.878,4.329 2.441,5.893c1.563,1.562 3.682,2.44 5.893,2.44c2.209,0 4.329,-0.878 5.892,-2.44c1.562,-1.564 2.44,-3.683 2.44,-5.893c-0.011,-12.806 -3.712,-25.337 -10.657,-36.096c-6.946,-10.758 -16.843,-19.288 -28.508,-24.571Zm-27.501,-6c-4.944,0 -9.778,-1.466 -13.889,-4.213c-4.111,-2.747 -7.316,-6.651 -9.208,-11.22c-1.892,-4.568 -2.387,-9.594 -1.422,-14.444c0.964,-4.849 3.345,-9.304 6.842,-12.8c3.496,-3.497 7.95,-5.878 12.8,-6.842c4.849,-0.965 9.876,-0.47 14.444,1.422c4.568,1.893 8.473,5.097 11.22,9.208c2.747,4.111 4.213,8.945 4.213,13.889c-0,6.631 -2.634,12.99 -7.322,17.678c-4.689,4.688 -11.047,7.322 -17.678,7.322Z" style="fill-rule:nonzero;"/></g></svg>