<svg width="198" height="168" viewBox="0 0 198 168" fill="none" xmlns="http://www.w3.org/2000/svg">
<path d="M187.161 68.954H177.31V59.1035C177.31 56.4909 176.273 53.9854 174.425 52.1381C172.578 50.2907 170.072 49.2529 167.46 49.2529C164.847 49.2529 162.342 50.2907 160.494 52.1381C158.647 53.9854 157.609 56.4909 157.609 59.1035V68.954H147.759C145.146 68.954 142.641 69.9919 140.793 71.8392C138.946 73.6866 137.908 76.1921 137.908 78.8046C137.908 81.4172 138.946 83.9227 140.793 85.77C142.641 87.6174 145.146 88.6552 147.759 88.6552H157.609V98.5058C157.609 101.118 158.647 103.624 160.494 105.471C162.342 107.319 164.847 108.356 167.46 108.356C170.072 108.356 172.578 107.319 174.425 105.471C176.273 103.624 177.31 101.118 177.31 98.5058V88.6552H187.161C189.774 88.6552 192.279 87.6174 194.126 85.77C195.974 83.9227 197.012 81.4172 197.012 78.8046C197.012 76.1921 195.974 73.6866 194.126 71.8392C192.279 69.9919 189.774 68.954 187.161 68.954ZM111.312 85.897C116.568 81.3474 120.783 75.7203 123.673 69.3976C126.562 63.0748 128.058 56.2045 128.058 49.2529C128.058 36.1902 122.868 23.6625 113.632 14.4258C104.395 5.18913 91.8673 0 78.8046 0C65.7419 0 53.2143 5.18913 43.9776 14.4258C34.7409 23.6625 29.5517 36.1902 29.5517 49.2529C29.5517 56.2045 31.0471 63.0748 33.9365 69.3976C36.8259 75.7203 41.0417 81.3474 46.2977 85.897C32.5083 92.1412 20.809 102.225 12.5987 114.942C4.38839 127.659 0.0144986 142.472 0 157.609C0 160.222 1.03783 162.727 2.88517 164.575C4.73251 166.422 7.23804 167.46 9.85058 167.46C12.4631 167.46 14.9686 166.422 16.816 164.575C18.6633 162.727 19.7012 160.222 19.7012 157.609C19.7012 141.934 25.9281 126.901 37.0122 115.817C48.0962 104.733 63.1294 98.5058 78.8046 98.5058C94.4798 98.5058 109.513 104.733 120.597 115.817C131.681 126.901 137.908 141.934 137.908 157.609C137.908 160.222 138.946 162.727 140.793 164.575C142.641 166.422 145.146 167.46 147.759 167.46C150.371 167.46 152.877 166.422 154.724 164.575C156.571 162.727 157.609 160.222 157.609 157.609C157.595 142.472 153.221 127.659 145.011 114.942C136.8 102.225 125.101 92.1412 111.312 85.897ZM78.8046 78.8046C72.9598 78.8046 67.2463 77.0714 62.3866 73.8243C57.5268 70.5771 53.7391 65.9617 51.5024 60.5619C49.2657 55.162 48.6805 49.2201 49.8207 43.4876C50.961 37.7552 53.7755 32.4895 57.9084 28.3567C62.0413 24.2238 67.3069 21.4092 73.0394 20.269C78.7718 19.1287 84.7137 19.7139 90.1136 21.9507C95.5135 24.1874 100.129 27.9751 103.376 32.8348C106.623 37.6946 108.356 43.4081 108.356 49.2529C108.356 57.0905 105.243 64.6071 99.7009 70.1491C94.1588 75.6912 86.6422 78.8046 78.8046 78.8046Z" fill="black"/>
</svg>
