<svg width="48" height="48" viewBox="0 0 48 48" fill="none" xmlns="http://www.w3.org/2000/svg">
<path d="M36 2H20C18.4087 2 16.8826 2.63214 15.7574 3.75736C14.6321 4.88258 14 6.4087 14 8H12C10.4087 8 8.88258 8.63214 7.75736 9.75736C6.63214 10.8826 6 12.4087 6 14V20C6 21.5913 6.63214 23.1174 7.75736 24.2426C8.88258 25.3679 10.4087 26 12 26H24C24.5304 26 25.0391 26.2107 25.4142 26.5858C25.7893 26.9609 26 27.4696 26 28V30C24.9391 30 23.9217 30.4214 23.1716 31.1716C22.4214 31.9217 22 32.9391 22 34V42C22 43.0609 22.4214 44.0783 23.1716 44.8284C23.9217 45.5786 24.9391 46 26 46H30C31.0609 46 32.0783 45.5786 32.8284 44.8284C33.5786 44.0783 34 43.0609 34 42V34C34 32.9391 33.5786 31.9217 32.8284 31.1716C32.0783 30.4214 31.0609 30 30 30V28C30 26.4087 29.3679 24.8826 28.2426 23.7574C27.1174 22.6321 25.5913 22 24 22H12C11.4696 22 10.9609 21.7893 10.5858 21.4142C10.2107 21.0391 10 20.5304 10 20V14C10 13.4696 10.2107 12.9609 10.5858 12.5858C10.9609 12.2107 11.4696 12 12 12H14C14 13.5913 14.6321 15.1174 15.7574 16.2426C16.8826 17.3679 18.4087 18 20 18H36C37.5913 18 39.1174 17.3679 40.2426 16.2426C41.3679 15.1174 42 13.5913 42 12V8C42 6.4087 41.3679 4.88258 40.2426 3.75736C39.1174 2.63214 37.5913 2 36 2ZM30 34V42H26V34H30ZM38 12C38 12.5304 37.7893 13.0391 37.4142 13.4142C37.0391 13.7893 36.5304 14 36 14H20C19.4696 14 18.9609 13.7893 18.5858 13.4142C18.2107 13.0391 18 12.5304 18 12V8C18 7.46957 18.2107 6.96086 18.5858 6.58579C18.9609 6.21071 19.4696 6 20 6H36C36.5304 6 37.0391 6.21071 37.4142 6.58579C37.7893 6.96086 38 7.46957 38 8V12Z" fill="#101117"/>
</svg>
