<?xml version="1.0" encoding="UTF-8" standalone="no"?><!DOCTYPE svg PUBLIC "-//W3C//DTD SVG 1.1//EN" "http://www.w3.org/Graphics/SVG/1.1/DTD/svg11.dtd"><svg width="100%" height="100%" viewBox="0 0 200 200" version="1.1" xmlns="http://www.w3.org/2000/svg" xmlns:xlink="http://www.w3.org/1999/xlink" xml:space="preserve" xmlns:serif="http://www.serif.com/" style="fill-rule:evenodd;clip-rule:evenodd;stroke-linejoin:round;stroke-miterlimit:2;"><rect id="Artboard1" x="0" y="0" width="200" height="200" style="fill:none;"/><g id="Artboard11" serif:id="Artboard1"><path d="M145.455,16.667l-60.607,-0c-6.027,-0 -11.808,2.394 -16.07,6.656c-4.262,4.263 -6.657,10.043 -6.657,16.071l-7.576,-0c-6.027,-0 -11.808,2.394 -16.07,6.657c-4.262,4.262 -6.657,10.043 -6.657,16.07l0,22.727c0,6.028 2.395,11.809 6.657,16.071c4.262,4.262 10.043,6.657 16.07,6.657l45.455,-0c2.009,-0 3.936,0.798 5.357,2.219c1.421,1.421 2.219,3.347 2.219,5.357l-0,7.575c-4.019,0 -7.873,1.596 -10.714,4.438c-2.842,2.841 -4.438,6.695 -4.438,10.714l0,30.303c0,4.018 1.596,7.872 4.438,10.713c2.841,2.842 6.695,4.438 10.714,4.438l15.151,0c4.019,0 7.873,-1.596 10.714,-4.438c2.842,-2.841 4.438,-6.695 4.438,-10.713l-0,-30.303c-0,-4.019 -1.596,-7.873 -4.438,-10.714c-2.841,-2.842 -6.695,-4.438 -10.714,-4.438l0,-7.575c0,-6.028 -2.394,-11.809 -6.657,-16.071c-4.262,-4.262 -10.042,-6.657 -16.07,-6.657l-45.455,0c-2.009,0 -3.936,-0.798 -5.356,-2.219c-1.421,-1.421 -2.219,-3.347 -2.219,-5.357l-0,-22.727c-0,-2.009 0.798,-3.936 2.219,-5.357c1.42,-1.42 3.347,-2.219 5.356,-2.219l7.576,0c0,6.028 2.395,11.809 6.657,16.071c4.262,4.262 10.043,6.657 16.07,6.657l60.607,-0c6.027,-0 11.808,-2.395 16.07,-6.657c4.262,-4.262 6.657,-10.043 6.657,-16.071l-0,-15.151c-0,-6.028 -2.395,-11.808 -6.657,-16.071c-4.262,-4.262 -10.043,-6.656 -16.07,-6.656Zm-22.728,121.212l0,30.303l-15.151,-0l-0,-30.303l15.151,-0Zm30.303,-83.334c0,2.01 -0.798,3.936 -2.219,5.357c-1.42,1.421 -3.347,2.219 -5.356,2.219l-60.607,0c-2.009,0 -3.936,-0.798 -5.356,-2.219c-1.421,-1.421 -2.219,-3.347 -2.219,-5.357l-0,-15.151c-0,-2.009 0.798,-3.936 2.219,-5.357c1.42,-1.421 3.347,-2.219 5.356,-2.219l60.607,0c2.009,0 3.936,0.798 5.356,2.219c1.421,1.421 2.219,3.348 2.219,5.357l0,15.151Z" style="fill:#101117;fill-rule:nonzero;"/></g></svg>