<?xml version="1.0" encoding="UTF-8" standalone="no"?><!DOCTYPE svg PUBLIC "-//W3C//DTD SVG 1.1//EN" "http://www.w3.org/Graphics/SVG/1.1/DTD/svg11.dtd"><svg width="100%" height="100%" viewBox="0 0 200 200" version="1.1" xmlns="http://www.w3.org/2000/svg" xmlns:xlink="http://www.w3.org/1999/xlink" xml:space="preserve" xmlns:serif="http://www.serif.com/" style="fill-rule:evenodd;clip-rule:evenodd;stroke-linejoin:round;stroke-miterlimit:2;"><rect id="Artboard1" x="0" y="0" width="200" height="200" style="fill:none;"/><g id="Artboard11" serif:id="Artboard1"><path d="M177.354,62.895l0,-0.152c1.841,3.616 2.937,7.564 3.224,11.612c0.286,4.047 -0.243,8.11 -1.557,11.949c-1.299,3.757 -3.354,7.207 -6.038,10.139c-2.684,2.932 -5.94,5.282 -9.568,6.906c-6.728,2.937 -12.459,7.765 -16.494,13.898c-4.034,6.133 -6.2,13.307 -6.233,20.648c0.027,2.543 0.28,5.078 0.757,7.576c0.873,4.133 0.914,8.398 0.12,12.548c-0.793,4.149 -2.405,8.099 -4.741,11.618c-2.168,3.238 -4.959,6.011 -8.211,8.157c-3.252,2.146 -6.899,3.623 -10.728,4.343c-15.227,2.798 -30.933,1.299 -45.355,-4.33c-14.423,-5.628 -26.993,-15.163 -36.299,-27.535c-9.307,-12.373 -14.984,-27.093 -16.393,-42.511c-1.409,-15.417 1.504,-30.923 8.414,-44.777c6.909,-13.854 17.542,-25.51 30.705,-33.66c13.163,-8.15 28.337,-12.472 43.819,-12.481c15.481,-0.01 30.66,4.294 43.833,12.428c13.173,8.135 23.819,19.778 30.745,33.624Zm-12.878,18.485l-0,-0.152c1.3,-3.778 1.054,-7.917 -0.682,-11.515c-5.643,-11.372 -14.348,-20.944 -25.136,-27.636c-10.788,-6.692 -23.23,-10.24 -35.925,-10.243l-3.864,0c-17.001,1.063 -32.998,8.417 -44.873,20.629c-11.877,12.212 -18.781,28.408 -19.369,45.432c-0.284,9.13 1.269,18.225 4.568,26.744c3.299,8.518 8.276,16.287 14.636,22.845c6.36,6.558 13.973,11.77 22.386,15.329c8.414,3.558 17.457,5.389 26.592,5.385c4.117,0.004 8.226,-0.376 12.273,-1.137c1.866,-0.314 3.645,-1.016 5.224,-2.059c1.579,-1.044 2.922,-2.407 3.942,-4.001c1.206,-1.821 2.035,-3.866 2.439,-6.013c0.403,-2.146 0.372,-4.352 -0.09,-6.487c-0.695,-3.493 -1.049,-7.045 -1.061,-10.606c0.028,-10.209 3.002,-20.194 8.566,-28.754c5.563,-8.56 13.48,-15.333 22.798,-19.504c1.751,-0.8 3.323,-1.943 4.624,-3.361c1.302,-1.418 2.305,-3.083 2.952,-4.896Zm-94.515,-21.508c4.861,0 8.808,3.947 8.808,8.808c-0,4.861 -3.947,8.807 -8.808,8.807c-4.861,0 -8.807,-3.946 -8.807,-8.807c-0,-4.861 3.946,-8.808 8.807,-8.808Zm32.756,31.496c4.861,0 8.808,3.947 8.808,8.808c-0,4.861 -3.947,8.808 -8.808,8.808c-4.861,-0 -8.808,-3.947 -8.808,-8.808c0,-4.861 3.947,-8.808 8.808,-8.808Zm31.076,-31.496c4.861,0 8.808,3.947 8.808,8.808c-0,4.861 -3.947,8.807 -8.808,8.807c-4.861,0 -8.807,-3.946 -8.807,-8.807c-0,-4.861 3.946,-8.808 8.807,-8.808Zm-63.832,62.992c4.861,0 8.808,3.947 8.808,8.808c-0,4.861 -3.947,8.808 -8.808,8.808c-4.861,-0 -8.807,-3.947 -8.807,-8.808c-0,-4.861 3.946,-8.808 8.807,-8.808Zm32.756,14.069c4.861,-0 8.808,3.946 8.808,8.807c-0,4.861 -3.947,8.808 -8.808,8.808c-4.861,-0 -8.808,-3.947 -8.808,-8.808c0,-4.861 3.947,-8.807 8.808,-8.807Zm0,-92.389c4.861,0 8.808,3.947 8.808,8.808c-0,4.861 -3.947,8.807 -8.808,8.807c-4.861,0 -8.808,-3.946 -8.808,-8.807c0,-4.861 3.947,-8.808 8.808,-8.808Zm-45.354,46.824c4.861,0 8.807,3.947 8.807,8.808c0,4.861 -3.946,8.808 -8.807,8.808c-4.861,-0 -8.808,-3.947 -8.808,-8.808c0,-4.861 3.947,-8.808 8.808,-8.808Z"/></g></svg>