<svg width="48" height="48" viewBox="0 0 48 48" fill="none" xmlns="http://www.w3.org/2000/svg">
<path d="M14.8398 31.08C14.4673 31.4548 14.2582 31.9617 14.2582 32.49C14.2582 33.0184 14.4673 33.5253 14.8398 33.9C15.0257 34.0875 15.2469 34.2363 15.4906 34.3378C15.7344 34.4394 15.9958 34.4916 16.2598 34.4916C16.5238 34.4916 16.7852 34.4394 17.029 34.3378C17.2727 34.2363 17.4939 34.0875 17.6798 33.9C18.0523 33.5253 18.2614 33.0184 18.2614 32.49C18.2614 31.9617 18.0523 31.4548 17.6798 31.08C17.4939 30.8926 17.2727 30.7438 17.029 30.6423C16.7852 30.5407 16.5238 30.4884 16.2598 30.4884C15.9958 30.4884 15.7344 30.5407 15.4906 30.6423C15.2469 30.7438 15.0257 30.8926 14.8398 31.08ZM14.8398 14.1C14.4673 14.4748 14.2582 14.9817 14.2582 15.51C14.2582 16.0384 14.4673 16.5453 14.8398 16.92C15.0257 17.1075 15.2469 17.2563 15.4906 17.3578C15.7344 17.4594 15.9958 17.5116 16.2598 17.5116C16.5238 17.5116 16.7852 17.4594 17.029 17.3578C17.2727 17.2563 17.4939 17.1075 17.6798 16.92C18.0523 16.5453 18.2614 16.0384 18.2614 15.51C18.2614 14.9817 18.0523 14.4748 17.6798 14.1C17.4939 13.9126 17.2727 13.7638 17.029 13.6623C16.7852 13.5607 16.5238 13.5084 16.2598 13.5084C15.9958 13.5084 15.7344 13.5607 15.4906 13.6623C15.2469 13.7638 15.0257 13.9126 14.8398 14.1ZM24.7398 34.1C24.3442 34.1 23.9576 34.2173 23.6287 34.4371C23.2998 34.6569 23.0434 34.9692 22.892 35.3347C22.7407 35.7001 22.7011 36.1023 22.7782 36.4902C22.8554 36.8782 23.0459 37.2345 23.3256 37.5142C23.6053 37.794 23.9617 37.9844 24.3496 38.0616C24.7376 38.1388 25.1397 38.0992 25.5052 37.9478C25.8706 37.7964 26.183 37.5401 26.4027 37.2112C26.6225 36.8823 26.7398 36.4956 26.7398 36.1C26.7534 35.8291 26.7117 35.5582 26.6172 35.3039C26.5228 35.0496 26.3777 34.8172 26.1906 34.6207C26.0035 34.4243 25.7784 34.268 25.529 34.1613C25.2796 34.0545 25.0111 33.9997 24.7398 34V34.1ZM12.7398 22.1C12.3442 22.1 11.9576 22.2173 11.6287 22.4371C11.2998 22.6569 11.0434 22.9692 10.892 23.3347C10.7407 23.7001 10.7011 24.1023 10.7782 24.4902C10.8554 24.8782 11.0459 25.2345 11.3256 25.5142C11.6053 25.794 11.9617 25.9844 12.3496 26.0616C12.7376 26.1388 13.1397 26.0992 13.5052 25.9478C13.8706 25.7964 14.183 25.5401 14.4027 25.2112C14.6225 24.8823 14.7398 24.4956 14.7398 24.1C14.7534 23.8291 14.7117 23.5582 14.6172 23.3039C14.5228 23.0496 14.3777 22.8172 14.1906 22.6207C14.0035 22.4243 13.7784 22.268 13.529 22.1612C13.2796 22.0545 13.0111 21.9997 12.7398 22V22.1ZM24.7398 10.1C24.3442 10.1 23.9576 10.2173 23.6287 10.4371C23.2998 10.6569 23.0434 10.9692 22.892 11.3347C22.7407 11.7001 22.7011 12.1023 22.7782 12.4902C22.8554 12.8782 23.0459 13.2345 23.3256 13.5142C23.6053 13.794 23.9617 13.9844 24.3496 14.0616C24.7376 14.1388 25.1397 14.0992 25.5052 13.9478C25.8706 13.7964 26.183 13.5401 26.4027 13.2112C26.6225 12.8823 26.7398 12.4956 26.7398 12.1C26.7534 11.8291 26.7117 11.5582 26.6172 11.3039C26.5228 11.0496 26.3777 10.8172 26.1906 10.6207C26.0035 10.4243 25.7784 10.268 25.529 10.1612C25.2796 10.0545 25.0111 9.99969 24.7398 10V10.1ZM31.8198 14.2C31.5389 14.4793 31.3472 14.8356 31.2691 15.2239C31.191 15.6122 31.2299 16.0149 31.3809 16.3811C31.5319 16.7472 31.7883 17.0603 32.1174 17.2806C32.4466 17.5008 32.8337 17.6184 33.2298 17.6184C33.6259 17.6184 34.013 17.5008 34.3422 17.2806C34.6713 17.0603 34.9277 16.7472 35.0787 16.3811C35.2297 16.0149 35.2686 15.6122 35.1905 15.2239C35.1124 14.8356 34.9207 14.4793 34.6398 14.2C34.2785 13.8139 33.7789 13.5867 33.2504 13.5679C32.722 13.5492 32.2076 13.7405 31.8198 14.1V14.2ZM44.4198 14.2C42.5913 10.5446 39.7806 7.47087 36.303 5.32343C32.8253 3.176 28.8182 2.0398 24.731 2.04224C20.6438 2.04468 16.638 3.18567 13.163 5.33726C9.68789 7.48885 6.8809 10.566 5.05676 14.2236C3.23261 17.8811 2.46344 21.9746 2.83549 26.0448C3.20754 30.1151 4.7061 34.0012 7.16313 37.2675C9.62016 40.5338 12.9385 43.051 16.7461 44.5369C20.5536 46.0228 24.6999 46.4186 28.7198 45.68C29.7307 45.4898 30.6935 45.1 31.552 44.5334C32.4105 43.9668 33.1475 43.2347 33.7198 42.38C34.3365 41.4508 34.762 40.4081 34.9714 39.3127C35.1809 38.2173 35.1701 37.0912 34.9398 36C34.8139 35.3406 34.7469 34.6713 34.7398 34C34.7486 32.062 35.3203 30.1682 36.3855 28.5491C37.4507 26.9299 38.9635 25.6553 40.7398 24.88C41.6975 24.4512 42.5572 23.8307 43.2658 23.0567C43.9744 22.2828 44.5169 21.3718 44.8598 20.38C45.2066 19.3666 45.3463 18.2939 45.2708 17.2254C45.1952 16.1569 44.9058 15.1146 44.4198 14.16V14.2ZM41.0198 19.08C40.8491 19.5587 40.5842 19.9982 40.2407 20.3727C39.8971 20.7471 39.482 21.0488 39.0198 21.26C36.5598 22.3612 34.4699 24.1491 33.0011 26.409C31.5324 28.6689 30.7471 31.3048 30.7398 34C30.7428 34.9402 30.8365 35.8779 31.0198 36.8C31.1419 37.3636 31.15 37.946 31.0435 38.5127C30.937 39.0795 30.7182 39.6192 30.3998 40.1C30.1304 40.5208 29.7759 40.8806 29.3591 41.1562C28.9423 41.4317 28.4725 41.617 27.9798 41.7C26.9115 41.9008 25.8268 42.0012 24.7398 42C22.3281 42.0012 19.9408 41.5177 17.7196 40.5783C15.4985 39.6389 13.4887 38.2628 11.8097 36.5315C10.1307 34.8003 8.81676 32.7493 7.94583 30.5004C7.0749 28.2515 6.66477 25.8505 6.7398 23.44C6.89502 18.9456 8.71781 14.6699 11.8531 11.446C14.9883 8.22197 19.2115 6.2806 23.6998 6.00003H24.7198C28.0713 6.00087 31.356 6.93741 34.204 8.70416C37.052 10.4709 39.3502 12.9977 40.8398 16C41.2983 16.95 41.363 18.0426 41.0198 19.04V19.08ZM24.7398 22C24.3442 22 23.9576 22.1173 23.6287 22.3371C23.2998 22.5569 23.0434 22.8692 22.892 23.2347C22.7407 23.6001 22.7011 24.0023 22.7782 24.3902C22.8554 24.7782 23.0459 25.1345 23.3256 25.4142C23.6053 25.694 23.9617 25.8844 24.3496 25.9616C24.7376 26.0388 25.1397 25.9992 25.5052 25.8478C25.8706 25.6964 26.183 25.4401 26.4027 25.1112C26.6225 24.7823 26.7398 24.3956 26.7398 24C26.7398 23.4696 26.5291 22.9609 26.154 22.5858C25.7789 22.2107 25.2702 22 24.7398 22Z" fill="#101117"/>
</svg>
