<?xml version="1.0" encoding="UTF-8" standalone="no"?><!DOCTYPE svg PUBLIC "-//W3C//DTD SVG 1.1//EN" "http://www.w3.org/Graphics/SVG/1.1/DTD/svg11.dtd"><svg width="100%" height="100%" viewBox="0 0 200 200" version="1.1" xmlns="http://www.w3.org/2000/svg" xmlns:xlink="http://www.w3.org/1999/xlink" xml:space="preserve" xmlns:serif="http://www.serif.com/" style="fill-rule:evenodd;clip-rule:evenodd;stroke-linejoin:round;stroke-miterlimit:2;"><rect id="Artboard1" x="0" y="0" width="200" height="200" style="fill:none;"/><g id="Artboard11" serif:id="Artboard1"><path d="M108.333,58.333l-25,0c-2.21,0 -4.329,0.878 -5.892,2.441c-1.563,1.563 -2.441,3.683 -2.441,5.893l0,66.666c0,2.21 0.878,4.33 2.441,5.893c1.563,1.563 3.682,2.441 5.892,2.441c2.21,-0 4.33,-0.878 5.893,-2.441c1.563,-1.563 2.441,-3.683 2.441,-5.893l-0,-16.666l16.666,-0c6.631,-0 12.99,-2.634 17.678,-7.323c4.689,-4.688 7.322,-11.047 7.322,-17.677l0,-8.334c0,-6.63 -2.633,-12.989 -7.322,-17.677c-4.688,-4.689 -11.047,-7.323 -17.678,-7.323Zm8.334,33.334c-0,2.21 -0.878,4.329 -2.441,5.892c-1.563,1.563 -3.683,2.441 -5.893,2.441l-16.666,0l-0,-25l16.666,0c2.21,0 4.33,0.878 5.893,2.441c1.563,1.563 2.441,3.682 2.441,5.892l-0,8.334Zm-16.667,-75c-16.482,-0 -32.593,4.887 -46.297,14.044c-13.705,9.157 -24.386,22.172 -30.693,37.399c-6.307,15.227 -7.957,31.983 -4.742,48.148c3.215,16.165 11.152,31.013 22.806,42.667c11.655,11.655 26.504,19.592 42.669,22.807c16.165,3.216 32.92,1.565 48.147,-4.742c15.228,-6.307 28.243,-16.988 37.399,-30.692c9.157,-13.705 14.044,-29.816 14.044,-46.298c0,-10.943 -2.155,-21.78 -6.343,-31.89c-4.188,-10.111 -10.326,-19.297 -18.065,-27.036c-7.737,-7.738 -16.924,-13.876 -27.035,-18.064c-10.11,-4.188 -20.947,-6.343 -31.89,-6.343Zm0,150c-13.185,-0 -26.075,-3.91 -37.038,-11.236c-10.963,-7.325 -19.508,-17.737 -24.554,-29.919c-5.046,-12.182 -6.366,-25.586 -3.794,-38.518c2.573,-12.932 8.922,-24.811 18.246,-34.134c9.323,-9.324 21.202,-15.673 34.134,-18.246c12.932,-2.572 26.336,-1.252 38.518,3.794c12.182,5.046 22.594,13.591 29.919,24.554c7.326,10.963 11.236,23.853 11.236,37.038c-0,17.681 -7.024,34.638 -19.527,47.14c-12.502,12.503 -29.459,19.527 -47.14,19.527Z" style="fill:#101117;fill-rule:nonzero;"/></g></svg>