<svg width="48" height="48" viewBox="0 0 48 48" fill="none" xmlns="http://www.w3.org/2000/svg">
<path d="M26 14H20C19.4696 14 18.9609 14.2107 18.5858 14.5858C18.2107 14.9609 18 15.4696 18 16V32C18 32.5304 18.2107 33.0391 18.5858 33.4142C18.9609 33.7893 19.4696 34 20 34C20.5304 34 21.0392 33.7893 21.4142 33.4142C21.7893 33.0391 22 32.5304 22 32V28H26C27.5913 28 29.1174 27.3679 30.2427 26.2426C31.3679 25.1174 32 23.5913 32 22V20C32 18.4087 31.3679 16.8826 30.2427 15.7574C29.1174 14.6321 27.5913 14 26 14ZM28 22C28 22.5304 27.7893 23.0391 27.4142 23.4142C27.0392 23.7893 26.5304 24 26 24H22V18H26C26.5304 18 27.0392 18.2107 27.4142 18.5858C27.7893 18.9609 28 19.4696 28 20V22ZM24 4C20.0444 4 16.1776 5.17298 12.8886 7.37061C9.59962 9.56824 7.03617 12.6918 5.52242 16.3463C4.00867 20.0009 3.6126 24.0222 4.3843 27.9018C5.15601 31.7814 7.06082 35.3451 9.85787 38.1421C12.6549 40.9392 16.2186 42.844 20.0982 43.6157C23.9778 44.3874 27.9992 43.9913 31.6537 42.4776C35.3082 40.9638 38.4318 38.4004 40.6294 35.1114C42.827 31.8224 44 27.9556 44 24C44 21.3736 43.4827 18.7728 42.4776 16.3463C41.4725 13.9198 39.9993 11.715 38.1421 9.85786C36.285 8.00069 34.0802 6.5275 31.6537 5.52241C29.2272 4.51732 26.6264 4 24 4ZM24 40C20.8355 40 17.7421 39.0616 15.1109 37.3035C12.4797 35.5454 10.4289 33.0466 9.21794 30.1229C8.00694 27.1993 7.69008 23.9823 8.30745 20.8786C8.92481 17.7749 10.4487 14.9239 12.6863 12.6863C14.9239 10.4487 17.7749 8.9248 20.8786 8.30744C23.9823 7.69007 27.1993 8.00693 30.1229 9.21793C33.0466 10.4289 35.5454 12.4797 37.3035 15.1109C39.0616 17.7421 40 20.8355 40 24C40 28.2435 38.3143 32.3131 35.3137 35.3137C32.3131 38.3143 28.2435 40 24 40Z" fill="#101117"/>
</svg>
