<?xml version="1.0" encoding="UTF-8" standalone="no"?><!DOCTYPE svg PUBLIC "-//W3C//DTD SVG 1.1//EN" "http://www.w3.org/Graphics/SVG/1.1/DTD/svg11.dtd"><svg width="100%" height="100%" viewBox="0 0 200 200" version="1.1" xmlns="http://www.w3.org/2000/svg" xmlns:xlink="http://www.w3.org/1999/xlink" xml:space="preserve" xmlns:serif="http://www.serif.com/" style="fill-rule:evenodd;clip-rule:evenodd;stroke-linejoin:round;stroke-miterlimit:2;"><rect id="Artboard1" x="0" y="0" width="200" height="200" style="fill:none;"/><g id="Artboard11" serif:id="Artboard1"><path d="M124.994,101.119c0,0 26.633,25.214 26.612,25.195c17.82,16.138 5.405,47.22 -18.61,46.67c-0.089,-0.002 -0.178,-0.007 -0.266,-0.014c-11.112,-0.971 -20.298,-6.02 -32.677,-5.804c-0.049,0.001 -0.098,0.001 -0.148,-0c-5.618,-0.102 -10.532,1.222 -15.348,2.563c-5.497,1.531 -10.883,3.086 -16.772,3.251c-24.419,1.225 -37.476,-30.183 -19.427,-46.644l26.663,-25.217c13.934,-13.195 36.04,-13.195 49.973,0Zm20.339,49.724c2.022,-4.964 0.776,-10.692 -3.126,-14.367l-0.007,-0.007l-26.661,-25.24c-8.667,-8.188 -22.396,-8.188 -31.063,-0l-0.005,0.005l-26.663,25.106l-0.019,0.018c-2.683,2.494 -4.209,5.997 -4.209,9.66c0,7.237 5.955,13.192 13.192,13.192c0.015,-0 0.029,-0 0.081,-0.002c5.269,-0.179 10.039,-1.54 14.988,-2.843c5.588,-1.471 11.376,-2.888 18.113,-2.975c12.887,-0.166 22.3,4.211 32.944,5.801c5.445,0.107 10.424,-3.209 12.414,-8.295c0.007,-0.018 0.014,-0.036 0.021,-0.053Zm23.653,-87.863c4.563,1.01 8.327,3.985 10.878,8.382c3.331,5.743 4.559,14.089 2.579,22.97c-0.003,0.014 -0.006,0.028 -0.009,0.042c-4.223,18.06 -16.121,24.488 -25.262,22.573c-9.144,-1.915 -17.397,-12.543 -13.649,-31.169l0.005,-0.025c1.43,-6.882 5.365,-14.391 10.815,-18.82c4.134,-3.36 9.097,-5.043 14.545,-3.974c0.033,0.007 0.066,0.013 0.098,0.021Zm0.001,28.424l0.004,-0.023c0.871,-5.374 0.643,-9.405 -0.457,-12.149c-0.613,-1.528 -1.425,-2.561 -2.585,-2.682c-1.411,-0.149 -2.859,0.785 -4.246,2.255c-2.028,2.148 -3.715,5.473 -4.718,9.898c-0.909,4.898 -0.731,8.792 0.288,11.576c0.632,1.724 1.495,2.962 2.75,3.238c1.256,0.276 2.56,-0.486 3.857,-1.784c2.087,-2.091 3.879,-5.532 5.107,-10.329Zm-45.13,-3.491c-5.238,0 -10.129,-2.298 -14.065,-6.336c-5.315,-5.453 -8.886,-14.208 -8.886,-24.101c-0,-0.04 0,-0.08 0.001,-0.121c0.595,-20.523 12.182,-30.18 22.954,-30.18c10.771,0 22.363,9.656 22.974,30.177c0.001,0.041 0.002,0.083 0.002,0.124c-0,9.894 -3.572,18.649 -8.895,24.103c-3.938,4.036 -8.835,6.334 -14.085,6.334Zm0.005,-47.083l-0.019,0.002c-2.809,0.308 -4.841,2.21 -6.274,4.727c-1.876,3.293 -2.759,7.612 -2.761,11.918c-0.001,4.305 0.879,8.624 2.754,11.917c1.435,2.52 3.472,4.423 6.31,4.726c2.816,-0.308 4.851,-2.21 6.286,-4.728c1.876,-3.293 2.759,-7.611 2.759,-11.916c-0,-4.305 -0.883,-8.623 -2.759,-11.916c-1.437,-2.522 -3.476,-4.425 -6.296,-4.73Zm-67.375,44.923c2.021,9.605 0.553,18.579 -3.434,24.334c-3.06,4.416 -7.54,7.14 -13.228,7.329c-0.054,0.002 -0.108,0.002 -0.162,0.002c-4.858,-0.028 -9.201,-2.087 -12.785,-5.545c-4.749,-4.582 -8.144,-11.741 -9.502,-19.184c-2.408,-13.2 1.855,-26.728 13.533,-29.681c0.073,-0.018 0.145,-0.034 0.218,-0.049c5.447,-1.069 10.414,0.614 14.551,3.972c5.457,4.43 9.396,11.938 10.809,18.822Zm-16.324,17.819l0.021,-0.004c0.97,-0.286 1.587,-1.284 2.133,-2.45c1.465,-3.127 1.768,-7.706 0.723,-12.384c-0.728,-2.95 -1.999,-6.404 -3.959,-9.03c-1.326,-1.778 -2.965,-3.231 -5.172,-3.197c-1.635,0.665 -2.458,2.365 -2.957,4.321c-0.785,3.078 -0.625,6.861 0.181,10.49c0.806,3.63 2.265,7.128 4.282,9.589c1.339,1.634 2.879,2.865 4.748,2.665Zm35.995,-15.659c-5.249,0 -10.146,-2.298 -14.085,-6.334c-5.322,-5.454 -8.894,-14.209 -8.894,-24.103c-0,-0.041 0,-0.083 0.002,-0.124c0.611,-20.521 12.202,-30.177 22.974,-30.177c10.772,0 22.358,9.657 22.953,30.18c0.001,0.041 0.002,0.081 0.002,0.121c-0,9.893 -3.571,18.648 -8.887,24.101c-3.935,4.038 -8.827,6.336 -14.065,6.336Zm0.004,-47.083l-0.019,0.002c-2.815,0.308 -4.851,2.209 -6.286,4.728c-1.876,3.293 -2.758,7.611 -2.758,11.916c-0,4.305 0.882,8.623 2.758,11.916c1.437,2.522 3.476,4.425 6.316,4.728c2.809,-0.308 4.84,-2.21 6.274,-4.727c1.875,-3.294 2.759,-7.613 2.76,-11.919c0.002,-4.305 -0.879,-8.623 -2.753,-11.916c-1.435,-2.521 -3.472,-4.423 -6.292,-4.728Z"/></g></svg>