<?xml version="1.0" encoding="UTF-8" standalone="no"?><!DOCTYPE svg PUBLIC "-//W3C//DTD SVG 1.1//EN" "http://www.w3.org/Graphics/SVG/1.1/DTD/svg11.dtd"><svg width="100%" height="100%" viewBox="0 0 200 200" version="1.1" xmlns="http://www.w3.org/2000/svg" xmlns:xlink="http://www.w3.org/1999/xlink" xml:space="preserve" xmlns:serif="http://www.serif.com/" style="fill-rule:evenodd;clip-rule:evenodd;stroke-linejoin:round;stroke-miterlimit:2;"><rect id="Artboard1" x="0" y="0" width="200" height="200" style="fill:none;"/><g id="Artboard11" serif:id="Artboard1"><path d="M70.918,104c-1.649,-0 -3.26,0.488 -4.63,1.404c-1.371,0.916 -2.439,2.217 -3.07,3.74c-0.63,1.523 -0.795,3.198 -0.474,4.815c0.322,1.616 1.116,3.101 2.281,4.266c1.165,1.166 2.65,1.96 4.267,2.281c1.616,0.322 3.292,0.157 4.814,-0.474c1.523,-0.631 2.825,-1.699 3.74,-3.069c0.916,-1.371 1.405,-2.982 1.405,-4.63c-0,-2.21 -0.878,-4.33 -2.441,-5.893c-1.563,-1.562 -3.682,-2.44 -5.892,-2.44Zm-0,-37.334c-1.649,0 -3.26,0.489 -4.63,1.405c-1.371,0.915 -2.439,2.217 -3.07,3.739c-0.63,1.523 -0.795,3.199 -0.474,4.815c0.322,1.617 1.116,3.102 2.281,4.267c1.165,1.166 2.65,1.959 4.267,2.281c1.616,0.321 3.292,0.156 4.814,-0.474c1.523,-0.631 2.825,-1.699 3.74,-3.07c0.916,-1.37 1.405,-2.981 1.405,-4.629c-0,-2.21 -0.878,-4.33 -2.441,-5.893c-1.563,-1.563 -3.682,-2.441 -5.892,-2.441Zm29.083,16.667c-2.211,-0 -4.33,0.878 -5.893,2.441c-1.563,1.563 -2.44,3.682 -2.44,5.892l-0,8.334c-0,2.21 0.877,4.329 2.44,5.892c1.563,1.563 3.682,2.441 5.893,2.441c2.21,-0 4.329,-0.878 5.892,-2.441c1.563,-1.563 2.441,-3.682 2.441,-5.892l0,-8.334c0,-2.21 -0.878,-4.329 -2.441,-5.892c-1.563,-1.563 -3.682,-2.441 -5.892,-2.441Zm70.833,-11.917c-2.875,-1.654 -6.05,-2.719 -9.34,-3.134c-3.291,-0.415 -6.631,-0.171 -9.826,0.718c-3.326,0.89 -6.423,2.481 -9.084,4.666l-96.666,-55.916c-1.268,-0.732 -2.704,-1.117 -4.167,-1.117c-1.463,0 -2.9,0.385 -4.167,1.117c-1.287,0.723 -2.359,1.776 -3.106,3.05c-0.747,1.273 -1.141,2.723 -1.144,4.2l0,109.75c-4.918,1.658 -9.182,4.836 -12.177,9.075c-2.996,4.238 -4.568,9.318 -4.49,14.508c-0.002,6.517 2.54,12.776 7.086,17.446c4.545,4.67 10.734,7.38 17.248,7.554l4.833,-0c27.306,-0.064 54.109,-7.353 77.688,-21.125c23.578,-13.773 43.093,-33.539 56.562,-57.292c3.111,-5.683 3.894,-12.352 2.184,-18.601c-1.71,-6.25 -5.78,-11.591 -11.35,-14.899l-0.084,0Zm-120.833,-32l82.417,47.584c-9.144,13.643 -21.368,24.945 -35.684,32.994c-14.316,8.049 -30.325,12.618 -46.733,13.339l-0,-93.917Zm115.583,57.334c-12.371,21.797 -30.438,39.818 -52.267,52.135c-21.828,12.316 -46.596,18.463 -71.649,17.781c-2.211,0 -4.33,-0.878 -5.893,-2.441c-1.563,-1.562 -2.441,-3.682 -2.441,-5.892c-0.006,-1.117 0.212,-2.223 0.641,-3.254c0.429,-1.031 1.062,-1.964 1.859,-2.746c1.566,-1.509 3.659,-2.346 5.834,-2.333l4.25,-0c21.397,-0.009 42.409,-5.7 60.886,-16.49c18.478,-10.791 33.759,-26.295 44.28,-44.927c0.506,-0.914 1.197,-1.713 2.029,-2.344c0.833,-0.631 1.788,-1.082 2.805,-1.323c2.101,-0.576 4.344,-0.307 6.25,0.75c1.911,1.028 3.347,2.761 4.001,4.831c0.653,2.07 0.474,4.313 -0.501,6.253l-0.084,-0Z" style="fill:#101117;fill-rule:nonzero;"/></g></svg>