<svg width="48" height="48" viewBox="0 0 48 48" fill="none" xmlns="http://www.w3.org/2000/svg">
<path d="M17.0202 24.9599C16.6246 24.9599 16.2379 25.0772 15.909 25.297C15.5801 25.5167 15.3238 25.8291 15.1724 26.1945C15.021 26.56 14.9814 26.9621 15.0586 27.3501C15.1358 27.738 15.3263 28.0944 15.606 28.3741C15.8857 28.6538 16.242 28.8443 16.63 28.9215C17.018 28.9986 17.4201 28.959 17.7855 28.8077C18.151 28.6563 18.4634 28.3999 18.6831 28.071C18.9029 27.7421 19.0202 27.3555 19.0202 26.9599C19.0202 26.4295 18.8095 25.9208 18.4344 25.5457C18.0593 25.1706 17.5506 24.9599 17.0202 24.9599ZM17.0202 15.9999C16.6246 15.9999 16.2379 16.1172 15.909 16.337C15.5801 16.5567 15.3238 16.8691 15.1724 17.2345C15.021 17.6 14.9814 18.0021 15.0586 18.3901C15.1358 18.778 15.3263 19.1344 15.606 19.4141C15.8857 19.6938 16.242 19.8843 16.63 19.9615C17.018 20.0386 17.4201 19.999 17.7855 19.8477C18.151 19.6963 18.4634 19.4399 18.6831 19.111C18.9029 18.7821 19.0202 18.3955 19.0202 17.9999C19.0202 17.4695 18.8095 16.9608 18.4344 16.5857C18.0593 16.2106 17.5506 15.9999 17.0202 15.9999ZM24.0002 19.9999C23.4697 19.9999 22.961 20.2106 22.586 20.5857C22.2109 20.9608 22.0002 21.4695 22.0002 21.9999V23.9999C22.0002 24.5303 22.2109 25.039 22.586 25.4141C22.961 25.7892 23.4697 25.9999 24.0002 25.9999C24.5306 25.9999 25.0393 25.7892 25.4144 25.4141C25.7895 25.039 26.0002 24.5303 26.0002 23.9999V21.9999C26.0002 21.4695 25.7895 20.9608 25.4144 20.5857C25.0393 20.2106 24.5306 19.9999 24.0002 19.9999ZM41.0002 17.1399C40.3102 16.7429 39.5482 16.4872 38.7585 16.3876C37.9687 16.288 37.1671 16.3466 36.4002 16.5599C35.602 16.7737 34.8588 17.1555 34.2202 17.6799L11.0202 4.25989C10.7161 4.08436 10.3713 3.99194 10.0202 3.99194C9.6691 3.99194 9.32422 4.08436 9.02018 4.25989C8.71124 4.43354 8.454 4.68617 8.27478 4.9919C8.09555 5.29763 8.00079 5.6455 8.00018 5.99989V32.3399C6.81989 32.738 5.79652 33.5007 5.07762 34.5179C4.35873 35.5351 3.98145 36.7544 4.00018 37.9999C3.99962 39.5639 4.60975 41.0662 5.7006 42.187C6.79144 43.3077 8.27677 43.9582 9.84018 43.9999H11.0002C17.5537 43.9845 23.9864 42.2353 29.6452 38.9299C35.3041 35.6245 39.9876 30.8806 43.2202 25.1799C43.9668 23.8159 44.1547 22.2153 43.7443 20.7155C43.3339 19.2157 42.3572 17.9337 41.0202 17.1399H41.0002ZM12.0002 9.45989L31.7802 20.8799C29.5858 24.1543 26.6521 26.8669 23.2162 28.7985C19.7802 30.7302 15.9381 31.8268 12.0002 31.9999V9.45989ZM39.7402 23.2199C36.7711 28.4512 32.435 32.7764 27.1961 35.7323C21.9573 38.6882 16.0131 40.1634 10.0002 39.9999C9.46974 39.9999 8.96104 39.7892 8.58596 39.4141C8.21089 39.039 8.00018 38.5303 8.00018 37.9999C7.99861 37.7319 8.05092 37.4664 8.15399 37.219C8.25706 36.9716 8.40879 36.7475 8.60018 36.5599C8.97591 36.1977 9.47832 35.9968 10.0002 35.9999H11.0202C16.1556 35.9978 21.1984 34.6321 25.633 32.0423C30.0676 29.4525 33.735 25.7316 36.2602 21.2599C36.3816 21.0405 36.5475 20.8489 36.7472 20.6974C36.947 20.5458 37.1762 20.4377 37.4202 20.3799C37.9245 20.2415 38.4629 20.3061 38.9202 20.5599C39.379 20.8065 39.7236 21.2225 39.8805 21.7193C40.0373 22.2161 39.9942 22.7544 39.7602 23.2199H39.7402Z" fill="#101117"/>
</svg>
