<?xml version="1.0" encoding="UTF-8" standalone="no"?><!DOCTYPE svg PUBLIC "-//W3C//DTD SVG 1.1//EN" "http://www.w3.org/Graphics/SVG/1.1/DTD/svg11.dtd"><svg width="100%" height="100%" viewBox="0 0 200 200" version="1.1" xmlns="http://www.w3.org/2000/svg" xmlns:xlink="http://www.w3.org/1999/xlink" xml:space="preserve" xmlns:serif="http://www.serif.com/" style="fill-rule:evenodd;clip-rule:evenodd;stroke-linejoin:round;stroke-miterlimit:2;"><rect id="Artboard1" x="0" y="0" width="200" height="200" style="fill:none;"/><g id="Artboard11" serif:id="Artboard1"><path d="M173.764,99.988c-0.005,-1.397 -0.396,-2.765 -1.13,-3.954c-0.735,-1.189 -1.784,-2.15 -3.031,-2.779l-46.301,-23.15l-0,-30.262c-0,-6.18 -2.455,-12.107 -6.825,-16.477c-4.37,-4.37 -10.297,-6.825 -16.477,-6.825c-6.18,0 -12.107,2.455 -16.476,6.825c-4.37,4.37 -6.825,10.297 -6.825,16.477l-0,30.262l-46.301,23.15c-1.247,0.629 -2.297,1.59 -3.031,2.779c-0.735,1.189 -1.126,2.557 -1.13,3.954l0,25.193c-0.01,1.233 0.281,2.449 0.848,3.543c0.567,1.095 1.393,2.034 2.405,2.736c1.007,0.69 2.166,1.126 3.378,1.271c1.212,0.145 2.441,-0.005 3.583,-0.438l40.248,-15.131l-0,28.219l-13.769,4.539c-1.503,0.508 -2.808,1.475 -3.731,2.764c-0.924,1.29 -1.418,2.837 -1.414,4.423l0,18.536c0.004,1.001 0.207,1.991 0.597,2.913c0.389,0.922 0.958,1.757 1.673,2.458c1.409,1.398 3.311,2.186 5.296,2.194l69.375,0c2.006,0 3.93,-0.797 5.349,-2.216c1.419,-1.418 2.216,-3.343 2.216,-5.349l0,-18.914c0.004,-1.586 -0.49,-3.133 -1.413,-4.423c-0.924,-1.29 -2.229,-2.257 -3.731,-2.764l-13.845,-4.161l-0,-28.144l40.248,15.131c1.141,0.433 2.37,0.584 3.582,0.439c1.212,-0.145 2.371,-0.581 3.378,-1.271c1.013,-0.702 1.839,-1.642 2.406,-2.736c0.567,-1.094 0.858,-2.311 0.848,-3.543l-0,-25.269Zm-55.304,-0.756c-1.152,-0.446 -2.395,-0.604 -3.621,-0.459c-1.227,0.145 -2.399,0.588 -3.415,1.291c-1.002,0.695 -1.821,1.623 -2.388,2.702c-0.566,1.081 -0.863,2.282 -0.865,3.501l0,44.183c0.001,1.595 0.507,3.149 1.444,4.44c0.938,1.291 2.259,2.252 3.776,2.747l13.694,4.539l-0,5.901l-54.245,0l0,-5.901l13.694,-4.539c1.516,-0.495 2.838,-1.456 3.776,-2.747c0.937,-1.291 1.443,-2.845 1.444,-4.44l0,-44.183c-0.002,-1.219 -0.299,-2.42 -0.865,-3.501c-0.567,-1.079 -1.386,-2.007 -2.388,-2.702c-1.016,-0.703 -2.188,-1.146 -3.415,-1.291c-1.226,-0.145 -2.469,0.013 -3.621,0.459l-40.173,15.13l0,-9.683l46.225,-23.151c1.262,-0.618 2.327,-1.575 3.075,-2.764c0.748,-1.19 1.151,-2.564 1.162,-3.969l0,-34.725c0,-2.167 0.861,-4.245 2.393,-5.778c1.532,-1.532 3.611,-2.393 5.778,-2.393c2.167,0 4.245,0.861 5.777,2.393c1.532,1.533 2.393,3.611 2.393,5.778l0,34.725c0.011,1.405 0.414,2.779 1.162,3.969c0.748,1.189 1.813,2.146 3.075,2.764l46.225,23.151l-0,9.608l-40.097,-15.055Z" style="fill:#101117;fill-rule:nonzero;"/></g></svg>