<svg width="48" height="48" viewBox="0 0 48 48" fill="none" xmlns="http://www.w3.org/2000/svg">
<path d="M43.5001 23.9999C43.499 23.6306 43.3956 23.2688 43.2014 22.9546C43.0073 22.6404 42.7299 22.3861 42.4001 22.2199L30.1601 16.0999V8.09994C30.1601 6.46621 29.5111 4.89939 28.3558 3.74416C27.2006 2.58894 25.6338 1.93994 24.0001 1.93994C22.3663 1.93994 20.7995 2.58894 19.6443 3.74416C18.4891 4.89939 17.8401 6.46621 17.8401 8.09994V16.0999L5.60007 22.2199C5.27024 22.3861 4.99287 22.6404 4.79872 22.9546C4.60456 23.2688 4.50119 23.6306 4.50007 23.9999V30.6599C4.49735 30.9858 4.57428 31.3073 4.72417 31.5966C4.87405 31.8859 5.09235 32.1342 5.36007 32.3199C5.62627 32.5023 5.93265 32.6176 6.25305 32.6559C6.57346 32.6942 6.89837 32.6544 7.20007 32.5399L17.8401 28.5399V35.9999L14.2001 37.1999C13.8028 37.3341 13.4578 37.5897 13.2138 37.9307C12.9697 38.2716 12.839 38.6807 12.8401 39.0999V43.9999C12.8412 44.2646 12.8948 44.5263 12.9978 44.7701C13.1008 45.0138 13.2511 45.2347 13.4401 45.4199C13.8126 45.7894 14.3154 45.9977 14.8401 45.9999H33.1801C33.7105 45.9999 34.2192 45.7892 34.5943 45.4142C34.9694 45.0391 35.1801 44.5304 35.1801 43.9999V38.9999C35.1812 38.5807 35.0504 38.1716 34.8064 37.8307C34.5623 37.4897 34.2173 37.2341 33.8201 37.0999L30.1601 35.9999V28.5599L40.8001 32.5599C41.1018 32.6744 41.4267 32.7142 41.7471 32.6759C42.0675 32.6376 42.3739 32.5223 42.6401 32.3399C42.9078 32.1542 43.1261 31.9059 43.276 31.6166C43.4259 31.3273 43.5028 31.0058 43.5001 30.6799V23.9999ZM28.8801 23.7999C28.5756 23.682 28.2469 23.6404 27.9227 23.6788C27.5985 23.7171 27.2886 23.8342 27.0201 24.0199C26.7551 24.2037 26.5386 24.4489 26.3888 24.7344C26.2391 25.02 26.1606 25.3375 26.1601 25.6599V37.3399C26.1604 37.7617 26.294 38.1726 26.5419 38.5138C26.7897 38.855 27.1391 39.1092 27.5401 39.2399L31.1601 40.4399V41.9999H16.8201V40.4399L20.4401 39.2399C20.841 39.1092 21.1904 38.855 21.4383 38.5138C21.6861 38.1726 21.8198 37.7617 21.8201 37.3399V25.6599C21.8195 25.3375 21.7411 25.02 21.5913 24.7344C21.4416 24.4489 21.225 24.2037 20.9601 24.0199C20.6915 23.8342 20.3816 23.7171 20.0574 23.6788C19.7332 23.6404 19.4045 23.682 19.1001 23.7999L8.48007 27.7999V25.2399L20.7001 19.1199C21.0336 18.9565 21.3151 18.7034 21.5129 18.389C21.7107 18.0746 21.8171 17.7114 21.8201 17.3399V8.15994C21.8201 7.58707 22.0476 7.03767 22.4527 6.63259C22.8578 6.22751 23.4072 5.99994 23.9801 5.99994C24.5529 5.99994 25.1023 6.22751 25.5074 6.63259C25.9125 7.03767 26.1401 7.58707 26.1401 8.15994V17.3399C26.143 17.7114 26.2494 18.0746 26.4472 18.389C26.645 18.7034 26.9265 18.9565 27.2601 19.1199L39.4801 25.2399V27.7799L28.8801 23.7999Z" fill="#101117"/>
</svg>
