<svg width="48" height="48" viewBox="0 0 48 48" fill="none" xmlns="http://www.w3.org/2000/svg">
<path d="M41.08 12.58L38 9.5L35.18 6.68C34.9935 6.49352 34.7721 6.3456 34.5285 6.24468C34.2849 6.14376 34.0237 6.09182 33.76 6.09182C33.4963 6.09182 33.2351 6.14376 32.9915 6.24468C32.7479 6.3456 32.5265 6.49352 32.34 6.68C32.1535 6.86648 32.0056 7.08786 31.9047 7.3315C31.8038 7.57515 31.7518 7.83628 31.7518 8.1C31.7518 8.36372 31.8038 8.62485 31.9047 8.8685C32.0056 9.11214 32.1535 9.33352 32.34 9.52L34.34 11.52L32.68 16.5C32.329 17.558 32.2796 18.693 32.5375 19.7775C32.7954 20.862 33.3503 21.8532 34.14 22.64L40.04 28.64V38C40.04 38.5304 39.8293 39.0391 39.4542 39.4142C39.0791 39.7893 38.5704 40 38.04 40C37.5096 40 37.0009 39.7893 36.6258 39.4142C36.2507 39.0391 36.04 38.5304 36.04 38V34C36.04 32.4087 35.4079 30.8826 34.2826 29.7574C33.1574 28.6321 31.6313 28 30.04 28H28V10C28 8.4087 27.3679 6.88258 26.2426 5.75736C25.1174 4.63214 23.5913 4 22 4H10C8.4087 4 6.88258 4.63214 5.75736 5.75736C4.63214 6.88258 4 8.4087 4 10V38C4 39.5913 4.63214 41.1174 5.75736 42.2426C6.88258 43.3679 8.4087 44 10 44H22C23.5913 44 25.1174 43.3679 26.2426 42.2426C27.3679 41.1174 28 39.5913 28 38V32H30C30.5304 32 31.0391 32.2107 31.4142 32.5858C31.7893 32.9609 32 33.4696 32 34V38C32 39.5913 32.6321 41.1174 33.7574 42.2426C34.8826 43.3679 36.4087 44 38 44C39.5913 44 41.1174 43.3679 42.2426 42.2426C43.3679 41.1174 44 39.5913 44 38V19.66C44.0023 18.3459 43.7457 17.0442 43.2446 15.8294C42.7436 14.6146 42.008 13.5104 41.08 12.58ZM24 38C24 38.5304 23.7893 39.0391 23.4142 39.4142C23.0391 39.7893 22.5304 40 22 40H10C9.46957 40 8.96086 39.7893 8.58579 39.4142C8.21071 39.0391 8 38.5304 8 38V24H24V38ZM24 20H8V10C8 9.46957 8.21071 8.96086 8.58579 8.58579C8.96086 8.21071 9.46957 8 10 8H22C22.5304 8 23.0391 8.21071 23.4142 8.58579C23.7893 8.96086 24 9.46957 24 10V20ZM40 22.84L36.92 19.76C36.6664 19.5014 36.4877 19.1787 36.4032 18.8264C36.3187 18.4742 36.3314 18.1056 36.44 17.76L37.46 14.68L38.24 15.48C39.351 16.5894 39.9828 18.0901 40 19.66V22.84Z" fill="#101117"/>
</svg>
