<?xml version="1.0" encoding="UTF-8" standalone="no"?><!DOCTYPE svg PUBLIC "-//W3C//DTD SVG 1.1//EN" "http://www.w3.org/Graphics/SVG/1.1/DTD/svg11.dtd"><svg width="100%" height="100%" viewBox="0 0 200 200" version="1.1" xmlns="http://www.w3.org/2000/svg" xmlns:xlink="http://www.w3.org/1999/xlink" xml:space="preserve" xmlns:serif="http://www.serif.com/" style="fill-rule:evenodd;clip-rule:evenodd;stroke-linejoin:round;stroke-miterlimit:2;"><rect id="Artboard1" x="0" y="0" width="200" height="200" style="fill:none;"/><g id="Artboard11" serif:id="Artboard1"><path d="M171.167,52.417l-24.584,-24.584c-0.777,-0.777 -1.699,-1.393 -2.714,-1.813c-1.015,-0.421 -2.104,-0.637 -3.202,-0.637c-1.099,-0 -2.187,0.216 -3.202,0.637c-1.015,0.42 -1.938,1.036 -2.715,1.813c-0.777,0.777 -1.393,1.7 -1.814,2.715c-0.42,1.015 -0.637,2.103 -0.637,3.202c0,1.099 0.217,2.187 0.637,3.202c0.421,1.015 1.037,1.938 1.814,2.715l8.333,8.333l-6.916,20.75c-1.463,4.408 -1.669,9.138 -0.594,13.656c1.075,4.519 3.387,8.649 6.677,11.927l24.583,25l0,39c0,2.21 -0.878,4.33 -2.44,5.893c-1.563,1.563 -3.683,2.441 -5.893,2.441c-2.21,-0 -4.33,-0.878 -5.893,-2.441c-1.562,-1.563 -2.44,-3.683 -2.44,-5.893l-0,-16.666c-0,-6.631 -2.634,-12.989 -7.323,-17.678c-4.688,-4.689 -11.047,-7.322 -17.677,-7.322l-8.5,-0l-0,-75c-0,-6.631 -2.634,-12.99 -7.323,-17.678c-4.688,-4.688 -11.047,-7.322 -17.677,-7.322l-50,-0c-6.631,-0 -12.99,2.634 -17.678,7.322c-4.688,4.688 -7.322,11.047 -7.322,17.678l-0,116.666c-0,6.631 2.634,12.99 7.322,17.678c4.688,4.689 11.047,7.322 17.678,7.322l50,0c6.63,0 12.989,-2.633 17.677,-7.322c4.689,-4.688 7.323,-11.047 7.323,-17.678l-0,-25l8.333,0c2.21,0 4.33,0.878 5.893,2.441c1.562,1.563 2.44,3.683 2.44,5.893l0,16.666c0,6.631 2.634,12.99 7.323,17.678c4.688,4.689 11.047,7.322 17.677,7.322c6.631,0 12.99,-2.633 17.678,-7.322c4.689,-4.688 7.322,-11.047 7.322,-17.678l0,-76.416c0.01,-5.476 -1.059,-10.9 -3.147,-15.961c-2.088,-5.062 -5.153,-9.663 -9.019,-13.539Zm-71.167,105.916c0,2.21 -0.878,4.33 -2.441,5.893c-1.563,1.563 -3.682,2.441 -5.892,2.441l-50,-0c-2.21,-0 -4.33,-0.878 -5.893,-2.441c-1.563,-1.563 -2.441,-3.683 -2.441,-5.893l0,-58.333l66.667,0l0,58.333Zm0,-75l-66.667,0l0,-41.666c0,-2.21 0.878,-4.33 2.441,-5.893c1.563,-1.563 3.683,-2.441 5.893,-2.441l50,0c2.21,0 4.329,0.878 5.892,2.441c1.563,1.563 2.441,3.683 2.441,5.893l0,41.666Zm66.667,11.834l-12.834,-12.834c-1.056,-1.077 -1.801,-2.422 -2.153,-3.89c-0.352,-1.467 -0.299,-3.003 0.153,-4.443l4.25,-12.833l3.25,3.333c4.63,4.623 7.262,10.875 7.334,17.417l-0,13.25Z" style="fill:#101117;fill-rule:nonzero;"/></g></svg>