<?xml version="1.0" encoding="UTF-8" standalone="no"?> <svg xmlns="http://www.w3.org/2000/svg" viewBox="0 0 64 64"><g id="Layer_20" data-name="Layer 20"><path d="M10.83,35.58a1.89,1.89,0,0,0,0,3.78A1.89,1.89,0,0,0,10.83,35.58Z"/><path d="M59.85,28.72C54.29,17.48,54,17.42,36,14.35a1,1,0,0,0-.33,2c17.27,3,17.27,3,22.38,13.28,1.12,2.28,2,5.54-2.22,8.48-1.67-13.58-23.31-20.27-37.78-15-4.83-7.38-13.4-1.92-10.55,6.37A14.81,14.81,0,0,0,3,39.81c-.07,5.48,11.8,7.35,17.7,7.85H4a1,1,0,0,0,0,2H35.84a1,1,0,0,0,.52-1.83c9.7-.67,18.81-2.86,19.55-7.42C60.91,37.49,62.24,33.56,59.85,28.72ZM29.48,46.06C15.75,46.06,5,43.31,5,39.81a12.61,12.61,0,0,1,3.41-8.37c.7,1,1.41,2.25,2.6,2.5a1,1,0,0,0,.61-1.79c-3.22-2.26-3.77-9.28,0-10.38,4.18-.83,6.67,4.68,5.79,8.18a1,1,0,0,0,.73,1.21c2.27.35,1.39-4.93.81-6.23C32.74,20,54,26.69,54,39.81,54,43.31,43.21,46.06,29.48,46.06Z"/><path d="M41.69,47.66H39.16a1,1,0,0,0,0,2h2.53A1,1,0,0,0,41.69,47.66Z"/><path d="M55,47.66H45.2a1,1,0,0,0,0,2H55A1,1,0,0,0,55,47.66Z"/></g></svg>