<?xml version="1.0" encoding="UTF-8" standalone="no"?><!DOCTYPE svg PUBLIC "-//W3C//DTD SVG 1.1//EN" "http://www.w3.org/Graphics/SVG/1.1/DTD/svg11.dtd"><svg width="100%" height="100%" viewBox="0 0 200 200" version="1.1" xmlns="http://www.w3.org/2000/svg" xmlns:xlink="http://www.w3.org/1999/xlink" xml:space="preserve" xmlns:serif="http://www.serif.com/" style="fill-rule:evenodd;clip-rule:evenodd;stroke-linejoin:round;stroke-miterlimit:2;"><rect id="Artboard1" x="0" y="0" width="200" height="200" style="fill:none;"/><g id="Artboard11" serif:id="Artboard1"><path d="M169.912,135.956c-0.034,0.08 -0.069,0.159 -0.106,0.237c-2.15,4.571 -6.394,9.807 -13.828,13.169c-5.341,2.415 -32.666,8.684 -61.621,9.2c-26.043,0.463 -53.585,-4.408 -64.331,-9.2c-8.725,-3.89 -13.836,-9.917 -13.301,-17.111c0.38,-5.104 3.564,-21.655 11.029,-29.552c-3.529,-12.495 1.281,-22.675 8.614,-27.212c7.457,-4.613 17.842,-3.831 25.707,6.484c24.812,-8.171 56.189,-4.708 78.619,7.527c12.178,6.643 21.711,15.86 26.385,27.111c3.416,-7.849 2.535,-17.2 -0.95,-26.046c-7.937,-20.144 -29.375,-38.612 -51.646,-34.513c-3.828,0.705 -7.507,-1.831 -8.211,-5.658c-0.705,-3.827 1.831,-7.507 5.658,-8.211c28.682,-5.279 57.098,17.27 67.319,43.213c7.169,18.194 5.484,37.621 -9.337,50.562Zm-113.872,-31.785c0.004,-0.015 0.014,-0.058 0.014,-0.058c1.052,-4.181 0.034,-9.555 -2.44,-13.644c-2.192,-3.625 -5.612,-6.299 -10.069,-5.478c-2.926,0.952 -4.309,3.86 -4.767,7.131c-0.819,5.848 1.304,13.16 5.867,16.363l0.121,0.089c1.447,1.122 2.295,2.854 2.295,4.684c-0,3.247 -2.666,5.92 -5.912,5.931l-0.653,-0.067c-2.328,-0.489 -4.242,-1.873 -5.861,-3.707c-0.345,-0.39 -0.676,-0.801 -0.997,-1.225c-3.89,5.309 -6.082,11.715 -6.226,18.395c0.025,0.725 0.473,1.377 1.107,2.048c1.077,1.141 2.683,2.195 4.713,3.208c11.028,5.503 33.373,9.084 59.702,9.084c26.331,-0 48.732,-3.582 59.793,-9.086c2.037,-1.014 3.649,-2.068 4.73,-3.209c0.654,-0.69 1.112,-1.359 1.112,-2.106c-0,-13.618 -9.013,-24.439 -21.895,-31.855c-19.315,-11.12 -47.369,-14.641 -69.384,-7.87c0.953,4.037 1.59,10.122 0.427,13.767c-0.626,1.96 -1.73,3.374 -3.147,4.156c-1.071,0.591 -2.358,0.874 -3.913,0.634l-0.277,-0.055c-3.138,-0.779 -5.087,-3.989 -4.34,-7.13Zm-15.275,17.633c3.663,-0 6.677,3.013 6.677,6.676c-0,3.663 -3.014,6.676 -6.677,6.676c-3.662,0 -6.676,-3.013 -6.676,-6.676c0,-3.663 3.014,-6.676 6.676,-6.676Z"/></g></svg>