<svg width="48" height="48" viewBox="0 0 48 48" fill="none" xmlns="http://www.w3.org/2000/svg">
<path d="M19.992 30H15.992C15.4616 30 14.9529 30.2108 14.5778 30.5858C14.2027 30.9609 13.992 31.4696 13.992 32C13.992 32.5305 14.2027 33.0392 14.5778 33.4143C14.9529 33.7893 15.4616 34 15.992 34H19.992C20.5225 34 21.0312 33.7893 21.4062 33.4143C21.7813 33.0392 21.992 32.5305 21.992 32C21.992 31.4696 21.7813 30.9609 21.4062 30.5858C21.0312 30.2108 20.5225 30 19.992 30ZM23.992 16V10C23.992 9.46962 23.7813 8.96091 23.4062 8.58583C23.0312 8.21076 22.5225 8.00005 21.992 8.00005H19.992V6.00005H21.992C22.5225 6.00005 23.0312 5.78933 23.4062 5.41426C23.7813 5.03919 23.992 4.53048 23.992 4.00005C23.992 3.46962 23.7813 2.96091 23.4062 2.58583C23.0312 2.21076 22.5225 2.00005 21.992 2.00005H12.464C10.7477 1.99448 9.06411 2.46989 7.60418 3.37236C6.14424 4.27483 4.96635 5.56828 4.20403 7.10605C3.97182 7.57994 3.93631 8.12641 4.10526 8.62637C4.2742 9.12633 4.6339 9.53925 5.10597 9.77516C5.57805 10.0111 6.12422 10.0508 6.62548 9.88578C7.12674 9.72074 7.54246 9.36427 7.78203 8.89405C8.21393 8.02268 8.88128 7.28971 9.70844 6.77821C10.5356 6.26672 11.4895 5.99715 12.462 6.00005H15.992V8.00005H13.992C13.4616 8.00005 12.9529 8.21076 12.5778 8.58583C12.2027 8.96091 11.992 9.46962 11.992 10V16C10.4012 16.0016 8.87602 16.6343 7.75115 17.7592C6.62627 18.884 5.99362 20.4092 5.99203 22V40C5.99362 41.5909 6.62627 43.1161 7.75115 44.2409C8.87602 45.3658 10.4012 45.9985 11.992 46H23.992C25.5828 45.9985 27.108 45.3658 28.2329 44.2409C29.3578 43.1161 29.9904 41.5909 29.992 40V22C29.9904 20.4092 29.3578 18.884 28.2329 17.7592C27.108 16.6343 25.5828 16.0016 23.992 16ZM15.992 12H19.992V16H15.992V12ZM25.992 40C25.9915 40.5303 25.7806 41.0387 25.4057 41.4137C25.0307 41.7886 24.5223 41.9995 23.992 42H11.992C11.4618 41.9995 10.9534 41.7886 10.5784 41.4137C10.2034 41.0387 9.99256 40.5303 9.99203 40V22C9.99256 21.4698 10.2034 20.9614 10.5784 20.5864C10.9534 20.2115 11.4618 20.0006 11.992 20H23.992C24.5223 20.0006 25.0307 20.2115 25.4057 20.5864C25.7806 20.9614 25.9915 21.4698 25.992 22V40Z" fill="#101117"/>
</svg>
