<?xml version="1.0" encoding="UTF-8" standalone="no"?><!DOCTYPE svg PUBLIC "-//W3C//DTD SVG 1.1//EN" "http://www.w3.org/Graphics/SVG/1.1/DTD/svg11.dtd"><svg width="100%" height="100%" viewBox="0 0 200 200" version="1.1" xmlns="http://www.w3.org/2000/svg" xmlns:xlink="http://www.w3.org/1999/xlink" xml:space="preserve" xmlns:serif="http://www.serif.com/" style="fill-rule:evenodd;clip-rule:evenodd;stroke-linejoin:round;stroke-miterlimit:2;"><rect id="Artboard1" x="0" y="0" width="200" height="200" style="fill:none;"/><g id="Artboard11" serif:id="Artboard1"><path d="M111.348,122.727l-15.151,0c-2.009,0 -3.936,0.799 -5.357,2.219c-1.421,1.421 -2.219,3.348 -2.219,5.357c0,2.01 0.798,3.936 2.219,5.357c1.421,1.421 3.348,2.219 5.357,2.219l15.151,-0c2.01,-0 3.937,-0.798 5.357,-2.219c1.421,-1.421 2.219,-3.347 2.219,-5.357c0,-2.009 -0.798,-3.936 -2.219,-5.357c-1.42,-1.42 -3.347,-2.219 -5.357,-2.219Zm15.152,-53.03l-0,-22.727c-0,-2.009 -0.798,-3.936 -2.219,-5.357c-1.42,-1.421 -3.347,-2.219 -5.357,-2.219l-7.576,0l0,-7.576l7.576,0c2.01,0 3.937,-0.798 5.357,-2.219c1.421,-1.42 2.219,-3.347 2.219,-5.356c-0,-2.01 -0.798,-3.937 -2.219,-5.357c-1.42,-1.421 -3.347,-2.219 -5.357,-2.219l-36.091,-0c-6.501,-0.021 -12.878,1.78 -18.408,5.198c-5.53,3.418 -9.992,8.318 -12.879,14.143c-0.88,1.795 -1.015,3.865 -0.375,5.759c0.64,1.893 2.003,3.457 3.791,4.351c1.788,0.894 3.857,1.044 5.756,0.419c1.898,-0.625 3.473,-1.975 4.381,-3.757c1.636,-3.3 4.163,-6.077 7.297,-8.014c3.133,-1.938 6.746,-2.959 10.43,-2.948l13.371,0l-0,7.576l-7.576,0c-2.009,0 -3.936,0.798 -5.357,2.219c-1.42,1.421 -2.219,3.348 -2.219,5.357l0,22.727c-6.025,0.006 -11.803,2.403 -16.063,6.664c-4.261,4.26 -6.658,10.037 -6.664,16.063l0,68.182c0.006,6.026 2.403,11.803 6.664,16.064c4.26,4.261 10.038,6.658 16.063,6.663l45.455,0c6.026,-0.005 11.803,-2.402 16.064,-6.663c4.261,-4.261 6.657,-10.038 6.663,-16.064l0,-68.182c-0.006,-6.026 -2.402,-11.803 -6.663,-16.063c-4.261,-4.261 -10.038,-6.658 -16.064,-6.664Zm-30.303,-15.152l15.151,0l0,15.152l-15.151,-0l-0,-15.152Zm37.879,106.061c-0.002,2.009 -0.801,3.935 -2.221,5.355c-1.421,1.42 -3.346,2.219 -5.355,2.221l-45.455,-0c-2.008,-0.002 -3.934,-0.801 -5.354,-2.221c-1.421,-1.42 -2.219,-3.346 -2.221,-5.355l-0,-68.182c0.002,-2.008 0.8,-3.934 2.221,-5.354c1.42,-1.42 3.346,-2.219 5.354,-2.222l45.455,0c2.009,0.003 3.934,0.802 5.355,2.222c1.42,1.42 2.219,3.346 2.221,5.354l-0,68.182Z" style="fill:#101117;fill-rule:nonzero;"/></g></svg>