<?xml version="1.0" encoding="UTF-8" standalone="no"?><!DOCTYPE svg PUBLIC "-//W3C//DTD SVG 1.1//EN" "http://www.w3.org/Graphics/SVG/1.1/DTD/svg11.dtd"><svg width="100%" height="100%" viewBox="0 0 200 200" version="1.1" xmlns="http://www.w3.org/2000/svg" xmlns:xlink="http://www.w3.org/1999/xlink" xml:space="preserve" xmlns:serif="http://www.serif.com/" style="fill-rule:evenodd;clip-rule:evenodd;stroke-linejoin:round;stroke-miterlimit:2;"><rect id="Artboard1" x="0" y="0" width="200" height="200" style="fill:none;"/><g id="Artboard11" serif:id="Artboard1"><rect id="Artboard12" serif:id="Artboard1" x="0" y="0" width="199.937" height="199.937" style="fill:none;"/><path d="M158.358,103.818c8.586,23.643 3.095,53.479 -21.869,77.683c-1.212,1.175 -2.833,1.832 -4.521,1.832l-16.742,0c-3.587,0 -6.495,-2.908 -6.495,-6.494l-0,-11.636l-6.946,0l0,11.102c0,3.587 -2.907,6.495 -6.494,6.495l-17.962,0c-2.267,0 -4.369,-1.182 -5.548,-3.118c0,0 -9.268,-15.225 -9.268,-15.225c-8.291,-1.29 -14.738,-5.289 -20.482,-9.538c-4.709,-3.484 -8.63,-7.386 -13.449,-8.22c-3.113,-0.538 -5.388,-3.24 -5.388,-6.399l0,-31.759c0,-3.587 2.908,-6.495 6.495,-6.495l16.902,0c1.718,-5.37 3.949,-10.092 6.587,-14.217l-14.536,-17.586c-1.107,-1.34 -1.631,-3.067 -1.455,-4.796c0.176,-1.729 1.037,-3.315 2.392,-4.404c-0,0 18.758,-14.82 38.642,-7.784c5.256,1.859 10.678,5.218 15.82,10.904c15.044,-1.248 30.328,2.821 41.107,10.012c7.161,4.777 13.061,10.91 17.499,17.959c3.53,-1.739 8.559,-5.349 11.715,-12.546c1.44,-3.283 5.274,-4.779 8.557,-3.339c3.282,1.44 4.778,5.274 3.339,8.556c-4.715,10.75 -12.235,16.255 -17.9,19.013Zm-96.291,-5.234c-1.76,3.376 -3.2,7.196 -4.249,11.496c-0.709,2.909 -3.315,4.956 -6.31,4.956l-15.324,-0c-0,-0 -0,20.531 -0,20.531c3.504,1.542 6.878,3.863 10.338,6.474c5.525,4.17 11.408,9.315 20.242,9.819c2.132,0.121 4.068,1.283 5.178,3.107l9.037,14.844l7.817,-0l-0,-11.102c-0,-3.587 2.908,-6.495 6.495,-6.495l19.934,-0c3.587,-0 6.495,2.908 6.495,6.495l0,11.635l7.56,-0c28.564,-29.428 24.41,-68.185 -1.341,-85.364c-6.735,-4.493 -15.749,-7.467 -25.117,-8.006c-4.775,-0.275 -9.643,0.084 -14.347,1.197c-3.263,-4.95 -6.709,-8.353 -10.22,-10.547c-1.447,-0.904 -2.906,-1.603 -4.367,-2.12c-7.94,-2.81 -15.588,-0.36 -20.544,2.137l16.735,20.248c-3.079,2.906 -5.798,6.449 -8.012,10.695l0,0Zm10.822,14.978c3.585,0 6.495,2.91 6.495,6.495c0,3.584 -2.91,6.495 -6.495,6.495c-3.584,-0 -6.494,-2.911 -6.494,-6.495c-0,-3.585 2.91,-6.495 6.494,-6.495Zm18.087,-23.042c-1.734,0.454 -3.51,-0.584 -3.964,-2.318c-0.455,-1.734 0.584,-3.51 2.318,-3.965c7.149,-1.872 18.211,-1.732 27.964,1.762c6.715,2.406 12.79,6.388 16.709,12.224c1,1.487 0.603,3.507 -0.885,4.506c-1.488,0.999 -3.507,0.603 -4.506,-0.885c-3.152,-4.693 -8.109,-7.796 -13.508,-9.73c-8.417,-3.016 -17.959,-3.21 -24.128,-1.594Zm33.862,-73.853c11.987,-0 21.719,9.732 21.719,21.72c0,11.987 -9.732,21.719 -21.719,21.719c-11.988,0 -21.72,-9.732 -21.72,-21.719c-0,-11.988 9.732,-21.72 21.72,-21.72Zm-0,10.563c-6.158,0 -11.157,4.999 -11.157,11.157c0,6.157 4.999,11.156 11.157,11.156c6.157,-0 11.156,-4.999 11.156,-11.156c-0,-6.158 -4.999,-11.157 -11.156,-11.157Z"/></g></svg>