<?xml version="1.0" encoding="UTF-8" standalone="no"?><!DOCTYPE svg PUBLIC "-//W3C//DTD SVG 1.1//EN" "http://www.w3.org/Graphics/SVG/1.1/DTD/svg11.dtd"><svg width="100%" height="100%" viewBox="0 0 2134 2134" version="1.1" xmlns="http://www.w3.org/2000/svg" xmlns:xlink="http://www.w3.org/1999/xlink" xml:space="preserve" xmlns:serif="http://www.serif.com/" style="fill-rule:evenodd;clip-rule:evenodd;stroke-linejoin:round;stroke-miterlimit:2;"><rect id="Artboard1" x="0" y="0" width="2133.33" height="2133.33" style="fill:none;"/><path d="M1757.22,1111.85c101.602,279.771 36.619,632.822 -258.782,919.234c-14.339,13.902 -33.526,21.677 -53.497,21.677l-198.112,-0c-42.444,-0 -76.852,-34.409 -76.852,-76.853l-0,-137.681c-0,-0 -82.186,-0 -82.186,-0l-0,131.371c-0,42.445 -34.408,76.853 -76.853,76.853l-212.543,-0c-26.82,-0 -51.7,-13.982 -65.646,-36.891c0,0 -109.677,-180.167 -109.676,-180.167c-98.103,-15.267 -174.396,-62.579 -242.359,-112.865c-55.722,-41.228 -102.118,-87.395 -159.143,-97.26c-36.843,-6.373 -63.753,-38.338 -63.753,-75.728l0,-375.804c0,-42.444 34.408,-76.852 76.853,-76.852l200,-0c20.329,-63.54 46.724,-119.424 77.945,-168.227l-172.006,-208.106c-13.101,-15.851 -19.303,-36.29 -17.22,-56.748c2.084,-20.457 12.278,-39.227 28.305,-52.111c0,0 221.968,-175.367 457.257,-92.112c62.194,22.006 126.348,61.744 187.202,129.027c178.018,-14.759 358.868,33.386 486.421,118.479c84.736,56.528 154.544,129.093 207.06,212.507c41.774,-20.579 101.28,-63.299 138.63,-148.457c17.037,-38.844 62.405,-56.549 101.249,-39.512c38.845,17.037 56.549,62.405 39.512,101.25c-55.787,127.195 -144.777,192.342 -211.806,224.976Zm-1139.42,-61.93c-20.822,39.94 -37.867,85.146 -50.276,136.026c-8.395,34.421 -39.234,58.643 -74.664,58.643c-0,-0 -181.339,-0 -181.339,-0c0,-0 0,242.954 0,242.953c41.465,18.24 81.391,45.707 122.333,76.608c65.373,49.339 134.994,110.225 239.528,116.182c25.226,1.437 48.135,15.183 61.273,36.766l106.926,175.648c0,-0 92.503,-0 92.503,-0l-0,-131.372c-0,-42.444 34.408,-76.852 76.852,-76.852l235.891,-0c42.445,-0 76.853,34.408 76.853,76.852c-0,0 -0,137.681 -0,137.681l89.453,0c338.001,-348.226 288.847,-806.831 -15.86,-1010.11c-79.701,-53.17 -186.362,-88.367 -297.211,-94.742c-56.509,-3.249 -114.107,0.991 -169.776,14.16c-38.614,-58.573 -79.382,-98.841 -120.938,-124.803c-17.122,-10.697 -34.377,-18.965 -51.67,-25.084c-93.949,-33.243 -184.451,-4.253 -243.096,25.294l198.028,239.59c-36.442,34.394 -68.615,76.308 -94.81,126.555Zm128.062,177.234c42.416,0 76.853,34.437 76.853,76.853c-0,42.416 -34.437,76.852 -76.853,76.852c-42.416,0 -76.852,-34.436 -76.852,-76.852c-0,-42.416 34.436,-76.853 76.852,-76.853Zm214.018,-272.657c-20.516,5.375 -41.536,-6.918 -46.91,-27.434c-5.375,-20.516 6.918,-41.535 27.434,-46.91c84.595,-22.161 215.493,-20.502 330.906,20.85c79.451,28.467 151.337,75.587 197.716,144.637c11.825,17.605 7.132,41.499 -10.473,53.324c-17.605,11.825 -41.499,7.132 -53.324,-10.473c-37.295,-55.526 -95.952,-92.247 -159.842,-115.139c-99.598,-35.686 -212.504,-37.979 -285.507,-18.855Zm400.688,-873.914c141.849,-0 257.013,115.164 257.013,257.013c-0,141.849 -115.164,257.013 -257.013,257.013c-141.85,-0 -257.013,-115.164 -257.013,-257.013c-0,-141.849 115.163,-257.013 257.013,-257.013Zm-0,125c-72.86,-0 -132.013,59.153 -132.013,132.013c-0,72.86 59.153,132.013 132.013,132.013c72.86,-0 132.013,-59.153 132.013,-132.013c-0,-72.86 -59.153,-132.013 -132.013,-132.013Z"/></svg>