<?xml version="1.0" encoding="UTF-8" standalone="no"?><!DOCTYPE svg PUBLIC "-//W3C//DTD SVG 1.1//EN" "http://www.w3.org/Graphics/SVG/1.1/DTD/svg11.dtd"><svg width="100%" height="100%" viewBox="0 0 2134 2134" version="1.1" xmlns="http://www.w3.org/2000/svg" xmlns:xlink="http://www.w3.org/1999/xlink" xml:space="preserve" xmlns:serif="http://www.serif.com/" style="fill-rule:evenodd;clip-rule:evenodd;stroke-linejoin:round;stroke-miterlimit:2;"><rect id="Artboard1" x="0" y="0" width="2133.33" height="2133.33" style="fill:none;"/><path d="M425,780.465l-14.056,-4.367l-42.513,-23.083l-36.863,-30.417l-30.416,-36.862l-23.083,-42.514l-14.651,-47.155l-5.085,-50.234l5.085,-50.233l14.651,-47.156l23.083,-42.513l30.416,-36.863l36.863,-30.416l42.513,-23.083l47.156,-14.651l50.233,-5.085l50.234,5.085l47.155,14.651l42.514,23.083l36.862,30.416l30.417,36.863l23.083,42.513l14.65,47.156l5.085,50.233l-5.085,50.234l-14.65,47.155l-23.083,42.514l-30.417,36.862l-36.862,30.417l-42.514,23.083l-14.055,4.367l-0,991.72c-0,36.048 -37.341,65.315 -83.334,65.315c-45.993,-0 -83.333,-29.267 -83.333,-65.315l0,-991.72Zm83.333,-151.298c45.993,-0 83.334,-37.341 83.334,-83.334c-0,-45.993 -37.341,-83.333 -83.334,-83.333c-45.993,-0 -83.333,37.34 -83.333,83.333c0,45.993 37.34,83.334 83.333,83.334Zm1200,723.702l14.056,4.367l42.514,23.082l36.862,30.417l30.417,36.862l23.082,42.514l14.651,47.156l5.085,50.233l-5.085,50.233l-14.651,47.156l-23.082,42.514l-30.417,36.862l-36.862,30.417l-42.514,23.082l-47.156,14.651l-50.233,5.085l-50.233,-5.085l-47.156,-14.651l-42.514,-23.082l-36.862,-30.417l-30.417,-36.862l-23.082,-42.514l-14.651,-47.156l-5.085,-50.233l5.085,-50.233l14.651,-47.156l23.082,-42.514l30.417,-36.862l36.862,-30.417l42.514,-23.082l14.056,-4.367l-0,-991.72c-0,-36.049 37.34,-65.316 83.333,-65.316c45.993,0 83.333,29.267 83.333,65.316l0,991.72Zm-83.333,151.298c-45.993,-0 -83.333,37.34 -83.333,83.333c-0,45.993 37.34,83.333 83.333,83.333c45.993,0 83.333,-37.34 83.333,-83.333c0,-45.993 -37.34,-83.333 -83.333,-83.333Zm-641.667,-202.869l-14.055,-4.367l-42.514,-23.083l-36.862,-30.416l-30.417,-36.863l-23.083,-42.513l-14.65,-47.156l-5.085,-50.233l5.085,-50.234l14.65,-47.155l23.083,-42.514l30.417,-36.862l36.862,-30.417l42.514,-23.083l14.055,-4.367l0,-452.868c0,-45.993 37.341,-83.334 83.334,-83.334c45.993,0 83.333,37.341 83.333,83.334l-0,452.868l14.056,4.367l42.513,23.083l36.863,30.417l30.416,36.862l23.083,42.514l14.651,47.155l5.085,50.234l-5.085,50.233l-14.651,47.156l-23.083,42.513l-30.416,36.863l-36.863,30.416l-42.513,23.083l-14.056,4.367l-0,452.869c-0,45.993 -37.34,83.333 -83.333,83.333c-45.993,-0 -83.334,-37.34 -83.334,-83.333l0,-452.869Zm166.667,-234.631c0,-45.993 -37.34,-83.334 -83.333,-83.334c-45.993,0 -83.334,37.341 -83.334,83.334c0,45.993 37.341,83.333 83.334,83.333c45.993,0 83.333,-37.34 83.333,-83.333Z"/></svg>