<?xml version="1.0" encoding="UTF-8" standalone="no"?><!DOCTYPE svg PUBLIC "-//W3C//DTD SVG 1.1//EN" "http://www.w3.org/Graphics/SVG/1.1/DTD/svg11.dtd"><svg width="100%" height="100%" viewBox="0 0 200 200" version="1.1" xmlns="http://www.w3.org/2000/svg" xmlns:xlink="http://www.w3.org/1999/xlink" xml:space="preserve" xmlns:serif="http://www.serif.com/" style="fill-rule:evenodd;clip-rule:evenodd;stroke-linejoin:round;stroke-miterlimit:2;"><rect id="Artboard1" x="0" y="0" width="200" height="200" style="fill:none;"/><g id="Artboard11" serif:id="Artboard1"><path d="M174.989,125c-0.018,-5.003 -1.537,-9.884 -4.36,-14.014c-2.823,-4.13 -6.819,-7.319 -11.473,-9.153l15.583,-58.333c0.325,-1.242 0.36,-2.543 0.099,-3.801c-0.26,-1.257 -0.807,-2.438 -1.599,-3.449c-0.81,-0.947 -1.821,-1.701 -2.96,-2.206c-1.14,-0.505 -2.378,-0.748 -3.623,-0.711l-114.167,0l-2.75,-10.5c-0.478,-1.775 -1.53,-3.343 -2.992,-4.458c-1.462,-1.116 -3.252,-1.716 -5.091,-1.708l-16.667,-0l-0,16.666l10.25,0l20.667,77.167c0.488,1.818 1.578,3.417 3.09,4.537c1.514,1.12 3.362,1.694 5.243,1.63l85.75,-0c2.21,-0 4.33,0.878 5.892,2.44c1.563,1.563 2.441,3.683 2.441,5.893c0,2.21 -0.878,4.33 -2.441,5.893c-1.562,1.562 -3.682,2.44 -5.892,2.44l-108.333,0c-2.211,0 -4.33,0.878 -5.893,2.441c-1.563,1.563 -2.441,3.683 -2.441,5.893c0,2.21 0.878,4.33 2.441,5.892c1.563,1.563 3.682,2.441 5.893,2.441l9.833,0c-1.37,3.776 -1.811,7.827 -1.284,11.809c0.527,3.983 2.006,7.779 4.311,11.069c2.306,3.29 5.37,5.975 8.934,7.829c3.564,1.854 7.522,2.823 11.539,2.823c4.017,-0 7.975,-0.969 11.539,-2.823c3.563,-1.854 6.628,-4.539 8.933,-7.829c2.306,-3.29 3.785,-7.086 4.312,-11.069c0.527,-3.982 0.086,-8.033 -1.284,-11.809l19.667,0c-1.248,3.438 -1.726,7.109 -1.4,10.752c0.325,3.643 1.446,7.171 3.283,10.333c1.838,3.163 4.347,5.884 7.35,7.972c3.004,2.087 6.429,3.49 10.034,4.109c3.605,0.62 7.302,0.441 10.83,-0.525c3.528,-0.965 6.801,-2.692 9.589,-5.06c2.788,-2.369 5.022,-5.319 6.544,-8.645c1.523,-3.326 2.298,-6.945 2.27,-10.603c-0.016,-4.305 -1.165,-8.53 -3.334,-12.25c3.564,-2.246 6.502,-5.357 8.542,-9.043c2.039,-3.686 3.114,-7.827 3.125,-12.04Zm-32.583,-25l-71.584,0l-13.833,-50l98.833,0l-13.416,50Zm-67.417,66.667c-1.648,-0 -3.259,-0.489 -4.63,-1.404c-1.37,-0.916 -2.438,-2.218 -3.069,-3.74c-0.631,-1.523 -0.796,-3.199 -0.474,-4.815c0.321,-1.617 1.115,-3.102 2.28,-4.267c1.166,-1.166 2.651,-1.959 4.267,-2.281c1.617,-0.321 3.292,-0.156 4.815,0.475c1.523,0.63 2.824,1.698 3.74,3.069c0.916,1.37 1.404,2.981 1.404,4.629c0,2.211 -0.878,4.33 -2.441,5.893c-1.562,1.563 -3.682,2.441 -5.892,2.441Zm66.667,-0c-1.649,-0 -3.26,-0.489 -4.63,-1.404c-1.37,-0.916 -2.439,-2.218 -3.07,-3.74c-0.63,-1.523 -0.795,-3.199 -0.474,-4.815c0.322,-1.617 1.116,-3.102 2.281,-4.267c1.166,-1.166 2.651,-1.959 4.267,-2.281c1.616,-0.321 3.292,-0.156 4.815,0.475c1.522,0.63 2.824,1.698 3.739,3.069c0.916,1.37 1.405,2.981 1.405,4.629c-0,2.211 -0.878,4.33 -2.441,5.893c-1.563,1.563 -3.682,2.441 -5.892,2.441Z" style="fill:#101117;fill-rule:nonzero;"/></g></svg>