<svg width="48" height="48" viewBox="0 0 48 48" fill="none" xmlns="http://www.w3.org/2000/svg">
<path d="M40 30C39.9956 28.7994 39.6311 27.6278 38.9536 26.6366C38.2762 25.6454 37.317 24.8802 36.2 24.44L39.94 10.44C40.0181 10.1419 40.0263 9.82968 39.9638 9.52785C39.9014 9.22601 39.77 8.9427 39.58 8.70002C39.3857 8.47263 39.1429 8.2917 38.8695 8.17056C38.5961 8.04942 38.2989 7.99114 38 8.00002H10.6L9.94 5.48002C9.82525 5.05384 9.57275 4.67759 9.22185 4.40989C8.87095 4.14219 8.44135 3.99808 8 4.00002H4V8.00002H6.46L11.42 26.52C11.5372 26.9563 11.7987 27.3401 12.1618 27.6089C12.525 27.8776 12.9685 28.0155 13.42 28H34C34.5304 28 35.0391 28.2107 35.4142 28.5858C35.7893 28.9609 36 29.4696 36 30C36 30.5305 35.7893 31.0392 35.4142 31.4142C35.0391 31.7893 34.5304 32 34 32H8C7.46957 32 6.96086 32.2107 6.58579 32.5858C6.21071 32.9609 6 33.4696 6 34C6 34.5305 6.21071 35.0392 6.58579 35.4142C6.96086 35.7893 7.46957 36 8 36H10.36C10.0311 36.9063 9.92537 37.8785 10.0519 38.8342C10.1783 39.79 10.5333 40.7012 11.0866 41.4907C11.64 42.2802 12.3754 42.9248 13.2307 43.3698C14.086 43.8147 15.0359 44.0471 16 44.0471C16.9641 44.0471 17.914 43.8147 18.7693 43.3698C19.6246 42.9248 20.36 42.2802 20.9134 41.4907C21.4667 40.7012 21.8217 39.79 21.9481 38.8342C22.0746 37.8785 21.9689 36.9063 21.64 36H26.36C26.0606 36.8252 25.9459 37.7061 26.024 38.5805C26.1021 39.4548 26.3711 40.3014 26.8121 41.0605C27.2531 41.8196 27.8552 42.4726 28.5761 42.9736C29.2969 43.4746 30.119 43.8113 30.9841 43.9599C31.8493 44.1086 32.7366 44.0656 33.5833 43.8339C34.4301 43.6023 35.2157 43.1877 35.8847 42.6194C36.5538 42.051 37.0899 41.3428 37.4554 40.5446C37.8209 39.7465 38.0068 38.8778 38 38C37.9963 36.9668 37.7204 35.9527 37.2 35.06C38.0552 34.5208 38.7603 33.7742 39.2499 32.8896C39.7394 32.005 39.9974 31.011 40 30ZM32.18 24H15L11.68 12H35.4L32.18 24ZM16 40C15.6044 40 15.2178 39.8827 14.8889 39.663C14.56 39.4432 14.3036 39.1308 14.1522 38.7654C14.0009 38.3999 13.9613 37.9978 14.0384 37.6098C14.1156 37.2219 14.3061 36.8655 14.5858 36.5858C14.8655 36.3061 15.2219 36.1156 15.6098 36.0384C15.9978 35.9613 16.3999 36.0009 16.7654 36.1523C17.1308 36.3036 17.4432 36.56 17.6629 36.8889C17.8827 37.2178 18 37.6045 18 38C18 38.5305 17.7893 39.0392 17.4142 39.4142C17.0391 39.7893 16.5304 40 16 40ZM32 40C31.6044 40 31.2178 39.8827 30.8889 39.663C30.56 39.4432 30.3036 39.1308 30.1522 38.7654C30.0009 38.3999 29.9613 37.9978 30.0384 37.6098C30.1156 37.2219 30.3061 36.8655 30.5858 36.5858C30.8655 36.3061 31.2219 36.1156 31.6098 36.0384C31.9978 35.9613 32.3999 36.0009 32.7654 36.1523C33.1308 36.3036 33.4432 36.56 33.6629 36.8889C33.8827 37.2178 34 37.6045 34 38C34 38.5305 33.7893 39.0392 33.4142 39.4142C33.0391 39.7893 32.5304 40 32 40Z" fill="#101117"/>
</svg>
