<?xml version="1.0" encoding="UTF-8" standalone="no"?><!DOCTYPE svg PUBLIC "-//W3C//DTD SVG 1.1//EN" "http://www.w3.org/Graphics/SVG/1.1/DTD/svg11.dtd"><svg width="100%" height="100%" viewBox="0 0 2134 2134" version="1.1" xmlns="http://www.w3.org/2000/svg" xmlns:xlink="http://www.w3.org/1999/xlink" xml:space="preserve" xmlns:serif="http://www.serif.com/" style="fill-rule:evenodd;clip-rule:evenodd;stroke-linejoin:round;stroke-miterlimit:2;"><rect id="Artboard1" x="0" y="0" width="2133.33" height="2133.33" style="fill:none;"/><path d="M629.168,1115.6c-0.002,-0.314 -0.001,-0.629 -0.001,-0.943c-0,-66.511 34.852,-130.838 102.044,-180.701c75.83,-56.272 197.507,-95.341 335.456,-95.341c137.949,-0 259.625,39.069 335.455,95.341c67.193,49.863 102.045,114.19 102.045,180.701l-0,502.255c-0,66.51 -34.852,130.838 -102.045,180.7c-75.83,56.273 -197.506,95.342 -335.455,95.342c-137.949,-0 -259.626,-39.069 -335.456,-95.342c-67.192,-49.862 -102.044,-114.19 -102.044,-180.7l-0,-250.656l0.001,-250.656Zm708.332,-0.943c0,-27.083 -27.629,-45.275 -60.278,-63.04c-53.847,-29.299 -128.463,-46.335 -210.555,-46.335c-82.093,-0 -156.708,17.036 -210.556,46.335c-32.648,17.765 -60.278,35.957 -60.278,63.04c0,27.082 27.63,45.275 60.278,63.039c53.848,29.3 128.463,46.336 210.556,46.336c82.092,-0 156.708,-17.036 210.555,-46.336c32.649,-17.764 60.278,-35.957 60.278,-63.039Zm-0,219.153c-72.731,34.835 -167.189,56.888 -270.833,56.888c-103.645,0 -198.103,-22.053 -270.834,-56.888l0,32.446c0,27.083 27.63,45.275 60.278,63.04c53.848,29.299 128.463,46.335 210.556,46.335c82.092,-0 156.708,-17.036 210.555,-46.335c32.649,-17.765 60.278,-35.957 60.278,-63.04l-0,-32.446Zm0,283.102l0,-31.502c-72.731,34.834 -167.189,56.888 -270.833,56.888c-103.645,-0 -198.103,-22.054 -270.834,-56.888l0,31.502c0,27.083 27.63,45.275 60.278,63.04c53.848,29.299 128.463,46.335 210.556,46.335c82.092,-0 156.708,-17.036 210.555,-46.335c32.649,-17.765 60.278,-35.957 60.278,-63.04Zm75.591,-1003.64l-894.033,-0c-45.993,-0 -83.334,-37.341 -83.334,-83.334c0,-45.993 37.341,-83.333 83.334,-83.333l894.033,-0l-63.98,-63.981c-32.522,-32.522 -32.522,-85.329 -0,-117.851c32.522,-32.522 85.329,-32.522 117.851,0l206.239,206.24c10.05,10.049 16.996,22.028 20.839,34.743c2.321,7.655 3.569,15.774 3.569,24.182c0,8.408 -1.248,16.527 -3.569,24.182c-3.842,12.716 -10.789,24.694 -20.839,34.744l-206.239,206.239c-32.522,32.522 -85.329,32.522 -117.851,0c-32.522,-32.522 -32.522,-85.329 -0,-117.851l63.98,-63.98Z"/></svg>