<?xml version="1.0" encoding="UTF-8" standalone="no"?><!DOCTYPE svg PUBLIC "-//W3C//DTD SVG 1.1//EN" "http://www.w3.org/Graphics/SVG/1.1/DTD/svg11.dtd"><svg width="100%" height="100%" viewBox="0 0 200 200" version="1.1" xmlns="http://www.w3.org/2000/svg" xmlns:xlink="http://www.w3.org/1999/xlink" xml:space="preserve" xmlns:serif="http://www.serif.com/" style="fill-rule:evenodd;clip-rule:evenodd;stroke-linejoin:round;stroke-miterlimit:2;"><rect id="Artboard1" x="0" y="0" width="200" height="200" style="fill:none;"/><g id="Artboard11" serif:id="Artboard1"><rect id="Artboard12" serif:id="Artboard1" x="0" y="0" width="199.937" height="199.937" style="fill:none;"/><path d="M55.877,104.935c-0,-0.032 -0,-0.063 -0,-0.095c-0,-6.708 3.515,-13.196 10.291,-18.224c7.648,-5.676 19.919,-9.616 33.832,-9.616c13.913,0 26.184,3.94 33.832,9.616c6.776,5.028 10.291,11.516 10.291,18.224l0,50.654c0,6.707 -3.515,13.195 -10.291,18.224c-7.648,5.675 -19.919,9.615 -33.832,9.615c-13.913,0 -26.184,-3.94 -33.832,-9.615c-6.776,-5.029 -10.291,-11.517 -10.291,-18.224l-0,-25.28l0,-25.279Zm71.437,-0.095c0,-2.732 -2.786,-4.566 -6.079,-6.358c-5.43,-2.955 -12.956,-4.673 -21.235,-4.673c-8.279,0 -15.804,1.718 -21.235,4.673c-3.293,1.792 -6.079,3.626 -6.079,6.358c-0,2.731 2.786,4.566 6.079,6.358c5.431,2.955 12.956,4.673 21.235,4.673c8.279,-0 15.805,-1.718 21.235,-4.673c3.293,-1.792 6.079,-3.627 6.079,-6.358Zm0,22.102c-7.335,3.513 -16.861,5.737 -27.314,5.737c-10.453,0 -19.979,-2.224 -27.314,-5.737l-0,3.272c-0,2.732 2.786,4.566 6.079,6.358c5.431,2.955 12.956,4.673 21.235,4.673c8.279,0 15.805,-1.718 21.235,-4.673c3.293,-1.792 6.079,-3.626 6.079,-6.358l0,-3.272Zm0,28.552l0,-3.177c-7.335,3.513 -16.861,5.737 -27.314,5.737c-10.453,-0 -19.979,-2.224 -27.314,-5.737l-0,3.177c-0,2.731 2.786,4.566 6.079,6.357c5.431,2.955 12.956,4.673 21.235,4.673c8.279,0 15.805,-1.718 21.235,-4.673c3.293,-1.791 6.079,-3.626 6.079,-6.357Zm7.624,-101.22l-90.166,-0c-4.638,-0 -8.404,-3.766 -8.404,-8.405c-0,-4.638 3.766,-8.404 8.404,-8.404l90.166,-0l-6.453,-6.453c-3.28,-3.28 -3.28,-8.605 0,-11.885c3.28,-3.28 8.606,-3.28 11.886,-0l20.8,20.8c1.013,1.013 1.714,2.221 2.101,3.503c0.234,0.772 0.36,1.591 0.36,2.439c0,0.848 -0.126,1.667 -0.36,2.439c-0.387,1.283 -1.088,2.491 -2.101,3.504l-20.8,20.8c-3.28,3.28 -8.606,3.28 -11.886,-0c-3.28,-3.28 -3.28,-8.606 0,-11.886l6.453,-6.452Z"/></g></svg>