<?xml version="1.0" encoding="UTF-8" standalone="no"?><!DOCTYPE svg PUBLIC "-//W3C//DTD SVG 1.1//EN" "http://www.w3.org/Graphics/SVG/1.1/DTD/svg11.dtd"><svg width="100%" height="100%" viewBox="0 0 2134 2134" version="1.1" xmlns="http://www.w3.org/2000/svg" xmlns:xlink="http://www.w3.org/1999/xlink" xml:space="preserve" xmlns:serif="http://www.serif.com/" style="fill-rule:evenodd;clip-rule:evenodd;stroke-linejoin:round;stroke-miterlimit:2;"><rect id="Artboard1" x="0" y="0" width="2133.33" height="2133.33" style="fill:none;"/><path d="M1858.33,1874.18l-1583.33,0c-45.993,0 -83.333,-37.34 -83.333,-83.333c-0,-45.993 37.34,-83.333 83.333,-83.333l62.5,-0l0,-889.215c0,-46.024 37.31,-83.334 83.333,-83.334l250,0c46.024,0 83.334,37.31 83.334,83.334l-0,889.215l104.166,-0l0,-386.935c0,-46.024 37.31,-83.333 83.334,-83.333l250,-0c46.023,-0 83.333,37.309 83.333,83.333l0,386.935l104.167,-0l-0,-560.066c-0,-46.024 37.309,-83.334 83.333,-83.334l250,0c46.024,0 83.333,37.31 83.333,83.334l0,560.066l62.5,-0c45.993,-0 83.334,37.34 83.334,83.333c-0,45.993 -37.341,83.333 -83.334,83.333Zm-1270.83,-166.666l0,-805.882l-83.333,0l-0,805.882l83.333,-0Zm520.833,-0l0,-303.601l-83.333,-0.001l0,303.602l83.333,-0Zm520.834,-0l-0,-476.733l-83.334,0l0,476.733l83.334,-0Zm-131.8,-940.906c-50.627,56.723 -117.755,99.85 -196.589,121.058c-215.836,58.065 -438.208,-70.026 -496.273,-285.862c-58.064,-215.835 70.027,-438.208 285.862,-496.272c215.836,-58.064 438.209,70.026 496.273,285.862c21.208,78.834 17.581,158.54 -6.084,230.793l319.372,183.964c39.854,22.957 53.572,73.951 30.616,113.805c-22.957,39.854 -73.951,53.572 -113.805,30.616l-319.372,-183.964Zm-94.627,-152.329c29.897,-52.626 39.906,-116.58 22.955,-179.588c-34.167,-127.008 -165.022,-202.382 -292.03,-168.215c-127.008,34.168 -202.383,165.023 -168.215,292.031c34.168,127.008 165.022,202.383 292.03,168.215c63.008,-16.95 113.308,-57.696 143.831,-109.962c0.231,-0.417 0.465,-0.832 0.704,-1.246c0.238,-0.415 0.48,-0.826 0.725,-1.235Z"/></svg>