<?xml version="1.0" encoding="UTF-8" standalone="no"?><!DOCTYPE svg PUBLIC "-//W3C//DTD SVG 1.1//EN" "http://www.w3.org/Graphics/SVG/1.1/DTD/svg11.dtd"><svg width="100%" height="100%" viewBox="0 0 200 200" version="1.1" xmlns="http://www.w3.org/2000/svg" xmlns:xlink="http://www.w3.org/1999/xlink" xml:space="preserve" xmlns:serif="http://www.serif.com/" style="fill-rule:evenodd;clip-rule:evenodd;stroke-linejoin:round;stroke-miterlimit:2;"><rect id="Artboard1" x="0" y="0" width="200" height="200" style="fill:none;"/><g id="Artboard11" serif:id="Artboard1"><rect id="Artboard12" serif:id="Artboard1" x="0" y="0" width="199.937" height="199.937" style="fill:none;"/><path d="M174.017,183.333l-148.034,0c-4.3,0 -7.791,-3.491 -7.791,-7.791c-0,-4.3 3.491,-7.791 7.791,-7.791l5.844,-0l-0,-83.137c-0,-4.303 3.488,-7.791 7.791,-7.791l23.374,-0c4.303,-0 7.791,3.488 7.791,7.791l-0,83.137l9.739,-0l-0,-36.176c-0,-4.304 3.488,-7.792 7.791,-7.792l23.374,0c4.303,0 7.791,3.488 7.791,7.792l0,36.176l9.739,-0l0,-52.363c0,-4.303 3.488,-7.792 7.791,-7.792l23.374,0c4.303,0 7.791,3.489 7.791,7.792l0,52.363l5.844,-0c4.3,-0 7.791,3.491 7.791,7.791c-0,4.3 -3.491,7.791 -7.791,7.791Zm-118.817,-15.582l0,-75.346l-7.791,0l0,75.346l7.791,-0Zm48.696,-0l-0,-28.385l-7.792,-0l0,28.385l7.792,-0Zm48.695,-0l-0,-44.572l-7.792,-0l0,44.572l7.792,-0Zm-12.323,-87.97c-4.733,5.303 -11.009,9.336 -18.38,11.318c-20.179,5.429 -40.97,-6.547 -46.399,-26.726c-5.429,-20.18 6.547,-40.97 26.727,-46.399c20.179,-5.429 40.97,6.547 46.399,26.727c1.983,7.37 1.643,14.822 -0.569,21.577l29.86,17.2c3.726,2.147 5.008,6.914 2.862,10.64c-2.146,3.726 -6.914,5.009 -10.64,2.863l-29.86,-17.2Zm-8.847,-14.242c2.795,-4.92 3.731,-10.9 2.146,-16.79c-3.194,-11.875 -15.428,-18.922 -27.303,-15.728c-11.875,3.195 -18.922,15.429 -15.727,27.304c3.194,11.874 15.428,18.921 27.303,15.727c5.891,-1.585 10.594,-5.394 13.447,-10.281c0.022,-0.039 0.044,-0.078 0.066,-0.116c0.023,-0.039 0.045,-0.078 0.068,-0.116Z"/></g></svg>