<?xml version="1.0" encoding="UTF-8" standalone="no"?><!DOCTYPE svg PUBLIC "-//W3C//DTD SVG 1.1//EN" "http://www.w3.org/Graphics/SVG/1.1/DTD/svg11.dtd"><svg width="100%" height="100%" viewBox="0 0 200 200" version="1.1" xmlns="http://www.w3.org/2000/svg" xmlns:xlink="http://www.w3.org/1999/xlink" xml:space="preserve" xmlns:serif="http://www.serif.com/" style="fill-rule:evenodd;clip-rule:evenodd;stroke-linejoin:round;stroke-miterlimit:2;"><rect id="Artboard1" x="0" y="0" width="200" height="200" style="fill:none;"/><g id="Artboard11" serif:id="Artboard1"><path d="M158.333,66.667c-5.89,-0.012 -11.594,2.062 -16.102,5.854c-4.507,3.792 -7.528,9.056 -8.526,14.861c-0.998,5.805 0.09,11.776 3.073,16.855c2.982,5.08 7.666,8.94 13.222,10.896l0,14.034c0,9.945 -3.951,19.483 -10.983,26.516c-7.033,7.033 -16.572,10.984 -26.517,10.984c-9.945,-0 -19.484,-3.951 -26.517,-10.984c-7.032,-7.033 -10.983,-16.571 -10.983,-26.516l0,-4.917c11.639,-1.974 22.205,-8 29.83,-17.013c7.625,-9.013 11.818,-20.432 11.837,-32.237l-0,-50c-0,-2.21 -0.878,-4.33 -2.441,-5.893c-1.563,-1.562 -3.683,-2.44 -5.893,-2.44l-16.666,-0c-2.21,-0 -4.33,0.878 -5.893,2.44c-1.563,1.563 -2.441,3.683 -2.441,5.893c0,2.21 0.878,4.33 2.441,5.893c1.563,1.562 3.683,2.44 5.893,2.44l8.333,0l0,41.667c0,8.84 -3.512,17.319 -9.763,23.57c-6.251,6.251 -14.73,9.763 -23.57,9.763c-8.841,0 -17.319,-3.512 -23.571,-9.763c-6.251,-6.251 -9.763,-14.73 -9.763,-23.57l0,-41.667l8.334,0c2.21,0 4.329,-0.878 5.892,-2.44c1.563,-1.563 2.441,-3.683 2.441,-5.893c0,-2.21 -0.878,-4.33 -2.441,-5.893c-1.563,-1.562 -3.682,-2.44 -5.892,-2.44l-16.667,-0c-2.21,-0 -4.33,0.878 -5.893,2.44c-1.562,1.563 -2.44,3.683 -2.44,5.893l-0,50c0.018,11.805 4.211,23.224 11.836,32.237c7.625,9.013 18.191,15.039 29.83,17.013l0,4.917c0,14.365 5.707,28.143 15.865,38.301c10.159,10.159 23.936,15.865 38.302,15.865c14.366,0 28.143,-5.706 38.302,-15.865c10.158,-10.158 15.865,-23.936 15.865,-38.301l-0,-14.034c5.555,-1.956 10.239,-5.816 13.222,-10.896c2.982,-5.079 4.071,-11.05 3.073,-16.855c-0.999,-5.805 -4.019,-11.07 -8.527,-14.861c-4.507,-3.792 -10.211,-5.866 -16.102,-5.854Zm0,33.333c-1.648,-0 -3.259,-0.489 -4.629,-1.405c-1.371,-0.915 -2.439,-2.217 -3.07,-3.739c-0.63,-1.523 -0.795,-3.198 -0.474,-4.815c0.322,-1.616 1.115,-3.101 2.281,-4.267c1.165,-1.165 2.65,-1.959 4.266,-2.281c1.617,-0.321 3.293,-0.156 4.815,0.474c1.523,0.631 2.825,1.7 3.74,3.07c0.916,1.37 1.405,2.981 1.405,4.63c-0.002,2.209 -0.881,4.328 -2.444,5.89c-1.562,1.562 -3.68,2.441 -5.89,2.443Z" style="fill:#101117;fill-rule:nonzero;"/></g></svg>