<svg width="48" height="48" viewBox="0 0 48 48" fill="none" xmlns="http://www.w3.org/2000/svg">
<path d="M38 16C36.5863 15.9973 35.2174 16.495 34.1355 17.405C33.0537 18.315 32.3288 19.5784 32.0892 20.9716C31.8497 22.3649 32.1109 23.7979 32.8267 25.0169C33.5425 26.236 34.6666 27.1624 36 27.632V31C36 33.3869 35.0518 35.6761 33.364 37.364C31.6761 39.0518 29.3869 40 27 40C24.6131 40 22.3239 39.0518 20.636 37.364C18.9482 35.6761 18 33.3869 18 31V29.82C20.7934 29.3462 23.3293 27.8999 25.1593 25.7369C26.9893 23.5738 27.9955 20.8333 28 18V6C28 5.46957 27.7893 4.96086 27.4142 4.58579C27.0391 4.21071 26.5304 4 26 4H22C21.4696 4 20.9609 4.21071 20.5858 4.58579C20.2107 4.96086 20 5.46957 20 6C20 6.53043 20.2107 7.03914 20.5858 7.41421C20.9609 7.78929 21.4696 8 22 8H24V18C24 20.1217 23.1571 22.1566 21.6569 23.6569C20.1566 25.1571 18.1217 26 16 26C13.8783 26 11.8434 25.1571 10.3431 23.6569C8.84285 22.1566 8 20.1217 8 18V8H10C10.5304 8 11.0391 7.78929 11.4142 7.41421C11.7893 7.03914 12 6.53043 12 6C12 5.46957 11.7893 4.96086 11.4142 4.58579C11.0391 4.21071 10.5304 4 10 4H6C5.46957 4 4.96086 4.21071 4.58579 4.58579C4.21071 4.96086 4 5.46957 4 6V18C4.00446 20.8333 5.01066 23.5738 6.84065 25.7369C8.67065 27.8999 11.2066 29.3462 14 29.82V31C14 34.4478 15.3696 37.7544 17.8076 40.1924C20.2456 42.6304 23.5522 44 27 44C30.4478 44 33.7544 42.6304 36.1924 40.1924C38.6304 37.7544 40 34.4478 40 31V27.632C41.3334 27.1624 42.4575 26.236 43.1733 25.0169C43.8891 23.7979 44.1503 22.3649 43.9108 20.9716C43.6712 19.5784 42.9463 18.315 41.8645 17.405C40.7826 16.495 39.4137 15.9973 38 16ZM38 24C37.6044 24 37.2178 23.8827 36.8889 23.6629C36.56 23.4432 36.3036 23.1308 36.1522 22.7654C36.0009 22.3999 35.9613 21.9978 36.0384 21.6098C36.1156 21.2219 36.3061 20.8655 36.5858 20.5858C36.8655 20.3061 37.2219 20.1156 37.6098 20.0384C37.9978 19.9613 38.3999 20.0009 38.7654 20.1522C39.1308 20.3036 39.4432 20.56 39.6629 20.8889C39.8827 21.2178 40 21.6044 40 22C39.9995 22.5303 39.7886 23.0387 39.4136 23.4136C39.0387 23.7886 38.5303 23.9995 38 24Z" fill="#101117"/>
</svg>
