<svg width="48" height="48" viewBox="0 0 48 48" fill="none" xmlns="http://www.w3.org/2000/svg">
<path d="M31.9999 34C32.5303 34 33.039 33.7893 33.4141 33.4142C33.7892 33.0391 33.9999 32.5304 33.9999 32C34.0097 31.8668 34.0097 31.7332 33.9999 31.6C33.978 31.4747 33.9375 31.3534 33.8799 31.24C33.8361 31.1126 33.7756 30.9915 33.6999 30.88L33.4599 30.58C33.2655 30.4033 33.0422 30.2613 32.7999 30.16C32.313 29.96 31.7668 29.96 31.2799 30.16C31.0375 30.2613 30.8143 30.4033 30.6199 30.58L30.3799 30.88C30.3042 30.9915 30.2437 31.1126 30.1999 31.24C30.1422 31.3534 30.1018 31.4747 30.0799 31.6C30.0701 31.7332 30.0701 31.8668 30.0799 32C30.0799 32.5304 30.2906 33.0391 30.6657 33.4142C31.0407 33.7893 31.5494 34 32.0799 34H31.9999ZM35.9999 4H11.9999C10.4086 4 8.88246 4.63214 7.75724 5.75736C6.63202 6.88258 5.99988 8.4087 5.99988 10V34C6.00298 34.9281 6.22133 35.8428 6.63778 36.6722C7.05422 37.5016 7.6574 38.2231 8.39988 38.78L6.57988 40.58C6.39242 40.7659 6.24363 40.9871 6.1421 41.2308C6.04056 41.4746 5.98828 41.736 5.98828 42C5.98828 42.264 6.04056 42.5254 6.1421 42.7692C6.24363 43.0129 6.39242 43.2341 6.57988 43.42C6.7658 43.6075 6.98701 43.7562 7.23072 43.8578C7.47444 43.9593 7.73585 44.0116 7.99988 44.0116C8.2639 44.0116 8.52531 43.9593 8.76903 43.8578C9.01275 43.7562 9.23395 43.6075 9.41988 43.42L12.8199 40H35.1799L38.5799 43.42C38.7658 43.6075 38.987 43.7562 39.2307 43.8578C39.4744 43.9593 39.7359 44.0116 39.9999 44.0116C40.2639 44.0116 40.5253 43.9593 40.769 43.8578C41.0127 43.7562 41.234 43.6075 41.4199 43.42C41.6073 43.2341 41.7561 43.0129 41.8577 42.7692C41.9592 42.5254 42.0115 42.264 42.0115 42C42.0115 41.736 41.9592 41.4746 41.8577 41.2308C41.7561 40.9871 41.6073 40.7659 41.4199 40.58L39.5999 38.78C40.3424 38.2231 40.9455 37.5016 41.362 36.6722C41.7784 35.8428 41.9968 34.9281 41.9999 34V10C41.9999 8.4087 41.3677 6.88258 40.2425 5.75736C39.1173 4.63214 37.5912 4 35.9999 4ZM9.99988 16H21.9999V24H9.99988V16ZM37.9999 34C37.9999 34.5304 37.7892 35.0391 37.4141 35.4142C37.039 35.7893 36.5303 36 35.9999 36H11.9999C11.4694 36 10.9607 35.7893 10.5857 35.4142C10.2106 35.0391 9.99988 34.5304 9.99988 34V28H37.9999V34ZM37.9999 24H25.9999V16H37.9999V24ZM37.9999 12H9.99988V10C9.99988 9.46957 10.2106 8.96086 10.5857 8.58579C10.9607 8.21071 11.4694 8 11.9999 8H35.9999C36.5303 8 37.039 8.21071 37.4141 8.58579C37.7892 8.96086 37.9999 9.46957 37.9999 10V12ZM15.9999 34C16.5303 34 17.039 33.7893 17.4141 33.4142C17.7892 33.0391 17.9999 32.5304 17.9999 32C18.0097 31.8668 18.0097 31.7332 17.9999 31.6C17.978 31.4747 17.9375 31.3534 17.8799 31.24C17.8361 31.1126 17.7756 30.9915 17.6999 30.88L17.4599 30.58C17.2655 30.4033 17.0422 30.2613 16.7999 30.16C16.313 29.96 15.7668 29.96 15.2799 30.16C15.0375 30.2613 14.8143 30.4033 14.6199 30.58L14.3799 30.88C14.3042 30.9915 14.2437 31.1126 14.1999 31.24C14.1142 31.3484 14.0467 31.47 13.9999 31.6C13.9901 31.7332 13.9901 31.8668 13.9999 32C14.0021 32.5247 14.2104 33.0275 14.5799 33.4C14.7651 33.589 14.986 33.7393 15.2297 33.8423C15.4735 33.9453 15.7353 33.9989 15.9999 34Z" fill="#101117"/>
</svg>
