<?xml version="1.0" encoding="UTF-8" standalone="no"?><!DOCTYPE svg PUBLIC "-//W3C//DTD SVG 1.1//EN" "http://www.w3.org/Graphics/SVG/1.1/DTD/svg11.dtd"><svg width="100%" height="100%" viewBox="0 0 200 200" version="1.1" xmlns="http://www.w3.org/2000/svg" xmlns:xlink="http://www.w3.org/1999/xlink" xml:space="preserve" xmlns:serif="http://www.serif.com/" style="fill-rule:evenodd;clip-rule:evenodd;stroke-linejoin:round;stroke-miterlimit:2;"><rect id="Artboard1" x="0" y="0" width="200" height="200" style="fill:none;"/><g id="Artboard11" serif:id="Artboard1"><path d="M133.333,141.667c2.21,-0 4.33,-0.878 5.892,-2.441c1.563,-1.563 2.441,-3.683 2.441,-5.893c0.041,-0.555 0.041,-1.111 0,-1.666c-0.091,-0.522 -0.26,-1.028 -0.5,-1.5c-0.182,-0.531 -0.434,-1.036 -0.75,-1.5l-1,-1.25c-0.81,-0.737 -1.74,-1.328 -2.75,-1.75c-2.028,-0.834 -4.304,-0.834 -6.333,-0c-1.01,0.422 -1.94,1.013 -2.75,1.75l-1,1.25c-0.316,0.464 -0.568,0.969 -0.75,1.5c-0.241,0.472 -0.409,0.978 -0.5,1.5c-0.041,0.555 -0.041,1.111 -0,1.666c-0,2.21 0.878,4.33 2.441,5.893c1.562,1.563 3.682,2.441 5.892,2.441l-0.333,-0Zm16.667,-125l-100,-0c-6.631,-0 -12.99,2.634 -17.678,7.322c-4.689,4.688 -7.322,11.047 -7.322,17.678l-0,100c0.012,3.867 0.922,7.678 2.657,11.134c1.736,3.456 4.249,6.462 7.343,8.782l-7.584,7.5c-0.781,0.775 -1.401,1.697 -1.824,2.712c-0.423,1.016 -0.641,2.105 -0.641,3.205c0,1.1 0.218,2.189 0.641,3.205c0.423,1.015 1.043,1.937 1.824,2.712c0.775,0.781 1.697,1.4 2.712,1.824c1.016,0.423 2.105,0.641 3.205,0.641c1.1,-0 2.189,-0.218 3.205,-0.641c1.015,-0.424 1.937,-1.043 2.712,-1.824l14.166,-14.25l93.167,-0l14.167,14.25c0.774,0.781 1.696,1.4 2.711,1.824c1.016,0.423 2.105,0.641 3.205,0.641c1.1,-0 2.189,-0.218 3.205,-0.641c1.015,-0.424 1.937,-1.043 2.712,-1.824c0.781,-0.775 1.401,-1.697 1.824,-2.712c0.423,-1.016 0.641,-2.105 0.641,-3.205c-0,-1.1 -0.218,-2.189 -0.641,-3.205c-0.423,-1.015 -1.043,-1.937 -1.824,-2.712l-7.583,-7.5c3.093,-2.32 5.606,-5.326 7.342,-8.782c1.735,-3.456 2.645,-7.267 2.658,-11.134l-0,-100c-0,-6.631 -2.635,-12.99 -7.323,-17.678c-4.688,-4.688 -11.047,-7.322 -17.677,-7.322Zm-108.334,50l50,-0l0,33.333l-50,0l0,-33.333Zm116.667,75c-0,2.21 -0.878,4.329 -2.441,5.892c-1.563,1.563 -3.682,2.441 -5.892,2.441l-100,0c-2.211,0 -4.33,-0.878 -5.893,-2.441c-1.563,-1.563 -2.441,-3.682 -2.441,-5.892l0,-25l116.667,-0l-0,25Zm-0,-41.667l-50,0l-0,-33.333l50,-0l-0,33.333Zm-0,-50l-116.667,0l0,-8.333c0,-2.21 0.878,-4.33 2.441,-5.893c1.563,-1.563 3.682,-2.441 5.893,-2.441l100,0c2.21,0 4.329,0.878 5.892,2.441c1.563,1.563 2.441,3.683 2.441,5.893l-0,8.333Zm-91.667,91.667c2.21,-0 4.33,-0.878 5.893,-2.441c1.563,-1.563 2.441,-3.683 2.441,-5.893c0.04,-0.555 0.04,-1.111 -0,-1.666c-0.092,-0.522 -0.26,-1.028 -0.5,-1.5c-0.183,-0.531 -0.435,-1.036 -0.75,-1.5l-1,-1.25c-0.81,-0.737 -1.741,-1.328 -2.75,-1.75c-2.029,-0.834 -4.305,-0.834 -6.334,-0c-1.01,0.422 -1.94,1.013 -2.75,1.75l-1,1.25c-0.315,0.464 -0.567,0.969 -0.75,1.5c-0.357,0.451 -0.638,0.958 -0.833,1.5c-0.041,0.555 -0.041,1.111 -0,1.666c0.009,2.187 0.877,4.282 2.417,5.834c0.771,0.787 1.692,1.413 2.707,1.843c1.016,0.429 2.107,0.652 3.209,0.657Z" style="fill:#101117;fill-rule:nonzero;"/></g></svg>