<?xml version="1.0" encoding="UTF-8" standalone="no"?><!DOCTYPE svg PUBLIC "-//W3C//DTD SVG 1.1//EN" "http://www.w3.org/Graphics/SVG/1.1/DTD/svg11.dtd"><svg width="100%" height="100%" viewBox="0 0 200 200" version="1.1" xmlns="http://www.w3.org/2000/svg" xmlns:xlink="http://www.w3.org/1999/xlink" xml:space="preserve" xmlns:serif="http://www.serif.com/" style="fill-rule:evenodd;clip-rule:evenodd;stroke-linejoin:round;stroke-miterlimit:2;"><rect id="Artboard1" x="0" y="0" width="200" height="200" style="fill:none;"/><g id="Artboard11" serif:id="Artboard1"><g><path d="M183.333,82.143c0,7.415 -5.321,13.737 -15.54,17.889c-17.709,7.197 -51.83,8.897 -82.674,8.897c-26.989,-0 -45.173,-1.429 -55.429,-6.377c-8.821,-4.256 -13.023,-10.738 -13.023,-20.409c-0,-10.848 5.671,-20.984 18.145,-28.215c10.924,-6.333 27.509,-10.476 50.307,-10.476c31.17,0 65.635,7.752 83.532,18.662c9.618,5.863 14.682,13.049 14.682,20.029Zm-11.904,-0c-0,-2.114 -1.494,-3.973 -3.568,-5.89c-3.109,-2.872 -7.606,-5.5 -13.029,-7.908c-17.725,-7.869 -44.864,-12.988 -69.713,-12.988c-20.06,0 -34.724,3.298 -44.336,8.87c-8.063,4.674 -12.212,10.905 -12.212,17.916c0,6.151 3.81,9.346 10.884,11.396c9.906,2.871 24.99,3.485 45.664,3.485c25.184,-0 52.682,-0.981 70.647,-5.599c5.285,-1.358 9.67,-2.98 12.699,-5.12c1.696,-1.198 2.964,-2.434 2.964,-4.162Z"/><path d="M28.571,102.976c0,-3.285 2.668,-5.952 5.953,-5.952c3.285,-0 5.952,2.667 5.952,5.952l0,11.905c0,16.369 13.393,29.762 29.762,29.762l59.524,-0c16.369,-0 29.762,-13.393 29.762,-29.762l-0,-17.857c-0,-3.285 2.667,-5.953 5.952,-5.953c3.285,0 5.953,2.668 5.953,5.953l-0,17.857c-0,22.917 -18.75,41.667 -41.667,41.667l-59.524,-0c-22.917,-0 -41.667,-18.75 -41.667,-41.667l0,-11.905Z"/><path d="M38.978,59.072c-1.722,-2.798 -0.848,-6.467 1.95,-8.189c2.798,-1.722 6.467,-0.848 8.189,1.95l28.571,46.428c1.722,2.798 0.849,6.468 -1.949,8.189c-2.798,1.722 -6.468,0.848 -8.189,-1.949l-28.572,-46.429Z"/><path d="M77.182,52.694c-1.816,-2.739 -1.066,-6.435 1.672,-8.25c2.738,-1.816 6.435,-1.066 8.25,1.672l35.119,52.976c1.815,2.738 1.066,6.435 -1.672,8.25c-2.738,1.815 -6.435,1.066 -8.25,-1.672l-35.119,-52.976Z"/><path d="M124.942,58.85c-1.928,-2.66 -1.333,-6.385 1.327,-8.313c2.66,-1.927 6.385,-1.333 8.313,1.327l29.762,41.072c1.927,2.66 1.333,6.385 -1.327,8.313c-2.661,1.927 -6.385,1.332 -8.313,-1.328l-29.762,-41.071Z"/></g></g></svg>