<svg width="48" height="48" viewBox="0 0 48 48" fill="none" xmlns="http://www.w3.org/2000/svg">
<path d="M18 20C17.4696 20 16.9609 20.2107 16.5858 20.5858C16.2107 20.9609 16 21.4696 16 22V26C16 26.5304 16.2107 27.0391 16.5858 27.4142C16.9609 27.7893 17.4696 28 18 28C18.5304 28 19.0391 27.7893 19.4142 27.4142C19.7893 27.0391 20 26.5304 20 26V22C20 21.4696 19.7893 20.9609 19.4142 20.5858C19.0391 20.2107 18.5304 20 18 20ZM42 22C42.5304 22 43.0391 21.7893 43.4142 21.4142C43.7893 21.0391 44 20.5304 44 20V12C44 11.4696 43.7893 10.9609 43.4142 10.5858C43.0391 10.2107 42.5304 10 42 10H6C5.46957 10 4.96086 10.2107 4.58579 10.5858C4.21071 10.9609 4 11.4696 4 12V20C4 20.5304 4.21071 21.0391 4.58579 21.4142C4.96086 21.7893 5.46957 22 6 22C6.53043 22 7.03914 22.2107 7.41421 22.5858C7.78929 22.9609 8 23.4696 8 24C8 24.5304 7.78929 25.0391 7.41421 25.4142C7.03914 25.7893 6.53043 26 6 26C5.46957 26 4.96086 26.2107 4.58579 26.5858C4.21071 26.9609 4 27.4696 4 28V36C4 36.5304 4.21071 37.0391 4.58579 37.4142C4.96086 37.7893 5.46957 38 6 38H42C42.5304 38 43.0391 37.7893 43.4142 37.4142C43.7893 37.0391 44 36.5304 44 36V28C44 27.4696 43.7893 26.9609 43.4142 26.5858C43.0391 26.2107 42.5304 26 42 26C41.4696 26 40.9609 25.7893 40.5858 25.4142C40.2107 25.0391 40 24.5304 40 24C40 23.4696 40.2107 22.9609 40.5858 22.5858C40.9609 22.2107 41.4696 22 42 22ZM40 18.36C38.8417 18.7804 37.8409 19.5473 37.1337 20.5563C36.4264 21.5654 36.047 22.7678 36.047 24C36.047 25.2322 36.4264 26.4346 37.1337 27.4437C37.8409 28.4527 38.8417 29.2196 40 29.64V34H20C20 33.4696 19.7893 32.9609 19.4142 32.5858C19.0391 32.2107 18.5304 32 18 32C17.4696 32 16.9609 32.2107 16.5858 32.5858C16.2107 32.9609 16 33.4696 16 34H8V29.64C9.1583 29.2196 10.1591 28.4527 10.8663 27.4437C11.5736 26.4346 11.953 25.2322 11.953 24C11.953 22.7678 11.5736 21.5654 10.8663 20.5563C10.1591 19.5473 9.1583 18.7804 8 18.36V14H16C16 14.5304 16.2107 15.0391 16.5858 15.4142C16.9609 15.7893 17.4696 16 18 16C18.5304 16 19.0391 15.7893 19.4142 15.4142C19.7893 15.0391 20 14.5304 20 14H40V18.36Z" fill="#101117"/>
</svg>
