<?xml version="1.0" encoding="UTF-8" standalone="no"?><!DOCTYPE svg PUBLIC "-//W3C//DTD SVG 1.1//EN" "http://www.w3.org/Graphics/SVG/1.1/DTD/svg11.dtd"><svg width="100%" height="100%" viewBox="0 0 200 200" version="1.1" xmlns="http://www.w3.org/2000/svg" xmlns:xlink="http://www.w3.org/1999/xlink" xml:space="preserve" xmlns:serif="http://www.serif.com/" style="fill-rule:evenodd;clip-rule:evenodd;stroke-linejoin:round;stroke-miterlimit:2;"><rect id="Artboard1" x="0" y="0" width="200" height="200" style="fill:none;"/><g id="Artboard11" serif:id="Artboard1"><path d="M75,83.333c-2.21,0 -4.33,0.878 -5.892,2.441c-1.563,1.563 -2.441,3.683 -2.441,5.893l-0,16.666c-0,2.21 0.878,4.33 2.441,5.893c1.562,1.563 3.682,2.441 5.892,2.441c2.21,-0 4.33,-0.878 5.893,-2.441c1.562,-1.563 2.44,-3.683 2.44,-5.893l0,-16.666c0,-2.21 -0.878,-4.33 -2.44,-5.893c-1.563,-1.563 -3.683,-2.441 -5.893,-2.441Zm100,8.334c2.21,-0 4.33,-0.878 5.893,-2.441c1.562,-1.563 2.44,-3.683 2.44,-5.893l0,-33.333c0,-2.21 -0.878,-4.33 -2.44,-5.892c-1.563,-1.563 -3.683,-2.441 -5.893,-2.441l-150,-0c-2.21,-0 -4.33,0.878 -5.893,2.441c-1.562,1.562 -2.44,3.682 -2.44,5.892l-0,33.333c-0,2.21 0.878,4.33 2.44,5.893c1.563,1.563 3.683,2.441 5.893,2.441c2.21,-0 4.33,0.878 5.893,2.441c1.562,1.562 2.44,3.682 2.44,5.892c0,2.21 -0.878,4.33 -2.44,5.892c-1.563,1.563 -3.683,2.441 -5.893,2.441c-2.21,0 -4.33,0.878 -5.893,2.441c-1.562,1.563 -2.44,3.683 -2.44,5.893l-0,33.333c-0,2.21 0.878,4.33 2.44,5.893c1.563,1.562 3.683,2.44 5.893,2.44l150,0c2.21,0 4.33,-0.878 5.893,-2.44c1.562,-1.563 2.44,-3.683 2.44,-5.893l0,-33.333c0,-2.21 -0.878,-4.33 -2.44,-5.893c-1.563,-1.563 -3.683,-2.441 -5.893,-2.441c-2.21,0 -4.33,-0.878 -5.893,-2.441c-1.562,-1.562 -2.44,-3.682 -2.44,-5.892c-0,-2.21 0.878,-4.33 2.44,-5.892c1.563,-1.563 3.683,-2.441 5.893,-2.441Zm-8.333,-15.167c-4.827,1.752 -8.997,4.947 -11.943,9.151c-2.947,4.205 -4.528,9.215 -4.528,14.349c-0,5.134 1.581,10.144 4.528,14.349c2.946,4.204 7.116,7.399 11.943,9.151l-0,18.167l-83.334,-0c0,-2.21 -0.878,-4.33 -2.44,-5.893c-1.563,-1.563 -3.683,-2.441 -5.893,-2.441c-2.21,0 -4.33,0.878 -5.892,2.441c-1.563,1.563 -2.441,3.683 -2.441,5.893l-33.334,-0l0,-18.167c4.827,-1.752 8.997,-4.947 11.943,-9.151c2.947,-4.205 4.528,-9.215 4.528,-14.349c0,-5.134 -1.581,-10.144 -4.528,-14.349c-2.946,-4.204 -7.116,-7.399 -11.943,-9.151l0,-18.167l33.334,0c-0,2.21 0.878,4.33 2.441,5.893c1.562,1.563 3.682,2.441 5.892,2.441c2.21,-0 4.33,-0.878 5.893,-2.441c1.562,-1.563 2.44,-3.683 2.44,-5.893l83.334,0l-0,18.167Z" style="fill:#101117;fill-rule:nonzero;"/></g></svg>