<svg width="133" height="103" viewBox="0 0 133 103" fill="none" xmlns="http://www.w3.org/2000/svg">
<path d="M30.1834 78.4483C26.0046 78.4483 21.9197 77.2091 18.4452 74.8875C14.9707 72.5659 12.2626 69.2662 10.6635 65.4055C9.06433 61.5448 8.64592 57.2967 9.46116 53.1982C10.2764 49.0997 12.2887 45.335 15.2435 42.3802C18.1983 39.4254 21.963 37.4131 26.0615 36.5979C30.1599 35.7826 34.4081 36.201 38.2688 37.8002C42.1294 39.3993 45.4292 42.1074 47.7508 45.5819C50.0724 49.0564 51.3116 53.1413 51.3116 57.3201C51.3048 62.9216 49.0766 68.2917 45.1158 72.2525C41.1549 76.2133 35.7848 78.4415 30.1834 78.4483Z" fill="black"/>
<path d="M46.1214 71.034C44.1653 73.3564 41.7254 75.2233 38.9723 76.5039C36.2192 77.7846 33.2195 78.4482 30.1831 78.4482C27.1467 78.4482 24.147 77.7846 21.394 76.5039C18.6409 75.2233 16.2009 73.3564 14.2449 71.034C9.89843 73.7288 6.30992 77.4861 3.81768 81.9517C1.32544 86.4174 0.0115858 91.4442 0 96.5582C0 98.1592 0.635999 99.6946 1.76809 100.827C2.90017 101.959 4.43561 102.595 6.03662 102.595H54.3296C55.9306 102.595 57.4661 101.959 58.5982 100.827C59.7302 99.6946 60.3662 98.1592 60.3662 96.5582C60.3547 91.4442 59.0408 86.4174 56.5486 81.9517C54.0563 77.4861 50.4678 73.7288 46.1214 71.034ZM102.623 78.4483C98.4438 78.4483 94.3589 77.2091 90.8844 74.8875C87.4099 72.5659 84.7019 69.2662 83.1027 65.4055C81.5036 61.5448 81.0852 57.2967 81.9004 53.1982C82.7156 49.0997 84.7279 45.335 87.6827 42.3802C90.6376 39.4254 94.4022 37.4131 98.5007 36.5979C102.599 35.7826 106.847 36.201 110.708 37.8002C114.569 39.3993 117.868 42.1074 120.19 45.5819C122.512 49.0564 123.751 53.1413 123.751 57.3201C123.744 62.9216 121.516 68.2917 117.555 72.2525C113.594 76.2133 108.224 78.4415 102.623 78.4483Z" fill="black"/>
<path d="M118.561 71.0352C116.605 73.3575 114.165 75.2244 111.412 76.5051C108.659 77.7857 105.659 78.4493 102.623 78.4493C99.5862 78.4493 96.5865 77.7857 93.8334 76.5051C91.0803 75.2244 88.6404 73.3575 86.6843 71.0352C82.3379 73.7299 78.7494 77.4872 76.2571 81.9529C73.7649 86.4185 72.451 91.4453 72.4395 96.5593C72.4395 98.1603 73.0755 99.6957 74.2075 100.828C75.3396 101.96 76.8751 102.596 78.4761 102.596H126.769C128.37 102.596 129.906 101.96 131.038 100.828C132.17 99.6957 132.806 98.1603 132.806 96.5593C132.794 91.4453 131.48 86.4185 128.988 81.9529C126.496 77.4872 122.907 73.7299 118.561 71.0352Z" fill="black"/>
<path d="M97.8356 13.8145L85.7624 1.74121C84.627 0.626179 83.0972 0.00465204 81.5058 0.0118587C79.9145 0.0190653 78.3904 0.654423 77.2651 1.77969C76.1398 2.90495 75.5045 4.42907 75.4973 6.02042C75.49 7.61177 76.1116 9.14158 77.2266 10.277L78.9953 12.0457H53.8109L55.5796 10.277C56.6998 9.14259 57.3257 7.61109 57.3206 6.01684C57.3156 4.42259 56.68 2.89509 55.5527 1.7678C54.4253 0.640515 52.8978 0.00501192 51.3036 2.95179e-05C49.7093 -0.00495289 48.1778 0.62099 47.0435 1.74121L34.9702 13.8145C34.4095 14.3748 33.9648 15.0402 33.6613 15.7725C33.3578 16.5049 33.2017 17.2898 33.2017 18.0825C33.2017 18.8752 33.3578 19.6602 33.6613 20.3925C33.9648 21.1249 34.4095 21.7902 34.9702 22.3506L47.0435 34.4239C48.1779 35.544 49.7094 36.1699 51.3036 36.1649C52.8979 36.1598 54.4254 35.5242 55.5527 34.3969C56.68 33.2696 57.3155 31.742 57.3204 30.1478C57.3254 28.5535 56.6995 27.0221 55.5793 25.8877L53.8105 24.119H78.9946L77.2259 25.8877C76.094 27.0197 75.4581 28.555 75.4582 30.1559C75.4582 31.7567 76.0942 33.2919 77.2262 34.4239C78.3583 35.5558 79.8936 36.1916 81.4944 36.1916C83.0952 36.1915 84.6305 35.5555 85.7624 34.4235L97.8356 22.3502C98.3963 21.7899 98.841 21.1245 99.1444 20.3922C99.4479 19.6599 99.604 18.875 99.604 18.0824C99.604 17.2897 99.4479 16.5048 99.1444 15.7725C98.841 15.0402 98.3963 14.3748 97.8356 13.8145Z" fill="black"/>
</svg>
