<?xml version="1.0" encoding="UTF-8" standalone="no"?><!DOCTYPE svg PUBLIC "-//W3C//DTD SVG 1.1//EN" "http://www.w3.org/Graphics/SVG/1.1/DTD/svg11.dtd"><svg width="100%" height="100%" viewBox="0 0 200 200" version="1.1" xmlns="http://www.w3.org/2000/svg" xmlns:xlink="http://www.w3.org/1999/xlink" xml:space="preserve" xmlns:serif="http://www.serif.com/" style="fill-rule:evenodd;clip-rule:evenodd;stroke-linejoin:round;stroke-miterlimit:2;"><rect id="Artboard1" x="0" y="0" width="200" height="200" style="fill:none;"/><g id="Artboard11" serif:id="Artboard1"><path d="M74.646,124.83c5.41,3.377 9.878,8.069 12.987,13.639c3.128,5.605 4.777,11.913 4.791,18.331c0,2.009 -0.798,3.936 -2.219,5.357c-1.42,1.421 -3.347,2.219 -5.357,2.219l-60.606,-0c-2.009,-0 -3.936,-0.798 -5.356,-2.219c-1.421,-1.421 -2.219,-3.348 -2.219,-5.357c0.014,-6.418 1.663,-12.726 4.791,-18.331c3.106,-5.566 7.57,-10.256 12.976,-13.633c-1.821,-2.118 -3.305,-4.523 -4.385,-7.132c-2.007,-4.845 -2.532,-10.176 -1.509,-15.319c1.023,-5.144 3.549,-9.868 7.257,-13.577c3.708,-3.708 8.432,-6.233 13.576,-7.256c5.143,-1.023 10.475,-0.498 15.32,1.509c4.845,2.007 8.986,5.405 11.899,9.766c2.914,4.36 4.469,9.486 4.469,14.731c-0.008,6.359 -2.297,12.482 -6.415,17.272Zm90.908,0c5.41,3.378 9.879,8.07 12.988,13.641c3.127,5.604 4.776,11.912 4.791,18.33c0,2.009 -0.798,3.936 -2.218,5.357c-1.421,1.421 -3.349,2.219 -5.358,2.219l-60.606,0c-2.009,0 -3.936,-0.798 -5.357,-2.219c-1.42,-1.421 -2.218,-3.348 -2.218,-5.357c0.014,-6.418 1.663,-12.726 4.791,-18.33c3.106,-5.567 7.571,-10.257 12.976,-13.634c-1.82,-2.119 -3.305,-4.524 -4.385,-7.133c-2.007,-4.845 -2.532,-10.176 -1.509,-15.319c1.023,-5.144 3.548,-9.868 7.256,-13.577c3.709,-3.708 8.433,-6.233 13.576,-7.256c5.144,-1.023 10.475,-0.498 15.32,1.509c4.846,2.007 8.986,5.405 11.9,9.766c2.914,4.36 4.469,9.486 4.469,14.731c-0.008,6.36 -2.298,12.482 -6.416,17.272Zm-26.107,-71.87c0.703,0.703 1.262,1.538 1.642,2.457c0.381,0.919 0.577,1.904 0.577,2.899c0,0.994 -0.196,1.979 -0.577,2.898c-0.38,0.919 -0.939,1.754 -1.642,2.458l-15.152,15.151c-1.42,1.421 -3.347,2.219 -5.356,2.219c-2.009,0 -3.936,-0.798 -5.356,-2.218c-1.421,-1.421 -2.219,-3.348 -2.219,-5.357c-0,-2.009 0.798,-3.935 2.218,-5.356l2.22,-2.22l-31.605,0l2.22,2.22c1.405,1.424 2.191,3.345 2.185,5.346c-0.006,2.001 -0.804,3.918 -2.219,5.333c-1.414,1.414 -3.331,2.212 -5.332,2.219c-2.001,0.006 -3.923,-0.78 -5.346,-2.185l-15.152,-15.152c-0.704,-0.703 -1.262,-1.538 -1.643,-2.457c-0.381,-0.919 -0.576,-1.904 -0.576,-2.899c-0,-0.995 0.195,-1.98 0.576,-2.899c0.381,-0.919 0.939,-1.754 1.643,-2.457l15.152,-15.152c1.423,-1.406 3.345,-2.191 5.346,-2.185c2,0.006 3.917,0.804 5.332,2.218c1.415,1.415 2.213,3.332 2.219,5.333c0.006,2.001 -0.779,3.923 -2.185,5.346l-2.22,2.22l31.606,-0l-2.22,-2.22c-1.399,-1.425 -2.179,-3.345 -2.17,-5.342c0.009,-1.997 0.806,-3.91 2.219,-5.322c1.412,-1.412 3.324,-2.209 5.321,-2.218c1.998,-0.009 3.917,0.771 5.342,2.17l15.152,15.152Z"/></g></svg>