<?xml version="1.0" encoding="UTF-8" standalone="no"?><!DOCTYPE svg PUBLIC "-//W3C//DTD SVG 1.1//EN" "http://www.w3.org/Graphics/SVG/1.1/DTD/svg11.dtd"><svg width="100%" height="100%" viewBox="0 0 200 200" version="1.1" xmlns="http://www.w3.org/2000/svg" xmlns:xlink="http://www.w3.org/1999/xlink" xml:space="preserve" xmlns:serif="http://www.serif.com/" style="fill-rule:evenodd;clip-rule:evenodd;stroke-linejoin:round;stroke-miterlimit:2;"><rect id="Artboard1" x="0" y="0" width="200" height="200" style="fill:none;"/><g id="Artboard11" serif:id="Artboard1"><path d="M166.667,50l-33.334,0l0,-8.333c0,-6.631 -2.633,-12.99 -7.322,-17.678c-4.689,-4.688 -11.047,-7.322 -17.678,-7.322l-16.666,-0c-6.631,-0 -12.989,2.634 -17.678,7.322c-4.689,4.688 -7.322,11.047 -7.322,17.678l-0,8.333l-33.334,0c-2.21,0 -4.329,0.878 -5.892,2.441c-1.563,1.563 -2.441,3.682 -2.441,5.892c0,2.21 0.878,4.33 2.441,5.893c1.563,1.563 3.682,2.441 5.892,2.441l8.334,-0l-0,91.666c-0,6.631 2.633,12.989 7.322,17.678c4.689,4.689 11.047,7.322 17.678,7.322l66.666,0c6.631,0 12.989,-2.633 17.678,-7.322c4.689,-4.689 7.322,-11.047 7.322,-17.678l0,-91.666l8.334,-0c2.21,-0 4.329,-0.878 5.892,-2.441c1.563,-1.563 2.441,-3.683 2.441,-5.893c-0,-2.21 -0.878,-4.329 -2.441,-5.892c-1.563,-1.563 -3.682,-2.441 -5.892,-2.441Zm-83.334,-8.333c0,-2.21 0.878,-4.33 2.441,-5.893c1.563,-1.563 3.683,-2.441 5.893,-2.441l16.666,0c2.21,0 4.33,0.878 5.893,2.441c1.563,1.563 2.441,3.683 2.441,5.893l-0,8.333l-33.334,0l0,-8.333Zm58.334,116.666c-0,2.21 -0.878,4.33 -2.441,5.893c-1.563,1.563 -3.683,2.441 -5.893,2.441l-66.666,-0c-2.21,-0 -4.33,-0.878 -5.893,-2.441c-1.563,-1.563 -2.441,-3.683 -2.441,-5.893l0,-91.666l83.334,-0l-0,91.666Z" style="fill:#101117;fill-rule:nonzero;"/></g></svg>