<?xml version="1.0" encoding="UTF-8" standalone="no"?><!DOCTYPE svg PUBLIC "-//W3C//DTD SVG 1.1//EN" "http://www.w3.org/Graphics/SVG/1.1/DTD/svg11.dtd"><svg width="100%" height="100%" viewBox="0 0 200 200" version="1.1" xmlns="http://www.w3.org/2000/svg" xmlns:xlink="http://www.w3.org/1999/xlink" xml:space="preserve" xmlns:serif="http://www.serif.com/" style="fill-rule:evenodd;clip-rule:evenodd;stroke-linejoin:round;stroke-miterlimit:2;"><rect id="Artboard1" x="0" y="0" width="200" height="200" style="fill:none;"/><g id="Artboard11" serif:id="Artboard1"><path d="M137.663,41.051c-7.369,-0.005 -14.601,1.991 -20.924,5.775c-4.584,-10.522 -12.635,-19.156 -22.811,-24.465c-10.176,-5.309 -21.863,-6.971 -33.116,-4.711c-11.253,2.261 -21.392,8.307 -28.729,17.134c-7.336,8.826 -11.428,19.9 -11.593,31.376l-0,33.478c0.012,11.859 4.22,23.331 11.879,32.383c7.659,9.054 18.276,15.105 29.968,17.081l0,25.862c0,2.219 0.882,4.348 2.452,5.918c1.569,1.57 3.698,2.451 5.918,2.451c2.219,0 4.348,-0.881 5.918,-2.451c1.569,-1.57 2.451,-3.699 2.451,-5.918l0,-25.862c8.527,-1.48 16.535,-5.109 23.267,-10.546c2.988,4.796 6.917,8.937 11.549,12.173c4.631,3.237 9.871,5.502 15.401,6.659l0,17.576c0,2.219 0.882,4.348 2.452,5.918c1.569,1.57 3.698,2.451 5.918,2.451c2.219,0 4.348,-0.881 5.918,-2.451c1.57,-1.57 2.451,-3.699 2.451,-5.918l0,-17.576c9.452,-1.93 17.948,-7.066 24.049,-14.539c6.1,-7.473 9.432,-16.825 9.429,-26.472l0,-33.478c0,-11.099 -4.409,-21.743 -12.256,-29.591c-7.848,-7.847 -18.492,-12.257 -29.591,-12.257Zm-41.848,41.848l0,33.478c0.08,1.598 0.248,3.191 0.502,4.771c-4.476,5.331 -10.503,9.134 -17.241,10.88l0,-24.02c0,-2.22 -0.882,-4.349 -2.451,-5.918c-1.57,-1.57 -3.699,-2.452 -5.918,-2.452c-2.22,0 -4.349,0.882 -5.918,2.452c-1.57,1.569 -2.452,3.698 -2.452,5.918l0,23.936c-7.168,-1.85 -13.521,-6.025 -18.064,-11.87c-4.543,-5.846 -7.02,-13.033 -7.044,-20.436l-0,-33.478c-0.022,-6.632 1.926,-13.122 5.598,-18.645c3.672,-5.523 8.902,-9.831 15.026,-12.377c6.124,-2.547 12.866,-3.217 19.371,-1.926c6.506,1.292 12.481,4.486 17.168,9.179c4.531,4.592 7.616,10.411 8.872,16.739c-4.838,6.983 -7.436,15.274 -7.449,23.769Zm66.956,33.478c-0.014,5.18 -1.631,10.229 -4.628,14.455c-2.996,4.226 -7.227,7.421 -12.111,9.147l0,-31.971c0,-2.22 -0.881,-4.349 -2.451,-5.918c-1.57,-1.57 -3.699,-2.452 -5.918,-2.452c-2.22,0 -4.349,0.882 -5.918,2.452c-1.57,1.569 -2.452,3.698 -2.452,5.918l0,31.971c-4.884,-1.726 -9.114,-4.921 -12.111,-9.147c-2.996,-4.226 -4.613,-9.275 -4.628,-14.455l0,-33.478c0,-6.659 2.645,-13.045 7.355,-17.754c4.708,-4.709 11.095,-7.354 17.754,-7.354c6.659,-0 13.045,2.645 17.754,7.354c4.709,4.709 7.354,11.095 7.354,17.754l0,33.478Z" style="fill:#101117;fill-rule:nonzero;"/></g></svg>