<svg width="48" height="48" viewBox="0 0 48 48" fill="none" xmlns="http://www.w3.org/2000/svg">
<path d="M33 9.9999C31.2391 9.9985 29.5109 10.4755 28 11.3799C26.9045 8.86547 24.9808 6.80218 22.5491 5.53361C20.1174 4.26503 17.3245 3.86774 14.6355 4.40787C11.9465 4.94801 9.52372 6.39298 7.77051 8.50217C6.01731 10.6114 5.03953 13.2575 5 15.9999V23.9999C5.00287 26.8337 6.00849 29.575 7.83877 31.7383C9.66905 33.9017 12.2059 35.3476 15 35.8199V41.9999C15 42.5303 15.2107 43.039 15.5858 43.4141C15.9609 43.7892 16.4696 43.9999 17 43.9999C17.5304 43.9999 18.0391 43.7892 18.4142 43.4141C18.7893 43.039 19 42.5303 19 41.9999V35.8199C21.0375 35.4663 22.9511 34.599 24.56 33.2999C25.274 34.4459 26.2128 35.4354 27.3196 36.2088C28.4264 36.9822 29.6784 37.5235 31 37.7999V41.9999C31 42.5303 31.2107 43.039 31.5858 43.4141C31.9609 43.7892 32.4696 43.9999 33 43.9999C33.5304 43.9999 34.0391 43.7892 34.4142 43.4141C34.7893 43.039 35 42.5303 35 41.9999V37.7999C37.2587 37.3388 39.2888 36.1115 40.7466 34.3257C42.2044 32.5399 43.0005 30.3052 43 27.9999V19.9999C43 17.3477 41.9464 14.8042 40.0711 12.9288C38.1957 11.0535 35.6522 9.9999 33 9.9999ZM23 19.9999V27.9999C23.0191 28.3818 23.0592 28.7624 23.12 29.1399C22.0504 30.4138 20.6102 31.3226 19 31.7399V25.9999C19 25.4695 18.7893 24.9608 18.4142 24.5857C18.0391 24.2106 17.5304 23.9999 17 23.9999C16.4696 23.9999 15.9609 24.2106 15.5858 24.5857C15.2107 24.9608 15 25.4695 15 25.9999V31.7199C13.2871 31.2776 11.769 30.28 10.6834 28.8832C9.59774 27.4863 9.00574 25.769 9 23.9999V15.9999C8.99478 14.415 9.46043 12.8643 10.3379 11.5445C11.2153 10.2247 12.465 9.19521 13.9284 8.58671C15.3918 7.9782 17.003 7.81808 18.5575 8.12666C20.1121 8.43523 21.54 9.19859 22.66 10.3199C23.7427 11.4172 24.4798 12.8079 24.78 14.3199C23.6239 15.9887 23.003 17.9698 23 19.9999ZM39 27.9999C38.9965 29.2378 38.6102 30.4443 37.8941 31.454C37.178 32.4638 36.1671 33.2273 35 33.6399V25.9999C35 25.4695 34.7893 24.9608 34.4142 24.5857C34.0391 24.2106 33.5304 23.9999 33 23.9999C32.4696 23.9999 31.9609 24.2106 31.5858 24.5857C31.2107 24.9608 31 25.4695 31 25.9999V33.6399C29.8329 33.2273 28.822 32.4638 28.1059 31.454C27.3898 30.4443 27.0035 29.2378 27 27.9999V19.9999C27 18.4086 27.6321 16.8825 28.7574 15.7573C29.8826 14.632 31.4087 13.9999 33 13.9999C34.5913 13.9999 36.1174 14.632 37.2426 15.7573C38.3679 16.8825 39 18.4086 39 19.9999V27.9999Z" fill="#101117"/>
</svg>
