<?xml version="1.0" encoding="UTF-8" standalone="no"?><!DOCTYPE svg PUBLIC "-//W3C//DTD SVG 1.1//EN" "http://www.w3.org/Graphics/SVG/1.1/DTD/svg11.dtd"><svg width="100%" height="100%" viewBox="0 0 200 200" version="1.1" xmlns="http://www.w3.org/2000/svg" xmlns:xlink="http://www.w3.org/1999/xlink" xml:space="preserve" xmlns:serif="http://www.serif.com/" style="fill-rule:evenodd;clip-rule:evenodd;stroke-linejoin:round;stroke-miterlimit:2;"><rect id="Artboard1" x="0" y="0" width="200" height="200" style="fill:none;"/><g id="Artboard11" serif:id="Artboard1"><path d="M176.28,24.02c-4.758,-4.516 -11.068,-7.033 -17.628,-7.033c-6.56,0 -12.87,2.517 -17.629,7.033l-20.123,20.039c-3.618,3.661 -6.016,8.35 -6.865,13.427c-0.848,5.076 -0.106,10.291 2.126,14.929l-17.878,17.878l-16.631,-16.631c-3,-3.072 -6.742,-5.318 -10.865,-6.52c-4.123,-1.202 -8.486,-1.32 -12.667,-0.342c-4.182,0.979 -8.04,3.02 -11.201,5.927c-3.161,2.906 -5.518,6.579 -6.844,10.664l-22.118,66.523c-1.47,4.391 -1.689,9.105 -0.631,13.614c1.057,4.508 3.349,8.634 6.618,11.914c2.371,2.443 5.218,4.374 8.364,5.676c3.146,1.301 6.525,1.945 9.929,1.89c2.829,0.054 5.645,-0.397 8.316,-1.33l66.522,-22.119c4.085,-1.325 7.758,-3.682 10.665,-6.843c2.906,-3.162 4.948,-7.02 5.926,-11.201c0.978,-4.181 0.861,-8.544 -0.341,-12.667c-1.202,-4.122 -3.448,-7.865 -6.521,-10.865l-16.63,-16.631l17.878,-17.878c4.637,2.232 9.852,2.974 14.928,2.126c5.077,-0.849 9.767,-3.247 13.427,-6.866l20.04,-20.123c4.449,-4.669 6.917,-10.879 6.886,-17.329c-0.031,-6.449 -2.559,-12.636 -7.053,-17.262Zm-61.699,106.02c0.989,1.008 1.706,2.252 2.081,3.614c0.376,1.362 0.398,2.797 0.065,4.17c-0.332,1.373 -1.01,2.638 -1.967,3.677c-0.958,1.038 -2.164,1.816 -3.505,2.259l-66.357,22.618c-1.444,0.441 -2.981,0.481 -4.446,0.115c-1.465,-0.367 -2.802,-1.125 -3.869,-2.194c-1.069,-1.066 -1.827,-2.404 -2.193,-3.869c-0.367,-1.465 -0.327,-3.002 0.114,-4.446l22.202,-66.523c0.317,-1.468 1.025,-2.823 2.05,-3.921c1.025,-1.098 2.328,-1.898 3.771,-2.315c0.636,-0.069 1.277,-0.069 1.912,-0c2.182,0.009 4.272,0.875 5.821,2.411l16.631,16.631l-7.235,7.151c-0.779,0.773 -1.398,1.693 -1.82,2.706c-0.422,1.013 -0.639,2.1 -0.639,3.198c-0,1.098 0.217,2.185 0.639,3.198c0.422,1.013 1.041,1.933 1.82,2.706c0.773,0.779 1.693,1.398 2.706,1.82c1.013,0.422 2.101,0.639 3.198,0.639c1.098,0 2.185,-0.217 3.198,-0.639c1.014,-0.422 1.933,-1.041 2.706,-1.82l7.151,-7.235l15.966,16.049Zm49.892,-82.488l-20.04,20.04c-1.168,1.144 -2.646,1.919 -4.251,2.228c-1.606,0.308 -3.266,0.137 -4.775,-0.493c-1.508,-0.63 -2.797,-1.691 -3.706,-3.049c-0.909,-1.359 -1.398,-2.955 -1.404,-4.59c0.009,-2.181 0.875,-4.272 2.411,-5.821l20.04,-20.123c0.773,-0.779 1.693,-1.398 2.706,-1.82c1.013,-0.422 2.1,-0.639 3.198,-0.639c1.098,-0 2.184,0.217 3.198,0.639c1.013,0.422 1.933,1.041 2.706,1.82c0.779,0.773 1.398,1.693 1.82,2.706c0.422,1.014 0.639,2.101 0.639,3.198c0,1.098 -0.217,2.185 -0.639,3.198c-0.422,1.013 -1.041,1.933 -1.82,2.706l-0.083,-0Z" style="fill:#101117;fill-rule:nonzero;"/></g></svg>