<svg width="48" height="48" viewBox="0 0 48 48" fill="none" xmlns="http://www.w3.org/2000/svg">
<path d="M42.2399 5.76005C41.0953 4.67403 39.5777 4.0686 37.9999 4.0686C36.4221 4.0686 34.9044 4.67403 33.7599 5.76005L28.9199 10.58C28.0495 11.4604 27.4728 12.5883 27.2687 13.8093C27.0646 15.0303 27.2431 16.2845 27.7799 17.4L23.4799 21.7L19.4799 17.7C18.7583 16.9611 17.8582 16.4208 16.8666 16.1317C15.875 15.8426 14.8256 15.8143 13.8199 16.0496C12.8142 16.285 11.8863 16.7759 11.126 17.475C10.3656 18.1741 9.79865 19.0576 9.47988 20.04L4.15988 36.04C3.80634 37.0963 3.75379 38.2301 4.00811 39.3145C4.26244 40.3989 4.8136 41.3911 5.59988 42.18C6.17027 42.7676 6.8549 43.2322 7.61161 43.5452C8.36832 43.8582 9.18109 44.013 9.99988 44C10.6802 44.0128 11.3575 43.9044 11.9999 43.68L27.9999 38.36C28.9823 38.0413 29.8658 37.4743 30.5649 36.714C31.264 35.9536 31.755 35.0257 31.9903 34.02C32.2256 33.0143 32.1974 31.9649 31.9082 30.9733C31.6191 29.9818 31.0789 29.0816 30.3399 28.36L26.3399 24.36L30.6399 20.06C31.7554 20.5968 33.0096 20.7754 34.2306 20.5713C35.4516 20.3672 36.5796 19.7904 37.4599 18.92L42.2799 14.08C43.35 12.957 43.9437 11.4632 43.9362 9.91199C43.9287 8.36076 43.3208 6.87271 42.2399 5.76005ZM27.3999 31.26C27.6379 31.5025 27.8102 31.8017 27.9005 32.1292C27.9909 32.4568 27.9963 32.802 27.9162 33.1322C27.8362 33.4624 27.6733 33.7668 27.443 34.0166C27.2127 34.2664 26.9225 34.4535 26.5999 34.56L10.6399 40C10.2925 40.1062 9.92284 40.1157 9.57049 40.0276C9.21814 39.9395 8.89643 39.7571 8.63988 39.5C8.3828 39.2435 8.20042 38.9218 8.11234 38.5694C8.02425 38.2171 8.03377 37.8474 8.13988 37.5L13.4799 21.5C13.556 21.1469 13.7264 20.8209 13.9729 20.5568C14.2194 20.2927 14.5328 20.1003 14.8799 20C15.0328 19.9835 15.187 19.9835 15.3399 20C15.8646 20.0023 16.3674 20.2106 16.7399 20.58L20.7399 24.58L18.9999 26.3C18.8124 26.486 18.6636 26.7072 18.5621 26.9509C18.4606 27.1946 18.4083 27.456 18.4083 27.72C18.4083 27.9841 18.4606 28.2455 18.5621 28.4892C18.6636 28.7329 18.8124 28.9541 18.9999 29.14C19.1858 29.3275 19.407 29.4763 19.6507 29.5778C19.8944 29.6794 20.1559 29.7316 20.4199 29.7316C20.6839 29.7316 20.9453 29.6794 21.189 29.5778C21.4328 29.4763 21.654 29.3275 21.8399 29.14L23.5599 27.4L27.3999 31.26ZM39.3999 11.42L34.5799 16.24C34.2991 16.5153 33.9435 16.7016 33.5574 16.7758C33.1713 16.85 32.7719 16.8088 32.4091 16.6573C32.0463 16.5058 31.7362 16.2507 31.5176 15.9239C31.299 15.5972 31.1815 15.2132 31.1799 14.82C31.1821 14.2954 31.3904 13.7926 31.7599 13.42L36.5799 8.58005C36.7658 8.39259 36.987 8.2438 37.2307 8.14226C37.4744 8.04073 37.7359 7.98845 37.9999 7.98845C38.2639 7.98845 38.5253 8.04073 38.769 8.14226C39.0127 8.2438 39.234 8.39259 39.4199 8.58005C39.6073 8.76597 39.7561 8.98717 39.8577 9.23089C39.9592 9.47461 40.0115 9.73602 40.0115 10C40.0115 10.2641 39.9592 10.5255 39.8577 10.7692C39.7561 11.0129 39.6073 11.2341 39.4199 11.42H39.3999Z" fill="#101117"/>
</svg>
