<?xml version="1.0" encoding="UTF-8" standalone="no"?><!DOCTYPE svg PUBLIC "-//W3C//DTD SVG 1.1//EN" "http://www.w3.org/Graphics/SVG/1.1/DTD/svg11.dtd"><svg width="100%" height="100%" viewBox="0 0 200 200" version="1.1" xmlns="http://www.w3.org/2000/svg" xmlns:xlink="http://www.w3.org/1999/xlink" xml:space="preserve" xmlns:serif="http://www.serif.com/" style="fill-rule:evenodd;clip-rule:evenodd;stroke-linejoin:round;stroke-miterlimit:2;"><rect id="Artboard1" x="0" y="0" width="200" height="200" style="fill:none;"/><g id="Artboard11" serif:id="Artboard1"><path d="M16.667,103.788l-0,37.879c-0,2.009 0.798,3.936 2.219,5.356c1.42,1.421 3.347,2.219 5.356,2.219l7.576,0c0,6.028 2.395,11.809 6.657,16.071c4.262,4.262 10.043,6.657 16.07,6.657c6.028,-0 11.809,-2.395 16.071,-6.657c4.262,-4.262 6.657,-10.043 6.657,-16.071l45.454,0c0,6.028 2.395,11.809 6.657,16.071c4.262,4.262 10.043,6.657 16.071,6.657c6.027,-0 11.808,-2.395 16.07,-6.657c4.262,-4.262 6.657,-10.043 6.657,-16.071l7.576,0c2.009,0 3.936,-0.798 5.356,-2.219c1.421,-1.42 2.219,-3.347 2.219,-5.356l0,-90.909c0,-6.028 -2.394,-11.809 -6.656,-16.071c-4.263,-4.262 -10.043,-6.657 -16.071,-6.657l-68.182,0c-6.027,0 -11.808,2.395 -16.07,6.657c-4.263,4.262 -6.657,10.043 -6.657,16.071l-0,15.151l-15.152,0c-3.528,0 -7.007,0.822 -10.163,2.399c-3.156,1.578 -5.901,3.869 -8.018,6.692l-18.182,24.242c-0.222,0.33 -0.4,0.686 -0.53,1.061l-0.455,0.833c-0.334,0.845 -0.514,1.744 -0.53,2.652Zm121.212,45.454c-0,-1.498 0.444,-2.962 1.277,-4.208c0.832,-1.246 2.015,-2.217 3.399,-2.791c1.385,-0.573 2.908,-0.723 4.378,-0.431c1.469,0.293 2.819,1.014 3.878,2.074c1.06,1.059 1.781,2.409 2.074,3.878c0.292,1.47 0.142,2.993 -0.431,4.378c-0.574,1.384 -1.545,2.567 -2.791,3.399c-1.246,0.833 -2.71,1.277 -4.208,1.277c-2.01,0 -3.936,-0.798 -5.357,-2.219c-1.421,-1.421 -2.219,-3.347 -2.219,-5.357Zm-53.031,-98.484c0,-2.01 0.799,-3.937 2.219,-5.357c1.421,-1.421 3.348,-2.219 5.357,-2.219l68.182,-0c2.009,-0 3.936,0.798 5.357,2.219c1.421,1.42 2.219,3.347 2.219,5.357l-0,83.333l-5.909,-0c-2.131,-2.344 -4.727,-4.216 -7.623,-5.497c-2.896,-1.282 -6.028,-1.944 -9.195,-1.944c-3.168,0 -6.3,0.662 -9.196,1.944c-2.896,1.281 -5.492,3.153 -7.623,5.497l-43.788,-0l0,-83.333Zm-15.151,45.454l-30.303,0l9.091,-12.121c0.706,-0.941 1.621,-1.705 2.673,-2.231c1.051,-0.526 2.211,-0.799 3.387,-0.799l15.152,-0l-0,15.151Zm-22.727,53.03c-0,-1.498 0.444,-2.962 1.277,-4.208c0.832,-1.246 2.015,-2.217 3.399,-2.791c1.385,-0.573 2.908,-0.723 4.377,-0.431c1.47,0.293 2.82,1.014 3.879,2.074c1.06,1.059 1.781,2.409 2.074,3.878c0.292,1.47 0.142,2.993 -0.431,4.378c-0.574,1.384 -1.545,2.567 -2.791,3.399c-1.246,0.833 -2.71,1.277 -4.209,1.277c-2.009,0 -3.936,-0.798 -5.356,-2.219c-1.421,-1.421 -2.219,-3.347 -2.219,-5.357Zm-15.152,-37.878l37.879,-0l-0,21.06c-4.471,-3.996 -10.34,-6.063 -16.328,-5.751c-5.988,0.313 -11.61,2.979 -15.642,7.418l-5.909,-0l0,-22.727Z" style="fill:#101117;fill-rule:nonzero;"/></g></svg>