<svg width="48" height="48" viewBox="0 0 48 48" fill="none" xmlns="http://www.w3.org/2000/svg">
<path d="M2 25V35C2 35.5304 2.21071 36.0391 2.58579 36.4142C2.96086 36.7893 3.46957 37 4 37H6C6 38.5913 6.63214 40.1174 7.75736 41.2426C8.88258 42.3679 10.4087 43 12 43C13.5913 43 15.1174 42.3679 16.2426 41.2426C17.3679 40.1174 18 38.5913 18 37H30C30 38.5913 30.6321 40.1174 31.7574 41.2426C32.8826 42.3679 34.4087 43 36 43C37.5913 43 39.1174 42.3679 40.2426 41.2426C41.3679 40.1174 42 38.5913 42 37H44C44.5304 37 45.0391 36.7893 45.4142 36.4142C45.7893 36.0391 46 35.5304 46 35V11C46 9.4087 45.3679 7.88258 44.2426 6.75736C43.1174 5.63214 41.5913 5 40 5H22C20.4087 5 18.8826 5.63214 17.7574 6.75736C16.6321 7.88258 16 9.4087 16 11V15H12C11.0685 15 10.1499 15.2169 9.31672 15.6334C8.48359 16.05 7.75888 16.6548 7.2 17.4L2.4 23.8C2.3415 23.8869 2.29445 23.981 2.26 24.08L2.14 24.3C2.05173 24.523 2.00431 24.7602 2 25ZM34 37C34 36.6044 34.1173 36.2178 34.3371 35.8889C34.5568 35.56 34.8692 35.3036 35.2346 35.1522C35.6001 35.0009 36.0022 34.9613 36.3902 35.0384C36.7781 35.1156 37.1345 35.3061 37.4142 35.5858C37.6939 35.8655 37.8844 36.2219 37.9616 36.6098C38.0387 36.9978 37.9991 37.3999 37.8478 37.7654C37.6964 38.1308 37.44 38.4432 37.1111 38.6629C36.7822 38.8827 36.3956 39 36 39C35.4696 39 34.9609 38.7893 34.5858 38.4142C34.2107 38.0391 34 37.5304 34 37ZM20 11C20 10.4696 20.2107 9.96086 20.5858 9.58579C20.9609 9.21071 21.4696 9 22 9H40C40.5304 9 41.0391 9.21071 41.4142 9.58579C41.7893 9.96086 42 10.4696 42 11V33H40.44C39.8776 32.3813 39.1922 31.8869 38.4276 31.5487C37.663 31.2104 36.8361 31.0356 36 31.0356C35.1639 31.0356 34.337 31.2104 33.5724 31.5487C32.8078 31.8869 32.1224 32.3813 31.56 33H20V11ZM16 23H8L10.4 19.8C10.5863 19.5516 10.8279 19.35 11.1056 19.2111C11.3833 19.0723 11.6895 19 12 19H16V23ZM10 37C10 36.6044 10.1173 36.2178 10.3371 35.8889C10.5568 35.56 10.8692 35.3036 11.2346 35.1522C11.6001 35.0009 12.0022 34.9613 12.3902 35.0384C12.7781 35.1156 13.1345 35.3061 13.4142 35.5858C13.6939 35.8655 13.8844 36.2219 13.9616 36.6098C14.0387 36.9978 13.9991 37.3999 13.8478 37.7654C13.6964 38.1308 13.44 38.4432 13.1111 38.6629C12.7822 38.8827 12.3956 39 12 39C11.4696 39 10.9609 38.7893 10.5858 38.4142C10.2107 38.0391 10 37.5304 10 37ZM6 27H16V32.56C14.8197 31.5051 13.2703 30.9594 11.6894 31.0418C10.1085 31.1243 8.62425 31.8281 7.56 33H6V27Z" fill="#101117"/>
</svg>
