<?xml version="1.0" encoding="UTF-8" standalone="no"?><!DOCTYPE svg PUBLIC "-//W3C//DTD SVG 1.1//EN" "http://www.w3.org/Graphics/SVG/1.1/DTD/svg11.dtd"><svg width="100%" height="100%" viewBox="0 0 200 200" version="1.1" xmlns="http://www.w3.org/2000/svg" xmlns:xlink="http://www.w3.org/1999/xlink" xml:space="preserve" xmlns:serif="http://www.serif.com/" style="fill-rule:evenodd;clip-rule:evenodd;stroke-linejoin:round;stroke-miterlimit:2;"><rect id="Artboard1" x="0" y="0" width="200" height="200" style="fill:none;"/><g id="Artboard11" serif:id="Artboard1"><path d="M174.083,93.667c-0.041,-0.221 -0.041,-0.447 0,-0.667l0,-1.583c0,-1.917 -0.5,-3.834 -0.833,-5.75c-0.048,-0.444 -0.048,-0.89 -0,-1.334c-0.417,-2.083 -1,-4.083 -1.583,-6.083c-3.563,-11.502 -9.87,-21.965 -18.378,-30.487c-8.507,-8.522 -18.959,-14.847 -30.456,-18.43l-0.666,0c-1.834,-0.583 -3.75,-1.083 -5.667,-1.5l-1.5,0c-1.515,-0.303 -3.045,-0.526 -4.583,-0.666l-2,-0l-0,-2.167c-0,-2.21 -0.878,-4.33 -2.441,-5.893c-1.563,-1.562 -3.683,-2.44 -5.893,-2.44c-2.21,-0 -4.329,0.878 -5.892,2.44c-1.563,1.563 -2.441,3.683 -2.441,5.893l-0,0.5c-2.805,0.337 -5.587,0.838 -8.333,1.5c-1.751,0.327 -3.477,0.772 -5.167,1.333l-1.083,0c-2.084,0.667 -4,1.417 -6,2.167c-10.29,4.074 -19.542,10.392 -27.082,18.494c-7.539,8.102 -13.177,17.784 -16.502,28.339c-0.028,0.222 -0.028,0.446 0,0.667c-0.644,1.968 -1.172,3.971 -1.583,6l0,1.333c-0.444,2 -0.778,4.084 -1,6.25l0,1.667l0,0.417l0,6.333c0,2.21 0.878,4.33 2.441,5.893c1.563,1.562 3.682,2.44 5.892,2.44l58.334,0l-0,50c-0,2.21 -0.878,4.33 -2.441,5.893c-1.563,1.563 -3.683,2.441 -5.893,2.441c-2.21,-0 -4.329,-0.878 -5.892,-2.441c-1.563,-1.563 -2.441,-3.683 -2.441,-5.893c-0,-2.21 -0.878,-4.329 -2.441,-5.892c-1.562,-1.563 -3.682,-2.441 -5.892,-2.441c-2.21,0 -4.33,0.878 -5.893,2.441c-1.563,1.563 -2.441,3.682 -2.441,5.892c0,6.631 2.634,12.99 7.323,17.678c4.688,4.689 11.047,7.322 17.677,7.322c6.631,0 12.989,-2.633 17.678,-7.322c4.689,-4.688 7.322,-11.047 7.322,-17.678l0,-50l58.334,0c2.21,0 4.33,-0.878 5.892,-2.44c1.563,-1.563 2.441,-3.683 2.441,-5.893c-0.917,-2.167 -0.917,-4.25 -0.917,-6.333Zm-108.333,-2l-24.333,-0l-0,-0.917c-0,-0.333 -0,-2.333 0.666,-3.417c0.667,-1.083 0,-1.083 0,-1.583c0,-0.5 0.667,-2.667 1.084,-4l-0,-0.667c2.667,-7.557 6.863,-14.484 12.325,-20.348c5.463,-5.864 12.075,-10.54 19.425,-13.735c-5.584,14.256 -8.684,29.364 -9.167,44.667Zm16.667,-0c1.583,-32.584 12,-50 16.666,-50c4.667,-0 14.917,17.416 16.667,50l-33.333,-0Zm50,-0c-0.483,-15.303 -3.584,-30.411 -9.167,-44.667c7.251,3.298 13.749,8.045 19.095,13.95c5.346,5.905 9.426,12.842 11.988,20.383c0.505,1.446 0.922,2.921 1.25,4.417c-0.037,0.416 -0.037,0.834 0,1.25c0,1.167 0.5,2.417 0.667,3.583c0.167,1.167 -0,0.584 -0,0.917l-23.833,0.167Z" style="fill:#101117;fill-rule:nonzero;"/></g></svg>