<svg width="48" height="48" viewBox="0 0 48 48" fill="none" xmlns="http://www.w3.org/2000/svg">
<path d="M42.0002 22.48C41.9904 22.4271 41.9904 22.3729 42.0002 22.32V21.94C42.0002 21.48 41.8802 21.02 41.8002 20.56C41.7888 20.4536 41.7888 20.3464 41.8002 20.24C41.7002 19.74 41.5602 19.26 41.4202 18.78C40.5651 16.0195 39.0514 13.5083 37.0096 11.4631C34.9678 9.41783 32.4593 7.89985 29.7002 7.04H29.5402C29.1002 6.9 28.6402 6.78 28.1802 6.68H27.8202C27.4567 6.60713 27.0895 6.55372 26.7202 6.52H26.2402V6C26.2402 5.46957 26.0295 4.96086 25.6544 4.58579C25.2794 4.21071 24.7706 4 24.2402 4C23.7098 4 23.2011 4.21071 22.826 4.58579C22.4509 4.96086 22.2402 5.46957 22.2402 6V6.12C21.5671 6.20093 20.8993 6.32114 20.2402 6.48C19.8201 6.55841 19.4058 6.66533 19.0002 6.8H18.7402C18.2402 6.96 17.7802 7.14 17.3002 7.32C14.8306 8.29782 12.6102 9.81417 10.8007 11.7586C8.99122 13.703 7.6382 16.0266 6.84022 18.56C6.8333 18.6131 6.8333 18.6669 6.84022 18.72C6.68562 19.1922 6.55874 19.673 6.46022 20.16V20.48C6.35355 20.96 6.27355 21.46 6.22021 21.98C6.22021 21.98 6.22021 22.12 6.22021 22.2C6.22021 22.28 6.22021 22.32 6.22021 22.38C6.22021 22.44 6.22021 22.38 6.22021 22.48C6.22021 22.98 6.22021 23.48 6.22021 24C6.22021 24.5304 6.43093 25.0391 6.806 25.4142C7.18107 25.7893 7.68978 26 8.22022 26H22.2202V38C22.2202 38.5304 22.0095 39.0391 21.6344 39.4142C21.2594 39.7893 20.7506 40 20.2202 40C19.6898 40 19.1811 39.7893 18.806 39.4142C18.4309 39.0391 18.2202 38.5304 18.2202 38C18.2202 37.4696 18.0095 36.9609 17.6344 36.5858C17.2594 36.2107 16.7506 36 16.2202 36C15.6898 36 15.1811 36.2107 14.806 36.5858C14.4309 36.9609 14.2202 37.4696 14.2202 38C14.2202 39.5913 14.8524 41.1174 15.9776 42.2426C17.1028 43.3679 18.6289 44 20.2202 44C21.8115 44 23.3376 43.3679 24.4629 42.2426C25.5881 41.1174 26.2202 39.5913 26.2202 38V26H40.2202C40.7506 26 41.2594 25.7893 41.6344 25.4142C42.0095 25.0391 42.2202 24.5304 42.2202 24C42.0002 23.48 42.0002 22.98 42.0002 22.48ZM16.0002 22H10.1602C10.1602 22 10.1602 21.86 10.1602 21.78C10.1602 21.7 10.1602 21.22 10.3202 20.96C10.4802 20.7 10.3202 20.7 10.3202 20.58C10.3202 20.46 10.4802 19.94 10.5802 19.62V19.46C11.2203 17.6462 12.2273 15.9838 13.5383 14.5764C14.8493 13.169 16.4363 12.0469 18.2002 11.28C16.8602 14.7015 16.1161 18.3273 16.0002 22ZM20.0002 22C20.3802 14.18 22.8802 10 24.0002 10C25.1202 10 27.5802 14.18 28.0002 22H20.0002ZM32.0002 22C31.8843 18.3273 31.1402 14.7015 29.8002 11.28C31.5404 12.0714 33.1 13.2108 34.383 14.6279C35.666 16.0451 36.6452 17.71 37.2602 19.52C37.3813 19.867 37.4814 20.221 37.5602 20.58C37.5512 20.6798 37.5512 20.7802 37.5602 20.88C37.5602 21.16 37.6802 21.46 37.7202 21.74C37.7602 22.02 37.7202 21.88 37.7202 21.96L32.0002 22Z" fill="#101117"/>
</svg>
