<?xml version="1.0" encoding="UTF-8" standalone="no"?><!DOCTYPE svg PUBLIC "-//W3C//DTD SVG 1.1//EN" "http://www.w3.org/Graphics/SVG/1.1/DTD/svg11.dtd"><svg width="100%" height="100%" viewBox="0 0 200 200" version="1.1" xmlns="http://www.w3.org/2000/svg" xmlns:xlink="http://www.w3.org/1999/xlink" xml:space="preserve" xmlns:serif="http://www.serif.com/" style="fill-rule:evenodd;clip-rule:evenodd;stroke-linejoin:round;stroke-miterlimit:2;"><rect id="Artboard1" x="0" y="0" width="200" height="200" style="fill:none;"/><g id="Artboard11" serif:id="Artboard1"><path d="M171.43,80.156c1.043,0.001 2.075,-0.204 3.038,-0.603c0.963,-0.399 1.838,-0.984 2.575,-1.721c0.737,-0.737 1.322,-1.612 1.72,-2.575c0.399,-0.963 0.604,-1.995 0.604,-3.037l-0,-23.81c0.001,-1.666 -0.523,-3.289 -1.497,-4.64c-0.974,-1.351 -2.348,-2.361 -3.929,-2.886l-71.43,-23.81c-1.63,-0.543 -3.392,-0.543 -5.022,-0l-71.43,23.81c-1.581,0.525 -2.955,1.535 -3.929,2.886c-0.974,1.351 -1.498,2.974 -1.497,4.64l0,23.81c-0,1.042 0.205,2.074 0.604,3.037c0.398,0.963 0.983,1.838 1.72,2.575c0.737,0.737 1.612,1.322 2.575,1.721c0.963,0.399 1.995,0.604 3.038,0.603l7.936,0l0,57.02c-4.629,1.63 -8.64,4.654 -11.482,8.655c-2.842,4.001 -4.376,8.784 -4.391,13.692l0,15.874c-0,1.042 0.205,2.074 0.604,3.037c0.398,0.963 0.983,1.838 1.72,2.575c0.737,0.737 1.612,1.322 2.575,1.721c0.963,0.399 1.995,0.604 3.038,0.603l142.86,0c1.043,0.001 2.075,-0.204 3.038,-0.603c0.963,-0.399 1.838,-0.984 2.575,-1.721c0.737,-0.737 1.322,-1.612 1.72,-2.575c0.399,-0.963 0.604,-1.995 0.604,-3.037l-0,-15.874c-0.015,-4.908 -1.549,-9.691 -4.391,-13.692c-2.842,-4.001 -6.853,-7.025 -11.482,-8.655l-0,-57.02l7.936,0Zm-7.936,87.304l-126.988,-0l0,-7.937c0.003,-2.104 0.839,-4.122 2.327,-5.609c1.488,-1.489 3.506,-2.325 5.61,-2.327l111.114,-0c2.104,0.002 4.122,0.838 5.61,2.327c1.488,1.487 2.325,3.505 2.327,5.609l-0,7.937Zm-111.114,-31.747l-0,-55.557l15.873,0l0,55.557l-15.873,0Zm31.747,0l-0,-55.557l31.746,0l0,55.557l-31.746,0Zm47.62,0l-0,-55.557l15.873,0l0,55.557l-15.873,0Zm-95.241,-71.43l0,-10.153l63.494,-21.168l63.494,21.168l-0,10.153l-126.988,-0Z" style="fill:#101117;fill-rule:nonzero;"/></g></svg>