<svg width="48" height="48" viewBox="0 0 48 48" fill="none" xmlns="http://www.w3.org/2000/svg">
<path d="M38 4C37.4696 4 36.9609 4.21071 36.5858 4.58579C36.2107 4.96086 36 5.46957 36 6V16.92L34 18.26V6C34 5.46957 33.7893 4.96086 33.4142 4.58579C33.0391 4.21071 32.5304 4 32 4C31.4696 4 30.9609 4.21071 30.5858 4.58579C30.2107 4.96086 30 5.46957 30 6V18.26L28 16.92V6C28 5.46957 27.7893 4.96086 27.4142 4.58579C27.0391 4.21071 26.5304 4 26 4C25.4696 4 24.9609 4.21071 24.5858 4.58579C24.2107 4.96086 24 5.46957 24 6V18C24.0017 18.3294 24.0847 18.6533 24.2418 18.9429C24.3988 19.2325 24.6249 19.4788 24.9 19.66L30 23.08V42C30 42.5304 30.2107 43.0391 30.5858 43.4142C30.9609 43.7893 31.4696 44 32 44C32.5304 44 33.0391 43.7893 33.4142 43.4142C33.7893 43.0391 34 42.5304 34 42V23.08L39.1 19.66C39.3751 19.4788 39.6012 19.2325 39.7582 18.9429C39.9152 18.6533 39.9983 18.3294 40 18V6C40 5.46957 39.7893 4.96086 39.4142 4.58579C39.0391 4.21071 38.5304 4 38 4ZM18 4C15.3478 4 12.8043 5.05357 10.9289 6.92893C9.05357 8.8043 8 11.3478 8 14V26C8 26.5304 8.21071 27.0391 8.58579 27.4142C8.96086 27.7893 9.46957 28 10 28H16V42C16 42.5304 16.2107 43.0391 16.5858 43.4142C16.9609 43.7893 17.4696 44 18 44C18.5304 44 19.0391 43.7893 19.4142 43.4142C19.7893 43.0391 20 42.5304 20 42V6C20 5.46957 19.7893 4.96086 19.4142 4.58579C19.0391 4.21071 18.5304 4 18 4ZM16 24H12V14C11.9993 12.7587 12.3837 11.5477 13.1001 10.534C13.8165 9.52033 14.8297 8.75377 16 8.34V24Z" fill="#101117"/>
</svg>
