<?xml version="1.0" encoding="UTF-8" standalone="no"?><!DOCTYPE svg PUBLIC "-//W3C//DTD SVG 1.1//EN" "http://www.w3.org/Graphics/SVG/1.1/DTD/svg11.dtd"><svg width="100%" height="100%" viewBox="0 0 200 200" version="1.1" xmlns="http://www.w3.org/2000/svg" xmlns:xlink="http://www.w3.org/1999/xlink" xml:space="preserve" xmlns:serif="http://www.serif.com/" style="fill-rule:evenodd;clip-rule:evenodd;stroke-linejoin:round;stroke-miterlimit:2;"><rect id="Artboard1" x="0" y="0" width="200" height="200" style="fill:none;"/><g id="Artboard11" serif:id="Artboard1"><path d="M180.555,129.738l-37.588,-37.504c0.787,-3.831 1.177,-7.732 1.165,-11.643c-0.003,-10.722 -2.709,-21.27 -7.868,-30.669c-5.158,-9.4 -12.603,-17.347 -21.646,-23.108c-9.043,-5.761 -19.392,-9.149 -30.091,-9.851c-10.699,-0.702 -21.403,1.304 -31.121,5.833c-1.231,0.563 -2.306,1.417 -3.133,2.49c-0.826,1.072 -1.378,2.33 -1.607,3.664c-0.229,1.317 -0.136,2.67 0.269,3.944c0.405,1.274 1.112,2.431 2.059,3.374l36.174,36.091l-14.968,14.968l-36.091,-36.174c-0.951,-0.933 -2.112,-1.624 -3.385,-2.014c-1.274,-0.391 -2.622,-0.47 -3.933,-0.231c-1.326,0.221 -2.578,0.761 -3.65,1.571c-1.071,0.812 -1.931,1.87 -2.504,3.086c-4.544,9.75 -6.548,20.492 -5.827,31.225c0.722,10.733 4.147,21.109 9.956,30.163c5.809,9.054 13.814,16.492 23.27,21.621c9.455,5.13 20.055,7.784 30.812,7.717c3.911,0.012 7.812,-0.378 11.642,-1.165l37.505,37.588c0.773,0.78 1.692,1.398 2.706,1.82c1.013,0.422 2.1,0.64 3.198,0.64c1.098,-0 2.185,-0.218 3.198,-0.64c1.014,-0.422 1.933,-1.04 2.706,-1.82c0.78,-0.773 1.399,-1.693 1.821,-2.706c0.422,-1.014 0.639,-2.101 0.639,-3.198c0,-1.098 -0.217,-2.185 -0.639,-3.198c-0.422,-1.014 -1.041,-1.934 -1.821,-2.707l-40.747,-40.747c-1.019,-1.012 -2.281,-1.742 -3.666,-2.121c-1.384,-0.379 -2.843,-0.393 -4.234,-0.041c-4.015,1.075 -8.151,1.634 -12.308,1.663c-6.22,0.055 -12.389,-1.121 -18.152,-3.461c-5.763,-2.34 -11.006,-5.797 -15.428,-10.172c-4.421,-4.375 -7.933,-9.582 -10.334,-15.32c-2.4,-5.738 -3.642,-11.894 -3.652,-18.115c-0.011,-2.785 0.211,-5.567 0.665,-8.315l32.598,32.681c0.773,0.779 1.693,1.398 2.706,1.82c1.014,0.422 2.101,0.64 3.198,0.64c1.098,-0 2.185,-0.218 3.198,-0.64c1.014,-0.422 1.934,-1.041 2.706,-1.82l26.445,-26.694c1.499,-1.551 2.337,-3.623 2.337,-5.78c-0,-2.156 -0.838,-4.229 -2.337,-5.779l-32.349,-32.598c2.749,-0.449 5.531,-0.672 8.316,-0.665c12.491,0.022 24.462,4.999 33.287,13.839c8.824,8.84 13.781,20.821 13.781,33.311c-0.029,4.157 -0.588,8.293 -1.664,12.308c-0.352,1.391 -0.338,2.85 0.042,4.235c0.378,1.384 1.109,2.647 2.121,3.665l40.747,40.747c1.566,1.566 3.69,2.446 5.904,2.446c2.215,0 4.339,-0.88 5.905,-2.446c1.566,-1.565 2.445,-3.689 2.445,-5.904c0,-2.214 -0.879,-4.338 -2.445,-5.904l-0.333,-0Z" style="fill:#101117;fill-rule:nonzero;"/></g></svg>