<svg width="48" height="48" viewBox="0 0 48 48" fill="none" xmlns="http://www.w3.org/2000/svg">
<path d="M43.4199 31.16L34.3799 22.14C34.5691 21.2188 34.6629 20.2805 34.6599 19.34C34.6592 16.7613 34.0085 14.2244 32.7678 11.9638C31.5271 9.70315 29.7366 7.79177 27.5617 6.40629C25.3868 5.02082 22.8978 4.20598 20.3246 4.03709C17.7514 3.8682 15.1772 4.3507 12.8399 5.44001C12.5438 5.57529 12.2852 5.78081 12.0865 6.03873C11.8878 6.29665 11.7551 6.59916 11.6999 6.92001C11.6449 7.23678 11.6671 7.56215 11.7646 7.86852C11.8621 8.1749 12.032 8.45326 12.2599 8.68001L20.9599 17.36L17.3599 20.96L8.67991 12.26C8.45124 12.0356 8.17202 11.8694 7.86573 11.7755C7.55945 11.6815 7.23507 11.6625 6.91991 11.72C6.60107 11.7732 6.29988 11.9029 6.04212 12.0979C5.78436 12.293 5.57773 12.5476 5.43991 12.84C4.34696 15.185 3.86487 17.7684 4.03849 20.3497C4.21211 22.9311 5.0358 25.4266 6.43293 27.6042C7.83006 29.7817 9.75525 31.5705 12.0294 32.8041C14.3035 34.0378 16.8528 34.6762 19.4399 34.66C20.3804 34.663 21.3187 34.5692 22.2399 34.38L31.2599 43.42C31.4458 43.6075 31.667 43.7563 31.9108 43.8578C32.1545 43.9593 32.4159 44.0116 32.6799 44.0116C32.9439 44.0116 33.2053 43.9593 33.4491 43.8578C33.6928 43.7563 33.914 43.6075 34.0999 43.42C34.2874 43.2341 34.4362 43.0129 34.5377 42.7692C34.6392 42.5254 34.6915 42.264 34.6915 42C34.6915 41.736 34.6392 41.4746 34.5377 41.2309C34.4362 40.9871 34.2874 40.7659 34.0999 40.58L24.2999 30.78C24.055 30.5367 23.7513 30.361 23.4184 30.2699C23.0854 30.1787 22.7346 30.1754 22.3999 30.26C21.4343 30.5186 20.4396 30.653 19.4399 30.66C17.944 30.6732 16.4603 30.3903 15.0742 29.8276C13.6881 29.2648 12.4271 28.4334 11.3637 27.3812C10.3003 26.329 9.45565 25.0768 8.87834 23.6967C8.30103 22.3166 8.00249 20.836 7.99991 19.34C7.99732 18.67 8.05084 18.001 8.15991 17.34L15.9999 25.2C16.1858 25.3875 16.407 25.5363 16.6508 25.6378C16.8945 25.7393 17.1559 25.7916 17.4199 25.7916C17.6839 25.7916 17.9453 25.7393 18.1891 25.6378C18.4328 25.5363 18.654 25.3875 18.8399 25.2L25.1999 18.78C25.5604 18.4071 25.7619 17.9087 25.7619 17.39C25.7619 16.8713 25.5604 16.3729 25.1999 16L17.4199 8.16001C18.0811 8.05203 18.75 7.99852 19.4199 8.00001C22.424 8.00531 25.3032 9.20239 27.4256 11.3285C29.5479 13.4546 30.7399 16.3359 30.7399 19.34C30.7329 20.3397 30.5985 21.3344 30.3399 22.3C30.2552 22.6347 30.2586 22.9855 30.3498 23.3185C30.4409 23.6514 30.6166 23.9551 30.8599 24.2L40.6599 34C41.0365 34.3766 41.5473 34.5882 42.0799 34.5882C42.6125 34.5882 43.1233 34.3766 43.4999 34C43.8765 33.6234 44.0881 33.1126 44.0881 32.58C44.0881 32.0474 43.8765 31.5366 43.4999 31.16H43.4199Z" fill="#101117"/>
</svg>
